G04 #@! TF.GenerationSoftware,KiCad,Pcbnew,8.0.3-8.0.3-0~ubuntu22.04.1*
G04 #@! TF.CreationDate,2024-06-26T14:32:35-07:00*
G04 #@! TF.ProjectId,pifire-relay-pwm-module-SSR-alt,70696669-7265-42d7-9265-6c61792d7077,rev?*
G04 #@! TF.SameCoordinates,Original*
G04 #@! TF.FileFunction,Copper,L1,Top*
G04 #@! TF.FilePolarity,Positive*
%FSLAX46Y46*%
G04 Gerber Fmt 4.6, Leading zero omitted, Abs format (unit mm)*
G04 Created by KiCad (PCBNEW 8.0.3-8.0.3-0~ubuntu22.04.1) date 2024-06-26 14:32:35*
%MOMM*%
%LPD*%
G01*
G04 APERTURE LIST*
G04 Aperture macros list*
%AMRoundRect*
0 Rectangle with rounded corners*
0 $1 Rounding radius*
0 $2 $3 $4 $5 $6 $7 $8 $9 X,Y pos of 4 corners*
0 Add a 4 corners polygon primitive as box body*
4,1,4,$2,$3,$4,$5,$6,$7,$8,$9,$2,$3,0*
0 Add four circle primitives for the rounded corners*
1,1,$1+$1,$2,$3*
1,1,$1+$1,$4,$5*
1,1,$1+$1,$6,$7*
1,1,$1+$1,$8,$9*
0 Add four rect primitives between the rounded corners*
20,1,$1+$1,$2,$3,$4,$5,0*
20,1,$1+$1,$4,$5,$6,$7,0*
20,1,$1+$1,$6,$7,$8,$9,0*
20,1,$1+$1,$8,$9,$2,$3,0*%
G04 Aperture macros list end*
G04 #@! TA.AperFunction,ComponentPad*
%ADD10R,1.508000X1.508000*%
G04 #@! TD*
G04 #@! TA.AperFunction,ComponentPad*
%ADD11C,1.508000*%
G04 #@! TD*
G04 #@! TA.AperFunction,ComponentPad*
%ADD12C,1.600000*%
G04 #@! TD*
G04 #@! TA.AperFunction,ComponentPad*
%ADD13O,1.600000X1.600000*%
G04 #@! TD*
G04 #@! TA.AperFunction,ComponentPad*
%ADD14R,1.500000X1.050000*%
G04 #@! TD*
G04 #@! TA.AperFunction,ComponentPad*
%ADD15O,1.500000X1.050000*%
G04 #@! TD*
G04 #@! TA.AperFunction,ComponentPad*
%ADD16R,2.000000X1.905000*%
G04 #@! TD*
G04 #@! TA.AperFunction,ComponentPad*
%ADD17O,2.000000X1.905000*%
G04 #@! TD*
G04 #@! TA.AperFunction,ComponentPad*
%ADD18R,1.730000X2.030000*%
G04 #@! TD*
G04 #@! TA.AperFunction,ComponentPad*
%ADD19O,1.730000X2.030000*%
G04 #@! TD*
G04 #@! TA.AperFunction,ComponentPad*
%ADD20R,1.050000X1.500000*%
G04 #@! TD*
G04 #@! TA.AperFunction,ComponentPad*
%ADD21O,1.050000X1.500000*%
G04 #@! TD*
G04 #@! TA.AperFunction,ComponentPad*
%ADD22R,2.200000X2.200000*%
G04 #@! TD*
G04 #@! TA.AperFunction,ComponentPad*
%ADD23O,2.200000X2.200000*%
G04 #@! TD*
G04 #@! TA.AperFunction,ComponentPad*
%ADD24RoundRect,0.250000X0.725000X-0.600000X0.725000X0.600000X-0.725000X0.600000X-0.725000X-0.600000X0*%
G04 #@! TD*
G04 #@! TA.AperFunction,ComponentPad*
%ADD25O,1.950000X1.700000*%
G04 #@! TD*
G04 #@! TA.AperFunction,ComponentPad*
%ADD26R,3.000000X3.000000*%
G04 #@! TD*
G04 #@! TA.AperFunction,ComponentPad*
%ADD27C,3.000000*%
G04 #@! TD*
G04 #@! TA.AperFunction,ComponentPad*
%ADD28R,1.600000X1.600000*%
G04 #@! TD*
G04 #@! TA.AperFunction,ViaPad*
%ADD29C,0.600000*%
G04 #@! TD*
G04 #@! TA.AperFunction,Conductor*
%ADD30C,0.200000*%
G04 #@! TD*
G04 #@! TA.AperFunction,Conductor*
%ADD31C,0.400000*%
G04 #@! TD*
G04 #@! TA.AperFunction,Conductor*
%ADD32C,3.000000*%
G04 #@! TD*
G04 APERTURE END LIST*
D10*
X68660000Y-68250000D03*
D11*
X61040000Y-68250000D03*
X50880000Y-68250000D03*
X48340000Y-68250000D03*
D12*
X53940000Y-40000000D03*
D13*
X61560000Y-40000000D03*
D14*
X42332500Y-67852500D03*
D15*
X42332500Y-66582500D03*
X42332500Y-65312500D03*
D10*
X68660000Y-47750000D03*
D11*
X61040000Y-47750000D03*
X50880000Y-47750000D03*
X48340000Y-47750000D03*
D16*
X86000000Y-37420000D03*
D17*
X86000000Y-39960000D03*
X86000000Y-42500000D03*
D18*
X67880000Y-28750000D03*
D19*
X70420000Y-28750000D03*
X72960000Y-28750000D03*
X75500000Y-28750000D03*
D12*
X48500000Y-36310000D03*
D13*
X48500000Y-28690000D03*
D12*
X35750000Y-51380000D03*
D13*
X35750000Y-59000000D03*
D20*
X40000000Y-36000000D03*
D21*
X38730000Y-36000000D03*
X37460000Y-36000000D03*
D12*
X42500000Y-30750000D03*
D13*
X34880000Y-30750000D03*
D22*
X63560000Y-29000000D03*
D23*
X55940000Y-29000000D03*
D24*
X27725000Y-60250000D03*
D25*
X27725000Y-57750000D03*
X27725000Y-55250000D03*
X27725000Y-52750000D03*
X27725000Y-50250000D03*
X27725000Y-47750000D03*
D26*
X86000000Y-60080000D03*
D27*
X86000000Y-55000000D03*
X86000000Y-49920000D03*
D10*
X68660000Y-58000000D03*
D11*
X61040000Y-58000000D03*
X50880000Y-58000000D03*
X48340000Y-58000000D03*
D24*
X27750000Y-40750000D03*
D25*
X27750000Y-38250000D03*
X27750000Y-35750000D03*
D12*
X35750000Y-61272500D03*
D13*
X35750000Y-68892500D03*
D12*
X45250000Y-36310000D03*
D13*
X45250000Y-28690000D03*
D20*
X79460000Y-39500000D03*
D21*
X80730000Y-39500000D03*
X82000000Y-39500000D03*
D14*
X42332500Y-57500000D03*
D15*
X42332500Y-56230000D03*
X42332500Y-54960000D03*
D12*
X80500000Y-34060000D03*
D13*
X80500000Y-26440000D03*
D12*
X35750000Y-40690000D03*
D13*
X35750000Y-48310000D03*
D12*
X63750000Y-36000000D03*
D13*
X56130000Y-36000000D03*
D28*
X72500000Y-36750000D03*
D12*
X72500000Y-39250000D03*
X51750000Y-28690000D03*
D13*
X51750000Y-36310000D03*
D14*
X42332500Y-47290000D03*
D15*
X42332500Y-46020000D03*
X42332500Y-44750000D03*
D29*
X55750000Y-40000000D03*
D30*
X68660000Y-58000000D02*
X68660000Y-57250000D01*
D31*
X80500000Y-35000000D02*
X80500000Y-34060000D01*
X50880000Y-44370000D02*
X53250000Y-42000000D01*
X48427500Y-63500000D02*
X50880000Y-65952500D01*
X50880000Y-65952500D02*
X50880000Y-68250000D01*
X55750000Y-41250000D02*
X55750000Y-40000000D01*
X50880000Y-61047500D02*
X50880000Y-58000000D01*
X48427500Y-63500000D02*
X50880000Y-61047500D01*
X50880000Y-47750000D02*
X50880000Y-44370000D01*
X53250000Y-42000000D02*
X55000000Y-42000000D01*
X34250000Y-63500000D02*
X31000000Y-60250000D01*
X73500000Y-42000000D02*
X80500000Y-35000000D01*
X55000000Y-42000000D02*
X73500000Y-42000000D01*
X55000000Y-42000000D02*
X55750000Y-41250000D01*
X31000000Y-60250000D02*
X27725000Y-60250000D01*
X48427500Y-63500000D02*
X34250000Y-63500000D01*
X50880000Y-58000000D02*
X50880000Y-47750000D01*
D32*
X61040000Y-47750000D02*
X64540000Y-51250000D01*
X72500000Y-48750000D02*
X84830000Y-48750000D01*
X84830000Y-48750000D02*
X86000000Y-49920000D01*
X64540000Y-51250000D02*
X70000000Y-51250000D01*
X70000000Y-51250000D02*
X72500000Y-48750000D01*
D30*
X40000000Y-36000000D02*
X45250000Y-30750000D01*
X45250000Y-30750000D02*
X45250000Y-28690000D01*
D31*
X31500000Y-40750000D02*
X27750000Y-40750000D01*
X68340000Y-36750000D02*
X72500000Y-36750000D01*
X52750000Y-38250000D02*
X66840000Y-38250000D01*
X66840000Y-38250000D02*
X68340000Y-36750000D01*
X45250000Y-39000000D02*
X33250000Y-39000000D01*
X52000000Y-39000000D02*
X52750000Y-38250000D01*
X45250000Y-39000000D02*
X52000000Y-39000000D01*
X33250000Y-39000000D02*
X31500000Y-40750000D01*
X45250000Y-36310000D02*
X45250000Y-39000000D01*
D32*
X61040000Y-58000000D02*
X63790000Y-60750000D01*
X64750000Y-60750000D02*
X66250000Y-62250000D01*
X75000000Y-62250000D02*
X82250000Y-55000000D01*
X82250000Y-55000000D02*
X86000000Y-55000000D01*
X66250000Y-62250000D02*
X75000000Y-62250000D01*
X63790000Y-60750000D02*
X64750000Y-60750000D01*
D30*
X38730000Y-34520000D02*
X38730000Y-36000000D01*
X42500000Y-30750000D02*
X38730000Y-34520000D01*
X82500000Y-34250000D02*
X82500000Y-31750000D01*
X79460000Y-37290000D02*
X82500000Y-34250000D01*
X79460000Y-39500000D02*
X79460000Y-37290000D01*
X75500000Y-28750000D02*
X77750000Y-28750000D01*
X82500000Y-31750000D02*
X79500000Y-28750000D01*
X79500000Y-28750000D02*
X77750000Y-28750000D01*
X77750000Y-28750000D02*
X78190000Y-28750000D01*
X78190000Y-28750000D02*
X80500000Y-26440000D01*
X48500000Y-28690000D02*
X51750000Y-28690000D01*
X66250000Y-27000000D02*
X71210000Y-27000000D01*
X64250000Y-29000000D02*
X66250000Y-27000000D01*
X63560000Y-29000000D02*
X64250000Y-29000000D01*
X71210000Y-27000000D02*
X72960000Y-28750000D01*
G04 #@! TA.AperFunction,Conductor*
G36*
X79399065Y-25520185D02*
G01*
X79444820Y-25572989D01*
X79454764Y-25642147D01*
X79433601Y-25695623D01*
X79369432Y-25787265D01*
X79369431Y-25787267D01*
X79273261Y-25993502D01*
X79273258Y-25993511D01*
X79214366Y-26213302D01*
X79214364Y-26213313D01*
X79194532Y-26439998D01*
X79194532Y-26440001D01*
X79214364Y-26666686D01*
X79214366Y-26666697D01*
X79240152Y-26762931D01*
X79238489Y-26832781D01*
X79208058Y-26882705D01*
X77977584Y-28113181D01*
X77916261Y-28146666D01*
X77889903Y-28149500D01*
X76878828Y-28149500D01*
X76811789Y-28129815D01*
X76768434Y-28079781D01*
X76767670Y-28080171D01*
X76766096Y-28077083D01*
X76766034Y-28077011D01*
X76765881Y-28076661D01*
X76762393Y-28069815D01*
X76667880Y-27884322D01*
X76541545Y-27710437D01*
X76389563Y-27558455D01*
X76215678Y-27432120D01*
X76181707Y-27414811D01*
X76024170Y-27334541D01*
X76024167Y-27334540D01*
X75819757Y-27268124D01*
X75667105Y-27243946D01*
X75607467Y-27234500D01*
X75392533Y-27234500D01*
X75332895Y-27243946D01*
X75180243Y-27268124D01*
X75180240Y-27268124D01*
X74975832Y-27334540D01*
X74975829Y-27334541D01*
X74784321Y-27432120D01*
X74685114Y-27504198D01*
X74610437Y-27558455D01*
X74610435Y-27558457D01*
X74610434Y-27558457D01*
X74458457Y-27710434D01*
X74458457Y-27710435D01*
X74458455Y-27710437D01*
X74396352Y-27795915D01*
X74330318Y-27886802D01*
X74274988Y-27929467D01*
X74205374Y-27935446D01*
X74143579Y-27902840D01*
X74129682Y-27886802D01*
X74063648Y-27795915D01*
X74001545Y-27710437D01*
X73849563Y-27558455D01*
X73675678Y-27432120D01*
X73545725Y-27365905D01*
X73494929Y-27317930D01*
X73478134Y-27250109D01*
X73500672Y-27183974D01*
X73514333Y-27167744D01*
X73581789Y-27100289D01*
X73669394Y-26969179D01*
X73729737Y-26823497D01*
X73760500Y-26668842D01*
X73760500Y-26511158D01*
X73760500Y-26511155D01*
X73760499Y-26511153D01*
X73752186Y-26469360D01*
X73729737Y-26356503D01*
X73729735Y-26356498D01*
X73669397Y-26210827D01*
X73669390Y-26210814D01*
X73581789Y-26079711D01*
X73581786Y-26079707D01*
X73470292Y-25968213D01*
X73470288Y-25968210D01*
X73339185Y-25880609D01*
X73339172Y-25880602D01*
X73193501Y-25820264D01*
X73193489Y-25820261D01*
X73038845Y-25789500D01*
X73038842Y-25789500D01*
X72881158Y-25789500D01*
X72881155Y-25789500D01*
X72726510Y-25820261D01*
X72726498Y-25820264D01*
X72580827Y-25880602D01*
X72580814Y-25880609D01*
X72449711Y-25968210D01*
X72449707Y-25968213D01*
X72338213Y-26079707D01*
X72338210Y-26079711D01*
X72250609Y-26210814D01*
X72250602Y-26210827D01*
X72190264Y-26356498D01*
X72190261Y-26356510D01*
X72159500Y-26511153D01*
X72159500Y-26668846D01*
X72186875Y-26806470D01*
X72180648Y-26876062D01*
X72137785Y-26931239D01*
X72071895Y-26954483D01*
X72003898Y-26938415D01*
X71977577Y-26918342D01*
X71697590Y-26638355D01*
X71697588Y-26638352D01*
X71578717Y-26519481D01*
X71578716Y-26519480D01*
X71491904Y-26469360D01*
X71491904Y-26469359D01*
X71491900Y-26469358D01*
X71441785Y-26440423D01*
X71289057Y-26399499D01*
X71130943Y-26399499D01*
X71123347Y-26399499D01*
X71123331Y-26399500D01*
X66329057Y-26399500D01*
X66170943Y-26399500D01*
X66018215Y-26440423D01*
X66018214Y-26440423D01*
X66018212Y-26440424D01*
X66018209Y-26440425D01*
X65968096Y-26469359D01*
X65968095Y-26469360D01*
X65924689Y-26494420D01*
X65881285Y-26519479D01*
X65881282Y-26519481D01*
X65769478Y-26631286D01*
X64989437Y-27411326D01*
X64928114Y-27444811D01*
X64858423Y-27439827D01*
X64767482Y-27405908D01*
X64767483Y-27405908D01*
X64707883Y-27399501D01*
X64707881Y-27399500D01*
X64707873Y-27399500D01*
X64707864Y-27399500D01*
X62412129Y-27399500D01*
X62412123Y-27399501D01*
X62352516Y-27405908D01*
X62217671Y-27456202D01*
X62217664Y-27456206D01*
X62102455Y-27542452D01*
X62102452Y-27542455D01*
X62016206Y-27657664D01*
X62016202Y-27657671D01*
X61965908Y-27792517D01*
X61959501Y-27852116D01*
X61959500Y-27852135D01*
X61959500Y-30147870D01*
X61959501Y-30147876D01*
X61965908Y-30207483D01*
X62016202Y-30342328D01*
X62016206Y-30342335D01*
X62102452Y-30457544D01*
X62102455Y-30457547D01*
X62217664Y-30543793D01*
X62217671Y-30543797D01*
X62352517Y-30594091D01*
X62352516Y-30594091D01*
X62359444Y-30594835D01*
X62412127Y-30600500D01*
X64707872Y-30600499D01*
X64767483Y-30594091D01*
X64902331Y-30543796D01*
X65017546Y-30457546D01*
X65103796Y-30342331D01*
X65154091Y-30207483D01*
X65160500Y-30147873D01*
X65160499Y-28990095D01*
X65180184Y-28923057D01*
X65196813Y-28902420D01*
X66303320Y-27795913D01*
X66364642Y-27762430D01*
X66434334Y-27767414D01*
X66490267Y-27809286D01*
X66514684Y-27874750D01*
X66515000Y-27883596D01*
X66515000Y-28500000D01*
X67435440Y-28500000D01*
X67404755Y-28553147D01*
X67370000Y-28682857D01*
X67370000Y-28817143D01*
X67404755Y-28946853D01*
X67435440Y-29000000D01*
X66515000Y-29000000D01*
X66515000Y-29812844D01*
X66521401Y-29872372D01*
X66521403Y-29872379D01*
X66571645Y-30007086D01*
X66571649Y-30007093D01*
X66657809Y-30122187D01*
X66657812Y-30122190D01*
X66772906Y-30208350D01*
X66772913Y-30208354D01*
X66907620Y-30258596D01*
X66907627Y-30258598D01*
X66967155Y-30264999D01*
X66967172Y-30265000D01*
X67630000Y-30265000D01*
X67630000Y-29194560D01*
X67683147Y-29225245D01*
X67812857Y-29260000D01*
X67947143Y-29260000D01*
X68076853Y-29225245D01*
X68130000Y-29194560D01*
X68130000Y-30265000D01*
X68792828Y-30265000D01*
X68792844Y-30264999D01*
X68852372Y-30258598D01*
X68852379Y-30258596D01*
X68987086Y-30208354D01*
X68987093Y-30208350D01*
X69102187Y-30122190D01*
X69102190Y-30122187D01*
X69188350Y-30007093D01*
X69188355Y-30007084D01*
X69231659Y-29890979D01*
X69273529Y-29835045D01*
X69338994Y-29810627D01*
X69407267Y-29825478D01*
X69435522Y-29846630D01*
X69530437Y-29941545D01*
X69704322Y-30067880D01*
X69798251Y-30115739D01*
X69895829Y-30165458D01*
X69895832Y-30165459D01*
X70027839Y-30208350D01*
X70100245Y-30231876D01*
X70312533Y-30265500D01*
X70312534Y-30265500D01*
X70527466Y-30265500D01*
X70527467Y-30265500D01*
X70739755Y-30231876D01*
X70739758Y-30231875D01*
X70739759Y-30231875D01*
X70944167Y-30165459D01*
X70944170Y-30165458D01*
X70978663Y-30147883D01*
X71135678Y-30067880D01*
X71309563Y-29941545D01*
X71461545Y-29789563D01*
X71587880Y-29615678D01*
X71587879Y-29615678D01*
X71589682Y-29613198D01*
X71645012Y-29570532D01*
X71714625Y-29564553D01*
X71776420Y-29597159D01*
X71790318Y-29613198D01*
X71792120Y-29615678D01*
X71918455Y-29789563D01*
X72070437Y-29941545D01*
X72244322Y-30067880D01*
X72338251Y-30115739D01*
X72435829Y-30165458D01*
X72435832Y-30165459D01*
X72567839Y-30208350D01*
X72640245Y-30231876D01*
X72852533Y-30265500D01*
X72852534Y-30265500D01*
X73067466Y-30265500D01*
X73067467Y-30265500D01*
X73279755Y-30231876D01*
X73279758Y-30231875D01*
X73279759Y-30231875D01*
X73484167Y-30165459D01*
X73484170Y-30165458D01*
X73518663Y-30147883D01*
X73675678Y-30067880D01*
X73849563Y-29941545D01*
X74001545Y-29789563D01*
X74127880Y-29615678D01*
X74127879Y-29615678D01*
X74129682Y-29613198D01*
X74185012Y-29570532D01*
X74254625Y-29564553D01*
X74316420Y-29597159D01*
X74330318Y-29613198D01*
X74332120Y-29615678D01*
X74458455Y-29789563D01*
X74610437Y-29941545D01*
X74784322Y-30067880D01*
X74878251Y-30115739D01*
X74975829Y-30165458D01*
X74975832Y-30165459D01*
X75107839Y-30208350D01*
X75180245Y-30231876D01*
X75392533Y-30265500D01*
X75392534Y-30265500D01*
X75607466Y-30265500D01*
X75607467Y-30265500D01*
X75819755Y-30231876D01*
X75819758Y-30231875D01*
X75819759Y-30231875D01*
X76024167Y-30165459D01*
X76024170Y-30165458D01*
X76058663Y-30147883D01*
X76215678Y-30067880D01*
X76389563Y-29941545D01*
X76541545Y-29789563D01*
X76667880Y-29615678D01*
X76765458Y-29424170D01*
X76765457Y-29424170D01*
X76767670Y-29419829D01*
X76769377Y-29420698D01*
X76808125Y-29372632D01*
X76874423Y-29350578D01*
X76878828Y-29350500D01*
X77670943Y-29350500D01*
X78103331Y-29350500D01*
X78103347Y-29350501D01*
X78110943Y-29350501D01*
X78276653Y-29350501D01*
X78276669Y-29350500D01*
X79199903Y-29350500D01*
X79266942Y-29370185D01*
X79287584Y-29386819D01*
X81863181Y-31962416D01*
X81896666Y-32023739D01*
X81899500Y-32050097D01*
X81899500Y-33424664D01*
X81879815Y-33491703D01*
X81827011Y-33537458D01*
X81757853Y-33547402D01*
X81694297Y-33518377D01*
X81663118Y-33477069D01*
X81630568Y-33407267D01*
X81630567Y-33407265D01*
X81500045Y-33220858D01*
X81339141Y-33059954D01*
X81152734Y-32929432D01*
X81152732Y-32929431D01*
X80946497Y-32833261D01*
X80946488Y-32833258D01*
X80726697Y-32774366D01*
X80726693Y-32774365D01*
X80726692Y-32774365D01*
X80726691Y-32774364D01*
X80726686Y-32774364D01*
X80500002Y-32754532D01*
X80499998Y-32754532D01*
X80273313Y-32774364D01*
X80273302Y-32774366D01*
X80053511Y-32833258D01*
X80053502Y-32833261D01*
X79847267Y-32929431D01*
X79847265Y-32929432D01*
X79660858Y-33059954D01*
X79499954Y-33220858D01*
X79369432Y-33407265D01*
X79369431Y-33407267D01*
X79273261Y-33613502D01*
X79273258Y-33613511D01*
X79214366Y-33833302D01*
X79214364Y-33833313D01*
X79194532Y-34059998D01*
X79194532Y-34060001D01*
X79214364Y-34286686D01*
X79214366Y-34286697D01*
X79273258Y-34506488D01*
X79273261Y-34506497D01*
X79369431Y-34712732D01*
X79369432Y-34712734D01*
X79485678Y-34878753D01*
X79508006Y-34944960D01*
X79490994Y-35012727D01*
X79471784Y-35037557D01*
X73246162Y-41263181D01*
X73184839Y-41296666D01*
X73158481Y-41299500D01*
X62364752Y-41299500D01*
X62297713Y-41279815D01*
X62251958Y-41227011D01*
X62242014Y-41157853D01*
X62271039Y-41094297D01*
X62293629Y-41073925D01*
X62399139Y-41000047D01*
X62560047Y-40839139D01*
X62690568Y-40652734D01*
X62786739Y-40446496D01*
X62845635Y-40226692D01*
X62865468Y-40000000D01*
X62865223Y-39997204D01*
X62851964Y-39845646D01*
X62845635Y-39773308D01*
X62786739Y-39553504D01*
X62690568Y-39347266D01*
X62578051Y-39186573D01*
X62560043Y-39160855D01*
X62556566Y-39156711D01*
X62557810Y-39155666D01*
X62527883Y-39100858D01*
X62532867Y-39031166D01*
X62574739Y-38975233D01*
X62640203Y-38950816D01*
X62649049Y-38950500D01*
X66908996Y-38950500D01*
X67012455Y-38929920D01*
X67044328Y-38923580D01*
X67109833Y-38896447D01*
X67171807Y-38870777D01*
X67171808Y-38870776D01*
X67171811Y-38870775D01*
X67286543Y-38794114D01*
X68593837Y-37486818D01*
X68655160Y-37453334D01*
X68681518Y-37450500D01*
X71075501Y-37450500D01*
X71142540Y-37470185D01*
X71188295Y-37522989D01*
X71199501Y-37574500D01*
X71199501Y-37597876D01*
X71205908Y-37657483D01*
X71256202Y-37792328D01*
X71256206Y-37792335D01*
X71342452Y-37907544D01*
X71342455Y-37907547D01*
X71457664Y-37993793D01*
X71457671Y-37993797D01*
X71502618Y-38010561D01*
X71592517Y-38044091D01*
X71652127Y-38050500D01*
X71652153Y-38050499D01*
X71655453Y-38050678D01*
X71655372Y-38052183D01*
X71716672Y-38070112D01*
X71762483Y-38122867D01*
X71770016Y-38166464D01*
X72453553Y-38850000D01*
X72447339Y-38850000D01*
X72345606Y-38877259D01*
X72254394Y-38929920D01*
X72179920Y-39004394D01*
X72127259Y-39095606D01*
X72100000Y-39197339D01*
X72100000Y-39203552D01*
X71420974Y-38524526D01*
X71420973Y-38524526D01*
X71369868Y-38597512D01*
X71369866Y-38597516D01*
X71273734Y-38803673D01*
X71273730Y-38803682D01*
X71214860Y-39023389D01*
X71214858Y-39023400D01*
X71195034Y-39249997D01*
X71195034Y-39250000D01*
X71214858Y-39476599D01*
X71214860Y-39476610D01*
X71273730Y-39696317D01*
X71273735Y-39696331D01*
X71369863Y-39902478D01*
X71420974Y-39975472D01*
X72100000Y-39296446D01*
X72100000Y-39302661D01*
X72127259Y-39404394D01*
X72179920Y-39495606D01*
X72254394Y-39570080D01*
X72345606Y-39622741D01*
X72447339Y-39650000D01*
X72453553Y-39650000D01*
X71774526Y-40329025D01*
X71847513Y-40380132D01*
X71847521Y-40380136D01*
X72053668Y-40476264D01*
X72053682Y-40476269D01*
X72273389Y-40535139D01*
X72273400Y-40535141D01*
X72499998Y-40554966D01*
X72500002Y-40554966D01*
X72726599Y-40535141D01*
X72726610Y-40535139D01*
X72946317Y-40476269D01*
X72946331Y-40476264D01*
X73152478Y-40380136D01*
X73225471Y-40329024D01*
X72546447Y-39650000D01*
X72552661Y-39650000D01*
X72654394Y-39622741D01*
X72745606Y-39570080D01*
X72820080Y-39495606D01*
X72872741Y-39404394D01*
X72900000Y-39302661D01*
X72900000Y-39296447D01*
X73579024Y-39975471D01*
X73630136Y-39902478D01*
X73726264Y-39696331D01*
X73726269Y-39696317D01*
X73785139Y-39476610D01*
X73785141Y-39476599D01*
X73804966Y-39250000D01*
X73804966Y-39249997D01*
X73785141Y-39023400D01*
X73785139Y-39023389D01*
X73726269Y-38803682D01*
X73726264Y-38803668D01*
X73630136Y-38597521D01*
X73630132Y-38597513D01*
X73579025Y-38524526D01*
X72900000Y-39203551D01*
X72900000Y-39197339D01*
X72872741Y-39095606D01*
X72820080Y-39004394D01*
X72745606Y-38929920D01*
X72654394Y-38877259D01*
X72552661Y-38850000D01*
X72546448Y-38850000D01*
X73230645Y-38165801D01*
X73240492Y-38116807D01*
X73289107Y-38066624D01*
X73344633Y-38051981D01*
X73344576Y-38050900D01*
X73344571Y-38050854D01*
X73344573Y-38050853D01*
X73344564Y-38050676D01*
X73347857Y-38050499D01*
X73347872Y-38050499D01*
X73407483Y-38044091D01*
X73542331Y-37993796D01*
X73657546Y-37907546D01*
X73743796Y-37792331D01*
X73794091Y-37657483D01*
X73800500Y-37597873D01*
X73800499Y-35902128D01*
X73794091Y-35842517D01*
X73781238Y-35808057D01*
X73743797Y-35707671D01*
X73743793Y-35707664D01*
X73657547Y-35592455D01*
X73657544Y-35592452D01*
X73542335Y-35506206D01*
X73542328Y-35506202D01*
X73407482Y-35455908D01*
X73407483Y-35455908D01*
X73347883Y-35449501D01*
X73347881Y-35449500D01*
X73347873Y-35449500D01*
X73347864Y-35449500D01*
X71652129Y-35449500D01*
X71652123Y-35449501D01*
X71592516Y-35455908D01*
X71457671Y-35506202D01*
X71457664Y-35506206D01*
X71342455Y-35592452D01*
X71342452Y-35592455D01*
X71256206Y-35707664D01*
X71256202Y-35707671D01*
X71205908Y-35842517D01*
X71203634Y-35863673D01*
X71199501Y-35902123D01*
X71199500Y-35902135D01*
X71199500Y-35925500D01*
X71179815Y-35992539D01*
X71127011Y-36038294D01*
X71075500Y-36049500D01*
X68271003Y-36049500D01*
X68162590Y-36071065D01*
X68162589Y-36071065D01*
X68146379Y-36074289D01*
X68135669Y-36076420D01*
X68106046Y-36088691D01*
X68008188Y-36129225D01*
X68008188Y-36129226D01*
X67893456Y-36205886D01*
X67893453Y-36205889D01*
X66586162Y-37513181D01*
X66524839Y-37546666D01*
X66498481Y-37549500D01*
X63800768Y-37549500D01*
X63748332Y-37534102D01*
X63723664Y-37547069D01*
X63699232Y-37549500D01*
X56180768Y-37549500D01*
X56128332Y-37534102D01*
X56103664Y-37547069D01*
X56079232Y-37549500D01*
X52681006Y-37549500D01*
X52652160Y-37555237D01*
X52582569Y-37549008D01*
X52527392Y-37506143D01*
X52504150Y-37440253D01*
X52520219Y-37372256D01*
X52556850Y-37332043D01*
X52588819Y-37309658D01*
X52749657Y-37148820D01*
X52880134Y-36962482D01*
X52976265Y-36756326D01*
X52976269Y-36756317D01*
X53028872Y-36560000D01*
X52065686Y-36560000D01*
X52070080Y-36555606D01*
X52122741Y-36464394D01*
X52150000Y-36362661D01*
X52150000Y-36257339D01*
X52122741Y-36155606D01*
X52070080Y-36064394D01*
X52065686Y-36060000D01*
X53028872Y-36060000D01*
X53028872Y-36059999D01*
X53012795Y-35999998D01*
X54824532Y-35999998D01*
X54824532Y-36000001D01*
X54844364Y-36226686D01*
X54844366Y-36226697D01*
X54903258Y-36446488D01*
X54903261Y-36446497D01*
X54999431Y-36652732D01*
X54999432Y-36652734D01*
X55129954Y-36839141D01*
X55290858Y-37000045D01*
X55290861Y-37000047D01*
X55477266Y-37130568D01*
X55683504Y-37226739D01*
X55903308Y-37285635D01*
X56045262Y-37298054D01*
X56090039Y-37301972D01*
X56129124Y-37317260D01*
X56145833Y-37306523D01*
X56169961Y-37301972D01*
X56208828Y-37298571D01*
X56356692Y-37285635D01*
X56576496Y-37226739D01*
X56782734Y-37130568D01*
X56969139Y-37000047D01*
X57130047Y-36839139D01*
X57260568Y-36652734D01*
X57356739Y-36446496D01*
X57415635Y-36226692D01*
X57435468Y-36000000D01*
X57435468Y-35999998D01*
X62444532Y-35999998D01*
X62444532Y-36000001D01*
X62464364Y-36226686D01*
X62464366Y-36226697D01*
X62523258Y-36446488D01*
X62523261Y-36446497D01*
X62619431Y-36652732D01*
X62619432Y-36652734D01*
X62749954Y-36839141D01*
X62910858Y-37000045D01*
X62910861Y-37000047D01*
X63097266Y-37130568D01*
X63303504Y-37226739D01*
X63523308Y-37285635D01*
X63665262Y-37298054D01*
X63710039Y-37301972D01*
X63749124Y-37317260D01*
X63765833Y-37306523D01*
X63789961Y-37301972D01*
X63828828Y-37298571D01*
X63976692Y-37285635D01*
X64196496Y-37226739D01*
X64402734Y-37130568D01*
X64589139Y-37000047D01*
X64750047Y-36839139D01*
X64880568Y-36652734D01*
X64976739Y-36446496D01*
X65035635Y-36226692D01*
X65055468Y-36000000D01*
X65053141Y-35973408D01*
X65042895Y-35856287D01*
X65035635Y-35773308D01*
X64976739Y-35553504D01*
X64880568Y-35347266D01*
X64750047Y-35160861D01*
X64750045Y-35160858D01*
X64589141Y-34999954D01*
X64402734Y-34869432D01*
X64402732Y-34869431D01*
X64196497Y-34773261D01*
X64196488Y-34773258D01*
X63976697Y-34714366D01*
X63976693Y-34714365D01*
X63976692Y-34714365D01*
X63976691Y-34714364D01*
X63976686Y-34714364D01*
X63750002Y-34694532D01*
X63749998Y-34694532D01*
X63523313Y-34714364D01*
X63523302Y-34714366D01*
X63303511Y-34773258D01*
X63303502Y-34773261D01*
X63097267Y-34869431D01*
X63097265Y-34869432D01*
X62910858Y-34999954D01*
X62749954Y-35160858D01*
X62619432Y-35347265D01*
X62619431Y-35347267D01*
X62523261Y-35553502D01*
X62523258Y-35553511D01*
X62464366Y-35773302D01*
X62464364Y-35773313D01*
X62444532Y-35999998D01*
X57435468Y-35999998D01*
X57433141Y-35973408D01*
X57422895Y-35856287D01*
X57415635Y-35773308D01*
X57356739Y-35553504D01*
X57260568Y-35347266D01*
X57130047Y-35160861D01*
X57130045Y-35160858D01*
X56969141Y-34999954D01*
X56782734Y-34869432D01*
X56782732Y-34869431D01*
X56576497Y-34773261D01*
X56576488Y-34773258D01*
X56356697Y-34714366D01*
X56356693Y-34714365D01*
X56356692Y-34714365D01*
X56356691Y-34714364D01*
X56356686Y-34714364D01*
X56130002Y-34694532D01*
X56129998Y-34694532D01*
X55903313Y-34714364D01*
X55903302Y-34714366D01*
X55683511Y-34773258D01*
X55683502Y-34773261D01*
X55477267Y-34869431D01*
X55477265Y-34869432D01*
X55290858Y-34999954D01*
X55129954Y-35160858D01*
X54999432Y-35347265D01*
X54999431Y-35347267D01*
X54903261Y-35553502D01*
X54903258Y-35553511D01*
X54844366Y-35773302D01*
X54844364Y-35773313D01*
X54824532Y-35999998D01*
X53012795Y-35999998D01*
X52976269Y-35863682D01*
X52976265Y-35863673D01*
X52880134Y-35657517D01*
X52749657Y-35471179D01*
X52588820Y-35310342D01*
X52402482Y-35179865D01*
X52196328Y-35083734D01*
X52000000Y-35031127D01*
X52000000Y-35994314D01*
X51995606Y-35989920D01*
X51904394Y-35937259D01*
X51802661Y-35910000D01*
X51697339Y-35910000D01*
X51595606Y-35937259D01*
X51504394Y-35989920D01*
X51500000Y-35994314D01*
X51500000Y-35031127D01*
X51303671Y-35083734D01*
X51097517Y-35179865D01*
X50911179Y-35310342D01*
X50750342Y-35471179D01*
X50619865Y-35657517D01*
X50523734Y-35863673D01*
X50523730Y-35863682D01*
X50471127Y-36059999D01*
X50471128Y-36060000D01*
X51434314Y-36060000D01*
X51429920Y-36064394D01*
X51377259Y-36155606D01*
X51350000Y-36257339D01*
X51350000Y-36362661D01*
X51377259Y-36464394D01*
X51429920Y-36555606D01*
X51434314Y-36560000D01*
X50471128Y-36560000D01*
X50523730Y-36756317D01*
X50523734Y-36756326D01*
X50619865Y-36962482D01*
X50750342Y-37148820D01*
X50911179Y-37309657D01*
X51097517Y-37440134D01*
X51303673Y-37536265D01*
X51303682Y-37536269D01*
X51499999Y-37588872D01*
X51500000Y-37588871D01*
X51500000Y-36625686D01*
X51504394Y-36630080D01*
X51595606Y-36682741D01*
X51697339Y-36710000D01*
X51802661Y-36710000D01*
X51904394Y-36682741D01*
X51995606Y-36630080D01*
X52000000Y-36625686D01*
X52000000Y-37588871D01*
X52127366Y-37554744D01*
X52197216Y-37556407D01*
X52255079Y-37595569D01*
X52282583Y-37659798D01*
X52270997Y-37728700D01*
X52247141Y-37762200D01*
X51746162Y-38263181D01*
X51684839Y-38296666D01*
X51658481Y-38299500D01*
X46074500Y-38299500D01*
X46007461Y-38279815D01*
X45961706Y-38227011D01*
X45950500Y-38175500D01*
X45950500Y-37471672D01*
X45970185Y-37404633D01*
X46003375Y-37370098D01*
X46089139Y-37310047D01*
X46250047Y-37149139D01*
X46380568Y-36962734D01*
X46476739Y-36756496D01*
X46535635Y-36536692D01*
X46555468Y-36310000D01*
X46555468Y-36309998D01*
X47194532Y-36309998D01*
X47194532Y-36310001D01*
X47214364Y-36536686D01*
X47214366Y-36536697D01*
X47273258Y-36756488D01*
X47273261Y-36756497D01*
X47369431Y-36962732D01*
X47369432Y-36962734D01*
X47499954Y-37149141D01*
X47660858Y-37310045D01*
X47660861Y-37310047D01*
X47847266Y-37440568D01*
X48053504Y-37536739D01*
X48273308Y-37595635D01*
X48435230Y-37609801D01*
X48499998Y-37615468D01*
X48500000Y-37615468D01*
X48500002Y-37615468D01*
X48556673Y-37610509D01*
X48726692Y-37595635D01*
X48946496Y-37536739D01*
X49152734Y-37440568D01*
X49339139Y-37310047D01*
X49500047Y-37149139D01*
X49630568Y-36962734D01*
X49726739Y-36756496D01*
X49785635Y-36536692D01*
X49805468Y-36310000D01*
X49785635Y-36083308D01*
X49737090Y-35902135D01*
X49726741Y-35863511D01*
X49726738Y-35863502D01*
X49722892Y-35855255D01*
X49630568Y-35657266D01*
X49500047Y-35470861D01*
X49500045Y-35470858D01*
X49339141Y-35309954D01*
X49152734Y-35179432D01*
X49152732Y-35179431D01*
X48946497Y-35083261D01*
X48946488Y-35083258D01*
X48726697Y-35024366D01*
X48726693Y-35024365D01*
X48726692Y-35024365D01*
X48726691Y-35024364D01*
X48726686Y-35024364D01*
X48500002Y-35004532D01*
X48499998Y-35004532D01*
X48273313Y-35024364D01*
X48273302Y-35024366D01*
X48053511Y-35083258D01*
X48053502Y-35083261D01*
X47847267Y-35179431D01*
X47847265Y-35179432D01*
X47660858Y-35309954D01*
X47499954Y-35470858D01*
X47369432Y-35657265D01*
X47369431Y-35657267D01*
X47273261Y-35863502D01*
X47273258Y-35863511D01*
X47214366Y-36083302D01*
X47214364Y-36083313D01*
X47194532Y-36309998D01*
X46555468Y-36309998D01*
X46535635Y-36083308D01*
X46487090Y-35902135D01*
X46476741Y-35863511D01*
X46476738Y-35863502D01*
X46472892Y-35855255D01*
X46380568Y-35657266D01*
X46250047Y-35470861D01*
X46250045Y-35470858D01*
X46089141Y-35309954D01*
X45902734Y-35179432D01*
X45902732Y-35179431D01*
X45696497Y-35083261D01*
X45696488Y-35083258D01*
X45476697Y-35024366D01*
X45476693Y-35024365D01*
X45476692Y-35024365D01*
X45476691Y-35024364D01*
X45476686Y-35024364D01*
X45250002Y-35004532D01*
X45249998Y-35004532D01*
X45023313Y-35024364D01*
X45023302Y-35024366D01*
X44803511Y-35083258D01*
X44803502Y-35083261D01*
X44597267Y-35179431D01*
X44597265Y-35179432D01*
X44410858Y-35309954D01*
X44249954Y-35470858D01*
X44119432Y-35657265D01*
X44119431Y-35657267D01*
X44023261Y-35863502D01*
X44023258Y-35863511D01*
X43964366Y-36083302D01*
X43964364Y-36083313D01*
X43944532Y-36309998D01*
X43944532Y-36310001D01*
X43964364Y-36536686D01*
X43964366Y-36536697D01*
X44023258Y-36756488D01*
X44023261Y-36756497D01*
X44119431Y-36962732D01*
X44119432Y-36962734D01*
X44249954Y-37149141D01*
X44410857Y-37310044D01*
X44410860Y-37310046D01*
X44410861Y-37310047D01*
X44496623Y-37370097D01*
X44540248Y-37424673D01*
X44549500Y-37471672D01*
X44549500Y-38175500D01*
X44529815Y-38242539D01*
X44477011Y-38288294D01*
X44425500Y-38299500D01*
X33181004Y-38299500D01*
X33045677Y-38326418D01*
X33045667Y-38326421D01*
X32918192Y-38379222D01*
X32803454Y-38455887D01*
X32803453Y-38455888D01*
X31246162Y-40013181D01*
X31184839Y-40046666D01*
X31158481Y-40049500D01*
X29321870Y-40049500D01*
X29254831Y-40029815D01*
X29209076Y-39977011D01*
X29204164Y-39964505D01*
X29183610Y-39902478D01*
X29159814Y-39830666D01*
X29067712Y-39681344D01*
X28943656Y-39557288D01*
X28794334Y-39465186D01*
X28794333Y-39465185D01*
X28788878Y-39461821D01*
X28742154Y-39409873D01*
X28730931Y-39340910D01*
X28758775Y-39276828D01*
X28766272Y-39268623D01*
X28905104Y-39129792D01*
X28929942Y-39095606D01*
X29030048Y-38957820D01*
X29030047Y-38957820D01*
X29030051Y-38957816D01*
X29126557Y-38768412D01*
X29192246Y-38566243D01*
X29225500Y-38356287D01*
X29225500Y-38143713D01*
X29192246Y-37933757D01*
X29126557Y-37731588D01*
X29030051Y-37542184D01*
X29030049Y-37542181D01*
X29030048Y-37542179D01*
X28905109Y-37370213D01*
X28754792Y-37219896D01*
X28742670Y-37211089D01*
X28590204Y-37100316D01*
X28547540Y-37044989D01*
X28541561Y-36975376D01*
X28574166Y-36913580D01*
X28590199Y-36899686D01*
X28754792Y-36780104D01*
X28905104Y-36629792D01*
X28905106Y-36629788D01*
X28905109Y-36629786D01*
X29030048Y-36457820D01*
X29030047Y-36457820D01*
X29030051Y-36457816D01*
X29126557Y-36268412D01*
X29192246Y-36066243D01*
X29225500Y-35856287D01*
X29225500Y-35674041D01*
X36435000Y-35674041D01*
X36435000Y-35750000D01*
X37179670Y-35750000D01*
X37159925Y-35769745D01*
X37110556Y-35855255D01*
X37085000Y-35950630D01*
X37085000Y-36049370D01*
X37110556Y-36144745D01*
X37159925Y-36230255D01*
X37179670Y-36250000D01*
X36435000Y-36250000D01*
X36435000Y-36325958D01*
X36474387Y-36523974D01*
X36474390Y-36523983D01*
X36551652Y-36710513D01*
X36551659Y-36710526D01*
X36663829Y-36878399D01*
X36663832Y-36878403D01*
X36806596Y-37021167D01*
X36806600Y-37021170D01*
X36974473Y-37133340D01*
X36974486Y-37133347D01*
X37161016Y-37210609D01*
X37161025Y-37210612D01*
X37210000Y-37220353D01*
X37210000Y-36280330D01*
X37229745Y-36300075D01*
X37315255Y-36349444D01*
X37410630Y-36375000D01*
X37509370Y-36375000D01*
X37604745Y-36349444D01*
X37690255Y-36300075D01*
X37704500Y-36285830D01*
X37704500Y-36326002D01*
X37707617Y-36341671D01*
X37710000Y-36365865D01*
X37710000Y-37220352D01*
X37758974Y-37210612D01*
X37758983Y-37210609D01*
X37945515Y-37133346D01*
X37945518Y-37133344D01*
X38025658Y-37079796D01*
X38092335Y-37058917D01*
X38159716Y-37077401D01*
X38163422Y-37079783D01*
X38244244Y-37133786D01*
X38430873Y-37211091D01*
X38596777Y-37244091D01*
X38628992Y-37250499D01*
X38628996Y-37250500D01*
X38628997Y-37250500D01*
X38831004Y-37250500D01*
X38831005Y-37250499D01*
X39029127Y-37211091D01*
X39030284Y-37210612D01*
X39072879Y-37192968D01*
X39109798Y-37177674D01*
X39179267Y-37170205D01*
X39224658Y-37189962D01*
X39224886Y-37189546D01*
X39229540Y-37192087D01*
X39231562Y-37192967D01*
X39232669Y-37193796D01*
X39232670Y-37193796D01*
X39232671Y-37193797D01*
X39367517Y-37244091D01*
X39367516Y-37244091D01*
X39374444Y-37244835D01*
X39427127Y-37250500D01*
X40572872Y-37250499D01*
X40632483Y-37244091D01*
X40767331Y-37193796D01*
X40882546Y-37107546D01*
X40968796Y-36992331D01*
X41019091Y-36857483D01*
X41025500Y-36797873D01*
X41025499Y-35875095D01*
X41045183Y-35808057D01*
X41061813Y-35787420D01*
X45618713Y-31230521D01*
X45618716Y-31230520D01*
X45730520Y-31118716D01*
X45780639Y-31031904D01*
X45809577Y-30981785D01*
X45850500Y-30829058D01*
X45850500Y-30670943D01*
X45850500Y-29921692D01*
X45870185Y-29854653D01*
X45903374Y-29820119D01*
X46089139Y-29690047D01*
X46250047Y-29529139D01*
X46380568Y-29342734D01*
X46476739Y-29136496D01*
X46535635Y-28916692D01*
X46555468Y-28690000D01*
X46555468Y-28689998D01*
X47194532Y-28689998D01*
X47194532Y-28690001D01*
X47214364Y-28916686D01*
X47214366Y-28916697D01*
X47273258Y-29136488D01*
X47273261Y-29136497D01*
X47369431Y-29342732D01*
X47369432Y-29342734D01*
X47499954Y-29529141D01*
X47660858Y-29690045D01*
X47660861Y-29690047D01*
X47847266Y-29820568D01*
X48053504Y-29916739D01*
X48273308Y-29975635D01*
X48435230Y-29989801D01*
X48499998Y-29995468D01*
X48500000Y-29995468D01*
X48500002Y-29995468D01*
X48556673Y-29990509D01*
X48726692Y-29975635D01*
X48946496Y-29916739D01*
X49152734Y-29820568D01*
X49339139Y-29690047D01*
X49500047Y-29529139D01*
X49630118Y-29343375D01*
X49684693Y-29299752D01*
X49731692Y-29290500D01*
X50518308Y-29290500D01*
X50585347Y-29310185D01*
X50619880Y-29343374D01*
X50676454Y-29424170D01*
X50749954Y-29529141D01*
X50910858Y-29690045D01*
X50910861Y-29690047D01*
X51097266Y-29820568D01*
X51303504Y-29916739D01*
X51523308Y-29975635D01*
X51685230Y-29989801D01*
X51749998Y-29995468D01*
X51750000Y-29995468D01*
X51750002Y-29995468D01*
X51806673Y-29990509D01*
X51976692Y-29975635D01*
X52196496Y-29916739D01*
X52402734Y-29820568D01*
X52589139Y-29690047D01*
X52750047Y-29529139D01*
X52880568Y-29342734D01*
X52976739Y-29136496D01*
X53035635Y-28916692D01*
X53050219Y-28749999D01*
X54354728Y-28749999D01*
X54354729Y-28750000D01*
X55449252Y-28750000D01*
X55427482Y-28787708D01*
X55390000Y-28927591D01*
X55390000Y-29072409D01*
X55427482Y-29212292D01*
X55449252Y-29250000D01*
X54354728Y-29250000D01*
X54354811Y-29251067D01*
X54413603Y-29495956D01*
X54509980Y-29728631D01*
X54641568Y-29943362D01*
X54641571Y-29943367D01*
X54805130Y-30134869D01*
X54996632Y-30298428D01*
X54996637Y-30298431D01*
X55211368Y-30430019D01*
X55444043Y-30526396D01*
X55688932Y-30585188D01*
X55689999Y-30585271D01*
X55690000Y-30585271D01*
X55690000Y-29490747D01*
X55727708Y-29512518D01*
X55867591Y-29550000D01*
X56012409Y-29550000D01*
X56152292Y-29512518D01*
X56190000Y-29490747D01*
X56190000Y-30585271D01*
X56191067Y-30585188D01*
X56435956Y-30526396D01*
X56668631Y-30430019D01*
X56883362Y-30298431D01*
X56883367Y-30298428D01*
X57074869Y-30134869D01*
X57238428Y-29943367D01*
X57238431Y-29943362D01*
X57370019Y-29728631D01*
X57466396Y-29495956D01*
X57525188Y-29251067D01*
X57525272Y-29250000D01*
X56430748Y-29250000D01*
X56452518Y-29212292D01*
X56490000Y-29072409D01*
X56490000Y-28927591D01*
X56452518Y-28787708D01*
X56430748Y-28750000D01*
X57525271Y-28750000D01*
X57525271Y-28749999D01*
X57525188Y-28748932D01*
X57466396Y-28504043D01*
X57370019Y-28271368D01*
X57238431Y-28056637D01*
X57238428Y-28056632D01*
X57074869Y-27865130D01*
X56883367Y-27701571D01*
X56883362Y-27701568D01*
X56668631Y-27569980D01*
X56435956Y-27473603D01*
X56191064Y-27414811D01*
X56190000Y-27414726D01*
X56190000Y-28509252D01*
X56152292Y-28487482D01*
X56012409Y-28450000D01*
X55867591Y-28450000D01*
X55727708Y-28487482D01*
X55690000Y-28509252D01*
X55690000Y-27414726D01*
X55688935Y-27414811D01*
X55444043Y-27473603D01*
X55211368Y-27569980D01*
X54996637Y-27701568D01*
X54996632Y-27701571D01*
X54805130Y-27865130D01*
X54641571Y-28056632D01*
X54641568Y-28056637D01*
X54509980Y-28271368D01*
X54413603Y-28504043D01*
X54354811Y-28748932D01*
X54354728Y-28749999D01*
X53050219Y-28749999D01*
X53055468Y-28690000D01*
X53035635Y-28463308D01*
X52976739Y-28243504D01*
X52880568Y-28037266D01*
X52750939Y-27852135D01*
X52750045Y-27850858D01*
X52589141Y-27689954D01*
X52402734Y-27559432D01*
X52402732Y-27559431D01*
X52196497Y-27463261D01*
X52196488Y-27463258D01*
X51976697Y-27404366D01*
X51976693Y-27404365D01*
X51976692Y-27404365D01*
X51976691Y-27404364D01*
X51976686Y-27404364D01*
X51750002Y-27384532D01*
X51749998Y-27384532D01*
X51523313Y-27404364D01*
X51523302Y-27404366D01*
X51303511Y-27463258D01*
X51303502Y-27463261D01*
X51097267Y-27559431D01*
X51097265Y-27559432D01*
X50910858Y-27689954D01*
X50749954Y-27850858D01*
X50713557Y-27902840D01*
X50619881Y-28036624D01*
X50565307Y-28080248D01*
X50518308Y-28089500D01*
X49731692Y-28089500D01*
X49664653Y-28069815D01*
X49630119Y-28036625D01*
X49500939Y-27852135D01*
X49500045Y-27850858D01*
X49339141Y-27689954D01*
X49152734Y-27559432D01*
X49152732Y-27559431D01*
X48946497Y-27463261D01*
X48946488Y-27463258D01*
X48726697Y-27404366D01*
X48726693Y-27404365D01*
X48726692Y-27404365D01*
X48726691Y-27404364D01*
X48726686Y-27404364D01*
X48500002Y-27384532D01*
X48499998Y-27384532D01*
X48273313Y-27404364D01*
X48273302Y-27404366D01*
X48053511Y-27463258D01*
X48053502Y-27463261D01*
X47847267Y-27559431D01*
X47847265Y-27559432D01*
X47660858Y-27689954D01*
X47499954Y-27850858D01*
X47369432Y-28037265D01*
X47369431Y-28037267D01*
X47273261Y-28243502D01*
X47273258Y-28243511D01*
X47214366Y-28463302D01*
X47214364Y-28463313D01*
X47194532Y-28689998D01*
X46555468Y-28689998D01*
X46535635Y-28463308D01*
X46476739Y-28243504D01*
X46380568Y-28037266D01*
X46250939Y-27852135D01*
X46250045Y-27850858D01*
X46089141Y-27689954D01*
X45902734Y-27559432D01*
X45902732Y-27559431D01*
X45696497Y-27463261D01*
X45696488Y-27463258D01*
X45476697Y-27404366D01*
X45476693Y-27404365D01*
X45476692Y-27404365D01*
X45476691Y-27404364D01*
X45476686Y-27404364D01*
X45250002Y-27384532D01*
X45249998Y-27384532D01*
X45023313Y-27404364D01*
X45023302Y-27404366D01*
X44803511Y-27463258D01*
X44803502Y-27463261D01*
X44597267Y-27559431D01*
X44597265Y-27559432D01*
X44410858Y-27689954D01*
X44249954Y-27850858D01*
X44119432Y-28037265D01*
X44119431Y-28037267D01*
X44023261Y-28243502D01*
X44023258Y-28243511D01*
X43964366Y-28463302D01*
X43964364Y-28463313D01*
X43944532Y-28689998D01*
X43944532Y-28690001D01*
X43964364Y-28916686D01*
X43964366Y-28916697D01*
X44023258Y-29136488D01*
X44023261Y-29136497D01*
X44119431Y-29342732D01*
X44119432Y-29342734D01*
X44249954Y-29529141D01*
X44410858Y-29690045D01*
X44410861Y-29690047D01*
X44596624Y-29820118D01*
X44640248Y-29874693D01*
X44649500Y-29921692D01*
X44649500Y-30449902D01*
X44629815Y-30516941D01*
X44613181Y-30537583D01*
X43970687Y-31180077D01*
X43909364Y-31213562D01*
X43839672Y-31208578D01*
X43783739Y-31166706D01*
X43759322Y-31101242D01*
X43763230Y-31060307D01*
X43785635Y-30976692D01*
X43805468Y-30750000D01*
X43785635Y-30523308D01*
X43726739Y-30303504D01*
X43630568Y-30097266D01*
X43500047Y-29910861D01*
X43500045Y-29910858D01*
X43339141Y-29749954D01*
X43152734Y-29619432D01*
X43152732Y-29619431D01*
X42946497Y-29523261D01*
X42946488Y-29523258D01*
X42726697Y-29464366D01*
X42726693Y-29464365D01*
X42726692Y-29464365D01*
X42726691Y-29464364D01*
X42726686Y-29464364D01*
X42500002Y-29444532D01*
X42499998Y-29444532D01*
X42273313Y-29464364D01*
X42273302Y-29464366D01*
X42053511Y-29523258D01*
X42053502Y-29523261D01*
X41847267Y-29619431D01*
X41847265Y-29619432D01*
X41660858Y-29749954D01*
X41499954Y-29910858D01*
X41369432Y-30097265D01*
X41369431Y-30097267D01*
X41273261Y-30303502D01*
X41273258Y-30303511D01*
X41214366Y-30523302D01*
X41214364Y-30523313D01*
X41194532Y-30749998D01*
X41194532Y-30750001D01*
X41214364Y-30976686D01*
X41214366Y-30976697D01*
X41240152Y-31072931D01*
X41238489Y-31142781D01*
X41208058Y-31192705D01*
X38361286Y-34039478D01*
X38249481Y-34151282D01*
X38249479Y-34151285D01*
X38199361Y-34238094D01*
X38199359Y-34238096D01*
X38170425Y-34288209D01*
X38170424Y-34288210D01*
X38159479Y-34329057D01*
X38129499Y-34440943D01*
X38129499Y-34440945D01*
X38129499Y-34609046D01*
X38129500Y-34609059D01*
X38129500Y-34758113D01*
X38109815Y-34825152D01*
X38057011Y-34870907D01*
X37987853Y-34880851D01*
X37951210Y-34868837D01*
X37951149Y-34868987D01*
X37949186Y-34868174D01*
X37947054Y-34867475D01*
X37945521Y-34866656D01*
X37758984Y-34789390D01*
X37758977Y-34789388D01*
X37710000Y-34779645D01*
X37710000Y-35634134D01*
X37707617Y-35658326D01*
X37704500Y-35673995D01*
X37704500Y-35714170D01*
X37690255Y-35699925D01*
X37604745Y-35650556D01*
X37509370Y-35625000D01*
X37410630Y-35625000D01*
X37315255Y-35650556D01*
X37229745Y-35699925D01*
X37210000Y-35719670D01*
X37210000Y-34779646D01*
X37209999Y-34779645D01*
X37161022Y-34789388D01*
X37161015Y-34789390D01*
X36974486Y-34866652D01*
X36974473Y-34866659D01*
X36806600Y-34978829D01*
X36806596Y-34978832D01*
X36663832Y-35121596D01*
X36663829Y-35121600D01*
X36551659Y-35289473D01*
X36551652Y-35289486D01*
X36474390Y-35476016D01*
X36474387Y-35476025D01*
X36435000Y-35674041D01*
X29225500Y-35674041D01*
X29225500Y-35643713D01*
X29192246Y-35433757D01*
X29126557Y-35231588D01*
X29030051Y-35042184D01*
X29030049Y-35042181D01*
X29030048Y-35042179D01*
X28905109Y-34870213D01*
X28754786Y-34719890D01*
X28582820Y-34594951D01*
X28393414Y-34498444D01*
X28393413Y-34498443D01*
X28393412Y-34498443D01*
X28191243Y-34432754D01*
X28191241Y-34432753D01*
X28191240Y-34432753D01*
X28029957Y-34407208D01*
X27981287Y-34399500D01*
X27518713Y-34399500D01*
X27470042Y-34407208D01*
X27308760Y-34432753D01*
X27106585Y-34498444D01*
X26917179Y-34594951D01*
X26745213Y-34719890D01*
X26594890Y-34870213D01*
X26469951Y-35042179D01*
X26373444Y-35231585D01*
X26307753Y-35433760D01*
X26274500Y-35643713D01*
X26274500Y-35856286D01*
X26305081Y-36049370D01*
X26307754Y-36066243D01*
X26359887Y-36226692D01*
X26373444Y-36268414D01*
X26469951Y-36457820D01*
X26594890Y-36629786D01*
X26745209Y-36780105D01*
X26745214Y-36780109D01*
X26909793Y-36899682D01*
X26952459Y-36955011D01*
X26958438Y-37024625D01*
X26925833Y-37086420D01*
X26909793Y-37100318D01*
X26745214Y-37219890D01*
X26745209Y-37219894D01*
X26594890Y-37370213D01*
X26469951Y-37542179D01*
X26373444Y-37731585D01*
X26307753Y-37933760D01*
X26277802Y-38122867D01*
X26274500Y-38143713D01*
X26274500Y-38356287D01*
X26284534Y-38419644D01*
X26301146Y-38524526D01*
X26307754Y-38566243D01*
X26360977Y-38730047D01*
X26373444Y-38768414D01*
X26469951Y-38957820D01*
X26594890Y-39129786D01*
X26733705Y-39268601D01*
X26767190Y-39329924D01*
X26762206Y-39399616D01*
X26720334Y-39455549D01*
X26711121Y-39461821D01*
X26556342Y-39557289D01*
X26432289Y-39681342D01*
X26340187Y-39830663D01*
X26340185Y-39830668D01*
X26333494Y-39850861D01*
X26285001Y-39997203D01*
X26285001Y-39997204D01*
X26285000Y-39997204D01*
X26274500Y-40099983D01*
X26274500Y-41400001D01*
X26274501Y-41400018D01*
X26285000Y-41502796D01*
X26285001Y-41502799D01*
X26340185Y-41669331D01*
X26340187Y-41669336D01*
X26352962Y-41690047D01*
X26432288Y-41818656D01*
X26556344Y-41942712D01*
X26705666Y-42034814D01*
X26872203Y-42089999D01*
X26974991Y-42100500D01*
X28525008Y-42100499D01*
X28627797Y-42089999D01*
X28794334Y-42034814D01*
X28943656Y-41942712D01*
X29067712Y-41818656D01*
X29159814Y-41669334D01*
X29204164Y-41535494D01*
X29243936Y-41478051D01*
X29308451Y-41451228D01*
X29321869Y-41450500D01*
X31568996Y-41450500D01*
X31660040Y-41432389D01*
X31704328Y-41423580D01*
X31811411Y-41379225D01*
X31831807Y-41370777D01*
X31831808Y-41370776D01*
X31831811Y-41370775D01*
X31946543Y-41294114D01*
X33503838Y-39736819D01*
X33565161Y-39703334D01*
X33591519Y-39700500D01*
X34617035Y-39700500D01*
X34684074Y-39720185D01*
X34729829Y-39772989D01*
X34739773Y-39842147D01*
X34718610Y-39895623D01*
X34619432Y-40037265D01*
X34619431Y-40037267D01*
X34523261Y-40243502D01*
X34523258Y-40243511D01*
X34464366Y-40463302D01*
X34464364Y-40463313D01*
X34444532Y-40689998D01*
X34444532Y-40690001D01*
X34464364Y-40916686D01*
X34464366Y-40916697D01*
X34523258Y-41136488D01*
X34523261Y-41136497D01*
X34619431Y-41342732D01*
X34619432Y-41342734D01*
X34749954Y-41529141D01*
X34910858Y-41690045D01*
X34910861Y-41690047D01*
X35097266Y-41820568D01*
X35303504Y-41916739D01*
X35523308Y-41975635D01*
X35685230Y-41989801D01*
X35749998Y-41995468D01*
X35750000Y-41995468D01*
X35750002Y-41995468D01*
X35806673Y-41990509D01*
X35976692Y-41975635D01*
X36196496Y-41916739D01*
X36402734Y-41820568D01*
X36589139Y-41690047D01*
X36750047Y-41529139D01*
X36880568Y-41342734D01*
X36976739Y-41136496D01*
X37035635Y-40916692D01*
X37055468Y-40690000D01*
X37055428Y-40689547D01*
X37043654Y-40554966D01*
X37035635Y-40463308D01*
X36976739Y-40243504D01*
X36880568Y-40037266D01*
X36829621Y-39964505D01*
X36781390Y-39895623D01*
X36759062Y-39829416D01*
X36776074Y-39761649D01*
X36827022Y-39713837D01*
X36882965Y-39700500D01*
X52068996Y-39700500D01*
X52165306Y-39681342D01*
X52204328Y-39673580D01*
X52273942Y-39644745D01*
X52331807Y-39620777D01*
X52331808Y-39620776D01*
X52331811Y-39620775D01*
X52446543Y-39544114D01*
X52487091Y-39503566D01*
X52548414Y-39470080D01*
X52618105Y-39475064D01*
X52674039Y-39516934D01*
X52698457Y-39582399D01*
X52694548Y-39623339D01*
X52654366Y-39773302D01*
X52654364Y-39773313D01*
X52634532Y-39999998D01*
X52634532Y-40000001D01*
X52654364Y-40226686D01*
X52654366Y-40226697D01*
X52713258Y-40446488D01*
X52713261Y-40446497D01*
X52809431Y-40652732D01*
X52809432Y-40652734D01*
X52939954Y-40839141D01*
X53100858Y-41000045D01*
X53100861Y-41000047D01*
X53213792Y-41079121D01*
X53257417Y-41133697D01*
X53264611Y-41203195D01*
X53233089Y-41265550D01*
X53172859Y-41300965D01*
X53166862Y-41302313D01*
X53115089Y-41312612D01*
X53083010Y-41318993D01*
X53053097Y-41324942D01*
X53045670Y-41326420D01*
X53045668Y-41326421D01*
X52918190Y-41379224D01*
X52803454Y-41455887D01*
X50335887Y-43923454D01*
X50259222Y-44038192D01*
X50206421Y-44165667D01*
X50206418Y-44165677D01*
X50179500Y-44301004D01*
X50179500Y-46644482D01*
X50159815Y-46711521D01*
X50126625Y-46746056D01*
X50070545Y-46785324D01*
X50070539Y-46785329D01*
X49915327Y-46940541D01*
X49915322Y-46940547D01*
X49789423Y-47120349D01*
X49789419Y-47120357D01*
X49722382Y-47264120D01*
X49676210Y-47316560D01*
X49609017Y-47335712D01*
X49542135Y-47315496D01*
X49497618Y-47264120D01*
X49458127Y-47179431D01*
X49430579Y-47120354D01*
X49430577Y-47120351D01*
X49430576Y-47120349D01*
X49304677Y-46940547D01*
X49304672Y-46940541D01*
X49149458Y-46785327D01*
X49149452Y-46785322D01*
X48969650Y-46659423D01*
X48969642Y-46659419D01*
X48770708Y-46566655D01*
X48770706Y-46566654D01*
X48770703Y-46566653D01*
X48606563Y-46522671D01*
X48558675Y-46509839D01*
X48558668Y-46509838D01*
X48340002Y-46490708D01*
X48339998Y-46490708D01*
X48121331Y-46509838D01*
X48121324Y-46509839D01*
X47998902Y-46542642D01*
X47909297Y-46566653D01*
X47909295Y-46566653D01*
X47909291Y-46566655D01*
X47710357Y-46659419D01*
X47710349Y-46659423D01*
X47530547Y-46785322D01*
X47530541Y-46785327D01*
X47375327Y-46940541D01*
X47375322Y-46940547D01*
X47249423Y-47120349D01*
X47249419Y-47120357D01*
X47156655Y-47319291D01*
X47099839Y-47531324D01*
X47099838Y-47531331D01*
X47080708Y-47749997D01*
X47080708Y-47750002D01*
X47095797Y-47922482D01*
X47099839Y-47968674D01*
X47156653Y-48180703D01*
X47156654Y-48180706D01*
X47156655Y-48180708D01*
X47249419Y-48379642D01*
X47249423Y-48379650D01*
X47375322Y-48559452D01*
X47375327Y-48559458D01*
X47530541Y-48714672D01*
X47530547Y-48714677D01*
X47710349Y-48840576D01*
X47710351Y-48840577D01*
X47710354Y-48840579D01*
X47909297Y-48933347D01*
X48121326Y-48990161D01*
X48277521Y-49003826D01*
X48339998Y-49009292D01*
X48340000Y-49009292D01*
X48340002Y-49009292D01*
X48394786Y-49004499D01*
X48558674Y-48990161D01*
X48770703Y-48933347D01*
X48969646Y-48840579D01*
X49149457Y-48714674D01*
X49304674Y-48559457D01*
X49430579Y-48379646D01*
X49497618Y-48235878D01*
X49543790Y-48183439D01*
X49610983Y-48164287D01*
X49677864Y-48184502D01*
X49722382Y-48235879D01*
X49789419Y-48379642D01*
X49789423Y-48379650D01*
X49915322Y-48559452D01*
X49915326Y-48559457D01*
X50070543Y-48714674D01*
X50126623Y-48753941D01*
X50170248Y-48808517D01*
X50179500Y-48855516D01*
X50179500Y-56894482D01*
X50159815Y-56961521D01*
X50126625Y-56996056D01*
X50070545Y-57035324D01*
X50070539Y-57035329D01*
X49915327Y-57190541D01*
X49915322Y-57190547D01*
X49789423Y-57370349D01*
X49789419Y-57370357D01*
X49722382Y-57514120D01*
X49676210Y-57566560D01*
X49609017Y-57585712D01*
X49542135Y-57565496D01*
X49497618Y-57514120D01*
X49430580Y-57370357D01*
X49430579Y-57370354D01*
X49430577Y-57370351D01*
X49430576Y-57370349D01*
X49304677Y-57190547D01*
X49304672Y-57190541D01*
X49149458Y-57035327D01*
X49149452Y-57035322D01*
X48969650Y-56909423D01*
X48969642Y-56909419D01*
X48770708Y-56816655D01*
X48770706Y-56816654D01*
X48770703Y-56816653D01*
X48619885Y-56776240D01*
X48558675Y-56759839D01*
X48558668Y-56759838D01*
X48340002Y-56740708D01*
X48339998Y-56740708D01*
X48121331Y-56759838D01*
X48121324Y-56759839D01*
X47998902Y-56792642D01*
X47909297Y-56816653D01*
X47909295Y-56816653D01*
X47909291Y-56816655D01*
X47710357Y-56909419D01*
X47710349Y-56909423D01*
X47530547Y-57035322D01*
X47530541Y-57035327D01*
X47375327Y-57190541D01*
X47375322Y-57190547D01*
X47249423Y-57370349D01*
X47249419Y-57370357D01*
X47156655Y-57569291D01*
X47099839Y-57781324D01*
X47099838Y-57781331D01*
X47080708Y-57999997D01*
X47080708Y-58000000D01*
X47097560Y-58192630D01*
X47099839Y-58218674D01*
X47156653Y-58430703D01*
X47156654Y-58430706D01*
X47156655Y-58430708D01*
X47249419Y-58629642D01*
X47249423Y-58629650D01*
X47375322Y-58809452D01*
X47375327Y-58809458D01*
X47530541Y-58964672D01*
X47530547Y-58964677D01*
X47710349Y-59090576D01*
X47710351Y-59090577D01*
X47710354Y-59090579D01*
X47909297Y-59183347D01*
X48121326Y-59240161D01*
X48277521Y-59253826D01*
X48339998Y-59259292D01*
X48340000Y-59259292D01*
X48340002Y-59259292D01*
X48394786Y-59254499D01*
X48558674Y-59240161D01*
X48770703Y-59183347D01*
X48969646Y-59090579D01*
X49149457Y-58964674D01*
X49304674Y-58809457D01*
X49430579Y-58629646D01*
X49497618Y-58485878D01*
X49543790Y-58433439D01*
X49610983Y-58414287D01*
X49677864Y-58434502D01*
X49722381Y-58485878D01*
X49743948Y-58532128D01*
X49789419Y-58629642D01*
X49789423Y-58629650D01*
X49915322Y-58809452D01*
X49915326Y-58809457D01*
X50070543Y-58964674D01*
X50126623Y-59003941D01*
X50170248Y-59058517D01*
X50179500Y-59105516D01*
X50179500Y-60705981D01*
X50159815Y-60773020D01*
X50143181Y-60793662D01*
X48173662Y-62763181D01*
X48112339Y-62796666D01*
X48085981Y-62799500D01*
X36017779Y-62799500D01*
X35950740Y-62779815D01*
X35904985Y-62727011D01*
X35895041Y-62657853D01*
X35924066Y-62594297D01*
X35982844Y-62556523D01*
X35985686Y-62555725D01*
X36014356Y-62548043D01*
X36196496Y-62499239D01*
X36402734Y-62403068D01*
X36589139Y-62272547D01*
X36750047Y-62111639D01*
X36880568Y-61925234D01*
X36976739Y-61718996D01*
X37035635Y-61499192D01*
X37055468Y-61272500D01*
X37053659Y-61251828D01*
X37035635Y-61045813D01*
X37035635Y-61045808D01*
X36976739Y-60826004D01*
X36880568Y-60619766D01*
X36750047Y-60433361D01*
X36750045Y-60433358D01*
X36589141Y-60272454D01*
X36539685Y-60237825D01*
X36496060Y-60183249D01*
X36488866Y-60113750D01*
X36520388Y-60051395D01*
X36539685Y-60034675D01*
X36554282Y-60024453D01*
X36589139Y-60000047D01*
X36750047Y-59839139D01*
X36880568Y-59652734D01*
X36976739Y-59446496D01*
X37035635Y-59226692D01*
X37055468Y-59000000D01*
X37035635Y-58773308D01*
X36976739Y-58553504D01*
X36880568Y-58347266D01*
X36750047Y-58160861D01*
X36750045Y-58160858D01*
X36589141Y-57999954D01*
X36402734Y-57869432D01*
X36402732Y-57869431D01*
X36196497Y-57773261D01*
X36196488Y-57773258D01*
X35976697Y-57714366D01*
X35976693Y-57714365D01*
X35976692Y-57714365D01*
X35976691Y-57714364D01*
X35976686Y-57714364D01*
X35750002Y-57694532D01*
X35749998Y-57694532D01*
X35523313Y-57714364D01*
X35523302Y-57714366D01*
X35303511Y-57773258D01*
X35303502Y-57773261D01*
X35097267Y-57869431D01*
X35097265Y-57869432D01*
X34910858Y-57999954D01*
X34749954Y-58160858D01*
X34619432Y-58347265D01*
X34619431Y-58347267D01*
X34523261Y-58553502D01*
X34523258Y-58553511D01*
X34464366Y-58773302D01*
X34464364Y-58773313D01*
X34444532Y-58999998D01*
X34444532Y-59000001D01*
X34464364Y-59226686D01*
X34464366Y-59226697D01*
X34523258Y-59446488D01*
X34523261Y-59446497D01*
X34619431Y-59652732D01*
X34619432Y-59652734D01*
X34749954Y-59839141D01*
X34910858Y-60000045D01*
X34960315Y-60034675D01*
X35003940Y-60089251D01*
X35011134Y-60158750D01*
X34979612Y-60221105D01*
X34960315Y-60237825D01*
X34910858Y-60272454D01*
X34749954Y-60433358D01*
X34619432Y-60619765D01*
X34619431Y-60619767D01*
X34523261Y-60826002D01*
X34523258Y-60826011D01*
X34464366Y-61045802D01*
X34464364Y-61045813D01*
X34444532Y-61272498D01*
X34444532Y-61272501D01*
X34464364Y-61499186D01*
X34464366Y-61499197D01*
X34523258Y-61718988D01*
X34523261Y-61718997D01*
X34619431Y-61925232D01*
X34619432Y-61925234D01*
X34749954Y-62111641D01*
X34910858Y-62272545D01*
X34910861Y-62272547D01*
X35097266Y-62403068D01*
X35303504Y-62499239D01*
X35303509Y-62499240D01*
X35303511Y-62499241D01*
X35514314Y-62555725D01*
X35573975Y-62592090D01*
X35604504Y-62654937D01*
X35596209Y-62724312D01*
X35551724Y-62778190D01*
X35485172Y-62799465D01*
X35482221Y-62799500D01*
X34591519Y-62799500D01*
X34524480Y-62779815D01*
X34503838Y-62763181D01*
X31446546Y-59705888D01*
X31446545Y-59705887D01*
X31331807Y-59629222D01*
X31204332Y-59576421D01*
X31204322Y-59576418D01*
X31068996Y-59549500D01*
X31068994Y-59549500D01*
X31068993Y-59549500D01*
X29296870Y-59549500D01*
X29229831Y-59529815D01*
X29184076Y-59477011D01*
X29179164Y-59464505D01*
X29149339Y-59374500D01*
X29134814Y-59330666D01*
X29042712Y-59181344D01*
X28918656Y-59057288D01*
X28769334Y-58965186D01*
X28769332Y-58965185D01*
X28763440Y-58961551D01*
X28716716Y-58909603D01*
X28705493Y-58840641D01*
X28733337Y-58776558D01*
X28740856Y-58768330D01*
X28879728Y-58629458D01*
X29004620Y-58457557D01*
X29101095Y-58268217D01*
X29166757Y-58066129D01*
X29166757Y-58066126D01*
X29177231Y-58000000D01*
X28129146Y-58000000D01*
X28167630Y-57933343D01*
X28200000Y-57812535D01*
X28200000Y-57687465D01*
X28167630Y-57566657D01*
X28129146Y-57500000D01*
X29177231Y-57500000D01*
X29166757Y-57433873D01*
X29166757Y-57433870D01*
X29101095Y-57231782D01*
X29004620Y-57042442D01*
X28879727Y-56870540D01*
X28879723Y-56870535D01*
X28729464Y-56720276D01*
X28729459Y-56720272D01*
X28564781Y-56600627D01*
X28522115Y-56545297D01*
X28516136Y-56475684D01*
X28548741Y-56413889D01*
X28564776Y-56399994D01*
X28729792Y-56280104D01*
X28880104Y-56129792D01*
X28880106Y-56129788D01*
X28880109Y-56129786D01*
X28880686Y-56128992D01*
X41082000Y-56128992D01*
X41082000Y-56331007D01*
X41121407Y-56529119D01*
X41121409Y-56529127D01*
X41154825Y-56609800D01*
X41162294Y-56679270D01*
X41142538Y-56724660D01*
X41142954Y-56724887D01*
X41140419Y-56729528D01*
X41139537Y-56731556D01*
X41138706Y-56732665D01*
X41138702Y-56732672D01*
X41088408Y-56867517D01*
X41082001Y-56927116D01*
X41082001Y-56927123D01*
X41082000Y-56927135D01*
X41082000Y-58072870D01*
X41082001Y-58072876D01*
X41088408Y-58132483D01*
X41138702Y-58267328D01*
X41138706Y-58267335D01*
X41224952Y-58382544D01*
X41224955Y-58382547D01*
X41340164Y-58468793D01*
X41340171Y-58468797D01*
X41475017Y-58519091D01*
X41475016Y-58519091D01*
X41481944Y-58519835D01*
X41534627Y-58525500D01*
X43130372Y-58525499D01*
X43189983Y-58519091D01*
X43324831Y-58468796D01*
X43440046Y-58382546D01*
X43526296Y-58267331D01*
X43576591Y-58132483D01*
X43583000Y-58072873D01*
X43582999Y-56927128D01*
X43576916Y-56870540D01*
X43576591Y-56867516D01*
X43526297Y-56732671D01*
X43526296Y-56732670D01*
X43526296Y-56732669D01*
X43525467Y-56731562D01*
X43524985Y-56730268D01*
X43522046Y-56724886D01*
X43522819Y-56724463D01*
X43501051Y-56666099D01*
X43510175Y-56609798D01*
X43514027Y-56600500D01*
X43543591Y-56529127D01*
X43583000Y-56331003D01*
X43583000Y-56128997D01*
X43543591Y-55930873D01*
X43466286Y-55744244D01*
X43412294Y-55663439D01*
X43391417Y-55596764D01*
X43409901Y-55529384D01*
X43412296Y-55525658D01*
X43465844Y-55445518D01*
X43465846Y-55445515D01*
X43543109Y-55258983D01*
X43543112Y-55258974D01*
X43552853Y-55210000D01*
X42698366Y-55210000D01*
X42674174Y-55207617D01*
X42658504Y-55204500D01*
X42658503Y-55204500D01*
X42618330Y-55204500D01*
X42632575Y-55190255D01*
X42681944Y-55104745D01*
X42707500Y-55009370D01*
X42707500Y-54910630D01*
X42681944Y-54815255D01*
X42632575Y-54729745D01*
X42612830Y-54710000D01*
X43552853Y-54710000D01*
X43543112Y-54661025D01*
X43543109Y-54661016D01*
X43465847Y-54474486D01*
X43465840Y-54474473D01*
X43353670Y-54306600D01*
X43353667Y-54306596D01*
X43210903Y-54163832D01*
X43210899Y-54163829D01*
X43043026Y-54051659D01*
X43043013Y-54051652D01*
X42856483Y-53974390D01*
X42856474Y-53974387D01*
X42658458Y-53935000D01*
X42582500Y-53935000D01*
X42582500Y-54679670D01*
X42562755Y-54659925D01*
X42477245Y-54610556D01*
X42381870Y-54585000D01*
X42283130Y-54585000D01*
X42187755Y-54610556D01*
X42102245Y-54659925D01*
X42082500Y-54679670D01*
X42082500Y-53935000D01*
X42006541Y-53935000D01*
X41808525Y-53974387D01*
X41808516Y-53974390D01*
X41621986Y-54051652D01*
X41621973Y-54051659D01*
X41454100Y-54163829D01*
X41454096Y-54163832D01*
X41311332Y-54306596D01*
X41311329Y-54306600D01*
X41199159Y-54474473D01*
X41199152Y-54474486D01*
X41121890Y-54661016D01*
X41121887Y-54661025D01*
X41112147Y-54710000D01*
X42052170Y-54710000D01*
X42032425Y-54729745D01*
X41983056Y-54815255D01*
X41957500Y-54910630D01*
X41957500Y-55009370D01*
X41983056Y-55104745D01*
X42032425Y-55190255D01*
X42046670Y-55204500D01*
X42006497Y-55204500D01*
X42006496Y-55204500D01*
X41990826Y-55207617D01*
X41966634Y-55210000D01*
X41112147Y-55210000D01*
X41121887Y-55258974D01*
X41121890Y-55258983D01*
X41199152Y-55445513D01*
X41199159Y-55445526D01*
X41252703Y-55525659D01*
X41273581Y-55592336D01*
X41255097Y-55659716D01*
X41252704Y-55663439D01*
X41198714Y-55744243D01*
X41121409Y-55930872D01*
X41121407Y-55930880D01*
X41082000Y-56128992D01*
X28880686Y-56128992D01*
X29005048Y-55957820D01*
X29005047Y-55957820D01*
X29005051Y-55957816D01*
X29101557Y-55768412D01*
X29167246Y-55566243D01*
X29200500Y-55356287D01*
X29200500Y-55143713D01*
X29167246Y-54933757D01*
X29101557Y-54731588D01*
X29005051Y-54542184D01*
X29005049Y-54542181D01*
X29005048Y-54542179D01*
X28880109Y-54370213D01*
X28729792Y-54219896D01*
X28729784Y-54219890D01*
X28565204Y-54100316D01*
X28522540Y-54044989D01*
X28516561Y-53975376D01*
X28549166Y-53913580D01*
X28565199Y-53899686D01*
X28729792Y-53780104D01*
X28880104Y-53629792D01*
X28880106Y-53629788D01*
X28880109Y-53629786D01*
X29005048Y-53457820D01*
X29005047Y-53457820D01*
X29005051Y-53457816D01*
X29101557Y-53268412D01*
X29167246Y-53066243D01*
X29200500Y-52856287D01*
X29200500Y-52643713D01*
X29167246Y-52433757D01*
X29101557Y-52231588D01*
X29005051Y-52042184D01*
X29005049Y-52042181D01*
X29005048Y-52042179D01*
X28880109Y-51870213D01*
X28729792Y-51719896D01*
X28727242Y-51718043D01*
X28565204Y-51600316D01*
X28522540Y-51544989D01*
X28516561Y-51475376D01*
X28549166Y-51413580D01*
X28565199Y-51399686D01*
X28592298Y-51379998D01*
X34444532Y-51379998D01*
X34444532Y-51380001D01*
X34464364Y-51606686D01*
X34464366Y-51606697D01*
X34523258Y-51826488D01*
X34523261Y-51826497D01*
X34619431Y-52032732D01*
X34619432Y-52032734D01*
X34749954Y-52219141D01*
X34910858Y-52380045D01*
X34910861Y-52380047D01*
X35097266Y-52510568D01*
X35303504Y-52606739D01*
X35523308Y-52665635D01*
X35685230Y-52679801D01*
X35749998Y-52685468D01*
X35750000Y-52685468D01*
X35750002Y-52685468D01*
X35806673Y-52680509D01*
X35976692Y-52665635D01*
X36196496Y-52606739D01*
X36402734Y-52510568D01*
X36589139Y-52380047D01*
X36750047Y-52219139D01*
X36880568Y-52032734D01*
X36976739Y-51826496D01*
X37035635Y-51606692D01*
X37055468Y-51380000D01*
X37035635Y-51153308D01*
X36976739Y-50933504D01*
X36880568Y-50727266D01*
X36750047Y-50540861D01*
X36750045Y-50540858D01*
X36589141Y-50379954D01*
X36402734Y-50249432D01*
X36402732Y-50249431D01*
X36196497Y-50153261D01*
X36196488Y-50153258D01*
X35976697Y-50094366D01*
X35976693Y-50094365D01*
X35976692Y-50094365D01*
X35976691Y-50094364D01*
X35976686Y-50094364D01*
X35750002Y-50074532D01*
X35749998Y-50074532D01*
X35523313Y-50094364D01*
X35523302Y-50094366D01*
X35303511Y-50153258D01*
X35303502Y-50153261D01*
X35097267Y-50249431D01*
X35097265Y-50249432D01*
X34910858Y-50379954D01*
X34749954Y-50540858D01*
X34619432Y-50727265D01*
X34619431Y-50727267D01*
X34523261Y-50933502D01*
X34523258Y-50933511D01*
X34464366Y-51153302D01*
X34464364Y-51153313D01*
X34444532Y-51379998D01*
X28592298Y-51379998D01*
X28729792Y-51280104D01*
X28880104Y-51129792D01*
X28880106Y-51129788D01*
X28880109Y-51129786D01*
X29005048Y-50957820D01*
X29005047Y-50957820D01*
X29005051Y-50957816D01*
X29101557Y-50768412D01*
X29167246Y-50566243D01*
X29200500Y-50356287D01*
X29200500Y-50143713D01*
X29167246Y-49933757D01*
X29101557Y-49731588D01*
X29005051Y-49542184D01*
X29005049Y-49542181D01*
X29005048Y-49542179D01*
X28880109Y-49370213D01*
X28729792Y-49219896D01*
X28632405Y-49149141D01*
X28565204Y-49100316D01*
X28522540Y-49044989D01*
X28516561Y-48975376D01*
X28549166Y-48913580D01*
X28565199Y-48899686D01*
X28729792Y-48780104D01*
X28880104Y-48629792D01*
X28880106Y-48629788D01*
X28880109Y-48629786D01*
X29005048Y-48457820D01*
X29005047Y-48457820D01*
X29005051Y-48457816D01*
X29080368Y-48309998D01*
X34444532Y-48309998D01*
X34444532Y-48310001D01*
X34464364Y-48536686D01*
X34464366Y-48536697D01*
X34523258Y-48756488D01*
X34523261Y-48756497D01*
X34619431Y-48962732D01*
X34619432Y-48962734D01*
X34749954Y-49149141D01*
X34910858Y-49310045D01*
X34910861Y-49310047D01*
X35097266Y-49440568D01*
X35303504Y-49536739D01*
X35523308Y-49595635D01*
X35685230Y-49609801D01*
X35749998Y-49615468D01*
X35750000Y-49615468D01*
X35750002Y-49615468D01*
X35806673Y-49610509D01*
X35976692Y-49595635D01*
X36196496Y-49536739D01*
X36402734Y-49440568D01*
X36589139Y-49310047D01*
X36750047Y-49149139D01*
X36880568Y-48962734D01*
X36976739Y-48756496D01*
X37035635Y-48536692D01*
X37055468Y-48310000D01*
X37055388Y-48309091D01*
X37042720Y-48164287D01*
X37035635Y-48083308D01*
X36976739Y-47863504D01*
X36880568Y-47657266D01*
X36750047Y-47470861D01*
X36750045Y-47470858D01*
X36589141Y-47309954D01*
X36402734Y-47179432D01*
X36402732Y-47179431D01*
X36196497Y-47083261D01*
X36196488Y-47083258D01*
X35976697Y-47024366D01*
X35976693Y-47024365D01*
X35976692Y-47024365D01*
X35976691Y-47024364D01*
X35976686Y-47024364D01*
X35750002Y-47004532D01*
X35749998Y-47004532D01*
X35523313Y-47024364D01*
X35523302Y-47024366D01*
X35303511Y-47083258D01*
X35303502Y-47083261D01*
X35097267Y-47179431D01*
X35097265Y-47179432D01*
X34910858Y-47309954D01*
X34749954Y-47470858D01*
X34619432Y-47657265D01*
X34619431Y-47657267D01*
X34523261Y-47863502D01*
X34523258Y-47863511D01*
X34464366Y-48083302D01*
X34464364Y-48083313D01*
X34444532Y-48309998D01*
X29080368Y-48309998D01*
X29101557Y-48268412D01*
X29167246Y-48066243D01*
X29200500Y-47856287D01*
X29200500Y-47643713D01*
X29167246Y-47433757D01*
X29101557Y-47231588D01*
X29005051Y-47042184D01*
X29005049Y-47042181D01*
X29005048Y-47042179D01*
X28880109Y-46870213D01*
X28729786Y-46719890D01*
X28557820Y-46594951D01*
X28368414Y-46498444D01*
X28368413Y-46498443D01*
X28368412Y-46498443D01*
X28166243Y-46432754D01*
X28166241Y-46432753D01*
X28166240Y-46432753D01*
X28004957Y-46407208D01*
X27956287Y-46399500D01*
X27493713Y-46399500D01*
X27445042Y-46407208D01*
X27283760Y-46432753D01*
X27081585Y-46498444D01*
X26892179Y-46594951D01*
X26720213Y-46719890D01*
X26569890Y-46870213D01*
X26444951Y-47042179D01*
X26348444Y-47231585D01*
X26282753Y-47433760D01*
X26249500Y-47643713D01*
X26249500Y-47856286D01*
X26267299Y-47968668D01*
X26282754Y-48066243D01*
X26337872Y-48235879D01*
X26348444Y-48268414D01*
X26444951Y-48457820D01*
X26569890Y-48629786D01*
X26720209Y-48780105D01*
X26720214Y-48780109D01*
X26884793Y-48899682D01*
X26927459Y-48955011D01*
X26933438Y-49024625D01*
X26900833Y-49086420D01*
X26884793Y-49100318D01*
X26720214Y-49219890D01*
X26720209Y-49219894D01*
X26569890Y-49370213D01*
X26444951Y-49542179D01*
X26348444Y-49731585D01*
X26282753Y-49933760D01*
X26249500Y-50143713D01*
X26249500Y-50356286D01*
X26269893Y-50485046D01*
X26282754Y-50566243D01*
X26335073Y-50727265D01*
X26348444Y-50768414D01*
X26444951Y-50957820D01*
X26569890Y-51129786D01*
X26720209Y-51280105D01*
X26720214Y-51280109D01*
X26884793Y-51399682D01*
X26927459Y-51455011D01*
X26933438Y-51524625D01*
X26900833Y-51586420D01*
X26884793Y-51600318D01*
X26720214Y-51719890D01*
X26720209Y-51719894D01*
X26569890Y-51870213D01*
X26444951Y-52042179D01*
X26348444Y-52231585D01*
X26282753Y-52433760D01*
X26249500Y-52643713D01*
X26249500Y-52856286D01*
X26273662Y-53008843D01*
X26282754Y-53066243D01*
X26331501Y-53216271D01*
X26348444Y-53268414D01*
X26444951Y-53457820D01*
X26569890Y-53629786D01*
X26720209Y-53780105D01*
X26720214Y-53780109D01*
X26884793Y-53899682D01*
X26927459Y-53955011D01*
X26933438Y-54024625D01*
X26900833Y-54086420D01*
X26884793Y-54100318D01*
X26720214Y-54219890D01*
X26720209Y-54219894D01*
X26569890Y-54370213D01*
X26444951Y-54542179D01*
X26348444Y-54731585D01*
X26282753Y-54933760D01*
X26272262Y-55000000D01*
X26249500Y-55143713D01*
X26249500Y-55356287D01*
X26282754Y-55566243D01*
X26340591Y-55744247D01*
X26348444Y-55768414D01*
X26444951Y-55957820D01*
X26569890Y-56129786D01*
X26720209Y-56280105D01*
X26720214Y-56280109D01*
X26885218Y-56399991D01*
X26927884Y-56455320D01*
X26933863Y-56524934D01*
X26901258Y-56586729D01*
X26885218Y-56600627D01*
X26720540Y-56720272D01*
X26720535Y-56720276D01*
X26570276Y-56870535D01*
X26570272Y-56870540D01*
X26445379Y-57042442D01*
X26348904Y-57231782D01*
X26283242Y-57433870D01*
X26283242Y-57433873D01*
X26272769Y-57500000D01*
X27320854Y-57500000D01*
X27282370Y-57566657D01*
X27250000Y-57687465D01*
X27250000Y-57812535D01*
X27282370Y-57933343D01*
X27320854Y-58000000D01*
X26272769Y-58000000D01*
X26283242Y-58066126D01*
X26283242Y-58066129D01*
X26348904Y-58268217D01*
X26445379Y-58457557D01*
X26570272Y-58629459D01*
X26570276Y-58629464D01*
X26709143Y-58768331D01*
X26742628Y-58829654D01*
X26737644Y-58899346D01*
X26695772Y-58955279D01*
X26686559Y-58961551D01*
X26531342Y-59057289D01*
X26407289Y-59181342D01*
X26315187Y-59330663D01*
X26315186Y-59330666D01*
X26260001Y-59497203D01*
X26260001Y-59497204D01*
X26260000Y-59497204D01*
X26249500Y-59599983D01*
X26249500Y-60900001D01*
X26249501Y-60900018D01*
X26260000Y-61002796D01*
X26260001Y-61002799D01*
X26297677Y-61116496D01*
X26315186Y-61169334D01*
X26407288Y-61318656D01*
X26531344Y-61442712D01*
X26680666Y-61534814D01*
X26847203Y-61589999D01*
X26949991Y-61600500D01*
X28500008Y-61600499D01*
X28602797Y-61589999D01*
X28769334Y-61534814D01*
X28918656Y-61442712D01*
X29042712Y-61318656D01*
X29134814Y-61169334D01*
X29179164Y-61035494D01*
X29218936Y-60978051D01*
X29283451Y-60951228D01*
X29296869Y-60950500D01*
X30658481Y-60950500D01*
X30725520Y-60970185D01*
X30746162Y-60986819D01*
X33803453Y-64044111D01*
X33803454Y-64044112D01*
X33918192Y-64120777D01*
X34045667Y-64173578D01*
X34045672Y-64173580D01*
X34045676Y-64173580D01*
X34045677Y-64173581D01*
X34181003Y-64200500D01*
X34181006Y-64200500D01*
X34181007Y-64200500D01*
X41517999Y-64200500D01*
X41585038Y-64220185D01*
X41630793Y-64272989D01*
X41640737Y-64342147D01*
X41611712Y-64405703D01*
X41586890Y-64427602D01*
X41454100Y-64516329D01*
X41454096Y-64516332D01*
X41311332Y-64659096D01*
X41311329Y-64659100D01*
X41199159Y-64826973D01*
X41199152Y-64826986D01*
X41121890Y-65013516D01*
X41121887Y-65013525D01*
X41112147Y-65062500D01*
X42052170Y-65062500D01*
X42032425Y-65082245D01*
X41983056Y-65167755D01*
X41957500Y-65263130D01*
X41957500Y-65361870D01*
X41983056Y-65457245D01*
X42032425Y-65542755D01*
X42046670Y-65557000D01*
X42006497Y-65557000D01*
X42006496Y-65557000D01*
X41990826Y-65560117D01*
X41966634Y-65562500D01*
X41112147Y-65562500D01*
X41121887Y-65611474D01*
X41121890Y-65611483D01*
X41199152Y-65798013D01*
X41199159Y-65798026D01*
X41252703Y-65878159D01*
X41273581Y-65944836D01*
X41255097Y-66012216D01*
X41252704Y-66015939D01*
X41198714Y-66096743D01*
X41121409Y-66283372D01*
X41121407Y-66283380D01*
X41082000Y-66481492D01*
X41082000Y-66683507D01*
X41121407Y-66881619D01*
X41121409Y-66881627D01*
X41154825Y-66962300D01*
X41162294Y-67031770D01*
X41142538Y-67077160D01*
X41142954Y-67077387D01*
X41140419Y-67082028D01*
X41139537Y-67084056D01*
X41138706Y-67085165D01*
X41138702Y-67085172D01*
X41088408Y-67220017D01*
X41082001Y-67279616D01*
X41082001Y-67279623D01*
X41082000Y-67279635D01*
X41082000Y-68425370D01*
X41082001Y-68425376D01*
X41088408Y-68484983D01*
X41138702Y-68619828D01*
X41138706Y-68619835D01*
X41224952Y-68735044D01*
X41224955Y-68735047D01*
X41340164Y-68821293D01*
X41340171Y-68821297D01*
X41475017Y-68871591D01*
X41475016Y-68871591D01*
X41481944Y-68872335D01*
X41534627Y-68878000D01*
X43130372Y-68877999D01*
X43189983Y-68871591D01*
X43324831Y-68821296D01*
X43440046Y-68735046D01*
X43526296Y-68619831D01*
X43576591Y-68484983D01*
X43583000Y-68425373D01*
X43582999Y-67279628D01*
X43576591Y-67220017D01*
X43573422Y-67211521D01*
X43526297Y-67085171D01*
X43526296Y-67085170D01*
X43526296Y-67085169D01*
X43525467Y-67084062D01*
X43524985Y-67082768D01*
X43522046Y-67077386D01*
X43522819Y-67076963D01*
X43501051Y-67018599D01*
X43510175Y-66962298D01*
X43543589Y-66881632D01*
X43543589Y-66881631D01*
X43543591Y-66881627D01*
X43583000Y-66683503D01*
X43583000Y-66481497D01*
X43543591Y-66283373D01*
X43466286Y-66096744D01*
X43412294Y-66015939D01*
X43391417Y-65949264D01*
X43409901Y-65881884D01*
X43412296Y-65878158D01*
X43465844Y-65798018D01*
X43465846Y-65798015D01*
X43543109Y-65611483D01*
X43543112Y-65611474D01*
X43552853Y-65562500D01*
X42698366Y-65562500D01*
X42674174Y-65560117D01*
X42658504Y-65557000D01*
X42658503Y-65557000D01*
X42618330Y-65557000D01*
X42632575Y-65542755D01*
X42681944Y-65457245D01*
X42707500Y-65361870D01*
X42707500Y-65263130D01*
X42681944Y-65167755D01*
X42632575Y-65082245D01*
X42612830Y-65062500D01*
X43552853Y-65062500D01*
X43543112Y-65013525D01*
X43543109Y-65013516D01*
X43465847Y-64826986D01*
X43465840Y-64826973D01*
X43353670Y-64659100D01*
X43353667Y-64659096D01*
X43210903Y-64516332D01*
X43210899Y-64516329D01*
X43078110Y-64427602D01*
X43033305Y-64373990D01*
X43024598Y-64304665D01*
X43054752Y-64241637D01*
X43114195Y-64204918D01*
X43147001Y-64200500D01*
X48085981Y-64200500D01*
X48153020Y-64220185D01*
X48173662Y-64236819D01*
X50143181Y-66206338D01*
X50176666Y-66267661D01*
X50179500Y-66294019D01*
X50179500Y-67144482D01*
X50159815Y-67211521D01*
X50126625Y-67246056D01*
X50070545Y-67285324D01*
X50070539Y-67285329D01*
X49915327Y-67440541D01*
X49915322Y-67440547D01*
X49789423Y-67620349D01*
X49789419Y-67620357D01*
X49722382Y-67764120D01*
X49676210Y-67816560D01*
X49609017Y-67835712D01*
X49542135Y-67815496D01*
X49497618Y-67764120D01*
X49459660Y-67682719D01*
X49430579Y-67620354D01*
X49430577Y-67620351D01*
X49430576Y-67620349D01*
X49304677Y-67440547D01*
X49304672Y-67440541D01*
X49149458Y-67285327D01*
X49149452Y-67285322D01*
X48969650Y-67159423D01*
X48969642Y-67159419D01*
X48770708Y-67066655D01*
X48770706Y-67066654D01*
X48770703Y-67066653D01*
X48619885Y-67026240D01*
X48558675Y-67009839D01*
X48558668Y-67009838D01*
X48340002Y-66990708D01*
X48339998Y-66990708D01*
X48121331Y-67009838D01*
X48121324Y-67009839D01*
X47998902Y-67042642D01*
X47909297Y-67066653D01*
X47909295Y-67066653D01*
X47909291Y-67066655D01*
X47710357Y-67159419D01*
X47710349Y-67159423D01*
X47530547Y-67285322D01*
X47530541Y-67285327D01*
X47375327Y-67440541D01*
X47375322Y-67440547D01*
X47249423Y-67620349D01*
X47249419Y-67620357D01*
X47156655Y-67819291D01*
X47156653Y-67819295D01*
X47156653Y-67819297D01*
X47152255Y-67835712D01*
X47099839Y-68031324D01*
X47099838Y-68031331D01*
X47080708Y-68249997D01*
X47080708Y-68250002D01*
X47097855Y-68446004D01*
X47099839Y-68468674D01*
X47156653Y-68680703D01*
X47156654Y-68680706D01*
X47156655Y-68680708D01*
X47249419Y-68879642D01*
X47249423Y-68879650D01*
X47375322Y-69059452D01*
X47375327Y-69059458D01*
X47530541Y-69214672D01*
X47530547Y-69214677D01*
X47710349Y-69340576D01*
X47710351Y-69340577D01*
X47710354Y-69340579D01*
X47909297Y-69433347D01*
X48121326Y-69490161D01*
X48277521Y-69503826D01*
X48339998Y-69509292D01*
X48340000Y-69509292D01*
X48340002Y-69509292D01*
X48394786Y-69504499D01*
X48558674Y-69490161D01*
X48770703Y-69433347D01*
X48969646Y-69340579D01*
X49149457Y-69214674D01*
X49304674Y-69059457D01*
X49430579Y-68879646D01*
X49497618Y-68735878D01*
X49543790Y-68683439D01*
X49610983Y-68664287D01*
X49677864Y-68684502D01*
X49722382Y-68735879D01*
X49789419Y-68879642D01*
X49789423Y-68879650D01*
X49915322Y-69059452D01*
X49915327Y-69059458D01*
X50070541Y-69214672D01*
X50070547Y-69214677D01*
X50250349Y-69340576D01*
X50250351Y-69340577D01*
X50250354Y-69340579D01*
X50449297Y-69433347D01*
X50661326Y-69490161D01*
X50817521Y-69503826D01*
X50879998Y-69509292D01*
X50880000Y-69509292D01*
X50880002Y-69509292D01*
X50934786Y-69504499D01*
X51098674Y-69490161D01*
X51310703Y-69433347D01*
X51509646Y-69340579D01*
X51689457Y-69214674D01*
X51844674Y-69059457D01*
X51970579Y-68879646D01*
X52063347Y-68680703D01*
X52120161Y-68468674D01*
X52139292Y-68250000D01*
X52136907Y-68222743D01*
X52132117Y-68167997D01*
X52120161Y-68031326D01*
X52063347Y-67819297D01*
X51970579Y-67620354D01*
X51970577Y-67620351D01*
X51970576Y-67620349D01*
X51844677Y-67440547D01*
X51844672Y-67440541D01*
X51689460Y-67285329D01*
X51689458Y-67285327D01*
X51689457Y-67285326D01*
X51681302Y-67279616D01*
X51633375Y-67246056D01*
X51589751Y-67191478D01*
X51580500Y-67144482D01*
X51580500Y-65883506D01*
X51576677Y-65864290D01*
X51565210Y-65806642D01*
X51553580Y-65748172D01*
X51500775Y-65620689D01*
X51424114Y-65505957D01*
X51424112Y-65505954D01*
X51424111Y-65505953D01*
X49505838Y-63587681D01*
X49472353Y-63526358D01*
X49477337Y-63456666D01*
X49505838Y-63412319D01*
X51424112Y-61494045D01*
X51424114Y-61494043D01*
X51500775Y-61379311D01*
X51553580Y-61251828D01*
X51580500Y-61116494D01*
X51580500Y-60978506D01*
X51580500Y-59105516D01*
X51600185Y-59038477D01*
X51633376Y-59003942D01*
X51689457Y-58964674D01*
X51844674Y-58809457D01*
X51970579Y-58629646D01*
X52063347Y-58430703D01*
X52120161Y-58218674D01*
X52139292Y-58000000D01*
X52120161Y-57781326D01*
X52063347Y-57569297D01*
X51970579Y-57370354D01*
X51970577Y-57370351D01*
X51970576Y-57370349D01*
X51844677Y-57190547D01*
X51844672Y-57190541D01*
X51689460Y-57035329D01*
X51689458Y-57035327D01*
X51689457Y-57035326D01*
X51682492Y-57030449D01*
X51633375Y-56996056D01*
X51589751Y-56941478D01*
X51580500Y-56894482D01*
X51580500Y-48855516D01*
X51600185Y-48788477D01*
X51633376Y-48753942D01*
X51689457Y-48714674D01*
X51844674Y-48559457D01*
X51970579Y-48379646D01*
X52063347Y-48180703D01*
X52120161Y-47968674D01*
X52139292Y-47750000D01*
X52120161Y-47531326D01*
X52063347Y-47319297D01*
X51970579Y-47120354D01*
X51970577Y-47120351D01*
X51970576Y-47120349D01*
X51844677Y-46940547D01*
X51844672Y-46940541D01*
X51689460Y-46785329D01*
X51689458Y-46785327D01*
X51689457Y-46785326D01*
X51682492Y-46780449D01*
X51633375Y-46746056D01*
X51589751Y-46691478D01*
X51580500Y-46644482D01*
X51580500Y-44711519D01*
X51600185Y-44644480D01*
X51616819Y-44623838D01*
X52787819Y-43452838D01*
X52849142Y-43419353D01*
X52918834Y-43424337D01*
X52974767Y-43466209D01*
X52999184Y-43531673D01*
X52999500Y-43540519D01*
X52999500Y-49690891D01*
X53033608Y-49818187D01*
X53051132Y-49848538D01*
X53099500Y-49932314D01*
X53192686Y-50025500D01*
X53306814Y-50091392D01*
X53408095Y-50118529D01*
X53467753Y-50154892D01*
X53498283Y-50217739D01*
X53500000Y-50238303D01*
X53500000Y-52511696D01*
X53480315Y-52578735D01*
X53427511Y-52624490D01*
X53408097Y-52631469D01*
X53366853Y-52642520D01*
X53306812Y-52658608D01*
X53192686Y-52724500D01*
X53192683Y-52724502D01*
X53099502Y-52817683D01*
X53099500Y-52817686D01*
X53033608Y-52931812D01*
X52999500Y-53059108D01*
X52999500Y-59940891D01*
X53033608Y-60068187D01*
X53045770Y-60089251D01*
X53099500Y-60182314D01*
X53192686Y-60275500D01*
X53306814Y-60341392D01*
X53408095Y-60368529D01*
X53467753Y-60404892D01*
X53498283Y-60467739D01*
X53500000Y-60488303D01*
X53500000Y-62886696D01*
X53480315Y-62953735D01*
X53427511Y-62999490D01*
X53408097Y-63006469D01*
X53366853Y-63017520D01*
X53306812Y-63033608D01*
X53192686Y-63099500D01*
X53192683Y-63099502D01*
X53099502Y-63192683D01*
X53099500Y-63192686D01*
X53033608Y-63306812D01*
X52999500Y-63434108D01*
X52999500Y-70315891D01*
X53006873Y-70343407D01*
X53005210Y-70413256D01*
X52966048Y-70471119D01*
X52901819Y-70498623D01*
X52887098Y-70499500D01*
X29003051Y-70499500D01*
X28996968Y-70499351D01*
X28976900Y-70498365D01*
X28663071Y-70482947D01*
X28650962Y-70481754D01*
X28323305Y-70433151D01*
X28311369Y-70430777D01*
X27990055Y-70350292D01*
X27978411Y-70346759D01*
X27666540Y-70235170D01*
X27655301Y-70230515D01*
X27355844Y-70088883D01*
X27345121Y-70083150D01*
X27061011Y-69912862D01*
X27050893Y-69906102D01*
X26784829Y-69708775D01*
X26775423Y-69701055D01*
X26736475Y-69665755D01*
X26529986Y-69478604D01*
X26521395Y-69470013D01*
X26298944Y-69224576D01*
X26291224Y-69215170D01*
X26290855Y-69214672D01*
X26093895Y-68949103D01*
X26087137Y-68938988D01*
X26059274Y-68892501D01*
X26059272Y-68892498D01*
X34444532Y-68892498D01*
X34444532Y-68892501D01*
X34464364Y-69119186D01*
X34464366Y-69119197D01*
X34523258Y-69338988D01*
X34523261Y-69338997D01*
X34619431Y-69545232D01*
X34619432Y-69545234D01*
X34749954Y-69731641D01*
X34910858Y-69892545D01*
X34910861Y-69892547D01*
X35097266Y-70023068D01*
X35303504Y-70119239D01*
X35523308Y-70178135D01*
X35685230Y-70192301D01*
X35749998Y-70197968D01*
X35750000Y-70197968D01*
X35750002Y-70197968D01*
X35806673Y-70193009D01*
X35976692Y-70178135D01*
X36196496Y-70119239D01*
X36402734Y-70023068D01*
X36589139Y-69892547D01*
X36750047Y-69731639D01*
X36880568Y-69545234D01*
X36976739Y-69338996D01*
X37035635Y-69119192D01*
X37055468Y-68892500D01*
X37054343Y-68879646D01*
X37049023Y-68818838D01*
X37035635Y-68665808D01*
X36976739Y-68446004D01*
X36880568Y-68239766D01*
X36750047Y-68053361D01*
X36750045Y-68053358D01*
X36589141Y-67892454D01*
X36402734Y-67761932D01*
X36402732Y-67761931D01*
X36196497Y-67665761D01*
X36196488Y-67665758D01*
X35976697Y-67606866D01*
X35976693Y-67606865D01*
X35976692Y-67606865D01*
X35976691Y-67606864D01*
X35976686Y-67606864D01*
X35750002Y-67587032D01*
X35749998Y-67587032D01*
X35523313Y-67606864D01*
X35523302Y-67606866D01*
X35303511Y-67665758D01*
X35303502Y-67665761D01*
X35097267Y-67761931D01*
X35097265Y-67761932D01*
X34910858Y-67892454D01*
X34749954Y-68053358D01*
X34619432Y-68239765D01*
X34619431Y-68239767D01*
X34523261Y-68446002D01*
X34523258Y-68446011D01*
X34464366Y-68665802D01*
X34464364Y-68665813D01*
X34444532Y-68892498D01*
X26059272Y-68892498D01*
X25916844Y-68654871D01*
X25911120Y-68644163D01*
X25769479Y-68344688D01*
X25764829Y-68333459D01*
X25725212Y-68222738D01*
X25692902Y-68132438D01*
X25653240Y-68021588D01*
X25649707Y-68009944D01*
X25640958Y-67975015D01*
X25569219Y-67688617D01*
X25566848Y-67676694D01*
X25565226Y-67665761D01*
X25524101Y-67388517D01*
X25518245Y-67349037D01*
X25517052Y-67336927D01*
X25514237Y-67279635D01*
X25500649Y-67003032D01*
X25500500Y-66996948D01*
X25500500Y-66878711D01*
X27149500Y-66878711D01*
X27149500Y-67121288D01*
X27181161Y-67361785D01*
X27243947Y-67596104D01*
X27336397Y-67819297D01*
X27336776Y-67820212D01*
X27458064Y-68030289D01*
X27458066Y-68030292D01*
X27458067Y-68030293D01*
X27605733Y-68222736D01*
X27605739Y-68222743D01*
X27777256Y-68394260D01*
X27777263Y-68394266D01*
X27817803Y-68425373D01*
X27969711Y-68541936D01*
X28179788Y-68663224D01*
X28403900Y-68756054D01*
X28638211Y-68818838D01*
X28818586Y-68842584D01*
X28878711Y-68850500D01*
X28878712Y-68850500D01*
X29121289Y-68850500D01*
X29169388Y-68844167D01*
X29361789Y-68818838D01*
X29596100Y-68756054D01*
X29820212Y-68663224D01*
X30030289Y-68541936D01*
X30222738Y-68394265D01*
X30394265Y-68222738D01*
X30541936Y-68030289D01*
X30663224Y-67820212D01*
X30756054Y-67596100D01*
X30818838Y-67361789D01*
X30850500Y-67121288D01*
X30850500Y-66878712D01*
X30818838Y-66638211D01*
X30756054Y-66403900D01*
X30663224Y-66179788D01*
X30541936Y-65969711D01*
X30416809Y-65806642D01*
X30394266Y-65777263D01*
X30394260Y-65777256D01*
X30222743Y-65605739D01*
X30222736Y-65605733D01*
X30030293Y-65458067D01*
X30030292Y-65458066D01*
X30030289Y-65458064D01*
X29820212Y-65336776D01*
X29820205Y-65336773D01*
X29596104Y-65243947D01*
X29361785Y-65181161D01*
X29121289Y-65149500D01*
X29121288Y-65149500D01*
X28878712Y-65149500D01*
X28878711Y-65149500D01*
X28638214Y-65181161D01*
X28403895Y-65243947D01*
X28179794Y-65336773D01*
X28179785Y-65336777D01*
X27969706Y-65458067D01*
X27777263Y-65605733D01*
X27777256Y-65605739D01*
X27605739Y-65777256D01*
X27605733Y-65777263D01*
X27458067Y-65969706D01*
X27336777Y-66179785D01*
X27336773Y-66179794D01*
X27243947Y-66403895D01*
X27181161Y-66638214D01*
X27149500Y-66878711D01*
X25500500Y-66878711D01*
X25500500Y-45918992D01*
X41082000Y-45918992D01*
X41082000Y-46121007D01*
X41121407Y-46319119D01*
X41121409Y-46319127D01*
X41154825Y-46399800D01*
X41162294Y-46469270D01*
X41142538Y-46514660D01*
X41142954Y-46514887D01*
X41140419Y-46519528D01*
X41139537Y-46521556D01*
X41138706Y-46522665D01*
X41138702Y-46522672D01*
X41088408Y-46657517D01*
X41082001Y-46717116D01*
X41082001Y-46717123D01*
X41082000Y-46717135D01*
X41082000Y-47862870D01*
X41082001Y-47862876D01*
X41088408Y-47922483D01*
X41138702Y-48057328D01*
X41138706Y-48057335D01*
X41224952Y-48172544D01*
X41224955Y-48172547D01*
X41340164Y-48258793D01*
X41340171Y-48258797D01*
X41475017Y-48309091D01*
X41475016Y-48309091D01*
X41481944Y-48309835D01*
X41534627Y-48315500D01*
X43130372Y-48315499D01*
X43189983Y-48309091D01*
X43324831Y-48258796D01*
X43440046Y-48172546D01*
X43526296Y-48057331D01*
X43576591Y-47922483D01*
X43583000Y-47862873D01*
X43582999Y-46717128D01*
X43576796Y-46659421D01*
X43576591Y-46657516D01*
X43526297Y-46522671D01*
X43526296Y-46522670D01*
X43526296Y-46522669D01*
X43525467Y-46521562D01*
X43524985Y-46520268D01*
X43522046Y-46514886D01*
X43522819Y-46514463D01*
X43501051Y-46456099D01*
X43510175Y-46399798D01*
X43510299Y-46399500D01*
X43543591Y-46319127D01*
X43583000Y-46121003D01*
X43583000Y-45918997D01*
X43543591Y-45720873D01*
X43466286Y-45534244D01*
X43412294Y-45453439D01*
X43391417Y-45386764D01*
X43409901Y-45319384D01*
X43412296Y-45315658D01*
X43465844Y-45235518D01*
X43465846Y-45235515D01*
X43543109Y-45048983D01*
X43543112Y-45048974D01*
X43552853Y-45000000D01*
X42698366Y-45000000D01*
X42674174Y-44997617D01*
X42658504Y-44994500D01*
X42658503Y-44994500D01*
X42618330Y-44994500D01*
X42632575Y-44980255D01*
X42681944Y-44894745D01*
X42707500Y-44799370D01*
X42707500Y-44700630D01*
X42681944Y-44605255D01*
X42632575Y-44519745D01*
X42612830Y-44500000D01*
X43552853Y-44500000D01*
X43543112Y-44451025D01*
X43543109Y-44451016D01*
X43465847Y-44264486D01*
X43465840Y-44264473D01*
X43353670Y-44096600D01*
X43353667Y-44096596D01*
X43210903Y-43953832D01*
X43210899Y-43953829D01*
X43043026Y-43841659D01*
X43043013Y-43841652D01*
X42856483Y-43764390D01*
X42856474Y-43764387D01*
X42658458Y-43725000D01*
X42582500Y-43725000D01*
X42582500Y-44469670D01*
X42562755Y-44449925D01*
X42477245Y-44400556D01*
X42381870Y-44375000D01*
X42283130Y-44375000D01*
X42187755Y-44400556D01*
X42102245Y-44449925D01*
X42082500Y-44469670D01*
X42082500Y-43725000D01*
X42006541Y-43725000D01*
X41808525Y-43764387D01*
X41808516Y-43764390D01*
X41621986Y-43841652D01*
X41621973Y-43841659D01*
X41454100Y-43953829D01*
X41454096Y-43953832D01*
X41311332Y-44096596D01*
X41311329Y-44096600D01*
X41199159Y-44264473D01*
X41199152Y-44264486D01*
X41121890Y-44451016D01*
X41121887Y-44451025D01*
X41112147Y-44500000D01*
X42052170Y-44500000D01*
X42032425Y-44519745D01*
X41983056Y-44605255D01*
X41957500Y-44700630D01*
X41957500Y-44799370D01*
X41983056Y-44894745D01*
X42032425Y-44980255D01*
X42046670Y-44994500D01*
X42006497Y-44994500D01*
X42006496Y-44994500D01*
X41990826Y-44997617D01*
X41966634Y-45000000D01*
X41112147Y-45000000D01*
X41121887Y-45048974D01*
X41121890Y-45048983D01*
X41199152Y-45235513D01*
X41199159Y-45235526D01*
X41252703Y-45315659D01*
X41273581Y-45382336D01*
X41255097Y-45449716D01*
X41252704Y-45453439D01*
X41198714Y-45534243D01*
X41121409Y-45720872D01*
X41121407Y-45720880D01*
X41082000Y-45918992D01*
X25500500Y-45918992D01*
X25500500Y-29003051D01*
X25500649Y-28996967D01*
X25506458Y-28878712D01*
X25506458Y-28878711D01*
X27149500Y-28878711D01*
X27149500Y-29121288D01*
X27181161Y-29361785D01*
X27243947Y-29596104D01*
X27336773Y-29820205D01*
X27336777Y-29820214D01*
X27339816Y-29825478D01*
X27458064Y-30030289D01*
X27458066Y-30030292D01*
X27458067Y-30030293D01*
X27605733Y-30222736D01*
X27605739Y-30222743D01*
X27777256Y-30394260D01*
X27777263Y-30394266D01*
X27859733Y-30457547D01*
X27969711Y-30541936D01*
X28179788Y-30663224D01*
X28403900Y-30756054D01*
X28638211Y-30818838D01*
X28818586Y-30842584D01*
X28878711Y-30850500D01*
X28878712Y-30850500D01*
X29121289Y-30850500D01*
X29169388Y-30844167D01*
X29361789Y-30818838D01*
X29596100Y-30756054D01*
X29610721Y-30749998D01*
X33574532Y-30749998D01*
X33574532Y-30750001D01*
X33594364Y-30976686D01*
X33594366Y-30976697D01*
X33653258Y-31196488D01*
X33653261Y-31196497D01*
X33749431Y-31402732D01*
X33749432Y-31402734D01*
X33879954Y-31589141D01*
X34040858Y-31750045D01*
X34040861Y-31750047D01*
X34227266Y-31880568D01*
X34433504Y-31976739D01*
X34653308Y-32035635D01*
X34815230Y-32049801D01*
X34879998Y-32055468D01*
X34880000Y-32055468D01*
X34880002Y-32055468D01*
X34941391Y-32050097D01*
X35106692Y-32035635D01*
X35326496Y-31976739D01*
X35532734Y-31880568D01*
X35719139Y-31750047D01*
X35880047Y-31589139D01*
X36010568Y-31402734D01*
X36106739Y-31196496D01*
X36165635Y-30976692D01*
X36185468Y-30750000D01*
X36165635Y-30523308D01*
X36106739Y-30303504D01*
X36010568Y-30097266D01*
X35880047Y-29910861D01*
X35880045Y-29910858D01*
X35719141Y-29749954D01*
X35532734Y-29619432D01*
X35532732Y-29619431D01*
X35326497Y-29523261D01*
X35326488Y-29523258D01*
X35106697Y-29464366D01*
X35106693Y-29464365D01*
X35106692Y-29464365D01*
X35106691Y-29464364D01*
X35106686Y-29464364D01*
X34880002Y-29444532D01*
X34879998Y-29444532D01*
X34653313Y-29464364D01*
X34653302Y-29464366D01*
X34433511Y-29523258D01*
X34433502Y-29523261D01*
X34227267Y-29619431D01*
X34227265Y-29619432D01*
X34040858Y-29749954D01*
X33879954Y-29910858D01*
X33749432Y-30097265D01*
X33749431Y-30097267D01*
X33653261Y-30303502D01*
X33653258Y-30303511D01*
X33594366Y-30523302D01*
X33594364Y-30523313D01*
X33574532Y-30749998D01*
X29610721Y-30749998D01*
X29820212Y-30663224D01*
X30030289Y-30541936D01*
X30222738Y-30394265D01*
X30394265Y-30222738D01*
X30541936Y-30030289D01*
X30663224Y-29820212D01*
X30756054Y-29596100D01*
X30818838Y-29361789D01*
X30850500Y-29121288D01*
X30850500Y-28878712D01*
X30818838Y-28638211D01*
X30756054Y-28403900D01*
X30663224Y-28179788D01*
X30541936Y-27969711D01*
X30394265Y-27777262D01*
X30394260Y-27777256D01*
X30222743Y-27605739D01*
X30222736Y-27605733D01*
X30030293Y-27458067D01*
X30030292Y-27458066D01*
X30030289Y-27458064D01*
X29820212Y-27336776D01*
X29710532Y-27291345D01*
X29596104Y-27243947D01*
X29478944Y-27212554D01*
X29361789Y-27181162D01*
X29361788Y-27181161D01*
X29361785Y-27181161D01*
X29121289Y-27149500D01*
X29121288Y-27149500D01*
X28878712Y-27149500D01*
X28878711Y-27149500D01*
X28638214Y-27181161D01*
X28403895Y-27243947D01*
X28179794Y-27336773D01*
X28179785Y-27336777D01*
X27969706Y-27458067D01*
X27777263Y-27605733D01*
X27777256Y-27605739D01*
X27605739Y-27777256D01*
X27605733Y-27777263D01*
X27458067Y-27969706D01*
X27336777Y-28179785D01*
X27336773Y-28179794D01*
X27243947Y-28403895D01*
X27181161Y-28638214D01*
X27149500Y-28878711D01*
X25506458Y-28878711D01*
X25517052Y-28663068D01*
X25518245Y-28650962D01*
X25531754Y-28559890D01*
X25566849Y-28323296D01*
X25569218Y-28311385D01*
X25649710Y-27990043D01*
X25653240Y-27978411D01*
X25668613Y-27935446D01*
X25764835Y-27666525D01*
X25769476Y-27655318D01*
X25911124Y-27355828D01*
X25916840Y-27345136D01*
X26087145Y-27060998D01*
X26093888Y-27050905D01*
X26291232Y-26784818D01*
X26298935Y-26775433D01*
X26521405Y-26529975D01*
X26529975Y-26521405D01*
X26775433Y-26298935D01*
X26784818Y-26291232D01*
X27050905Y-26093888D01*
X27060998Y-26087145D01*
X27345136Y-25916840D01*
X27355828Y-25911124D01*
X27655318Y-25769476D01*
X27666525Y-25764835D01*
X27978412Y-25653239D01*
X27990043Y-25649710D01*
X28311385Y-25569218D01*
X28323296Y-25566849D01*
X28650962Y-25518244D01*
X28663068Y-25517052D01*
X28996967Y-25500648D01*
X29003051Y-25500500D01*
X29065892Y-25500500D01*
X79332026Y-25500500D01*
X79399065Y-25520185D01*
G37*
G04 #@! TD.AperFunction*
G04 #@! TA.AperFunction,Conductor*
G36*
X86003032Y-25500648D02*
G01*
X86336929Y-25517052D01*
X86349037Y-25518245D01*
X86362116Y-25520185D01*
X86676699Y-25566849D01*
X86688617Y-25569219D01*
X87009951Y-25649709D01*
X87021588Y-25653240D01*
X87092806Y-25678722D01*
X87333467Y-25764832D01*
X87344688Y-25769479D01*
X87644163Y-25911120D01*
X87654871Y-25916844D01*
X87926598Y-26079711D01*
X87938988Y-26087137D01*
X87949103Y-26093895D01*
X88110113Y-26213308D01*
X88215170Y-26291224D01*
X88224576Y-26298944D01*
X88470013Y-26521395D01*
X88478604Y-26529986D01*
X88665755Y-26736475D01*
X88701055Y-26775423D01*
X88708775Y-26784829D01*
X88906102Y-27050893D01*
X88912862Y-27061011D01*
X89078149Y-27336777D01*
X89083148Y-27345116D01*
X89088883Y-27355844D01*
X89190439Y-27570567D01*
X89230514Y-27655297D01*
X89235170Y-27666540D01*
X89346759Y-27978411D01*
X89350292Y-27990055D01*
X89430777Y-28311369D01*
X89433151Y-28323305D01*
X89481754Y-28650962D01*
X89482947Y-28663071D01*
X89499351Y-28996966D01*
X89499500Y-29003051D01*
X89499500Y-45626000D01*
X89479815Y-45693039D01*
X89427011Y-45738794D01*
X89375500Y-45750000D01*
X83874000Y-45750000D01*
X83806961Y-45730315D01*
X83761206Y-45677511D01*
X83750000Y-45626000D01*
X83750000Y-42750000D01*
X74040020Y-42750000D01*
X73972981Y-42730315D01*
X73927226Y-42677511D01*
X73917282Y-42608353D01*
X73946307Y-42544797D01*
X73952339Y-42538319D01*
X78647819Y-37842838D01*
X78709142Y-37809353D01*
X78778834Y-37814337D01*
X78834767Y-37856209D01*
X78859184Y-37921673D01*
X78859500Y-37930519D01*
X78859500Y-38157884D01*
X78839815Y-38224923D01*
X78787011Y-38270678D01*
X78778834Y-38274066D01*
X78692669Y-38306203D01*
X78692664Y-38306206D01*
X78577455Y-38392452D01*
X78577452Y-38392455D01*
X78491206Y-38507664D01*
X78491202Y-38507671D01*
X78440908Y-38642517D01*
X78434501Y-38702116D01*
X78434500Y-38702135D01*
X78434500Y-40297870D01*
X78434501Y-40297876D01*
X78440908Y-40357483D01*
X78491202Y-40492328D01*
X78491206Y-40492335D01*
X78577452Y-40607544D01*
X78577455Y-40607547D01*
X78692664Y-40693793D01*
X78692671Y-40693797D01*
X78827517Y-40744091D01*
X78827516Y-40744091D01*
X78834444Y-40744835D01*
X78887127Y-40750500D01*
X80032872Y-40750499D01*
X80092483Y-40744091D01*
X80227331Y-40693796D01*
X80228430Y-40692972D01*
X80229717Y-40692492D01*
X80235112Y-40689547D01*
X80235535Y-40690322D01*
X80293887Y-40668552D01*
X80350198Y-40677673D01*
X80430873Y-40711091D01*
X80596777Y-40744091D01*
X80628992Y-40750499D01*
X80628996Y-40750500D01*
X80628997Y-40750500D01*
X80831004Y-40750500D01*
X80831005Y-40750499D01*
X81029127Y-40711091D01*
X81215756Y-40633786D01*
X81296562Y-40579792D01*
X81363234Y-40558917D01*
X81430614Y-40577401D01*
X81434340Y-40579795D01*
X81514479Y-40633343D01*
X81514486Y-40633347D01*
X81701016Y-40710609D01*
X81701025Y-40710612D01*
X81750000Y-40720353D01*
X81750000Y-39865865D01*
X81752383Y-39841671D01*
X81755500Y-39826002D01*
X81755500Y-39785830D01*
X81769745Y-39800075D01*
X81855255Y-39849444D01*
X81950630Y-39875000D01*
X82049370Y-39875000D01*
X82144745Y-39849444D01*
X82230255Y-39800075D01*
X82250000Y-39780330D01*
X82250000Y-40720352D01*
X82298974Y-40710612D01*
X82298983Y-40710609D01*
X82485513Y-40633347D01*
X82485526Y-40633340D01*
X82653399Y-40521170D01*
X82653403Y-40521167D01*
X82796167Y-40378403D01*
X82796170Y-40378399D01*
X82908340Y-40210526D01*
X82908347Y-40210513D01*
X82985609Y-40023983D01*
X82985612Y-40023974D01*
X83024999Y-39825958D01*
X83025000Y-39825955D01*
X83025000Y-39750000D01*
X82280330Y-39750000D01*
X82300075Y-39730255D01*
X82349444Y-39644745D01*
X82375000Y-39549370D01*
X82375000Y-39450630D01*
X82349444Y-39355255D01*
X82300075Y-39269745D01*
X82280330Y-39250000D01*
X83025000Y-39250000D01*
X83025000Y-39174045D01*
X83024999Y-39174041D01*
X82985612Y-38976025D01*
X82985609Y-38976016D01*
X82908347Y-38789486D01*
X82908340Y-38789473D01*
X82796170Y-38621600D01*
X82796167Y-38621596D01*
X82653403Y-38478832D01*
X82653399Y-38478829D01*
X82485526Y-38366659D01*
X82485513Y-38366652D01*
X82298984Y-38289390D01*
X82298977Y-38289388D01*
X82250000Y-38279645D01*
X82250000Y-39219670D01*
X82230255Y-39199925D01*
X82144745Y-39150556D01*
X82049370Y-39125000D01*
X81950630Y-39125000D01*
X81855255Y-39150556D01*
X81769745Y-39199925D01*
X81755500Y-39214170D01*
X81755500Y-39173996D01*
X81755499Y-39173995D01*
X81752383Y-39158326D01*
X81750000Y-39134134D01*
X81750000Y-38279646D01*
X81749999Y-38279645D01*
X81701022Y-38289388D01*
X81701015Y-38289390D01*
X81514481Y-38366654D01*
X81514479Y-38366655D01*
X81434337Y-38420204D01*
X81367660Y-38441081D01*
X81300280Y-38422596D01*
X81296558Y-38420204D01*
X81215754Y-38366212D01*
X81029127Y-38288909D01*
X81029119Y-38288907D01*
X80831007Y-38249500D01*
X80831003Y-38249500D01*
X80628997Y-38249500D01*
X80628992Y-38249500D01*
X80430880Y-38288907D01*
X80430868Y-38288910D01*
X80350198Y-38322325D01*
X80280729Y-38329794D01*
X80235342Y-38310036D01*
X80235114Y-38310454D01*
X80230447Y-38307905D01*
X80228432Y-38307028D01*
X80227331Y-38306204D01*
X80227329Y-38306203D01*
X80141166Y-38274066D01*
X80085233Y-38232194D01*
X80060816Y-38166730D01*
X80060500Y-38157884D01*
X80060500Y-37590096D01*
X80080185Y-37523057D01*
X80096814Y-37502420D01*
X81179599Y-36419635D01*
X84499500Y-36419635D01*
X84499500Y-38420370D01*
X84499501Y-38420376D01*
X84505908Y-38479983D01*
X84556202Y-38614828D01*
X84556206Y-38614835D01*
X84642452Y-38730044D01*
X84642455Y-38730047D01*
X84757664Y-38816293D01*
X84757669Y-38816296D01*
X84785539Y-38826690D01*
X84841473Y-38868561D01*
X84865891Y-38934024D01*
X84851040Y-39002298D01*
X84842525Y-39015759D01*
X84709783Y-39198461D01*
X84605950Y-39402244D01*
X84535278Y-39619750D01*
X84535278Y-39619753D01*
X84499500Y-39845646D01*
X84499500Y-40074353D01*
X84535278Y-40300246D01*
X84535278Y-40300249D01*
X84605950Y-40517755D01*
X84709179Y-40720352D01*
X84709783Y-40721538D01*
X84844214Y-40906566D01*
X85005934Y-41068286D01*
X85041735Y-41094297D01*
X85090438Y-41129682D01*
X85133103Y-41185013D01*
X85139082Y-41254626D01*
X85106476Y-41316421D01*
X85090438Y-41330318D01*
X85005932Y-41391715D01*
X84844216Y-41553431D01*
X84844216Y-41553432D01*
X84844214Y-41553434D01*
X84786480Y-41632896D01*
X84709783Y-41738461D01*
X84605950Y-41942244D01*
X84535278Y-42159750D01*
X84535278Y-42159753D01*
X84499500Y-42385646D01*
X84499500Y-42614353D01*
X84535278Y-42840246D01*
X84535278Y-42840249D01*
X84605950Y-43057755D01*
X84605952Y-43057758D01*
X84709783Y-43261538D01*
X84844214Y-43446566D01*
X85005934Y-43608286D01*
X85190962Y-43742717D01*
X85233498Y-43764390D01*
X85394744Y-43846549D01*
X85612251Y-43917221D01*
X85612252Y-43917221D01*
X85612255Y-43917222D01*
X85838146Y-43953000D01*
X85838147Y-43953000D01*
X86161853Y-43953000D01*
X86161854Y-43953000D01*
X86387745Y-43917222D01*
X86387748Y-43917221D01*
X86387749Y-43917221D01*
X86605255Y-43846549D01*
X86605255Y-43846548D01*
X86605258Y-43846548D01*
X86809038Y-43742717D01*
X86994066Y-43608286D01*
X87155786Y-43446566D01*
X87290217Y-43261538D01*
X87394048Y-43057758D01*
X87464722Y-42840245D01*
X87500500Y-42614354D01*
X87500500Y-42385646D01*
X87464722Y-42159755D01*
X87464721Y-42159751D01*
X87464721Y-42159750D01*
X87394049Y-41942244D01*
X87332052Y-41820568D01*
X87290217Y-41738462D01*
X87155786Y-41553434D01*
X86994066Y-41391714D01*
X86909559Y-41330316D01*
X86866896Y-41274988D01*
X86860917Y-41205375D01*
X86893523Y-41143580D01*
X86909556Y-41129685D01*
X86994066Y-41068286D01*
X87155786Y-40906566D01*
X87290217Y-40721538D01*
X87394048Y-40517758D01*
X87439327Y-40378403D01*
X87464721Y-40300249D01*
X87464721Y-40300248D01*
X87464722Y-40300245D01*
X87500500Y-40074354D01*
X87500500Y-39845646D01*
X87464722Y-39619755D01*
X87464721Y-39619751D01*
X87464721Y-39619750D01*
X87394049Y-39402244D01*
X87343309Y-39302661D01*
X87290217Y-39198462D01*
X87157472Y-39015755D01*
X87133994Y-38949953D01*
X87149819Y-38881899D01*
X87199925Y-38833204D01*
X87214455Y-38826692D01*
X87242331Y-38816296D01*
X87357546Y-38730046D01*
X87443796Y-38614831D01*
X87494091Y-38479983D01*
X87500500Y-38420373D01*
X87500499Y-36419628D01*
X87494091Y-36360017D01*
X87487248Y-36341671D01*
X87443797Y-36225171D01*
X87443793Y-36225164D01*
X87357547Y-36109955D01*
X87357544Y-36109952D01*
X87242335Y-36023706D01*
X87242328Y-36023702D01*
X87107482Y-35973408D01*
X87107483Y-35973408D01*
X87047883Y-35967001D01*
X87047881Y-35967000D01*
X87047873Y-35967000D01*
X87047864Y-35967000D01*
X84952129Y-35967000D01*
X84952123Y-35967001D01*
X84892516Y-35973408D01*
X84757671Y-36023702D01*
X84757664Y-36023706D01*
X84642455Y-36109952D01*
X84642452Y-36109955D01*
X84556206Y-36225164D01*
X84556202Y-36225171D01*
X84505908Y-36360017D01*
X84499501Y-36419616D01*
X84499501Y-36419623D01*
X84499500Y-36419635D01*
X81179599Y-36419635D01*
X82858506Y-34740727D01*
X82858511Y-34740724D01*
X82868714Y-34730520D01*
X82868716Y-34730520D01*
X82980520Y-34618716D01*
X82994242Y-34594949D01*
X83049958Y-34498446D01*
X83049959Y-34498443D01*
X83059577Y-34481785D01*
X83100500Y-34329058D01*
X83100500Y-34170943D01*
X83100500Y-31839060D01*
X83100501Y-31839047D01*
X83100501Y-31670944D01*
X83100501Y-31670943D01*
X83059577Y-31518216D01*
X83059573Y-31518209D01*
X82980524Y-31381290D01*
X82980518Y-31381282D01*
X80477946Y-28878711D01*
X84149500Y-28878711D01*
X84149500Y-29121288D01*
X84181161Y-29361785D01*
X84243947Y-29596104D01*
X84336773Y-29820205D01*
X84336777Y-29820214D01*
X84339816Y-29825478D01*
X84458064Y-30030289D01*
X84458066Y-30030292D01*
X84458067Y-30030293D01*
X84605733Y-30222736D01*
X84605739Y-30222743D01*
X84777256Y-30394260D01*
X84777263Y-30394266D01*
X84859733Y-30457547D01*
X84969711Y-30541936D01*
X85179788Y-30663224D01*
X85403900Y-30756054D01*
X85638211Y-30818838D01*
X85818586Y-30842584D01*
X85878711Y-30850500D01*
X85878712Y-30850500D01*
X86121289Y-30850500D01*
X86169388Y-30844167D01*
X86361789Y-30818838D01*
X86596100Y-30756054D01*
X86820212Y-30663224D01*
X87030289Y-30541936D01*
X87222738Y-30394265D01*
X87394265Y-30222738D01*
X87541936Y-30030289D01*
X87663224Y-29820212D01*
X87756054Y-29596100D01*
X87818838Y-29361789D01*
X87850500Y-29121288D01*
X87850500Y-28878712D01*
X87818838Y-28638211D01*
X87756054Y-28403900D01*
X87663224Y-28179788D01*
X87541936Y-27969711D01*
X87394265Y-27777262D01*
X87394260Y-27777256D01*
X87222743Y-27605739D01*
X87222736Y-27605733D01*
X87030293Y-27458067D01*
X87030292Y-27458066D01*
X87030289Y-27458064D01*
X86820212Y-27336776D01*
X86710532Y-27291345D01*
X86596104Y-27243947D01*
X86478944Y-27212554D01*
X86361789Y-27181162D01*
X86361788Y-27181161D01*
X86361785Y-27181161D01*
X86121289Y-27149500D01*
X86121288Y-27149500D01*
X85878712Y-27149500D01*
X85878711Y-27149500D01*
X85638214Y-27181161D01*
X85403895Y-27243947D01*
X85179794Y-27336773D01*
X85179785Y-27336777D01*
X84969706Y-27458067D01*
X84777263Y-27605733D01*
X84777256Y-27605739D01*
X84605739Y-27777256D01*
X84605733Y-27777263D01*
X84458067Y-27969706D01*
X84336777Y-28179785D01*
X84336773Y-28179794D01*
X84243947Y-28403895D01*
X84181161Y-28638214D01*
X84149500Y-28878711D01*
X80477946Y-28878711D01*
X79987590Y-28388355D01*
X79987588Y-28388352D01*
X79868715Y-28269479D01*
X79842927Y-28254591D01*
X79787430Y-28222549D01*
X79739216Y-28171985D01*
X79725992Y-28103378D01*
X79751960Y-28038513D01*
X79761742Y-28027491D01*
X80057294Y-27731939D01*
X80118615Y-27698456D01*
X80177066Y-27699847D01*
X80196604Y-27705082D01*
X80273308Y-27725635D01*
X80435230Y-27739801D01*
X80499998Y-27745468D01*
X80500000Y-27745468D01*
X80500002Y-27745468D01*
X80556673Y-27740509D01*
X80726692Y-27725635D01*
X80946496Y-27666739D01*
X81152734Y-27570568D01*
X81339139Y-27440047D01*
X81500047Y-27279139D01*
X81630568Y-27092734D01*
X81726739Y-26886496D01*
X81785635Y-26666692D01*
X81805468Y-26440000D01*
X81785635Y-26213308D01*
X81726739Y-25993504D01*
X81630568Y-25787266D01*
X81566398Y-25695621D01*
X81544072Y-25629417D01*
X81561082Y-25561650D01*
X81612030Y-25513837D01*
X81667974Y-25500500D01*
X85934108Y-25500500D01*
X85996949Y-25500500D01*
X86003032Y-25500648D01*
G37*
G04 #@! TD.AperFunction*
M02*
