M48
; DRILL file {KiCad 8.0.3-8.0.3-0~ubuntu22.04.1} date 2024-06-26T14:32:41-0700
; FORMAT={-:-/ absolute / metric / decimal}
; #@! TF.CreationDate,2024-06-26T14:32:41-07:00
; #@! TF.GenerationSoftware,Kicad,Pcbnew,8.0.3-8.0.3-0~ubuntu22.04.1
; #@! TF.FileFunction,Plated,1,2,PTH
FMAT,2
METRIC
; #@! TA.AperFunction,Plated,PTH,ViaDrill
T1C0.300
; #@! TA.AperFunction,Plated,PTH,ComponentDrill
T2C0.750
; #@! TA.AperFunction,Plated,PTH,ComponentDrill
T3C0.800
; #@! TA.AperFunction,Plated,PTH,ComponentDrill
T4C0.950
; #@! TA.AperFunction,Plated,PTH,ComponentDrill
T5C1.000
; #@! TA.AperFunction,Plated,PTH,ComponentDrill
T6C1.020
; #@! TA.AperFunction,Plated,PTH,ComponentDrill
T7C1.100
; #@! TA.AperFunction,Plated,PTH,ComponentDrill
T8C1.520
%
G90
G05
T1
X55.75Y-40.0
T2
X37.46Y-36.0
X38.73Y-36.0
X40.0Y-36.0
X42.332Y-44.75
X42.332Y-46.02
X42.332Y-47.29
X42.332Y-54.96
X42.332Y-56.23
X42.332Y-57.5
X42.332Y-65.312
X42.332Y-66.582
X42.332Y-67.852
X79.46Y-39.5
X80.73Y-39.5
X82.0Y-39.5
T3
X34.88Y-30.75
X35.75Y-40.69
X35.75Y-48.31
X35.75Y-51.38
X35.75Y-59.0
X35.75Y-61.272
X35.75Y-68.892
X42.5Y-30.75
X45.25Y-28.69
X45.25Y-36.31
X48.5Y-28.69
X48.5Y-36.31
X51.75Y-28.69
X51.75Y-36.31
X53.94Y-40.0
X56.13Y-36.0
X61.56Y-40.0
X63.75Y-36.0
X72.5Y-36.75
X72.5Y-39.25
X80.5Y-26.44
X80.5Y-34.06
T4
X27.725Y-47.75
X27.725Y-50.25
X27.725Y-52.75
X27.725Y-55.25
X27.725Y-57.75
X27.725Y-60.25
X27.75Y-35.75
X27.75Y-38.25
X27.75Y-40.75
T5
X48.34Y-47.75
X48.34Y-58.0
X48.34Y-68.25
X50.88Y-47.75
X50.88Y-58.0
X50.88Y-68.25
X61.04Y-47.75
X61.04Y-58.0
X61.04Y-68.25
X68.66Y-47.75
X68.66Y-58.0
X68.66Y-68.25
T6
X67.88Y-28.75
X70.42Y-28.75
X72.96Y-28.75
X75.5Y-28.75
T7
X55.94Y-29.0
X63.56Y-29.0
X86.0Y-37.42
X86.0Y-39.96
X86.0Y-42.5
T8
X86.0Y-49.92
X86.0Y-55.0
X86.0Y-60.08
M30
