%TF.GenerationSoftware,KiCad,Pcbnew,8.0.3-8.0.3-0~ubuntu22.04.1*%
%TF.CreationDate,2024-06-26T14:32:43-07:00*%
%TF.ProjectId,pifire-relay-pwm-module-SSR-alt,70696669-7265-42d7-9265-6c61792d7077,rev?*%
%TF.SameCoordinates,Original*%
%TF.FileFunction,Drillmap*%
%TF.FilePolarity,Positive*%
%FSLAX45Y45*%
G04 Gerber Fmt 4.5, Leading zero omitted, Abs format (unit mm)*
G04 Created by KiCad (PCBNEW 8.0.3-8.0.3-0~ubuntu22.04.1) date 2024-06-26 14:32:43*
%MOMM*%
%LPD*%
G01*
G04 APERTURE LIST*
%ADD10C,0.050000*%
%ADD11C,0.200000*%
%ADD12C,0.100000*%
%ADD13C,0.102000*%
%ADD14C,0.110000*%
%ADD15C,0.152000*%
G04 APERTURE END LIST*
D10*
X5350000Y-5312500D02*
X5600000Y-5312500D01*
X5600000Y-5987500D01*
X5350000Y-5987500D01*
X5350000Y-5312500D01*
D11*
X9000000Y-2900000D02*
X9000000Y-6700000D01*
X2900000Y-2500000D02*
X8600000Y-2500000D01*
D10*
X5350000Y-6350000D02*
X5600000Y-6350000D01*
X5600000Y-7025000D01*
X5350000Y-7025000D01*
X5350000Y-6350000D01*
X5350000Y-4287500D02*
X5600000Y-4287500D01*
X5600000Y-4962500D01*
X5350000Y-4962500D01*
X5350000Y-4287500D01*
D11*
X8600000Y-2500000D02*
G75*
G02*
X9000000Y-2900000I0J-400000D01*
G01*
X8600000Y-7100000D02*
X2900000Y-7100000D01*
X2500000Y-2900000D02*
G75*
G02*
X2900000Y-2500000I400000J0D01*
G01*
X9000000Y-6700000D02*
G75*
G02*
X8600000Y-7100000I-400000J0D01*
G01*
X2900000Y-7100000D02*
G75*
G02*
X2500000Y-6700000I0J400000D01*
G01*
X2500000Y-6700000D02*
X2500000Y-2900000D01*
D12*
X5560000Y-3985000D02*
X5590000Y-4015000D01*
X5590000Y-3985000D02*
X5560000Y-4015000D01*
X3783500Y-3600000D02*
G75*
G02*
X3708500Y-3600000I-37500J0D01*
G01*
X3708500Y-3600000D02*
G75*
G02*
X3783500Y-3600000I37500J0D01*
G01*
X3910500Y-3600000D02*
G75*
G02*
X3835500Y-3600000I-37500J0D01*
G01*
X3835500Y-3600000D02*
G75*
G02*
X3910500Y-3600000I37500J0D01*
G01*
X4037500Y-3600000D02*
G75*
G02*
X3962500Y-3600000I-37500J0D01*
G01*
X3962500Y-3600000D02*
G75*
G02*
X4037500Y-3600000I37500J0D01*
G01*
X4270750Y-4475000D02*
G75*
G02*
X4195750Y-4475000I-37500J0D01*
G01*
X4195750Y-4475000D02*
G75*
G02*
X4270750Y-4475000I37500J0D01*
G01*
X4270750Y-4602000D02*
G75*
G02*
X4195750Y-4602000I-37500J0D01*
G01*
X4195750Y-4602000D02*
G75*
G02*
X4270750Y-4602000I37500J0D01*
G01*
X4270750Y-4729000D02*
G75*
G02*
X4195750Y-4729000I-37500J0D01*
G01*
X4195750Y-4729000D02*
G75*
G02*
X4270750Y-4729000I37500J0D01*
G01*
X4270750Y-5496000D02*
G75*
G02*
X4195750Y-5496000I-37500J0D01*
G01*
X4195750Y-5496000D02*
G75*
G02*
X4270750Y-5496000I37500J0D01*
G01*
X4270750Y-5623000D02*
G75*
G02*
X4195750Y-5623000I-37500J0D01*
G01*
X4195750Y-5623000D02*
G75*
G02*
X4270750Y-5623000I37500J0D01*
G01*
X4270750Y-5750000D02*
G75*
G02*
X4195750Y-5750000I-37500J0D01*
G01*
X4195750Y-5750000D02*
G75*
G02*
X4270750Y-5750000I37500J0D01*
G01*
X4270750Y-6531250D02*
G75*
G02*
X4195750Y-6531250I-37500J0D01*
G01*
X4195750Y-6531250D02*
G75*
G02*
X4270750Y-6531250I37500J0D01*
G01*
X4270750Y-6658250D02*
G75*
G02*
X4195750Y-6658250I-37500J0D01*
G01*
X4195750Y-6658250D02*
G75*
G02*
X4270750Y-6658250I37500J0D01*
G01*
X4270750Y-6785250D02*
G75*
G02*
X4195750Y-6785250I-37500J0D01*
G01*
X4195750Y-6785250D02*
G75*
G02*
X4270750Y-6785250I37500J0D01*
G01*
X7983500Y-3950000D02*
G75*
G02*
X7908500Y-3950000I-37500J0D01*
G01*
X7908500Y-3950000D02*
G75*
G02*
X7983500Y-3950000I37500J0D01*
G01*
X8110500Y-3950000D02*
G75*
G02*
X8035500Y-3950000I-37500J0D01*
G01*
X8035500Y-3950000D02*
G75*
G02*
X8110500Y-3950000I37500J0D01*
G01*
X8237500Y-3950000D02*
G75*
G02*
X8162500Y-3950000I-37500J0D01*
G01*
X8162500Y-3950000D02*
G75*
G02*
X8237500Y-3950000I37500J0D01*
G01*
X3488000Y-3035000D02*
X3488000Y-3115000D01*
X3448000Y-3075000D02*
X3528000Y-3075000D01*
X3575000Y-4029000D02*
X3575000Y-4109000D01*
X3535000Y-4069000D02*
X3615000Y-4069000D01*
X3575000Y-4791000D02*
X3575000Y-4871000D01*
X3535000Y-4831000D02*
X3615000Y-4831000D01*
X3575000Y-5098000D02*
X3575000Y-5178000D01*
X3535000Y-5138000D02*
X3615000Y-5138000D01*
X3575000Y-5860000D02*
X3575000Y-5940000D01*
X3535000Y-5900000D02*
X3615000Y-5900000D01*
X3575000Y-6087250D02*
X3575000Y-6167250D01*
X3535000Y-6127250D02*
X3615000Y-6127250D01*
X3575000Y-6849250D02*
X3575000Y-6929250D01*
X3535000Y-6889250D02*
X3615000Y-6889250D01*
X4250000Y-3035000D02*
X4250000Y-3115000D01*
X4210000Y-3075000D02*
X4290000Y-3075000D01*
X4525000Y-2829000D02*
X4525000Y-2909000D01*
X4485000Y-2869000D02*
X4565000Y-2869000D01*
X4525000Y-3591000D02*
X4525000Y-3671000D01*
X4485000Y-3631000D02*
X4565000Y-3631000D01*
X4850000Y-2829000D02*
X4850000Y-2909000D01*
X4810000Y-2869000D02*
X4890000Y-2869000D01*
X4850000Y-3591000D02*
X4850000Y-3671000D01*
X4810000Y-3631000D02*
X4890000Y-3631000D01*
X5175000Y-2829000D02*
X5175000Y-2909000D01*
X5135000Y-2869000D02*
X5215000Y-2869000D01*
X5175000Y-3591000D02*
X5175000Y-3671000D01*
X5135000Y-3631000D02*
X5215000Y-3631000D01*
X5394000Y-3960000D02*
X5394000Y-4040000D01*
X5354000Y-4000000D02*
X5434000Y-4000000D01*
X5613000Y-3560000D02*
X5613000Y-3640000D01*
X5573000Y-3600000D02*
X5653000Y-3600000D01*
X6156000Y-3960000D02*
X6156000Y-4040000D01*
X6116000Y-4000000D02*
X6196000Y-4000000D01*
X6375000Y-3560000D02*
X6375000Y-3640000D01*
X6335000Y-3600000D02*
X6415000Y-3600000D01*
X7250000Y-3635000D02*
X7250000Y-3715000D01*
X7210000Y-3675000D02*
X7290000Y-3675000D01*
X7250000Y-3885000D02*
X7250000Y-3965000D01*
X7210000Y-3925000D02*
X7290000Y-3925000D01*
X8050000Y-2604000D02*
X8050000Y-2684000D01*
X8010000Y-2644000D02*
X8090000Y-2644000D01*
X8050000Y-3366000D02*
X8050000Y-3446000D01*
X8010000Y-3406000D02*
X8090000Y-3406000D01*
X2806088Y-4808588D02*
X2806088Y-4741412D01*
X2738912Y-4741412D01*
X2738912Y-4808588D01*
X2806088Y-4808588D01*
X2806088Y-5058588D02*
X2806088Y-4991412D01*
X2738912Y-4991412D01*
X2738912Y-5058588D01*
X2806088Y-5058588D01*
X2806088Y-5308588D02*
X2806088Y-5241412D01*
X2738912Y-5241412D01*
X2738912Y-5308588D01*
X2806088Y-5308588D01*
X2806088Y-5558588D02*
X2806088Y-5491412D01*
X2738912Y-5491412D01*
X2738912Y-5558588D01*
X2806088Y-5558588D01*
X2806088Y-5808588D02*
X2806088Y-5741412D01*
X2738912Y-5741412D01*
X2738912Y-5808588D01*
X2806088Y-5808588D01*
X2806088Y-6058588D02*
X2806088Y-5991412D01*
X2738912Y-5991412D01*
X2738912Y-6058588D01*
X2806088Y-6058588D01*
X2808588Y-3608588D02*
X2808588Y-3541412D01*
X2741412Y-3541412D01*
X2741412Y-3608588D01*
X2808588Y-3608588D01*
X2808588Y-3858588D02*
X2808588Y-3791412D01*
X2741412Y-3791412D01*
X2741412Y-3858588D01*
X2808588Y-3858588D01*
X2808588Y-4108588D02*
X2808588Y-4041412D01*
X2741412Y-4041412D01*
X2741412Y-4108588D01*
X2808588Y-4108588D01*
X4834000Y-4825000D02*
X4884000Y-4775000D01*
X4834000Y-4725000D01*
X4784000Y-4775000D01*
X4834000Y-4825000D01*
X4834000Y-5850000D02*
X4884000Y-5800000D01*
X4834000Y-5750000D01*
X4784000Y-5800000D01*
X4834000Y-5850000D01*
X4834000Y-6875000D02*
X4884000Y-6825000D01*
X4834000Y-6775000D01*
X4784000Y-6825000D01*
X4834000Y-6875000D01*
X5088000Y-4825000D02*
X5138000Y-4775000D01*
X5088000Y-4725000D01*
X5038000Y-4775000D01*
X5088000Y-4825000D01*
X5088000Y-5850000D02*
X5138000Y-5800000D01*
X5088000Y-5750000D01*
X5038000Y-5800000D01*
X5088000Y-5850000D01*
X5088000Y-6875000D02*
X5138000Y-6825000D01*
X5088000Y-6775000D01*
X5038000Y-6825000D01*
X5088000Y-6875000D01*
X6104000Y-4825000D02*
X6154000Y-4775000D01*
X6104000Y-4725000D01*
X6054000Y-4775000D01*
X6104000Y-4825000D01*
X6104000Y-5850000D02*
X6154000Y-5800000D01*
X6104000Y-5750000D01*
X6054000Y-5800000D01*
X6104000Y-5850000D01*
X6104000Y-6875000D02*
X6154000Y-6825000D01*
X6104000Y-6775000D01*
X6054000Y-6825000D01*
X6104000Y-6875000D01*
X6866000Y-4825000D02*
X6916000Y-4775000D01*
X6866000Y-4725000D01*
X6816000Y-4775000D01*
X6866000Y-4825000D01*
X6866000Y-5850000D02*
X6916000Y-5800000D01*
X6866000Y-5750000D01*
X6816000Y-5800000D01*
X6866000Y-5850000D01*
X6866000Y-6875000D02*
X6916000Y-6825000D01*
X6866000Y-6775000D01*
X6816000Y-6825000D01*
X6866000Y-6875000D01*
D13*
X6737000Y-2824000D02*
X6839000Y-2926000D01*
X6839000Y-2824000D02*
X6737000Y-2926000D01*
X6839000Y-2875000D02*
G75*
G02*
X6737000Y-2875000I-51000J0D01*
G01*
X6737000Y-2875000D02*
G75*
G02*
X6839000Y-2875000I51000J0D01*
G01*
X6991000Y-2824000D02*
X7093000Y-2926000D01*
X7093000Y-2824000D02*
X6991000Y-2926000D01*
X7093000Y-2875000D02*
G75*
G02*
X6991000Y-2875000I-51000J0D01*
G01*
X6991000Y-2875000D02*
G75*
G02*
X7093000Y-2875000I51000J0D01*
G01*
X7245000Y-2824000D02*
X7347000Y-2926000D01*
X7347000Y-2824000D02*
X7245000Y-2926000D01*
X7347000Y-2875000D02*
G75*
G02*
X7245000Y-2875000I-51000J0D01*
G01*
X7245000Y-2875000D02*
G75*
G02*
X7347000Y-2875000I51000J0D01*
G01*
X7499000Y-2824000D02*
X7601000Y-2926000D01*
X7601000Y-2824000D02*
X7499000Y-2926000D01*
X7601000Y-2875000D02*
G75*
G02*
X7499000Y-2875000I-51000J0D01*
G01*
X7499000Y-2875000D02*
G75*
G02*
X7601000Y-2875000I51000J0D01*
G01*
D14*
X5539000Y-2845000D02*
X5649000Y-2955000D01*
X5649000Y-2845000D02*
X5539000Y-2955000D01*
X5594000Y-2845000D02*
X5594000Y-2955000D01*
X5539000Y-2900000D02*
X5649000Y-2900000D01*
X6301000Y-2845000D02*
X6411000Y-2955000D01*
X6411000Y-2845000D02*
X6301000Y-2955000D01*
X6356000Y-2845000D02*
X6356000Y-2955000D01*
X6301000Y-2900000D02*
X6411000Y-2900000D01*
X8545000Y-3687000D02*
X8655000Y-3797000D01*
X8655000Y-3687000D02*
X8545000Y-3797000D01*
X8600000Y-3687000D02*
X8600000Y-3797000D01*
X8545000Y-3742000D02*
X8655000Y-3742000D01*
X8545000Y-3941000D02*
X8655000Y-4051000D01*
X8655000Y-3941000D02*
X8545000Y-4051000D01*
X8600000Y-3941000D02*
X8600000Y-4051000D01*
X8545000Y-3996000D02*
X8655000Y-3996000D01*
X8545000Y-4195000D02*
X8655000Y-4305000D01*
X8655000Y-4195000D02*
X8545000Y-4305000D01*
X8600000Y-4195000D02*
X8600000Y-4305000D01*
X8545000Y-4250000D02*
X8655000Y-4250000D01*
D15*
X8524000Y-4916000D02*
X8676000Y-5068000D01*
X8676000Y-4916000D02*
X8524000Y-5068000D01*
X8653741Y-5045741D02*
X8653741Y-4938259D01*
X8546259Y-4938259D01*
X8546259Y-5045741D01*
X8653741Y-5045741D01*
X8524000Y-5424000D02*
X8676000Y-5576000D01*
X8676000Y-5424000D02*
X8524000Y-5576000D01*
X8653741Y-5553741D02*
X8653741Y-5446259D01*
X8546259Y-5446259D01*
X8546259Y-5553741D01*
X8653741Y-5553741D01*
X8524000Y-5932000D02*
X8676000Y-6084000D01*
X8676000Y-5932000D02*
X8524000Y-6084000D01*
X8653741Y-6061741D02*
X8653741Y-5954259D01*
X8546259Y-5954259D01*
X8546259Y-6061741D01*
X8653741Y-6061741D01*
D11*
X2750777Y-7421484D02*
X2750777Y-7221484D01*
X2750777Y-7221484D02*
X2798396Y-7221484D01*
X2798396Y-7221484D02*
X2826967Y-7231008D01*
X2826967Y-7231008D02*
X2846015Y-7250055D01*
X2846015Y-7250055D02*
X2855539Y-7269103D01*
X2855539Y-7269103D02*
X2865062Y-7307198D01*
X2865062Y-7307198D02*
X2865062Y-7335769D01*
X2865062Y-7335769D02*
X2855539Y-7373865D01*
X2855539Y-7373865D02*
X2846015Y-7392912D01*
X2846015Y-7392912D02*
X2826967Y-7411960D01*
X2826967Y-7411960D02*
X2798396Y-7421484D01*
X2798396Y-7421484D02*
X2750777Y-7421484D01*
X2950777Y-7421484D02*
X2950777Y-7288150D01*
X2950777Y-7326246D02*
X2960301Y-7307198D01*
X2960301Y-7307198D02*
X2969824Y-7297674D01*
X2969824Y-7297674D02*
X2988872Y-7288150D01*
X2988872Y-7288150D02*
X3007920Y-7288150D01*
X3074586Y-7421484D02*
X3074586Y-7288150D01*
X3074586Y-7221484D02*
X3065062Y-7231008D01*
X3065062Y-7231008D02*
X3074586Y-7240531D01*
X3074586Y-7240531D02*
X3084110Y-7231008D01*
X3084110Y-7231008D02*
X3074586Y-7221484D01*
X3074586Y-7221484D02*
X3074586Y-7240531D01*
X3198396Y-7421484D02*
X3179348Y-7411960D01*
X3179348Y-7411960D02*
X3169824Y-7392912D01*
X3169824Y-7392912D02*
X3169824Y-7221484D01*
X3303158Y-7421484D02*
X3284110Y-7411960D01*
X3284110Y-7411960D02*
X3274586Y-7392912D01*
X3274586Y-7392912D02*
X3274586Y-7221484D01*
X3531729Y-7421484D02*
X3531729Y-7221484D01*
X3531729Y-7221484D02*
X3598396Y-7364341D01*
X3598396Y-7364341D02*
X3665062Y-7221484D01*
X3665062Y-7221484D02*
X3665062Y-7421484D01*
X3846015Y-7421484D02*
X3846015Y-7316722D01*
X3846015Y-7316722D02*
X3836491Y-7297674D01*
X3836491Y-7297674D02*
X3817443Y-7288150D01*
X3817443Y-7288150D02*
X3779348Y-7288150D01*
X3779348Y-7288150D02*
X3760301Y-7297674D01*
X3846015Y-7411960D02*
X3826967Y-7421484D01*
X3826967Y-7421484D02*
X3779348Y-7421484D01*
X3779348Y-7421484D02*
X3760301Y-7411960D01*
X3760301Y-7411960D02*
X3750777Y-7392912D01*
X3750777Y-7392912D02*
X3750777Y-7373865D01*
X3750777Y-7373865D02*
X3760301Y-7354817D01*
X3760301Y-7354817D02*
X3779348Y-7345293D01*
X3779348Y-7345293D02*
X3826967Y-7345293D01*
X3826967Y-7345293D02*
X3846015Y-7335769D01*
X3941253Y-7288150D02*
X3941253Y-7488150D01*
X3941253Y-7297674D02*
X3960301Y-7288150D01*
X3960301Y-7288150D02*
X3998396Y-7288150D01*
X3998396Y-7288150D02*
X4017443Y-7297674D01*
X4017443Y-7297674D02*
X4026967Y-7307198D01*
X4026967Y-7307198D02*
X4036491Y-7326246D01*
X4036491Y-7326246D02*
X4036491Y-7383388D01*
X4036491Y-7383388D02*
X4026967Y-7402436D01*
X4026967Y-7402436D02*
X4017443Y-7411960D01*
X4017443Y-7411960D02*
X3998396Y-7421484D01*
X3998396Y-7421484D02*
X3960301Y-7421484D01*
X3960301Y-7421484D02*
X3941253Y-7411960D01*
X4122205Y-7402436D02*
X4131729Y-7411960D01*
X4131729Y-7411960D02*
X4122205Y-7421484D01*
X4122205Y-7421484D02*
X4112682Y-7411960D01*
X4112682Y-7411960D02*
X4122205Y-7402436D01*
X4122205Y-7402436D02*
X4122205Y-7421484D01*
X4122205Y-7297674D02*
X4131729Y-7307198D01*
X4131729Y-7307198D02*
X4122205Y-7316722D01*
X4122205Y-7316722D02*
X4112682Y-7307198D01*
X4112682Y-7307198D02*
X4122205Y-7297674D01*
X4122205Y-7297674D02*
X4122205Y-7316722D01*
D12*
X2460000Y-7735000D02*
X2490000Y-7765000D01*
X2490000Y-7735000D02*
X2460000Y-7765000D01*
D11*
X2788872Y-7641484D02*
X2807920Y-7641484D01*
X2807920Y-7641484D02*
X2826967Y-7651008D01*
X2826967Y-7651008D02*
X2836491Y-7660531D01*
X2836491Y-7660531D02*
X2846015Y-7679579D01*
X2846015Y-7679579D02*
X2855539Y-7717674D01*
X2855539Y-7717674D02*
X2855539Y-7765293D01*
X2855539Y-7765293D02*
X2846015Y-7803388D01*
X2846015Y-7803388D02*
X2836491Y-7822436D01*
X2836491Y-7822436D02*
X2826967Y-7831960D01*
X2826967Y-7831960D02*
X2807920Y-7841484D01*
X2807920Y-7841484D02*
X2788872Y-7841484D01*
X2788872Y-7841484D02*
X2769824Y-7831960D01*
X2769824Y-7831960D02*
X2760301Y-7822436D01*
X2760301Y-7822436D02*
X2750777Y-7803388D01*
X2750777Y-7803388D02*
X2741253Y-7765293D01*
X2741253Y-7765293D02*
X2741253Y-7717674D01*
X2741253Y-7717674D02*
X2750777Y-7679579D01*
X2750777Y-7679579D02*
X2760301Y-7660531D01*
X2760301Y-7660531D02*
X2769824Y-7651008D01*
X2769824Y-7651008D02*
X2788872Y-7641484D01*
X2941253Y-7822436D02*
X2950777Y-7831960D01*
X2950777Y-7831960D02*
X2941253Y-7841484D01*
X2941253Y-7841484D02*
X2931729Y-7831960D01*
X2931729Y-7831960D02*
X2941253Y-7822436D01*
X2941253Y-7822436D02*
X2941253Y-7841484D01*
X3017443Y-7641484D02*
X3141253Y-7641484D01*
X3141253Y-7641484D02*
X3074586Y-7717674D01*
X3074586Y-7717674D02*
X3103158Y-7717674D01*
X3103158Y-7717674D02*
X3122205Y-7727198D01*
X3122205Y-7727198D02*
X3131729Y-7736722D01*
X3131729Y-7736722D02*
X3141253Y-7755769D01*
X3141253Y-7755769D02*
X3141253Y-7803388D01*
X3141253Y-7803388D02*
X3131729Y-7822436D01*
X3131729Y-7822436D02*
X3122205Y-7831960D01*
X3122205Y-7831960D02*
X3103158Y-7841484D01*
X3103158Y-7841484D02*
X3046015Y-7841484D01*
X3046015Y-7841484D02*
X3026967Y-7831960D01*
X3026967Y-7831960D02*
X3017443Y-7822436D01*
X3265062Y-7641484D02*
X3284110Y-7641484D01*
X3284110Y-7641484D02*
X3303158Y-7651008D01*
X3303158Y-7651008D02*
X3312682Y-7660531D01*
X3312682Y-7660531D02*
X3322205Y-7679579D01*
X3322205Y-7679579D02*
X3331729Y-7717674D01*
X3331729Y-7717674D02*
X3331729Y-7765293D01*
X3331729Y-7765293D02*
X3322205Y-7803388D01*
X3322205Y-7803388D02*
X3312682Y-7822436D01*
X3312682Y-7822436D02*
X3303158Y-7831960D01*
X3303158Y-7831960D02*
X3284110Y-7841484D01*
X3284110Y-7841484D02*
X3265062Y-7841484D01*
X3265062Y-7841484D02*
X3246015Y-7831960D01*
X3246015Y-7831960D02*
X3236491Y-7822436D01*
X3236491Y-7822436D02*
X3226967Y-7803388D01*
X3226967Y-7803388D02*
X3217443Y-7765293D01*
X3217443Y-7765293D02*
X3217443Y-7717674D01*
X3217443Y-7717674D02*
X3226967Y-7679579D01*
X3226967Y-7679579D02*
X3236491Y-7660531D01*
X3236491Y-7660531D02*
X3246015Y-7651008D01*
X3246015Y-7651008D02*
X3265062Y-7641484D01*
X3455539Y-7641484D02*
X3474586Y-7641484D01*
X3474586Y-7641484D02*
X3493634Y-7651008D01*
X3493634Y-7651008D02*
X3503158Y-7660531D01*
X3503158Y-7660531D02*
X3512682Y-7679579D01*
X3512682Y-7679579D02*
X3522205Y-7717674D01*
X3522205Y-7717674D02*
X3522205Y-7765293D01*
X3522205Y-7765293D02*
X3512682Y-7803388D01*
X3512682Y-7803388D02*
X3503158Y-7822436D01*
X3503158Y-7822436D02*
X3493634Y-7831960D01*
X3493634Y-7831960D02*
X3474586Y-7841484D01*
X3474586Y-7841484D02*
X3455539Y-7841484D01*
X3455539Y-7841484D02*
X3436491Y-7831960D01*
X3436491Y-7831960D02*
X3426967Y-7822436D01*
X3426967Y-7822436D02*
X3417443Y-7803388D01*
X3417443Y-7803388D02*
X3407920Y-7765293D01*
X3407920Y-7765293D02*
X3407920Y-7717674D01*
X3407920Y-7717674D02*
X3417443Y-7679579D01*
X3417443Y-7679579D02*
X3426967Y-7660531D01*
X3426967Y-7660531D02*
X3436491Y-7651008D01*
X3436491Y-7651008D02*
X3455539Y-7641484D01*
X3607920Y-7841484D02*
X3607920Y-7708150D01*
X3607920Y-7727198D02*
X3617443Y-7717674D01*
X3617443Y-7717674D02*
X3636491Y-7708150D01*
X3636491Y-7708150D02*
X3665063Y-7708150D01*
X3665063Y-7708150D02*
X3684110Y-7717674D01*
X3684110Y-7717674D02*
X3693634Y-7736722D01*
X3693634Y-7736722D02*
X3693634Y-7841484D01*
X3693634Y-7736722D02*
X3703158Y-7717674D01*
X3703158Y-7717674D02*
X3722205Y-7708150D01*
X3722205Y-7708150D02*
X3750777Y-7708150D01*
X3750777Y-7708150D02*
X3769824Y-7717674D01*
X3769824Y-7717674D02*
X3779348Y-7736722D01*
X3779348Y-7736722D02*
X3779348Y-7841484D01*
X3874586Y-7841484D02*
X3874586Y-7708150D01*
X3874586Y-7727198D02*
X3884110Y-7717674D01*
X3884110Y-7717674D02*
X3903158Y-7708150D01*
X3903158Y-7708150D02*
X3931729Y-7708150D01*
X3931729Y-7708150D02*
X3950777Y-7717674D01*
X3950777Y-7717674D02*
X3960301Y-7736722D01*
X3960301Y-7736722D02*
X3960301Y-7841484D01*
X3960301Y-7736722D02*
X3969824Y-7717674D01*
X3969824Y-7717674D02*
X3988872Y-7708150D01*
X3988872Y-7708150D02*
X4017443Y-7708150D01*
X4017443Y-7708150D02*
X4036491Y-7717674D01*
X4036491Y-7717674D02*
X4046015Y-7736722D01*
X4046015Y-7736722D02*
X4046015Y-7841484D01*
X4436491Y-7631960D02*
X4265063Y-7889103D01*
X4693634Y-7641484D02*
X4712682Y-7641484D01*
X4712682Y-7641484D02*
X4731729Y-7651008D01*
X4731729Y-7651008D02*
X4741253Y-7660531D01*
X4741253Y-7660531D02*
X4750777Y-7679579D01*
X4750777Y-7679579D02*
X4760301Y-7717674D01*
X4760301Y-7717674D02*
X4760301Y-7765293D01*
X4760301Y-7765293D02*
X4750777Y-7803388D01*
X4750777Y-7803388D02*
X4741253Y-7822436D01*
X4741253Y-7822436D02*
X4731729Y-7831960D01*
X4731729Y-7831960D02*
X4712682Y-7841484D01*
X4712682Y-7841484D02*
X4693634Y-7841484D01*
X4693634Y-7841484D02*
X4674587Y-7831960D01*
X4674587Y-7831960D02*
X4665063Y-7822436D01*
X4665063Y-7822436D02*
X4655539Y-7803388D01*
X4655539Y-7803388D02*
X4646015Y-7765293D01*
X4646015Y-7765293D02*
X4646015Y-7717674D01*
X4646015Y-7717674D02*
X4655539Y-7679579D01*
X4655539Y-7679579D02*
X4665063Y-7660531D01*
X4665063Y-7660531D02*
X4674587Y-7651008D01*
X4674587Y-7651008D02*
X4693634Y-7641484D01*
X4846015Y-7822436D02*
X4855539Y-7831960D01*
X4855539Y-7831960D02*
X4846015Y-7841484D01*
X4846015Y-7841484D02*
X4836491Y-7831960D01*
X4836491Y-7831960D02*
X4846015Y-7822436D01*
X4846015Y-7822436D02*
X4846015Y-7841484D01*
X4979348Y-7641484D02*
X4998396Y-7641484D01*
X4998396Y-7641484D02*
X5017444Y-7651008D01*
X5017444Y-7651008D02*
X5026968Y-7660531D01*
X5026968Y-7660531D02*
X5036491Y-7679579D01*
X5036491Y-7679579D02*
X5046015Y-7717674D01*
X5046015Y-7717674D02*
X5046015Y-7765293D01*
X5046015Y-7765293D02*
X5036491Y-7803388D01*
X5036491Y-7803388D02*
X5026968Y-7822436D01*
X5026968Y-7822436D02*
X5017444Y-7831960D01*
X5017444Y-7831960D02*
X4998396Y-7841484D01*
X4998396Y-7841484D02*
X4979348Y-7841484D01*
X4979348Y-7841484D02*
X4960301Y-7831960D01*
X4960301Y-7831960D02*
X4950777Y-7822436D01*
X4950777Y-7822436D02*
X4941253Y-7803388D01*
X4941253Y-7803388D02*
X4931729Y-7765293D01*
X4931729Y-7765293D02*
X4931729Y-7717674D01*
X4931729Y-7717674D02*
X4941253Y-7679579D01*
X4941253Y-7679579D02*
X4950777Y-7660531D01*
X4950777Y-7660531D02*
X4960301Y-7651008D01*
X4960301Y-7651008D02*
X4979348Y-7641484D01*
X5236491Y-7841484D02*
X5122206Y-7841484D01*
X5179348Y-7841484D02*
X5179348Y-7641484D01*
X5179348Y-7641484D02*
X5160301Y-7670055D01*
X5160301Y-7670055D02*
X5141253Y-7689103D01*
X5141253Y-7689103D02*
X5122206Y-7698627D01*
X5426968Y-7841484D02*
X5312682Y-7841484D01*
X5369825Y-7841484D02*
X5369825Y-7641484D01*
X5369825Y-7641484D02*
X5350777Y-7670055D01*
X5350777Y-7670055D02*
X5331729Y-7689103D01*
X5331729Y-7689103D02*
X5312682Y-7698627D01*
X5541253Y-7727198D02*
X5522206Y-7717674D01*
X5522206Y-7717674D02*
X5512682Y-7708150D01*
X5512682Y-7708150D02*
X5503158Y-7689103D01*
X5503158Y-7689103D02*
X5503158Y-7679579D01*
X5503158Y-7679579D02*
X5512682Y-7660531D01*
X5512682Y-7660531D02*
X5522206Y-7651008D01*
X5522206Y-7651008D02*
X5541253Y-7641484D01*
X5541253Y-7641484D02*
X5579349Y-7641484D01*
X5579349Y-7641484D02*
X5598396Y-7651008D01*
X5598396Y-7651008D02*
X5607920Y-7660531D01*
X5607920Y-7660531D02*
X5617444Y-7679579D01*
X5617444Y-7679579D02*
X5617444Y-7689103D01*
X5617444Y-7689103D02*
X5607920Y-7708150D01*
X5607920Y-7708150D02*
X5598396Y-7717674D01*
X5598396Y-7717674D02*
X5579349Y-7727198D01*
X5579349Y-7727198D02*
X5541253Y-7727198D01*
X5541253Y-7727198D02*
X5522206Y-7736722D01*
X5522206Y-7736722D02*
X5512682Y-7746246D01*
X5512682Y-7746246D02*
X5503158Y-7765293D01*
X5503158Y-7765293D02*
X5503158Y-7803388D01*
X5503158Y-7803388D02*
X5512682Y-7822436D01*
X5512682Y-7822436D02*
X5522206Y-7831960D01*
X5522206Y-7831960D02*
X5541253Y-7841484D01*
X5541253Y-7841484D02*
X5579349Y-7841484D01*
X5579349Y-7841484D02*
X5598396Y-7831960D01*
X5598396Y-7831960D02*
X5607920Y-7822436D01*
X5607920Y-7822436D02*
X5617444Y-7803388D01*
X5617444Y-7803388D02*
X5617444Y-7765293D01*
X5617444Y-7765293D02*
X5607920Y-7746246D01*
X5607920Y-7746246D02*
X5598396Y-7736722D01*
X5598396Y-7736722D02*
X5579349Y-7727198D01*
X5693634Y-7641484D02*
X5693634Y-7679579D01*
X5769825Y-7641484D02*
X5769825Y-7679579D01*
X6065063Y-7917674D02*
X6055539Y-7908150D01*
X6055539Y-7908150D02*
X6036491Y-7879579D01*
X6036491Y-7879579D02*
X6026968Y-7860531D01*
X6026968Y-7860531D02*
X6017444Y-7831960D01*
X6017444Y-7831960D02*
X6007920Y-7784341D01*
X6007920Y-7784341D02*
X6007920Y-7746246D01*
X6007920Y-7746246D02*
X6017444Y-7698627D01*
X6017444Y-7698627D02*
X6026968Y-7670055D01*
X6026968Y-7670055D02*
X6036491Y-7651008D01*
X6036491Y-7651008D02*
X6055539Y-7622436D01*
X6055539Y-7622436D02*
X6065063Y-7612912D01*
X6246015Y-7841484D02*
X6131729Y-7841484D01*
X6188872Y-7841484D02*
X6188872Y-7641484D01*
X6188872Y-7641484D02*
X6169825Y-7670055D01*
X6169825Y-7670055D02*
X6150777Y-7689103D01*
X6150777Y-7689103D02*
X6131729Y-7698627D01*
X6484110Y-7841484D02*
X6484110Y-7641484D01*
X6569825Y-7841484D02*
X6569825Y-7736722D01*
X6569825Y-7736722D02*
X6560301Y-7717674D01*
X6560301Y-7717674D02*
X6541253Y-7708150D01*
X6541253Y-7708150D02*
X6512682Y-7708150D01*
X6512682Y-7708150D02*
X6493634Y-7717674D01*
X6493634Y-7717674D02*
X6484110Y-7727198D01*
X6693634Y-7841484D02*
X6674587Y-7831960D01*
X6674587Y-7831960D02*
X6665063Y-7822436D01*
X6665063Y-7822436D02*
X6655539Y-7803388D01*
X6655539Y-7803388D02*
X6655539Y-7746246D01*
X6655539Y-7746246D02*
X6665063Y-7727198D01*
X6665063Y-7727198D02*
X6674587Y-7717674D01*
X6674587Y-7717674D02*
X6693634Y-7708150D01*
X6693634Y-7708150D02*
X6722206Y-7708150D01*
X6722206Y-7708150D02*
X6741253Y-7717674D01*
X6741253Y-7717674D02*
X6750777Y-7727198D01*
X6750777Y-7727198D02*
X6760301Y-7746246D01*
X6760301Y-7746246D02*
X6760301Y-7803388D01*
X6760301Y-7803388D02*
X6750777Y-7822436D01*
X6750777Y-7822436D02*
X6741253Y-7831960D01*
X6741253Y-7831960D02*
X6722206Y-7841484D01*
X6722206Y-7841484D02*
X6693634Y-7841484D01*
X6874587Y-7841484D02*
X6855539Y-7831960D01*
X6855539Y-7831960D02*
X6846015Y-7812912D01*
X6846015Y-7812912D02*
X6846015Y-7641484D01*
X7026968Y-7831960D02*
X7007920Y-7841484D01*
X7007920Y-7841484D02*
X6969825Y-7841484D01*
X6969825Y-7841484D02*
X6950777Y-7831960D01*
X6950777Y-7831960D02*
X6941253Y-7812912D01*
X6941253Y-7812912D02*
X6941253Y-7736722D01*
X6941253Y-7736722D02*
X6950777Y-7717674D01*
X6950777Y-7717674D02*
X6969825Y-7708150D01*
X6969825Y-7708150D02*
X7007920Y-7708150D01*
X7007920Y-7708150D02*
X7026968Y-7717674D01*
X7026968Y-7717674D02*
X7036491Y-7736722D01*
X7036491Y-7736722D02*
X7036491Y-7755769D01*
X7036491Y-7755769D02*
X6941253Y-7774817D01*
X7103158Y-7917674D02*
X7112682Y-7908150D01*
X7112682Y-7908150D02*
X7131730Y-7879579D01*
X7131730Y-7879579D02*
X7141253Y-7860531D01*
X7141253Y-7860531D02*
X7150777Y-7831960D01*
X7150777Y-7831960D02*
X7160301Y-7784341D01*
X7160301Y-7784341D02*
X7160301Y-7746246D01*
X7160301Y-7746246D02*
X7150777Y-7698627D01*
X7150777Y-7698627D02*
X7141253Y-7670055D01*
X7141253Y-7670055D02*
X7131730Y-7651008D01*
X7131730Y-7651008D02*
X7112682Y-7622436D01*
X7112682Y-7622436D02*
X7103158Y-7612912D01*
D12*
X2490000Y-8014000D02*
G75*
G02*
X2415000Y-8014000I-37500J0D01*
G01*
X2415000Y-8014000D02*
G75*
G02*
X2490000Y-8014000I37500J0D01*
G01*
D11*
X2788872Y-7905484D02*
X2807920Y-7905484D01*
X2807920Y-7905484D02*
X2826967Y-7915008D01*
X2826967Y-7915008D02*
X2836491Y-7924531D01*
X2836491Y-7924531D02*
X2846015Y-7943579D01*
X2846015Y-7943579D02*
X2855539Y-7981674D01*
X2855539Y-7981674D02*
X2855539Y-8029293D01*
X2855539Y-8029293D02*
X2846015Y-8067388D01*
X2846015Y-8067388D02*
X2836491Y-8086436D01*
X2836491Y-8086436D02*
X2826967Y-8095960D01*
X2826967Y-8095960D02*
X2807920Y-8105484D01*
X2807920Y-8105484D02*
X2788872Y-8105484D01*
X2788872Y-8105484D02*
X2769824Y-8095960D01*
X2769824Y-8095960D02*
X2760301Y-8086436D01*
X2760301Y-8086436D02*
X2750777Y-8067388D01*
X2750777Y-8067388D02*
X2741253Y-8029293D01*
X2741253Y-8029293D02*
X2741253Y-7981674D01*
X2741253Y-7981674D02*
X2750777Y-7943579D01*
X2750777Y-7943579D02*
X2760301Y-7924531D01*
X2760301Y-7924531D02*
X2769824Y-7915008D01*
X2769824Y-7915008D02*
X2788872Y-7905484D01*
X2941253Y-8086436D02*
X2950777Y-8095960D01*
X2950777Y-8095960D02*
X2941253Y-8105484D01*
X2941253Y-8105484D02*
X2931729Y-8095960D01*
X2931729Y-8095960D02*
X2941253Y-8086436D01*
X2941253Y-8086436D02*
X2941253Y-8105484D01*
X3017443Y-7905484D02*
X3150777Y-7905484D01*
X3150777Y-7905484D02*
X3065062Y-8105484D01*
X3322205Y-7905484D02*
X3226967Y-7905484D01*
X3226967Y-7905484D02*
X3217443Y-8000722D01*
X3217443Y-8000722D02*
X3226967Y-7991198D01*
X3226967Y-7991198D02*
X3246015Y-7981674D01*
X3246015Y-7981674D02*
X3293634Y-7981674D01*
X3293634Y-7981674D02*
X3312682Y-7991198D01*
X3312682Y-7991198D02*
X3322205Y-8000722D01*
X3322205Y-8000722D02*
X3331729Y-8019769D01*
X3331729Y-8019769D02*
X3331729Y-8067388D01*
X3331729Y-8067388D02*
X3322205Y-8086436D01*
X3322205Y-8086436D02*
X3312682Y-8095960D01*
X3312682Y-8095960D02*
X3293634Y-8105484D01*
X3293634Y-8105484D02*
X3246015Y-8105484D01*
X3246015Y-8105484D02*
X3226967Y-8095960D01*
X3226967Y-8095960D02*
X3217443Y-8086436D01*
X3455539Y-7905484D02*
X3474586Y-7905484D01*
X3474586Y-7905484D02*
X3493634Y-7915008D01*
X3493634Y-7915008D02*
X3503158Y-7924531D01*
X3503158Y-7924531D02*
X3512682Y-7943579D01*
X3512682Y-7943579D02*
X3522205Y-7981674D01*
X3522205Y-7981674D02*
X3522205Y-8029293D01*
X3522205Y-8029293D02*
X3512682Y-8067388D01*
X3512682Y-8067388D02*
X3503158Y-8086436D01*
X3503158Y-8086436D02*
X3493634Y-8095960D01*
X3493634Y-8095960D02*
X3474586Y-8105484D01*
X3474586Y-8105484D02*
X3455539Y-8105484D01*
X3455539Y-8105484D02*
X3436491Y-8095960D01*
X3436491Y-8095960D02*
X3426967Y-8086436D01*
X3426967Y-8086436D02*
X3417443Y-8067388D01*
X3417443Y-8067388D02*
X3407920Y-8029293D01*
X3407920Y-8029293D02*
X3407920Y-7981674D01*
X3407920Y-7981674D02*
X3417443Y-7943579D01*
X3417443Y-7943579D02*
X3426967Y-7924531D01*
X3426967Y-7924531D02*
X3436491Y-7915008D01*
X3436491Y-7915008D02*
X3455539Y-7905484D01*
X3607920Y-8105484D02*
X3607920Y-7972150D01*
X3607920Y-7991198D02*
X3617443Y-7981674D01*
X3617443Y-7981674D02*
X3636491Y-7972150D01*
X3636491Y-7972150D02*
X3665063Y-7972150D01*
X3665063Y-7972150D02*
X3684110Y-7981674D01*
X3684110Y-7981674D02*
X3693634Y-8000722D01*
X3693634Y-8000722D02*
X3693634Y-8105484D01*
X3693634Y-8000722D02*
X3703158Y-7981674D01*
X3703158Y-7981674D02*
X3722205Y-7972150D01*
X3722205Y-7972150D02*
X3750777Y-7972150D01*
X3750777Y-7972150D02*
X3769824Y-7981674D01*
X3769824Y-7981674D02*
X3779348Y-8000722D01*
X3779348Y-8000722D02*
X3779348Y-8105484D01*
X3874586Y-8105484D02*
X3874586Y-7972150D01*
X3874586Y-7991198D02*
X3884110Y-7981674D01*
X3884110Y-7981674D02*
X3903158Y-7972150D01*
X3903158Y-7972150D02*
X3931729Y-7972150D01*
X3931729Y-7972150D02*
X3950777Y-7981674D01*
X3950777Y-7981674D02*
X3960301Y-8000722D01*
X3960301Y-8000722D02*
X3960301Y-8105484D01*
X3960301Y-8000722D02*
X3969824Y-7981674D01*
X3969824Y-7981674D02*
X3988872Y-7972150D01*
X3988872Y-7972150D02*
X4017443Y-7972150D01*
X4017443Y-7972150D02*
X4036491Y-7981674D01*
X4036491Y-7981674D02*
X4046015Y-8000722D01*
X4046015Y-8000722D02*
X4046015Y-8105484D01*
X4436491Y-7895960D02*
X4265063Y-8153103D01*
X4693634Y-7905484D02*
X4712682Y-7905484D01*
X4712682Y-7905484D02*
X4731729Y-7915008D01*
X4731729Y-7915008D02*
X4741253Y-7924531D01*
X4741253Y-7924531D02*
X4750777Y-7943579D01*
X4750777Y-7943579D02*
X4760301Y-7981674D01*
X4760301Y-7981674D02*
X4760301Y-8029293D01*
X4760301Y-8029293D02*
X4750777Y-8067388D01*
X4750777Y-8067388D02*
X4741253Y-8086436D01*
X4741253Y-8086436D02*
X4731729Y-8095960D01*
X4731729Y-8095960D02*
X4712682Y-8105484D01*
X4712682Y-8105484D02*
X4693634Y-8105484D01*
X4693634Y-8105484D02*
X4674587Y-8095960D01*
X4674587Y-8095960D02*
X4665063Y-8086436D01*
X4665063Y-8086436D02*
X4655539Y-8067388D01*
X4655539Y-8067388D02*
X4646015Y-8029293D01*
X4646015Y-8029293D02*
X4646015Y-7981674D01*
X4646015Y-7981674D02*
X4655539Y-7943579D01*
X4655539Y-7943579D02*
X4665063Y-7924531D01*
X4665063Y-7924531D02*
X4674587Y-7915008D01*
X4674587Y-7915008D02*
X4693634Y-7905484D01*
X4846015Y-8086436D02*
X4855539Y-8095960D01*
X4855539Y-8095960D02*
X4846015Y-8105484D01*
X4846015Y-8105484D02*
X4836491Y-8095960D01*
X4836491Y-8095960D02*
X4846015Y-8086436D01*
X4846015Y-8086436D02*
X4846015Y-8105484D01*
X4979348Y-7905484D02*
X4998396Y-7905484D01*
X4998396Y-7905484D02*
X5017444Y-7915008D01*
X5017444Y-7915008D02*
X5026968Y-7924531D01*
X5026968Y-7924531D02*
X5036491Y-7943579D01*
X5036491Y-7943579D02*
X5046015Y-7981674D01*
X5046015Y-7981674D02*
X5046015Y-8029293D01*
X5046015Y-8029293D02*
X5036491Y-8067388D01*
X5036491Y-8067388D02*
X5026968Y-8086436D01*
X5026968Y-8086436D02*
X5017444Y-8095960D01*
X5017444Y-8095960D02*
X4998396Y-8105484D01*
X4998396Y-8105484D02*
X4979348Y-8105484D01*
X4979348Y-8105484D02*
X4960301Y-8095960D01*
X4960301Y-8095960D02*
X4950777Y-8086436D01*
X4950777Y-8086436D02*
X4941253Y-8067388D01*
X4941253Y-8067388D02*
X4931729Y-8029293D01*
X4931729Y-8029293D02*
X4931729Y-7981674D01*
X4931729Y-7981674D02*
X4941253Y-7943579D01*
X4941253Y-7943579D02*
X4950777Y-7924531D01*
X4950777Y-7924531D02*
X4960301Y-7915008D01*
X4960301Y-7915008D02*
X4979348Y-7905484D01*
X5122206Y-7924531D02*
X5131729Y-7915008D01*
X5131729Y-7915008D02*
X5150777Y-7905484D01*
X5150777Y-7905484D02*
X5198396Y-7905484D01*
X5198396Y-7905484D02*
X5217444Y-7915008D01*
X5217444Y-7915008D02*
X5226968Y-7924531D01*
X5226968Y-7924531D02*
X5236491Y-7943579D01*
X5236491Y-7943579D02*
X5236491Y-7962627D01*
X5236491Y-7962627D02*
X5226968Y-7991198D01*
X5226968Y-7991198D02*
X5112682Y-8105484D01*
X5112682Y-8105484D02*
X5236491Y-8105484D01*
X5331729Y-8105484D02*
X5369825Y-8105484D01*
X5369825Y-8105484D02*
X5388872Y-8095960D01*
X5388872Y-8095960D02*
X5398396Y-8086436D01*
X5398396Y-8086436D02*
X5417444Y-8057865D01*
X5417444Y-8057865D02*
X5426968Y-8019769D01*
X5426968Y-8019769D02*
X5426968Y-7943579D01*
X5426968Y-7943579D02*
X5417444Y-7924531D01*
X5417444Y-7924531D02*
X5407920Y-7915008D01*
X5407920Y-7915008D02*
X5388872Y-7905484D01*
X5388872Y-7905484D02*
X5350777Y-7905484D01*
X5350777Y-7905484D02*
X5331729Y-7915008D01*
X5331729Y-7915008D02*
X5322206Y-7924531D01*
X5322206Y-7924531D02*
X5312682Y-7943579D01*
X5312682Y-7943579D02*
X5312682Y-7991198D01*
X5312682Y-7991198D02*
X5322206Y-8010246D01*
X5322206Y-8010246D02*
X5331729Y-8019769D01*
X5331729Y-8019769D02*
X5350777Y-8029293D01*
X5350777Y-8029293D02*
X5388872Y-8029293D01*
X5388872Y-8029293D02*
X5407920Y-8019769D01*
X5407920Y-8019769D02*
X5417444Y-8010246D01*
X5417444Y-8010246D02*
X5426968Y-7991198D01*
X5607920Y-7905484D02*
X5512682Y-7905484D01*
X5512682Y-7905484D02*
X5503158Y-8000722D01*
X5503158Y-8000722D02*
X5512682Y-7991198D01*
X5512682Y-7991198D02*
X5531729Y-7981674D01*
X5531729Y-7981674D02*
X5579349Y-7981674D01*
X5579349Y-7981674D02*
X5598396Y-7991198D01*
X5598396Y-7991198D02*
X5607920Y-8000722D01*
X5607920Y-8000722D02*
X5617444Y-8019769D01*
X5617444Y-8019769D02*
X5617444Y-8067388D01*
X5617444Y-8067388D02*
X5607920Y-8086436D01*
X5607920Y-8086436D02*
X5598396Y-8095960D01*
X5598396Y-8095960D02*
X5579349Y-8105484D01*
X5579349Y-8105484D02*
X5531729Y-8105484D01*
X5531729Y-8105484D02*
X5512682Y-8095960D01*
X5512682Y-8095960D02*
X5503158Y-8086436D01*
X5693634Y-7905484D02*
X5693634Y-7943579D01*
X5769825Y-7905484D02*
X5769825Y-7943579D01*
X6065063Y-8181674D02*
X6055539Y-8172150D01*
X6055539Y-8172150D02*
X6036491Y-8143579D01*
X6036491Y-8143579D02*
X6026968Y-8124531D01*
X6026968Y-8124531D02*
X6017444Y-8095960D01*
X6017444Y-8095960D02*
X6007920Y-8048341D01*
X6007920Y-8048341D02*
X6007920Y-8010246D01*
X6007920Y-8010246D02*
X6017444Y-7962627D01*
X6017444Y-7962627D02*
X6026968Y-7934055D01*
X6026968Y-7934055D02*
X6036491Y-7915008D01*
X6036491Y-7915008D02*
X6055539Y-7886436D01*
X6055539Y-7886436D02*
X6065063Y-7876912D01*
X6246015Y-8105484D02*
X6131729Y-8105484D01*
X6188872Y-8105484D02*
X6188872Y-7905484D01*
X6188872Y-7905484D02*
X6169825Y-7934055D01*
X6169825Y-7934055D02*
X6150777Y-7953103D01*
X6150777Y-7953103D02*
X6131729Y-7962627D01*
X6426968Y-7905484D02*
X6331729Y-7905484D01*
X6331729Y-7905484D02*
X6322206Y-8000722D01*
X6322206Y-8000722D02*
X6331729Y-7991198D01*
X6331729Y-7991198D02*
X6350777Y-7981674D01*
X6350777Y-7981674D02*
X6398396Y-7981674D01*
X6398396Y-7981674D02*
X6417444Y-7991198D01*
X6417444Y-7991198D02*
X6426968Y-8000722D01*
X6426968Y-8000722D02*
X6436491Y-8019769D01*
X6436491Y-8019769D02*
X6436491Y-8067388D01*
X6436491Y-8067388D02*
X6426968Y-8086436D01*
X6426968Y-8086436D02*
X6417444Y-8095960D01*
X6417444Y-8095960D02*
X6398396Y-8105484D01*
X6398396Y-8105484D02*
X6350777Y-8105484D01*
X6350777Y-8105484D02*
X6331729Y-8095960D01*
X6331729Y-8095960D02*
X6322206Y-8086436D01*
X6674587Y-8105484D02*
X6674587Y-7905484D01*
X6760301Y-8105484D02*
X6760301Y-8000722D01*
X6760301Y-8000722D02*
X6750777Y-7981674D01*
X6750777Y-7981674D02*
X6731730Y-7972150D01*
X6731730Y-7972150D02*
X6703158Y-7972150D01*
X6703158Y-7972150D02*
X6684110Y-7981674D01*
X6684110Y-7981674D02*
X6674587Y-7991198D01*
X6884110Y-8105484D02*
X6865063Y-8095960D01*
X6865063Y-8095960D02*
X6855539Y-8086436D01*
X6855539Y-8086436D02*
X6846015Y-8067388D01*
X6846015Y-8067388D02*
X6846015Y-8010246D01*
X6846015Y-8010246D02*
X6855539Y-7991198D01*
X6855539Y-7991198D02*
X6865063Y-7981674D01*
X6865063Y-7981674D02*
X6884110Y-7972150D01*
X6884110Y-7972150D02*
X6912682Y-7972150D01*
X6912682Y-7972150D02*
X6931730Y-7981674D01*
X6931730Y-7981674D02*
X6941253Y-7991198D01*
X6941253Y-7991198D02*
X6950777Y-8010246D01*
X6950777Y-8010246D02*
X6950777Y-8067388D01*
X6950777Y-8067388D02*
X6941253Y-8086436D01*
X6941253Y-8086436D02*
X6931730Y-8095960D01*
X6931730Y-8095960D02*
X6912682Y-8105484D01*
X6912682Y-8105484D02*
X6884110Y-8105484D01*
X7065063Y-8105484D02*
X7046015Y-8095960D01*
X7046015Y-8095960D02*
X7036491Y-8076912D01*
X7036491Y-8076912D02*
X7036491Y-7905484D01*
X7217444Y-8095960D02*
X7198396Y-8105484D01*
X7198396Y-8105484D02*
X7160301Y-8105484D01*
X7160301Y-8105484D02*
X7141253Y-8095960D01*
X7141253Y-8095960D02*
X7131730Y-8076912D01*
X7131730Y-8076912D02*
X7131730Y-8000722D01*
X7131730Y-8000722D02*
X7141253Y-7981674D01*
X7141253Y-7981674D02*
X7160301Y-7972150D01*
X7160301Y-7972150D02*
X7198396Y-7972150D01*
X7198396Y-7972150D02*
X7217444Y-7981674D01*
X7217444Y-7981674D02*
X7226968Y-8000722D01*
X7226968Y-8000722D02*
X7226968Y-8019769D01*
X7226968Y-8019769D02*
X7131730Y-8038817D01*
X7303158Y-8095960D02*
X7322206Y-8105484D01*
X7322206Y-8105484D02*
X7360301Y-8105484D01*
X7360301Y-8105484D02*
X7379349Y-8095960D01*
X7379349Y-8095960D02*
X7388872Y-8076912D01*
X7388872Y-8076912D02*
X7388872Y-8067388D01*
X7388872Y-8067388D02*
X7379349Y-8048341D01*
X7379349Y-8048341D02*
X7360301Y-8038817D01*
X7360301Y-8038817D02*
X7331730Y-8038817D01*
X7331730Y-8038817D02*
X7312682Y-8029293D01*
X7312682Y-8029293D02*
X7303158Y-8010246D01*
X7303158Y-8010246D02*
X7303158Y-8000722D01*
X7303158Y-8000722D02*
X7312682Y-7981674D01*
X7312682Y-7981674D02*
X7331730Y-7972150D01*
X7331730Y-7972150D02*
X7360301Y-7972150D01*
X7360301Y-7972150D02*
X7379349Y-7981674D01*
X7455539Y-8181674D02*
X7465063Y-8172150D01*
X7465063Y-8172150D02*
X7484111Y-8143579D01*
X7484111Y-8143579D02*
X7493634Y-8124531D01*
X7493634Y-8124531D02*
X7503158Y-8095960D01*
X7503158Y-8095960D02*
X7512682Y-8048341D01*
X7512682Y-8048341D02*
X7512682Y-8010246D01*
X7512682Y-8010246D02*
X7503158Y-7962627D01*
X7503158Y-7962627D02*
X7493634Y-7934055D01*
X7493634Y-7934055D02*
X7484111Y-7915008D01*
X7484111Y-7915008D02*
X7465063Y-7886436D01*
X7465063Y-7886436D02*
X7455539Y-7876912D01*
D12*
X2450000Y-8238000D02*
X2450000Y-8318000D01*
X2410000Y-8278000D02*
X2490000Y-8278000D01*
D11*
X2788872Y-8169484D02*
X2807920Y-8169484D01*
X2807920Y-8169484D02*
X2826967Y-8179008D01*
X2826967Y-8179008D02*
X2836491Y-8188531D01*
X2836491Y-8188531D02*
X2846015Y-8207579D01*
X2846015Y-8207579D02*
X2855539Y-8245674D01*
X2855539Y-8245674D02*
X2855539Y-8293293D01*
X2855539Y-8293293D02*
X2846015Y-8331388D01*
X2846015Y-8331388D02*
X2836491Y-8350436D01*
X2836491Y-8350436D02*
X2826967Y-8359960D01*
X2826967Y-8359960D02*
X2807920Y-8369484D01*
X2807920Y-8369484D02*
X2788872Y-8369484D01*
X2788872Y-8369484D02*
X2769824Y-8359960D01*
X2769824Y-8359960D02*
X2760301Y-8350436D01*
X2760301Y-8350436D02*
X2750777Y-8331388D01*
X2750777Y-8331388D02*
X2741253Y-8293293D01*
X2741253Y-8293293D02*
X2741253Y-8245674D01*
X2741253Y-8245674D02*
X2750777Y-8207579D01*
X2750777Y-8207579D02*
X2760301Y-8188531D01*
X2760301Y-8188531D02*
X2769824Y-8179008D01*
X2769824Y-8179008D02*
X2788872Y-8169484D01*
X2941253Y-8350436D02*
X2950777Y-8359960D01*
X2950777Y-8359960D02*
X2941253Y-8369484D01*
X2941253Y-8369484D02*
X2931729Y-8359960D01*
X2931729Y-8359960D02*
X2941253Y-8350436D01*
X2941253Y-8350436D02*
X2941253Y-8369484D01*
X3065062Y-8255198D02*
X3046015Y-8245674D01*
X3046015Y-8245674D02*
X3036491Y-8236150D01*
X3036491Y-8236150D02*
X3026967Y-8217103D01*
X3026967Y-8217103D02*
X3026967Y-8207579D01*
X3026967Y-8207579D02*
X3036491Y-8188531D01*
X3036491Y-8188531D02*
X3046015Y-8179008D01*
X3046015Y-8179008D02*
X3065062Y-8169484D01*
X3065062Y-8169484D02*
X3103158Y-8169484D01*
X3103158Y-8169484D02*
X3122205Y-8179008D01*
X3122205Y-8179008D02*
X3131729Y-8188531D01*
X3131729Y-8188531D02*
X3141253Y-8207579D01*
X3141253Y-8207579D02*
X3141253Y-8217103D01*
X3141253Y-8217103D02*
X3131729Y-8236150D01*
X3131729Y-8236150D02*
X3122205Y-8245674D01*
X3122205Y-8245674D02*
X3103158Y-8255198D01*
X3103158Y-8255198D02*
X3065062Y-8255198D01*
X3065062Y-8255198D02*
X3046015Y-8264722D01*
X3046015Y-8264722D02*
X3036491Y-8274246D01*
X3036491Y-8274246D02*
X3026967Y-8293293D01*
X3026967Y-8293293D02*
X3026967Y-8331388D01*
X3026967Y-8331388D02*
X3036491Y-8350436D01*
X3036491Y-8350436D02*
X3046015Y-8359960D01*
X3046015Y-8359960D02*
X3065062Y-8369484D01*
X3065062Y-8369484D02*
X3103158Y-8369484D01*
X3103158Y-8369484D02*
X3122205Y-8359960D01*
X3122205Y-8359960D02*
X3131729Y-8350436D01*
X3131729Y-8350436D02*
X3141253Y-8331388D01*
X3141253Y-8331388D02*
X3141253Y-8293293D01*
X3141253Y-8293293D02*
X3131729Y-8274246D01*
X3131729Y-8274246D02*
X3122205Y-8264722D01*
X3122205Y-8264722D02*
X3103158Y-8255198D01*
X3265062Y-8169484D02*
X3284110Y-8169484D01*
X3284110Y-8169484D02*
X3303158Y-8179008D01*
X3303158Y-8179008D02*
X3312682Y-8188531D01*
X3312682Y-8188531D02*
X3322205Y-8207579D01*
X3322205Y-8207579D02*
X3331729Y-8245674D01*
X3331729Y-8245674D02*
X3331729Y-8293293D01*
X3331729Y-8293293D02*
X3322205Y-8331388D01*
X3322205Y-8331388D02*
X3312682Y-8350436D01*
X3312682Y-8350436D02*
X3303158Y-8359960D01*
X3303158Y-8359960D02*
X3284110Y-8369484D01*
X3284110Y-8369484D02*
X3265062Y-8369484D01*
X3265062Y-8369484D02*
X3246015Y-8359960D01*
X3246015Y-8359960D02*
X3236491Y-8350436D01*
X3236491Y-8350436D02*
X3226967Y-8331388D01*
X3226967Y-8331388D02*
X3217443Y-8293293D01*
X3217443Y-8293293D02*
X3217443Y-8245674D01*
X3217443Y-8245674D02*
X3226967Y-8207579D01*
X3226967Y-8207579D02*
X3236491Y-8188531D01*
X3236491Y-8188531D02*
X3246015Y-8179008D01*
X3246015Y-8179008D02*
X3265062Y-8169484D01*
X3455539Y-8169484D02*
X3474586Y-8169484D01*
X3474586Y-8169484D02*
X3493634Y-8179008D01*
X3493634Y-8179008D02*
X3503158Y-8188531D01*
X3503158Y-8188531D02*
X3512682Y-8207579D01*
X3512682Y-8207579D02*
X3522205Y-8245674D01*
X3522205Y-8245674D02*
X3522205Y-8293293D01*
X3522205Y-8293293D02*
X3512682Y-8331388D01*
X3512682Y-8331388D02*
X3503158Y-8350436D01*
X3503158Y-8350436D02*
X3493634Y-8359960D01*
X3493634Y-8359960D02*
X3474586Y-8369484D01*
X3474586Y-8369484D02*
X3455539Y-8369484D01*
X3455539Y-8369484D02*
X3436491Y-8359960D01*
X3436491Y-8359960D02*
X3426967Y-8350436D01*
X3426967Y-8350436D02*
X3417443Y-8331388D01*
X3417443Y-8331388D02*
X3407920Y-8293293D01*
X3407920Y-8293293D02*
X3407920Y-8245674D01*
X3407920Y-8245674D02*
X3417443Y-8207579D01*
X3417443Y-8207579D02*
X3426967Y-8188531D01*
X3426967Y-8188531D02*
X3436491Y-8179008D01*
X3436491Y-8179008D02*
X3455539Y-8169484D01*
X3607920Y-8369484D02*
X3607920Y-8236150D01*
X3607920Y-8255198D02*
X3617443Y-8245674D01*
X3617443Y-8245674D02*
X3636491Y-8236150D01*
X3636491Y-8236150D02*
X3665063Y-8236150D01*
X3665063Y-8236150D02*
X3684110Y-8245674D01*
X3684110Y-8245674D02*
X3693634Y-8264722D01*
X3693634Y-8264722D02*
X3693634Y-8369484D01*
X3693634Y-8264722D02*
X3703158Y-8245674D01*
X3703158Y-8245674D02*
X3722205Y-8236150D01*
X3722205Y-8236150D02*
X3750777Y-8236150D01*
X3750777Y-8236150D02*
X3769824Y-8245674D01*
X3769824Y-8245674D02*
X3779348Y-8264722D01*
X3779348Y-8264722D02*
X3779348Y-8369484D01*
X3874586Y-8369484D02*
X3874586Y-8236150D01*
X3874586Y-8255198D02*
X3884110Y-8245674D01*
X3884110Y-8245674D02*
X3903158Y-8236150D01*
X3903158Y-8236150D02*
X3931729Y-8236150D01*
X3931729Y-8236150D02*
X3950777Y-8245674D01*
X3950777Y-8245674D02*
X3960301Y-8264722D01*
X3960301Y-8264722D02*
X3960301Y-8369484D01*
X3960301Y-8264722D02*
X3969824Y-8245674D01*
X3969824Y-8245674D02*
X3988872Y-8236150D01*
X3988872Y-8236150D02*
X4017443Y-8236150D01*
X4017443Y-8236150D02*
X4036491Y-8245674D01*
X4036491Y-8245674D02*
X4046015Y-8264722D01*
X4046015Y-8264722D02*
X4046015Y-8369484D01*
X4436491Y-8159960D02*
X4265063Y-8417103D01*
X4693634Y-8169484D02*
X4712682Y-8169484D01*
X4712682Y-8169484D02*
X4731729Y-8179008D01*
X4731729Y-8179008D02*
X4741253Y-8188531D01*
X4741253Y-8188531D02*
X4750777Y-8207579D01*
X4750777Y-8207579D02*
X4760301Y-8245674D01*
X4760301Y-8245674D02*
X4760301Y-8293293D01*
X4760301Y-8293293D02*
X4750777Y-8331388D01*
X4750777Y-8331388D02*
X4741253Y-8350436D01*
X4741253Y-8350436D02*
X4731729Y-8359960D01*
X4731729Y-8359960D02*
X4712682Y-8369484D01*
X4712682Y-8369484D02*
X4693634Y-8369484D01*
X4693634Y-8369484D02*
X4674587Y-8359960D01*
X4674587Y-8359960D02*
X4665063Y-8350436D01*
X4665063Y-8350436D02*
X4655539Y-8331388D01*
X4655539Y-8331388D02*
X4646015Y-8293293D01*
X4646015Y-8293293D02*
X4646015Y-8245674D01*
X4646015Y-8245674D02*
X4655539Y-8207579D01*
X4655539Y-8207579D02*
X4665063Y-8188531D01*
X4665063Y-8188531D02*
X4674587Y-8179008D01*
X4674587Y-8179008D02*
X4693634Y-8169484D01*
X4846015Y-8350436D02*
X4855539Y-8359960D01*
X4855539Y-8359960D02*
X4846015Y-8369484D01*
X4846015Y-8369484D02*
X4836491Y-8359960D01*
X4836491Y-8359960D02*
X4846015Y-8350436D01*
X4846015Y-8350436D02*
X4846015Y-8369484D01*
X4979348Y-8169484D02*
X4998396Y-8169484D01*
X4998396Y-8169484D02*
X5017444Y-8179008D01*
X5017444Y-8179008D02*
X5026968Y-8188531D01*
X5026968Y-8188531D02*
X5036491Y-8207579D01*
X5036491Y-8207579D02*
X5046015Y-8245674D01*
X5046015Y-8245674D02*
X5046015Y-8293293D01*
X5046015Y-8293293D02*
X5036491Y-8331388D01*
X5036491Y-8331388D02*
X5026968Y-8350436D01*
X5026968Y-8350436D02*
X5017444Y-8359960D01*
X5017444Y-8359960D02*
X4998396Y-8369484D01*
X4998396Y-8369484D02*
X4979348Y-8369484D01*
X4979348Y-8369484D02*
X4960301Y-8359960D01*
X4960301Y-8359960D02*
X4950777Y-8350436D01*
X4950777Y-8350436D02*
X4941253Y-8331388D01*
X4941253Y-8331388D02*
X4931729Y-8293293D01*
X4931729Y-8293293D02*
X4931729Y-8245674D01*
X4931729Y-8245674D02*
X4941253Y-8207579D01*
X4941253Y-8207579D02*
X4950777Y-8188531D01*
X4950777Y-8188531D02*
X4960301Y-8179008D01*
X4960301Y-8179008D02*
X4979348Y-8169484D01*
X5112682Y-8169484D02*
X5236491Y-8169484D01*
X5236491Y-8169484D02*
X5169825Y-8245674D01*
X5169825Y-8245674D02*
X5198396Y-8245674D01*
X5198396Y-8245674D02*
X5217444Y-8255198D01*
X5217444Y-8255198D02*
X5226968Y-8264722D01*
X5226968Y-8264722D02*
X5236491Y-8283769D01*
X5236491Y-8283769D02*
X5236491Y-8331388D01*
X5236491Y-8331388D02*
X5226968Y-8350436D01*
X5226968Y-8350436D02*
X5217444Y-8359960D01*
X5217444Y-8359960D02*
X5198396Y-8369484D01*
X5198396Y-8369484D02*
X5141253Y-8369484D01*
X5141253Y-8369484D02*
X5122206Y-8359960D01*
X5122206Y-8359960D02*
X5112682Y-8350436D01*
X5426968Y-8369484D02*
X5312682Y-8369484D01*
X5369825Y-8369484D02*
X5369825Y-8169484D01*
X5369825Y-8169484D02*
X5350777Y-8198055D01*
X5350777Y-8198055D02*
X5331729Y-8217103D01*
X5331729Y-8217103D02*
X5312682Y-8226627D01*
X5607920Y-8169484D02*
X5512682Y-8169484D01*
X5512682Y-8169484D02*
X5503158Y-8264722D01*
X5503158Y-8264722D02*
X5512682Y-8255198D01*
X5512682Y-8255198D02*
X5531729Y-8245674D01*
X5531729Y-8245674D02*
X5579349Y-8245674D01*
X5579349Y-8245674D02*
X5598396Y-8255198D01*
X5598396Y-8255198D02*
X5607920Y-8264722D01*
X5607920Y-8264722D02*
X5617444Y-8283769D01*
X5617444Y-8283769D02*
X5617444Y-8331388D01*
X5617444Y-8331388D02*
X5607920Y-8350436D01*
X5607920Y-8350436D02*
X5598396Y-8359960D01*
X5598396Y-8359960D02*
X5579349Y-8369484D01*
X5579349Y-8369484D02*
X5531729Y-8369484D01*
X5531729Y-8369484D02*
X5512682Y-8359960D01*
X5512682Y-8359960D02*
X5503158Y-8350436D01*
X5693634Y-8169484D02*
X5693634Y-8207579D01*
X5769825Y-8169484D02*
X5769825Y-8207579D01*
X6065063Y-8445674D02*
X6055539Y-8436150D01*
X6055539Y-8436150D02*
X6036491Y-8407579D01*
X6036491Y-8407579D02*
X6026968Y-8388531D01*
X6026968Y-8388531D02*
X6017444Y-8359960D01*
X6017444Y-8359960D02*
X6007920Y-8312341D01*
X6007920Y-8312341D02*
X6007920Y-8274246D01*
X6007920Y-8274246D02*
X6017444Y-8226627D01*
X6017444Y-8226627D02*
X6026968Y-8198055D01*
X6026968Y-8198055D02*
X6036491Y-8179008D01*
X6036491Y-8179008D02*
X6055539Y-8150436D01*
X6055539Y-8150436D02*
X6065063Y-8140912D01*
X6131729Y-8188531D02*
X6141253Y-8179008D01*
X6141253Y-8179008D02*
X6160301Y-8169484D01*
X6160301Y-8169484D02*
X6207920Y-8169484D01*
X6207920Y-8169484D02*
X6226968Y-8179008D01*
X6226968Y-8179008D02*
X6236491Y-8188531D01*
X6236491Y-8188531D02*
X6246015Y-8207579D01*
X6246015Y-8207579D02*
X6246015Y-8226627D01*
X6246015Y-8226627D02*
X6236491Y-8255198D01*
X6236491Y-8255198D02*
X6122206Y-8369484D01*
X6122206Y-8369484D02*
X6246015Y-8369484D01*
X6322206Y-8188531D02*
X6331729Y-8179008D01*
X6331729Y-8179008D02*
X6350777Y-8169484D01*
X6350777Y-8169484D02*
X6398396Y-8169484D01*
X6398396Y-8169484D02*
X6417444Y-8179008D01*
X6417444Y-8179008D02*
X6426968Y-8188531D01*
X6426968Y-8188531D02*
X6436491Y-8207579D01*
X6436491Y-8207579D02*
X6436491Y-8226627D01*
X6436491Y-8226627D02*
X6426968Y-8255198D01*
X6426968Y-8255198D02*
X6312682Y-8369484D01*
X6312682Y-8369484D02*
X6436491Y-8369484D01*
X6674587Y-8369484D02*
X6674587Y-8169484D01*
X6760301Y-8369484D02*
X6760301Y-8264722D01*
X6760301Y-8264722D02*
X6750777Y-8245674D01*
X6750777Y-8245674D02*
X6731730Y-8236150D01*
X6731730Y-8236150D02*
X6703158Y-8236150D01*
X6703158Y-8236150D02*
X6684110Y-8245674D01*
X6684110Y-8245674D02*
X6674587Y-8255198D01*
X6884110Y-8369484D02*
X6865063Y-8359960D01*
X6865063Y-8359960D02*
X6855539Y-8350436D01*
X6855539Y-8350436D02*
X6846015Y-8331388D01*
X6846015Y-8331388D02*
X6846015Y-8274246D01*
X6846015Y-8274246D02*
X6855539Y-8255198D01*
X6855539Y-8255198D02*
X6865063Y-8245674D01*
X6865063Y-8245674D02*
X6884110Y-8236150D01*
X6884110Y-8236150D02*
X6912682Y-8236150D01*
X6912682Y-8236150D02*
X6931730Y-8245674D01*
X6931730Y-8245674D02*
X6941253Y-8255198D01*
X6941253Y-8255198D02*
X6950777Y-8274246D01*
X6950777Y-8274246D02*
X6950777Y-8331388D01*
X6950777Y-8331388D02*
X6941253Y-8350436D01*
X6941253Y-8350436D02*
X6931730Y-8359960D01*
X6931730Y-8359960D02*
X6912682Y-8369484D01*
X6912682Y-8369484D02*
X6884110Y-8369484D01*
X7065063Y-8369484D02*
X7046015Y-8359960D01*
X7046015Y-8359960D02*
X7036491Y-8340912D01*
X7036491Y-8340912D02*
X7036491Y-8169484D01*
X7217444Y-8359960D02*
X7198396Y-8369484D01*
X7198396Y-8369484D02*
X7160301Y-8369484D01*
X7160301Y-8369484D02*
X7141253Y-8359960D01*
X7141253Y-8359960D02*
X7131730Y-8340912D01*
X7131730Y-8340912D02*
X7131730Y-8264722D01*
X7131730Y-8264722D02*
X7141253Y-8245674D01*
X7141253Y-8245674D02*
X7160301Y-8236150D01*
X7160301Y-8236150D02*
X7198396Y-8236150D01*
X7198396Y-8236150D02*
X7217444Y-8245674D01*
X7217444Y-8245674D02*
X7226968Y-8264722D01*
X7226968Y-8264722D02*
X7226968Y-8283769D01*
X7226968Y-8283769D02*
X7131730Y-8302817D01*
X7303158Y-8359960D02*
X7322206Y-8369484D01*
X7322206Y-8369484D02*
X7360301Y-8369484D01*
X7360301Y-8369484D02*
X7379349Y-8359960D01*
X7379349Y-8359960D02*
X7388872Y-8340912D01*
X7388872Y-8340912D02*
X7388872Y-8331388D01*
X7388872Y-8331388D02*
X7379349Y-8312341D01*
X7379349Y-8312341D02*
X7360301Y-8302817D01*
X7360301Y-8302817D02*
X7331730Y-8302817D01*
X7331730Y-8302817D02*
X7312682Y-8293293D01*
X7312682Y-8293293D02*
X7303158Y-8274246D01*
X7303158Y-8274246D02*
X7303158Y-8264722D01*
X7303158Y-8264722D02*
X7312682Y-8245674D01*
X7312682Y-8245674D02*
X7331730Y-8236150D01*
X7331730Y-8236150D02*
X7360301Y-8236150D01*
X7360301Y-8236150D02*
X7379349Y-8245674D01*
X7455539Y-8445674D02*
X7465063Y-8436150D01*
X7465063Y-8436150D02*
X7484111Y-8407579D01*
X7484111Y-8407579D02*
X7493634Y-8388531D01*
X7493634Y-8388531D02*
X7503158Y-8359960D01*
X7503158Y-8359960D02*
X7512682Y-8312341D01*
X7512682Y-8312341D02*
X7512682Y-8274246D01*
X7512682Y-8274246D02*
X7503158Y-8226627D01*
X7503158Y-8226627D02*
X7493634Y-8198055D01*
X7493634Y-8198055D02*
X7484111Y-8179008D01*
X7484111Y-8179008D02*
X7465063Y-8150436D01*
X7465063Y-8150436D02*
X7455539Y-8140912D01*
D12*
X2476088Y-8575588D02*
X2476088Y-8508412D01*
X2408912Y-8508412D01*
X2408912Y-8575588D01*
X2476088Y-8575588D01*
D11*
X2788872Y-8433484D02*
X2807920Y-8433484D01*
X2807920Y-8433484D02*
X2826967Y-8443008D01*
X2826967Y-8443008D02*
X2836491Y-8452531D01*
X2836491Y-8452531D02*
X2846015Y-8471579D01*
X2846015Y-8471579D02*
X2855539Y-8509674D01*
X2855539Y-8509674D02*
X2855539Y-8557293D01*
X2855539Y-8557293D02*
X2846015Y-8595389D01*
X2846015Y-8595389D02*
X2836491Y-8614436D01*
X2836491Y-8614436D02*
X2826967Y-8623960D01*
X2826967Y-8623960D02*
X2807920Y-8633484D01*
X2807920Y-8633484D02*
X2788872Y-8633484D01*
X2788872Y-8633484D02*
X2769824Y-8623960D01*
X2769824Y-8623960D02*
X2760301Y-8614436D01*
X2760301Y-8614436D02*
X2750777Y-8595389D01*
X2750777Y-8595389D02*
X2741253Y-8557293D01*
X2741253Y-8557293D02*
X2741253Y-8509674D01*
X2741253Y-8509674D02*
X2750777Y-8471579D01*
X2750777Y-8471579D02*
X2760301Y-8452531D01*
X2760301Y-8452531D02*
X2769824Y-8443008D01*
X2769824Y-8443008D02*
X2788872Y-8433484D01*
X2941253Y-8614436D02*
X2950777Y-8623960D01*
X2950777Y-8623960D02*
X2941253Y-8633484D01*
X2941253Y-8633484D02*
X2931729Y-8623960D01*
X2931729Y-8623960D02*
X2941253Y-8614436D01*
X2941253Y-8614436D02*
X2941253Y-8633484D01*
X3046015Y-8633484D02*
X3084110Y-8633484D01*
X3084110Y-8633484D02*
X3103158Y-8623960D01*
X3103158Y-8623960D02*
X3112682Y-8614436D01*
X3112682Y-8614436D02*
X3131729Y-8585865D01*
X3131729Y-8585865D02*
X3141253Y-8547770D01*
X3141253Y-8547770D02*
X3141253Y-8471579D01*
X3141253Y-8471579D02*
X3131729Y-8452531D01*
X3131729Y-8452531D02*
X3122205Y-8443008D01*
X3122205Y-8443008D02*
X3103158Y-8433484D01*
X3103158Y-8433484D02*
X3065062Y-8433484D01*
X3065062Y-8433484D02*
X3046015Y-8443008D01*
X3046015Y-8443008D02*
X3036491Y-8452531D01*
X3036491Y-8452531D02*
X3026967Y-8471579D01*
X3026967Y-8471579D02*
X3026967Y-8519198D01*
X3026967Y-8519198D02*
X3036491Y-8538246D01*
X3036491Y-8538246D02*
X3046015Y-8547770D01*
X3046015Y-8547770D02*
X3065062Y-8557293D01*
X3065062Y-8557293D02*
X3103158Y-8557293D01*
X3103158Y-8557293D02*
X3122205Y-8547770D01*
X3122205Y-8547770D02*
X3131729Y-8538246D01*
X3131729Y-8538246D02*
X3141253Y-8519198D01*
X3322205Y-8433484D02*
X3226967Y-8433484D01*
X3226967Y-8433484D02*
X3217443Y-8528722D01*
X3217443Y-8528722D02*
X3226967Y-8519198D01*
X3226967Y-8519198D02*
X3246015Y-8509674D01*
X3246015Y-8509674D02*
X3293634Y-8509674D01*
X3293634Y-8509674D02*
X3312682Y-8519198D01*
X3312682Y-8519198D02*
X3322205Y-8528722D01*
X3322205Y-8528722D02*
X3331729Y-8547770D01*
X3331729Y-8547770D02*
X3331729Y-8595389D01*
X3331729Y-8595389D02*
X3322205Y-8614436D01*
X3322205Y-8614436D02*
X3312682Y-8623960D01*
X3312682Y-8623960D02*
X3293634Y-8633484D01*
X3293634Y-8633484D02*
X3246015Y-8633484D01*
X3246015Y-8633484D02*
X3226967Y-8623960D01*
X3226967Y-8623960D02*
X3217443Y-8614436D01*
X3455539Y-8433484D02*
X3474586Y-8433484D01*
X3474586Y-8433484D02*
X3493634Y-8443008D01*
X3493634Y-8443008D02*
X3503158Y-8452531D01*
X3503158Y-8452531D02*
X3512682Y-8471579D01*
X3512682Y-8471579D02*
X3522205Y-8509674D01*
X3522205Y-8509674D02*
X3522205Y-8557293D01*
X3522205Y-8557293D02*
X3512682Y-8595389D01*
X3512682Y-8595389D02*
X3503158Y-8614436D01*
X3503158Y-8614436D02*
X3493634Y-8623960D01*
X3493634Y-8623960D02*
X3474586Y-8633484D01*
X3474586Y-8633484D02*
X3455539Y-8633484D01*
X3455539Y-8633484D02*
X3436491Y-8623960D01*
X3436491Y-8623960D02*
X3426967Y-8614436D01*
X3426967Y-8614436D02*
X3417443Y-8595389D01*
X3417443Y-8595389D02*
X3407920Y-8557293D01*
X3407920Y-8557293D02*
X3407920Y-8509674D01*
X3407920Y-8509674D02*
X3417443Y-8471579D01*
X3417443Y-8471579D02*
X3426967Y-8452531D01*
X3426967Y-8452531D02*
X3436491Y-8443008D01*
X3436491Y-8443008D02*
X3455539Y-8433484D01*
X3607920Y-8633484D02*
X3607920Y-8500150D01*
X3607920Y-8519198D02*
X3617443Y-8509674D01*
X3617443Y-8509674D02*
X3636491Y-8500150D01*
X3636491Y-8500150D02*
X3665063Y-8500150D01*
X3665063Y-8500150D02*
X3684110Y-8509674D01*
X3684110Y-8509674D02*
X3693634Y-8528722D01*
X3693634Y-8528722D02*
X3693634Y-8633484D01*
X3693634Y-8528722D02*
X3703158Y-8509674D01*
X3703158Y-8509674D02*
X3722205Y-8500150D01*
X3722205Y-8500150D02*
X3750777Y-8500150D01*
X3750777Y-8500150D02*
X3769824Y-8509674D01*
X3769824Y-8509674D02*
X3779348Y-8528722D01*
X3779348Y-8528722D02*
X3779348Y-8633484D01*
X3874586Y-8633484D02*
X3874586Y-8500150D01*
X3874586Y-8519198D02*
X3884110Y-8509674D01*
X3884110Y-8509674D02*
X3903158Y-8500150D01*
X3903158Y-8500150D02*
X3931729Y-8500150D01*
X3931729Y-8500150D02*
X3950777Y-8509674D01*
X3950777Y-8509674D02*
X3960301Y-8528722D01*
X3960301Y-8528722D02*
X3960301Y-8633484D01*
X3960301Y-8528722D02*
X3969824Y-8509674D01*
X3969824Y-8509674D02*
X3988872Y-8500150D01*
X3988872Y-8500150D02*
X4017443Y-8500150D01*
X4017443Y-8500150D02*
X4036491Y-8509674D01*
X4036491Y-8509674D02*
X4046015Y-8528722D01*
X4046015Y-8528722D02*
X4046015Y-8633484D01*
X4436491Y-8423960D02*
X4265063Y-8681103D01*
X4693634Y-8433484D02*
X4712682Y-8433484D01*
X4712682Y-8433484D02*
X4731729Y-8443008D01*
X4731729Y-8443008D02*
X4741253Y-8452531D01*
X4741253Y-8452531D02*
X4750777Y-8471579D01*
X4750777Y-8471579D02*
X4760301Y-8509674D01*
X4760301Y-8509674D02*
X4760301Y-8557293D01*
X4760301Y-8557293D02*
X4750777Y-8595389D01*
X4750777Y-8595389D02*
X4741253Y-8614436D01*
X4741253Y-8614436D02*
X4731729Y-8623960D01*
X4731729Y-8623960D02*
X4712682Y-8633484D01*
X4712682Y-8633484D02*
X4693634Y-8633484D01*
X4693634Y-8633484D02*
X4674587Y-8623960D01*
X4674587Y-8623960D02*
X4665063Y-8614436D01*
X4665063Y-8614436D02*
X4655539Y-8595389D01*
X4655539Y-8595389D02*
X4646015Y-8557293D01*
X4646015Y-8557293D02*
X4646015Y-8509674D01*
X4646015Y-8509674D02*
X4655539Y-8471579D01*
X4655539Y-8471579D02*
X4665063Y-8452531D01*
X4665063Y-8452531D02*
X4674587Y-8443008D01*
X4674587Y-8443008D02*
X4693634Y-8433484D01*
X4846015Y-8614436D02*
X4855539Y-8623960D01*
X4855539Y-8623960D02*
X4846015Y-8633484D01*
X4846015Y-8633484D02*
X4836491Y-8623960D01*
X4836491Y-8623960D02*
X4846015Y-8614436D01*
X4846015Y-8614436D02*
X4846015Y-8633484D01*
X4979348Y-8433484D02*
X4998396Y-8433484D01*
X4998396Y-8433484D02*
X5017444Y-8443008D01*
X5017444Y-8443008D02*
X5026968Y-8452531D01*
X5026968Y-8452531D02*
X5036491Y-8471579D01*
X5036491Y-8471579D02*
X5046015Y-8509674D01*
X5046015Y-8509674D02*
X5046015Y-8557293D01*
X5046015Y-8557293D02*
X5036491Y-8595389D01*
X5036491Y-8595389D02*
X5026968Y-8614436D01*
X5026968Y-8614436D02*
X5017444Y-8623960D01*
X5017444Y-8623960D02*
X4998396Y-8633484D01*
X4998396Y-8633484D02*
X4979348Y-8633484D01*
X4979348Y-8633484D02*
X4960301Y-8623960D01*
X4960301Y-8623960D02*
X4950777Y-8614436D01*
X4950777Y-8614436D02*
X4941253Y-8595389D01*
X4941253Y-8595389D02*
X4931729Y-8557293D01*
X4931729Y-8557293D02*
X4931729Y-8509674D01*
X4931729Y-8509674D02*
X4941253Y-8471579D01*
X4941253Y-8471579D02*
X4950777Y-8452531D01*
X4950777Y-8452531D02*
X4960301Y-8443008D01*
X4960301Y-8443008D02*
X4979348Y-8433484D01*
X5112682Y-8433484D02*
X5236491Y-8433484D01*
X5236491Y-8433484D02*
X5169825Y-8509674D01*
X5169825Y-8509674D02*
X5198396Y-8509674D01*
X5198396Y-8509674D02*
X5217444Y-8519198D01*
X5217444Y-8519198D02*
X5226968Y-8528722D01*
X5226968Y-8528722D02*
X5236491Y-8547770D01*
X5236491Y-8547770D02*
X5236491Y-8595389D01*
X5236491Y-8595389D02*
X5226968Y-8614436D01*
X5226968Y-8614436D02*
X5217444Y-8623960D01*
X5217444Y-8623960D02*
X5198396Y-8633484D01*
X5198396Y-8633484D02*
X5141253Y-8633484D01*
X5141253Y-8633484D02*
X5122206Y-8623960D01*
X5122206Y-8623960D02*
X5112682Y-8614436D01*
X5303158Y-8433484D02*
X5436491Y-8433484D01*
X5436491Y-8433484D02*
X5350777Y-8633484D01*
X5598396Y-8500150D02*
X5598396Y-8633484D01*
X5550777Y-8423960D02*
X5503158Y-8566817D01*
X5503158Y-8566817D02*
X5626967Y-8566817D01*
X5693634Y-8433484D02*
X5693634Y-8471579D01*
X5769825Y-8433484D02*
X5769825Y-8471579D01*
X6065063Y-8709674D02*
X6055539Y-8700150D01*
X6055539Y-8700150D02*
X6036491Y-8671579D01*
X6036491Y-8671579D02*
X6026968Y-8652531D01*
X6026968Y-8652531D02*
X6017444Y-8623960D01*
X6017444Y-8623960D02*
X6007920Y-8576341D01*
X6007920Y-8576341D02*
X6007920Y-8538246D01*
X6007920Y-8538246D02*
X6017444Y-8490627D01*
X6017444Y-8490627D02*
X6026968Y-8462055D01*
X6026968Y-8462055D02*
X6036491Y-8443008D01*
X6036491Y-8443008D02*
X6055539Y-8414436D01*
X6055539Y-8414436D02*
X6065063Y-8404912D01*
X6150777Y-8633484D02*
X6188872Y-8633484D01*
X6188872Y-8633484D02*
X6207920Y-8623960D01*
X6207920Y-8623960D02*
X6217444Y-8614436D01*
X6217444Y-8614436D02*
X6236491Y-8585865D01*
X6236491Y-8585865D02*
X6246015Y-8547770D01*
X6246015Y-8547770D02*
X6246015Y-8471579D01*
X6246015Y-8471579D02*
X6236491Y-8452531D01*
X6236491Y-8452531D02*
X6226968Y-8443008D01*
X6226968Y-8443008D02*
X6207920Y-8433484D01*
X6207920Y-8433484D02*
X6169825Y-8433484D01*
X6169825Y-8433484D02*
X6150777Y-8443008D01*
X6150777Y-8443008D02*
X6141253Y-8452531D01*
X6141253Y-8452531D02*
X6131729Y-8471579D01*
X6131729Y-8471579D02*
X6131729Y-8519198D01*
X6131729Y-8519198D02*
X6141253Y-8538246D01*
X6141253Y-8538246D02*
X6150777Y-8547770D01*
X6150777Y-8547770D02*
X6169825Y-8557293D01*
X6169825Y-8557293D02*
X6207920Y-8557293D01*
X6207920Y-8557293D02*
X6226968Y-8547770D01*
X6226968Y-8547770D02*
X6236491Y-8538246D01*
X6236491Y-8538246D02*
X6246015Y-8519198D01*
X6484110Y-8633484D02*
X6484110Y-8433484D01*
X6569825Y-8633484D02*
X6569825Y-8528722D01*
X6569825Y-8528722D02*
X6560301Y-8509674D01*
X6560301Y-8509674D02*
X6541253Y-8500150D01*
X6541253Y-8500150D02*
X6512682Y-8500150D01*
X6512682Y-8500150D02*
X6493634Y-8509674D01*
X6493634Y-8509674D02*
X6484110Y-8519198D01*
X6693634Y-8633484D02*
X6674587Y-8623960D01*
X6674587Y-8623960D02*
X6665063Y-8614436D01*
X6665063Y-8614436D02*
X6655539Y-8595389D01*
X6655539Y-8595389D02*
X6655539Y-8538246D01*
X6655539Y-8538246D02*
X6665063Y-8519198D01*
X6665063Y-8519198D02*
X6674587Y-8509674D01*
X6674587Y-8509674D02*
X6693634Y-8500150D01*
X6693634Y-8500150D02*
X6722206Y-8500150D01*
X6722206Y-8500150D02*
X6741253Y-8509674D01*
X6741253Y-8509674D02*
X6750777Y-8519198D01*
X6750777Y-8519198D02*
X6760301Y-8538246D01*
X6760301Y-8538246D02*
X6760301Y-8595389D01*
X6760301Y-8595389D02*
X6750777Y-8614436D01*
X6750777Y-8614436D02*
X6741253Y-8623960D01*
X6741253Y-8623960D02*
X6722206Y-8633484D01*
X6722206Y-8633484D02*
X6693634Y-8633484D01*
X6874587Y-8633484D02*
X6855539Y-8623960D01*
X6855539Y-8623960D02*
X6846015Y-8604912D01*
X6846015Y-8604912D02*
X6846015Y-8433484D01*
X7026968Y-8623960D02*
X7007920Y-8633484D01*
X7007920Y-8633484D02*
X6969825Y-8633484D01*
X6969825Y-8633484D02*
X6950777Y-8623960D01*
X6950777Y-8623960D02*
X6941253Y-8604912D01*
X6941253Y-8604912D02*
X6941253Y-8528722D01*
X6941253Y-8528722D02*
X6950777Y-8509674D01*
X6950777Y-8509674D02*
X6969825Y-8500150D01*
X6969825Y-8500150D02*
X7007920Y-8500150D01*
X7007920Y-8500150D02*
X7026968Y-8509674D01*
X7026968Y-8509674D02*
X7036491Y-8528722D01*
X7036491Y-8528722D02*
X7036491Y-8547770D01*
X7036491Y-8547770D02*
X6941253Y-8566817D01*
X7112682Y-8623960D02*
X7131730Y-8633484D01*
X7131730Y-8633484D02*
X7169825Y-8633484D01*
X7169825Y-8633484D02*
X7188872Y-8623960D01*
X7188872Y-8623960D02*
X7198396Y-8604912D01*
X7198396Y-8604912D02*
X7198396Y-8595389D01*
X7198396Y-8595389D02*
X7188872Y-8576341D01*
X7188872Y-8576341D02*
X7169825Y-8566817D01*
X7169825Y-8566817D02*
X7141253Y-8566817D01*
X7141253Y-8566817D02*
X7122206Y-8557293D01*
X7122206Y-8557293D02*
X7112682Y-8538246D01*
X7112682Y-8538246D02*
X7112682Y-8528722D01*
X7112682Y-8528722D02*
X7122206Y-8509674D01*
X7122206Y-8509674D02*
X7141253Y-8500150D01*
X7141253Y-8500150D02*
X7169825Y-8500150D01*
X7169825Y-8500150D02*
X7188872Y-8509674D01*
X7265063Y-8709674D02*
X7274587Y-8700150D01*
X7274587Y-8700150D02*
X7293634Y-8671579D01*
X7293634Y-8671579D02*
X7303158Y-8652531D01*
X7303158Y-8652531D02*
X7312682Y-8623960D01*
X7312682Y-8623960D02*
X7322206Y-8576341D01*
X7322206Y-8576341D02*
X7322206Y-8538246D01*
X7322206Y-8538246D02*
X7312682Y-8490627D01*
X7312682Y-8490627D02*
X7303158Y-8462055D01*
X7303158Y-8462055D02*
X7293634Y-8443008D01*
X7293634Y-8443008D02*
X7274587Y-8414436D01*
X7274587Y-8414436D02*
X7265063Y-8404912D01*
D12*
X2440000Y-8856000D02*
X2490000Y-8806000D01*
X2440000Y-8756000D01*
X2390000Y-8806000D01*
X2440000Y-8856000D01*
D11*
X2855539Y-8897484D02*
X2741253Y-8897484D01*
X2798396Y-8897484D02*
X2798396Y-8697484D01*
X2798396Y-8697484D02*
X2779348Y-8726055D01*
X2779348Y-8726055D02*
X2760301Y-8745103D01*
X2760301Y-8745103D02*
X2741253Y-8754627D01*
X2941253Y-8878436D02*
X2950777Y-8887960D01*
X2950777Y-8887960D02*
X2941253Y-8897484D01*
X2941253Y-8897484D02*
X2931729Y-8887960D01*
X2931729Y-8887960D02*
X2941253Y-8878436D01*
X2941253Y-8878436D02*
X2941253Y-8897484D01*
X3074586Y-8697484D02*
X3093634Y-8697484D01*
X3093634Y-8697484D02*
X3112682Y-8707008D01*
X3112682Y-8707008D02*
X3122205Y-8716531D01*
X3122205Y-8716531D02*
X3131729Y-8735579D01*
X3131729Y-8735579D02*
X3141253Y-8773674D01*
X3141253Y-8773674D02*
X3141253Y-8821293D01*
X3141253Y-8821293D02*
X3131729Y-8859389D01*
X3131729Y-8859389D02*
X3122205Y-8878436D01*
X3122205Y-8878436D02*
X3112682Y-8887960D01*
X3112682Y-8887960D02*
X3093634Y-8897484D01*
X3093634Y-8897484D02*
X3074586Y-8897484D01*
X3074586Y-8897484D02*
X3055539Y-8887960D01*
X3055539Y-8887960D02*
X3046015Y-8878436D01*
X3046015Y-8878436D02*
X3036491Y-8859389D01*
X3036491Y-8859389D02*
X3026967Y-8821293D01*
X3026967Y-8821293D02*
X3026967Y-8773674D01*
X3026967Y-8773674D02*
X3036491Y-8735579D01*
X3036491Y-8735579D02*
X3046015Y-8716531D01*
X3046015Y-8716531D02*
X3055539Y-8707008D01*
X3055539Y-8707008D02*
X3074586Y-8697484D01*
X3265062Y-8697484D02*
X3284110Y-8697484D01*
X3284110Y-8697484D02*
X3303158Y-8707008D01*
X3303158Y-8707008D02*
X3312682Y-8716531D01*
X3312682Y-8716531D02*
X3322205Y-8735579D01*
X3322205Y-8735579D02*
X3331729Y-8773674D01*
X3331729Y-8773674D02*
X3331729Y-8821293D01*
X3331729Y-8821293D02*
X3322205Y-8859389D01*
X3322205Y-8859389D02*
X3312682Y-8878436D01*
X3312682Y-8878436D02*
X3303158Y-8887960D01*
X3303158Y-8887960D02*
X3284110Y-8897484D01*
X3284110Y-8897484D02*
X3265062Y-8897484D01*
X3265062Y-8897484D02*
X3246015Y-8887960D01*
X3246015Y-8887960D02*
X3236491Y-8878436D01*
X3236491Y-8878436D02*
X3226967Y-8859389D01*
X3226967Y-8859389D02*
X3217443Y-8821293D01*
X3217443Y-8821293D02*
X3217443Y-8773674D01*
X3217443Y-8773674D02*
X3226967Y-8735579D01*
X3226967Y-8735579D02*
X3236491Y-8716531D01*
X3236491Y-8716531D02*
X3246015Y-8707008D01*
X3246015Y-8707008D02*
X3265062Y-8697484D01*
X3455539Y-8697484D02*
X3474586Y-8697484D01*
X3474586Y-8697484D02*
X3493634Y-8707008D01*
X3493634Y-8707008D02*
X3503158Y-8716531D01*
X3503158Y-8716531D02*
X3512682Y-8735579D01*
X3512682Y-8735579D02*
X3522205Y-8773674D01*
X3522205Y-8773674D02*
X3522205Y-8821293D01*
X3522205Y-8821293D02*
X3512682Y-8859389D01*
X3512682Y-8859389D02*
X3503158Y-8878436D01*
X3503158Y-8878436D02*
X3493634Y-8887960D01*
X3493634Y-8887960D02*
X3474586Y-8897484D01*
X3474586Y-8897484D02*
X3455539Y-8897484D01*
X3455539Y-8897484D02*
X3436491Y-8887960D01*
X3436491Y-8887960D02*
X3426967Y-8878436D01*
X3426967Y-8878436D02*
X3417443Y-8859389D01*
X3417443Y-8859389D02*
X3407920Y-8821293D01*
X3407920Y-8821293D02*
X3407920Y-8773674D01*
X3407920Y-8773674D02*
X3417443Y-8735579D01*
X3417443Y-8735579D02*
X3426967Y-8716531D01*
X3426967Y-8716531D02*
X3436491Y-8707008D01*
X3436491Y-8707008D02*
X3455539Y-8697484D01*
X3607920Y-8897484D02*
X3607920Y-8764150D01*
X3607920Y-8783198D02*
X3617443Y-8773674D01*
X3617443Y-8773674D02*
X3636491Y-8764150D01*
X3636491Y-8764150D02*
X3665063Y-8764150D01*
X3665063Y-8764150D02*
X3684110Y-8773674D01*
X3684110Y-8773674D02*
X3693634Y-8792722D01*
X3693634Y-8792722D02*
X3693634Y-8897484D01*
X3693634Y-8792722D02*
X3703158Y-8773674D01*
X3703158Y-8773674D02*
X3722205Y-8764150D01*
X3722205Y-8764150D02*
X3750777Y-8764150D01*
X3750777Y-8764150D02*
X3769824Y-8773674D01*
X3769824Y-8773674D02*
X3779348Y-8792722D01*
X3779348Y-8792722D02*
X3779348Y-8897484D01*
X3874586Y-8897484D02*
X3874586Y-8764150D01*
X3874586Y-8783198D02*
X3884110Y-8773674D01*
X3884110Y-8773674D02*
X3903158Y-8764150D01*
X3903158Y-8764150D02*
X3931729Y-8764150D01*
X3931729Y-8764150D02*
X3950777Y-8773674D01*
X3950777Y-8773674D02*
X3960301Y-8792722D01*
X3960301Y-8792722D02*
X3960301Y-8897484D01*
X3960301Y-8792722D02*
X3969824Y-8773674D01*
X3969824Y-8773674D02*
X3988872Y-8764150D01*
X3988872Y-8764150D02*
X4017443Y-8764150D01*
X4017443Y-8764150D02*
X4036491Y-8773674D01*
X4036491Y-8773674D02*
X4046015Y-8792722D01*
X4046015Y-8792722D02*
X4046015Y-8897484D01*
X4436491Y-8687960D02*
X4265063Y-8945103D01*
X4693634Y-8697484D02*
X4712682Y-8697484D01*
X4712682Y-8697484D02*
X4731729Y-8707008D01*
X4731729Y-8707008D02*
X4741253Y-8716531D01*
X4741253Y-8716531D02*
X4750777Y-8735579D01*
X4750777Y-8735579D02*
X4760301Y-8773674D01*
X4760301Y-8773674D02*
X4760301Y-8821293D01*
X4760301Y-8821293D02*
X4750777Y-8859389D01*
X4750777Y-8859389D02*
X4741253Y-8878436D01*
X4741253Y-8878436D02*
X4731729Y-8887960D01*
X4731729Y-8887960D02*
X4712682Y-8897484D01*
X4712682Y-8897484D02*
X4693634Y-8897484D01*
X4693634Y-8897484D02*
X4674587Y-8887960D01*
X4674587Y-8887960D02*
X4665063Y-8878436D01*
X4665063Y-8878436D02*
X4655539Y-8859389D01*
X4655539Y-8859389D02*
X4646015Y-8821293D01*
X4646015Y-8821293D02*
X4646015Y-8773674D01*
X4646015Y-8773674D02*
X4655539Y-8735579D01*
X4655539Y-8735579D02*
X4665063Y-8716531D01*
X4665063Y-8716531D02*
X4674587Y-8707008D01*
X4674587Y-8707008D02*
X4693634Y-8697484D01*
X4846015Y-8878436D02*
X4855539Y-8887960D01*
X4855539Y-8887960D02*
X4846015Y-8897484D01*
X4846015Y-8897484D02*
X4836491Y-8887960D01*
X4836491Y-8887960D02*
X4846015Y-8878436D01*
X4846015Y-8878436D02*
X4846015Y-8897484D01*
X4979348Y-8697484D02*
X4998396Y-8697484D01*
X4998396Y-8697484D02*
X5017444Y-8707008D01*
X5017444Y-8707008D02*
X5026968Y-8716531D01*
X5026968Y-8716531D02*
X5036491Y-8735579D01*
X5036491Y-8735579D02*
X5046015Y-8773674D01*
X5046015Y-8773674D02*
X5046015Y-8821293D01*
X5046015Y-8821293D02*
X5036491Y-8859389D01*
X5036491Y-8859389D02*
X5026968Y-8878436D01*
X5026968Y-8878436D02*
X5017444Y-8887960D01*
X5017444Y-8887960D02*
X4998396Y-8897484D01*
X4998396Y-8897484D02*
X4979348Y-8897484D01*
X4979348Y-8897484D02*
X4960301Y-8887960D01*
X4960301Y-8887960D02*
X4950777Y-8878436D01*
X4950777Y-8878436D02*
X4941253Y-8859389D01*
X4941253Y-8859389D02*
X4931729Y-8821293D01*
X4931729Y-8821293D02*
X4931729Y-8773674D01*
X4931729Y-8773674D02*
X4941253Y-8735579D01*
X4941253Y-8735579D02*
X4950777Y-8716531D01*
X4950777Y-8716531D02*
X4960301Y-8707008D01*
X4960301Y-8707008D02*
X4979348Y-8697484D01*
X5112682Y-8697484D02*
X5236491Y-8697484D01*
X5236491Y-8697484D02*
X5169825Y-8773674D01*
X5169825Y-8773674D02*
X5198396Y-8773674D01*
X5198396Y-8773674D02*
X5217444Y-8783198D01*
X5217444Y-8783198D02*
X5226968Y-8792722D01*
X5226968Y-8792722D02*
X5236491Y-8811770D01*
X5236491Y-8811770D02*
X5236491Y-8859389D01*
X5236491Y-8859389D02*
X5226968Y-8878436D01*
X5226968Y-8878436D02*
X5217444Y-8887960D01*
X5217444Y-8887960D02*
X5198396Y-8897484D01*
X5198396Y-8897484D02*
X5141253Y-8897484D01*
X5141253Y-8897484D02*
X5122206Y-8887960D01*
X5122206Y-8887960D02*
X5112682Y-8878436D01*
X5331729Y-8897484D02*
X5369825Y-8897484D01*
X5369825Y-8897484D02*
X5388872Y-8887960D01*
X5388872Y-8887960D02*
X5398396Y-8878436D01*
X5398396Y-8878436D02*
X5417444Y-8849865D01*
X5417444Y-8849865D02*
X5426968Y-8811770D01*
X5426968Y-8811770D02*
X5426968Y-8735579D01*
X5426968Y-8735579D02*
X5417444Y-8716531D01*
X5417444Y-8716531D02*
X5407920Y-8707008D01*
X5407920Y-8707008D02*
X5388872Y-8697484D01*
X5388872Y-8697484D02*
X5350777Y-8697484D01*
X5350777Y-8697484D02*
X5331729Y-8707008D01*
X5331729Y-8707008D02*
X5322206Y-8716531D01*
X5322206Y-8716531D02*
X5312682Y-8735579D01*
X5312682Y-8735579D02*
X5312682Y-8783198D01*
X5312682Y-8783198D02*
X5322206Y-8802246D01*
X5322206Y-8802246D02*
X5331729Y-8811770D01*
X5331729Y-8811770D02*
X5350777Y-8821293D01*
X5350777Y-8821293D02*
X5388872Y-8821293D01*
X5388872Y-8821293D02*
X5407920Y-8811770D01*
X5407920Y-8811770D02*
X5417444Y-8802246D01*
X5417444Y-8802246D02*
X5426968Y-8783198D01*
X5598396Y-8764150D02*
X5598396Y-8897484D01*
X5550777Y-8687960D02*
X5503158Y-8830817D01*
X5503158Y-8830817D02*
X5626967Y-8830817D01*
X5693634Y-8697484D02*
X5693634Y-8735579D01*
X5769825Y-8697484D02*
X5769825Y-8735579D01*
X6065063Y-8973674D02*
X6055539Y-8964150D01*
X6055539Y-8964150D02*
X6036491Y-8935579D01*
X6036491Y-8935579D02*
X6026968Y-8916531D01*
X6026968Y-8916531D02*
X6017444Y-8887960D01*
X6017444Y-8887960D02*
X6007920Y-8840341D01*
X6007920Y-8840341D02*
X6007920Y-8802246D01*
X6007920Y-8802246D02*
X6017444Y-8754627D01*
X6017444Y-8754627D02*
X6026968Y-8726055D01*
X6026968Y-8726055D02*
X6036491Y-8707008D01*
X6036491Y-8707008D02*
X6055539Y-8678436D01*
X6055539Y-8678436D02*
X6065063Y-8668912D01*
X6246015Y-8897484D02*
X6131729Y-8897484D01*
X6188872Y-8897484D02*
X6188872Y-8697484D01*
X6188872Y-8697484D02*
X6169825Y-8726055D01*
X6169825Y-8726055D02*
X6150777Y-8745103D01*
X6150777Y-8745103D02*
X6131729Y-8754627D01*
X6322206Y-8716531D02*
X6331729Y-8707008D01*
X6331729Y-8707008D02*
X6350777Y-8697484D01*
X6350777Y-8697484D02*
X6398396Y-8697484D01*
X6398396Y-8697484D02*
X6417444Y-8707008D01*
X6417444Y-8707008D02*
X6426968Y-8716531D01*
X6426968Y-8716531D02*
X6436491Y-8735579D01*
X6436491Y-8735579D02*
X6436491Y-8754627D01*
X6436491Y-8754627D02*
X6426968Y-8783198D01*
X6426968Y-8783198D02*
X6312682Y-8897484D01*
X6312682Y-8897484D02*
X6436491Y-8897484D01*
X6674587Y-8897484D02*
X6674587Y-8697484D01*
X6760301Y-8897484D02*
X6760301Y-8792722D01*
X6760301Y-8792722D02*
X6750777Y-8773674D01*
X6750777Y-8773674D02*
X6731730Y-8764150D01*
X6731730Y-8764150D02*
X6703158Y-8764150D01*
X6703158Y-8764150D02*
X6684110Y-8773674D01*
X6684110Y-8773674D02*
X6674587Y-8783198D01*
X6884110Y-8897484D02*
X6865063Y-8887960D01*
X6865063Y-8887960D02*
X6855539Y-8878436D01*
X6855539Y-8878436D02*
X6846015Y-8859389D01*
X6846015Y-8859389D02*
X6846015Y-8802246D01*
X6846015Y-8802246D02*
X6855539Y-8783198D01*
X6855539Y-8783198D02*
X6865063Y-8773674D01*
X6865063Y-8773674D02*
X6884110Y-8764150D01*
X6884110Y-8764150D02*
X6912682Y-8764150D01*
X6912682Y-8764150D02*
X6931730Y-8773674D01*
X6931730Y-8773674D02*
X6941253Y-8783198D01*
X6941253Y-8783198D02*
X6950777Y-8802246D01*
X6950777Y-8802246D02*
X6950777Y-8859389D01*
X6950777Y-8859389D02*
X6941253Y-8878436D01*
X6941253Y-8878436D02*
X6931730Y-8887960D01*
X6931730Y-8887960D02*
X6912682Y-8897484D01*
X6912682Y-8897484D02*
X6884110Y-8897484D01*
X7065063Y-8897484D02*
X7046015Y-8887960D01*
X7046015Y-8887960D02*
X7036491Y-8868912D01*
X7036491Y-8868912D02*
X7036491Y-8697484D01*
X7217444Y-8887960D02*
X7198396Y-8897484D01*
X7198396Y-8897484D02*
X7160301Y-8897484D01*
X7160301Y-8897484D02*
X7141253Y-8887960D01*
X7141253Y-8887960D02*
X7131730Y-8868912D01*
X7131730Y-8868912D02*
X7131730Y-8792722D01*
X7131730Y-8792722D02*
X7141253Y-8773674D01*
X7141253Y-8773674D02*
X7160301Y-8764150D01*
X7160301Y-8764150D02*
X7198396Y-8764150D01*
X7198396Y-8764150D02*
X7217444Y-8773674D01*
X7217444Y-8773674D02*
X7226968Y-8792722D01*
X7226968Y-8792722D02*
X7226968Y-8811770D01*
X7226968Y-8811770D02*
X7131730Y-8830817D01*
X7303158Y-8887960D02*
X7322206Y-8897484D01*
X7322206Y-8897484D02*
X7360301Y-8897484D01*
X7360301Y-8897484D02*
X7379349Y-8887960D01*
X7379349Y-8887960D02*
X7388872Y-8868912D01*
X7388872Y-8868912D02*
X7388872Y-8859389D01*
X7388872Y-8859389D02*
X7379349Y-8840341D01*
X7379349Y-8840341D02*
X7360301Y-8830817D01*
X7360301Y-8830817D02*
X7331730Y-8830817D01*
X7331730Y-8830817D02*
X7312682Y-8821293D01*
X7312682Y-8821293D02*
X7303158Y-8802246D01*
X7303158Y-8802246D02*
X7303158Y-8792722D01*
X7303158Y-8792722D02*
X7312682Y-8773674D01*
X7312682Y-8773674D02*
X7331730Y-8764150D01*
X7331730Y-8764150D02*
X7360301Y-8764150D01*
X7360301Y-8764150D02*
X7379349Y-8773674D01*
X7455539Y-8973674D02*
X7465063Y-8964150D01*
X7465063Y-8964150D02*
X7484111Y-8935579D01*
X7484111Y-8935579D02*
X7493634Y-8916531D01*
X7493634Y-8916531D02*
X7503158Y-8887960D01*
X7503158Y-8887960D02*
X7512682Y-8840341D01*
X7512682Y-8840341D02*
X7512682Y-8802246D01*
X7512682Y-8802246D02*
X7503158Y-8754627D01*
X7503158Y-8754627D02*
X7493634Y-8726055D01*
X7493634Y-8726055D02*
X7484111Y-8707008D01*
X7484111Y-8707008D02*
X7465063Y-8678436D01*
X7465063Y-8678436D02*
X7455539Y-8668912D01*
D13*
X2388000Y-9019000D02*
X2490000Y-9121000D01*
X2490000Y-9019000D02*
X2388000Y-9121000D01*
X2490000Y-9070000D02*
G75*
G02*
X2388000Y-9070000I-51000J0D01*
G01*
X2388000Y-9070000D02*
G75*
G02*
X2490000Y-9070000I51000J0D01*
G01*
D11*
X2855539Y-9161484D02*
X2741253Y-9161484D01*
X2798396Y-9161484D02*
X2798396Y-8961484D01*
X2798396Y-8961484D02*
X2779348Y-8990055D01*
X2779348Y-8990055D02*
X2760301Y-9009103D01*
X2760301Y-9009103D02*
X2741253Y-9018627D01*
X2941253Y-9142436D02*
X2950777Y-9151960D01*
X2950777Y-9151960D02*
X2941253Y-9161484D01*
X2941253Y-9161484D02*
X2931729Y-9151960D01*
X2931729Y-9151960D02*
X2941253Y-9142436D01*
X2941253Y-9142436D02*
X2941253Y-9161484D01*
X3074586Y-8961484D02*
X3093634Y-8961484D01*
X3093634Y-8961484D02*
X3112682Y-8971008D01*
X3112682Y-8971008D02*
X3122205Y-8980531D01*
X3122205Y-8980531D02*
X3131729Y-8999579D01*
X3131729Y-8999579D02*
X3141253Y-9037674D01*
X3141253Y-9037674D02*
X3141253Y-9085293D01*
X3141253Y-9085293D02*
X3131729Y-9123389D01*
X3131729Y-9123389D02*
X3122205Y-9142436D01*
X3122205Y-9142436D02*
X3112682Y-9151960D01*
X3112682Y-9151960D02*
X3093634Y-9161484D01*
X3093634Y-9161484D02*
X3074586Y-9161484D01*
X3074586Y-9161484D02*
X3055539Y-9151960D01*
X3055539Y-9151960D02*
X3046015Y-9142436D01*
X3046015Y-9142436D02*
X3036491Y-9123389D01*
X3036491Y-9123389D02*
X3026967Y-9085293D01*
X3026967Y-9085293D02*
X3026967Y-9037674D01*
X3026967Y-9037674D02*
X3036491Y-8999579D01*
X3036491Y-8999579D02*
X3046015Y-8980531D01*
X3046015Y-8980531D02*
X3055539Y-8971008D01*
X3055539Y-8971008D02*
X3074586Y-8961484D01*
X3217443Y-8980531D02*
X3226967Y-8971008D01*
X3226967Y-8971008D02*
X3246015Y-8961484D01*
X3246015Y-8961484D02*
X3293634Y-8961484D01*
X3293634Y-8961484D02*
X3312682Y-8971008D01*
X3312682Y-8971008D02*
X3322205Y-8980531D01*
X3322205Y-8980531D02*
X3331729Y-8999579D01*
X3331729Y-8999579D02*
X3331729Y-9018627D01*
X3331729Y-9018627D02*
X3322205Y-9047198D01*
X3322205Y-9047198D02*
X3207920Y-9161484D01*
X3207920Y-9161484D02*
X3331729Y-9161484D01*
X3455539Y-8961484D02*
X3474586Y-8961484D01*
X3474586Y-8961484D02*
X3493634Y-8971008D01*
X3493634Y-8971008D02*
X3503158Y-8980531D01*
X3503158Y-8980531D02*
X3512682Y-8999579D01*
X3512682Y-8999579D02*
X3522205Y-9037674D01*
X3522205Y-9037674D02*
X3522205Y-9085293D01*
X3522205Y-9085293D02*
X3512682Y-9123389D01*
X3512682Y-9123389D02*
X3503158Y-9142436D01*
X3503158Y-9142436D02*
X3493634Y-9151960D01*
X3493634Y-9151960D02*
X3474586Y-9161484D01*
X3474586Y-9161484D02*
X3455539Y-9161484D01*
X3455539Y-9161484D02*
X3436491Y-9151960D01*
X3436491Y-9151960D02*
X3426967Y-9142436D01*
X3426967Y-9142436D02*
X3417443Y-9123389D01*
X3417443Y-9123389D02*
X3407920Y-9085293D01*
X3407920Y-9085293D02*
X3407920Y-9037674D01*
X3407920Y-9037674D02*
X3417443Y-8999579D01*
X3417443Y-8999579D02*
X3426967Y-8980531D01*
X3426967Y-8980531D02*
X3436491Y-8971008D01*
X3436491Y-8971008D02*
X3455539Y-8961484D01*
X3607920Y-9161484D02*
X3607920Y-9028150D01*
X3607920Y-9047198D02*
X3617443Y-9037674D01*
X3617443Y-9037674D02*
X3636491Y-9028150D01*
X3636491Y-9028150D02*
X3665063Y-9028150D01*
X3665063Y-9028150D02*
X3684110Y-9037674D01*
X3684110Y-9037674D02*
X3693634Y-9056722D01*
X3693634Y-9056722D02*
X3693634Y-9161484D01*
X3693634Y-9056722D02*
X3703158Y-9037674D01*
X3703158Y-9037674D02*
X3722205Y-9028150D01*
X3722205Y-9028150D02*
X3750777Y-9028150D01*
X3750777Y-9028150D02*
X3769824Y-9037674D01*
X3769824Y-9037674D02*
X3779348Y-9056722D01*
X3779348Y-9056722D02*
X3779348Y-9161484D01*
X3874586Y-9161484D02*
X3874586Y-9028150D01*
X3874586Y-9047198D02*
X3884110Y-9037674D01*
X3884110Y-9037674D02*
X3903158Y-9028150D01*
X3903158Y-9028150D02*
X3931729Y-9028150D01*
X3931729Y-9028150D02*
X3950777Y-9037674D01*
X3950777Y-9037674D02*
X3960301Y-9056722D01*
X3960301Y-9056722D02*
X3960301Y-9161484D01*
X3960301Y-9056722D02*
X3969824Y-9037674D01*
X3969824Y-9037674D02*
X3988872Y-9028150D01*
X3988872Y-9028150D02*
X4017443Y-9028150D01*
X4017443Y-9028150D02*
X4036491Y-9037674D01*
X4036491Y-9037674D02*
X4046015Y-9056722D01*
X4046015Y-9056722D02*
X4046015Y-9161484D01*
X4436491Y-8951960D02*
X4265063Y-9209103D01*
X4693634Y-8961484D02*
X4712682Y-8961484D01*
X4712682Y-8961484D02*
X4731729Y-8971008D01*
X4731729Y-8971008D02*
X4741253Y-8980531D01*
X4741253Y-8980531D02*
X4750777Y-8999579D01*
X4750777Y-8999579D02*
X4760301Y-9037674D01*
X4760301Y-9037674D02*
X4760301Y-9085293D01*
X4760301Y-9085293D02*
X4750777Y-9123389D01*
X4750777Y-9123389D02*
X4741253Y-9142436D01*
X4741253Y-9142436D02*
X4731729Y-9151960D01*
X4731729Y-9151960D02*
X4712682Y-9161484D01*
X4712682Y-9161484D02*
X4693634Y-9161484D01*
X4693634Y-9161484D02*
X4674587Y-9151960D01*
X4674587Y-9151960D02*
X4665063Y-9142436D01*
X4665063Y-9142436D02*
X4655539Y-9123389D01*
X4655539Y-9123389D02*
X4646015Y-9085293D01*
X4646015Y-9085293D02*
X4646015Y-9037674D01*
X4646015Y-9037674D02*
X4655539Y-8999579D01*
X4655539Y-8999579D02*
X4665063Y-8980531D01*
X4665063Y-8980531D02*
X4674587Y-8971008D01*
X4674587Y-8971008D02*
X4693634Y-8961484D01*
X4846015Y-9142436D02*
X4855539Y-9151960D01*
X4855539Y-9151960D02*
X4846015Y-9161484D01*
X4846015Y-9161484D02*
X4836491Y-9151960D01*
X4836491Y-9151960D02*
X4846015Y-9142436D01*
X4846015Y-9142436D02*
X4846015Y-9161484D01*
X4979348Y-8961484D02*
X4998396Y-8961484D01*
X4998396Y-8961484D02*
X5017444Y-8971008D01*
X5017444Y-8971008D02*
X5026968Y-8980531D01*
X5026968Y-8980531D02*
X5036491Y-8999579D01*
X5036491Y-8999579D02*
X5046015Y-9037674D01*
X5046015Y-9037674D02*
X5046015Y-9085293D01*
X5046015Y-9085293D02*
X5036491Y-9123389D01*
X5036491Y-9123389D02*
X5026968Y-9142436D01*
X5026968Y-9142436D02*
X5017444Y-9151960D01*
X5017444Y-9151960D02*
X4998396Y-9161484D01*
X4998396Y-9161484D02*
X4979348Y-9161484D01*
X4979348Y-9161484D02*
X4960301Y-9151960D01*
X4960301Y-9151960D02*
X4950777Y-9142436D01*
X4950777Y-9142436D02*
X4941253Y-9123389D01*
X4941253Y-9123389D02*
X4931729Y-9085293D01*
X4931729Y-9085293D02*
X4931729Y-9037674D01*
X4931729Y-9037674D02*
X4941253Y-8999579D01*
X4941253Y-8999579D02*
X4950777Y-8980531D01*
X4950777Y-8980531D02*
X4960301Y-8971008D01*
X4960301Y-8971008D02*
X4979348Y-8961484D01*
X5217444Y-9028150D02*
X5217444Y-9161484D01*
X5169825Y-8951960D02*
X5122206Y-9094817D01*
X5122206Y-9094817D02*
X5246015Y-9094817D01*
X5360301Y-8961484D02*
X5379349Y-8961484D01*
X5379349Y-8961484D02*
X5398396Y-8971008D01*
X5398396Y-8971008D02*
X5407920Y-8980531D01*
X5407920Y-8980531D02*
X5417444Y-8999579D01*
X5417444Y-8999579D02*
X5426968Y-9037674D01*
X5426968Y-9037674D02*
X5426968Y-9085293D01*
X5426968Y-9085293D02*
X5417444Y-9123389D01*
X5417444Y-9123389D02*
X5407920Y-9142436D01*
X5407920Y-9142436D02*
X5398396Y-9151960D01*
X5398396Y-9151960D02*
X5379349Y-9161484D01*
X5379349Y-9161484D02*
X5360301Y-9161484D01*
X5360301Y-9161484D02*
X5341253Y-9151960D01*
X5341253Y-9151960D02*
X5331729Y-9142436D01*
X5331729Y-9142436D02*
X5322206Y-9123389D01*
X5322206Y-9123389D02*
X5312682Y-9085293D01*
X5312682Y-9085293D02*
X5312682Y-9037674D01*
X5312682Y-9037674D02*
X5322206Y-8999579D01*
X5322206Y-8999579D02*
X5331729Y-8980531D01*
X5331729Y-8980531D02*
X5341253Y-8971008D01*
X5341253Y-8971008D02*
X5360301Y-8961484D01*
X5503158Y-8980531D02*
X5512682Y-8971008D01*
X5512682Y-8971008D02*
X5531729Y-8961484D01*
X5531729Y-8961484D02*
X5579349Y-8961484D01*
X5579349Y-8961484D02*
X5598396Y-8971008D01*
X5598396Y-8971008D02*
X5607920Y-8980531D01*
X5607920Y-8980531D02*
X5617444Y-8999579D01*
X5617444Y-8999579D02*
X5617444Y-9018627D01*
X5617444Y-9018627D02*
X5607920Y-9047198D01*
X5607920Y-9047198D02*
X5493634Y-9161484D01*
X5493634Y-9161484D02*
X5617444Y-9161484D01*
X5693634Y-8961484D02*
X5693634Y-8999579D01*
X5769825Y-8961484D02*
X5769825Y-8999579D01*
X6065063Y-9237674D02*
X6055539Y-9228150D01*
X6055539Y-9228150D02*
X6036491Y-9199579D01*
X6036491Y-9199579D02*
X6026968Y-9180531D01*
X6026968Y-9180531D02*
X6017444Y-9151960D01*
X6017444Y-9151960D02*
X6007920Y-9104341D01*
X6007920Y-9104341D02*
X6007920Y-9066246D01*
X6007920Y-9066246D02*
X6017444Y-9018627D01*
X6017444Y-9018627D02*
X6026968Y-8990055D01*
X6026968Y-8990055D02*
X6036491Y-8971008D01*
X6036491Y-8971008D02*
X6055539Y-8942436D01*
X6055539Y-8942436D02*
X6065063Y-8932912D01*
X6226968Y-9028150D02*
X6226968Y-9161484D01*
X6179348Y-8951960D02*
X6131729Y-9094817D01*
X6131729Y-9094817D02*
X6255539Y-9094817D01*
X6484110Y-9161484D02*
X6484110Y-8961484D01*
X6569825Y-9161484D02*
X6569825Y-9056722D01*
X6569825Y-9056722D02*
X6560301Y-9037674D01*
X6560301Y-9037674D02*
X6541253Y-9028150D01*
X6541253Y-9028150D02*
X6512682Y-9028150D01*
X6512682Y-9028150D02*
X6493634Y-9037674D01*
X6493634Y-9037674D02*
X6484110Y-9047198D01*
X6693634Y-9161484D02*
X6674587Y-9151960D01*
X6674587Y-9151960D02*
X6665063Y-9142436D01*
X6665063Y-9142436D02*
X6655539Y-9123389D01*
X6655539Y-9123389D02*
X6655539Y-9066246D01*
X6655539Y-9066246D02*
X6665063Y-9047198D01*
X6665063Y-9047198D02*
X6674587Y-9037674D01*
X6674587Y-9037674D02*
X6693634Y-9028150D01*
X6693634Y-9028150D02*
X6722206Y-9028150D01*
X6722206Y-9028150D02*
X6741253Y-9037674D01*
X6741253Y-9037674D02*
X6750777Y-9047198D01*
X6750777Y-9047198D02*
X6760301Y-9066246D01*
X6760301Y-9066246D02*
X6760301Y-9123389D01*
X6760301Y-9123389D02*
X6750777Y-9142436D01*
X6750777Y-9142436D02*
X6741253Y-9151960D01*
X6741253Y-9151960D02*
X6722206Y-9161484D01*
X6722206Y-9161484D02*
X6693634Y-9161484D01*
X6874587Y-9161484D02*
X6855539Y-9151960D01*
X6855539Y-9151960D02*
X6846015Y-9132912D01*
X6846015Y-9132912D02*
X6846015Y-8961484D01*
X7026968Y-9151960D02*
X7007920Y-9161484D01*
X7007920Y-9161484D02*
X6969825Y-9161484D01*
X6969825Y-9161484D02*
X6950777Y-9151960D01*
X6950777Y-9151960D02*
X6941253Y-9132912D01*
X6941253Y-9132912D02*
X6941253Y-9056722D01*
X6941253Y-9056722D02*
X6950777Y-9037674D01*
X6950777Y-9037674D02*
X6969825Y-9028150D01*
X6969825Y-9028150D02*
X7007920Y-9028150D01*
X7007920Y-9028150D02*
X7026968Y-9037674D01*
X7026968Y-9037674D02*
X7036491Y-9056722D01*
X7036491Y-9056722D02*
X7036491Y-9075770D01*
X7036491Y-9075770D02*
X6941253Y-9094817D01*
X7112682Y-9151960D02*
X7131730Y-9161484D01*
X7131730Y-9161484D02*
X7169825Y-9161484D01*
X7169825Y-9161484D02*
X7188872Y-9151960D01*
X7188872Y-9151960D02*
X7198396Y-9132912D01*
X7198396Y-9132912D02*
X7198396Y-9123389D01*
X7198396Y-9123389D02*
X7188872Y-9104341D01*
X7188872Y-9104341D02*
X7169825Y-9094817D01*
X7169825Y-9094817D02*
X7141253Y-9094817D01*
X7141253Y-9094817D02*
X7122206Y-9085293D01*
X7122206Y-9085293D02*
X7112682Y-9066246D01*
X7112682Y-9066246D02*
X7112682Y-9056722D01*
X7112682Y-9056722D02*
X7122206Y-9037674D01*
X7122206Y-9037674D02*
X7141253Y-9028150D01*
X7141253Y-9028150D02*
X7169825Y-9028150D01*
X7169825Y-9028150D02*
X7188872Y-9037674D01*
X7265063Y-9237674D02*
X7274587Y-9228150D01*
X7274587Y-9228150D02*
X7293634Y-9199579D01*
X7293634Y-9199579D02*
X7303158Y-9180531D01*
X7303158Y-9180531D02*
X7312682Y-9151960D01*
X7312682Y-9151960D02*
X7322206Y-9104341D01*
X7322206Y-9104341D02*
X7322206Y-9066246D01*
X7322206Y-9066246D02*
X7312682Y-9018627D01*
X7312682Y-9018627D02*
X7303158Y-8990055D01*
X7303158Y-8990055D02*
X7293634Y-8971008D01*
X7293634Y-8971008D02*
X7274587Y-8942436D01*
X7274587Y-8942436D02*
X7265063Y-8932912D01*
D14*
X2380000Y-9279000D02*
X2490000Y-9389000D01*
X2490000Y-9279000D02*
X2380000Y-9389000D01*
X2435000Y-9279000D02*
X2435000Y-9389000D01*
X2380000Y-9334000D02*
X2490000Y-9334000D01*
D11*
X2855539Y-9425484D02*
X2741253Y-9425484D01*
X2798396Y-9425484D02*
X2798396Y-9225484D01*
X2798396Y-9225484D02*
X2779348Y-9254055D01*
X2779348Y-9254055D02*
X2760301Y-9273103D01*
X2760301Y-9273103D02*
X2741253Y-9282627D01*
X2941253Y-9406436D02*
X2950777Y-9415960D01*
X2950777Y-9415960D02*
X2941253Y-9425484D01*
X2941253Y-9425484D02*
X2931729Y-9415960D01*
X2931729Y-9415960D02*
X2941253Y-9406436D01*
X2941253Y-9406436D02*
X2941253Y-9425484D01*
X3141253Y-9425484D02*
X3026967Y-9425484D01*
X3084110Y-9425484D02*
X3084110Y-9225484D01*
X3084110Y-9225484D02*
X3065062Y-9254055D01*
X3065062Y-9254055D02*
X3046015Y-9273103D01*
X3046015Y-9273103D02*
X3026967Y-9282627D01*
X3265062Y-9225484D02*
X3284110Y-9225484D01*
X3284110Y-9225484D02*
X3303158Y-9235008D01*
X3303158Y-9235008D02*
X3312682Y-9244531D01*
X3312682Y-9244531D02*
X3322205Y-9263579D01*
X3322205Y-9263579D02*
X3331729Y-9301674D01*
X3331729Y-9301674D02*
X3331729Y-9349293D01*
X3331729Y-9349293D02*
X3322205Y-9387389D01*
X3322205Y-9387389D02*
X3312682Y-9406436D01*
X3312682Y-9406436D02*
X3303158Y-9415960D01*
X3303158Y-9415960D02*
X3284110Y-9425484D01*
X3284110Y-9425484D02*
X3265062Y-9425484D01*
X3265062Y-9425484D02*
X3246015Y-9415960D01*
X3246015Y-9415960D02*
X3236491Y-9406436D01*
X3236491Y-9406436D02*
X3226967Y-9387389D01*
X3226967Y-9387389D02*
X3217443Y-9349293D01*
X3217443Y-9349293D02*
X3217443Y-9301674D01*
X3217443Y-9301674D02*
X3226967Y-9263579D01*
X3226967Y-9263579D02*
X3236491Y-9244531D01*
X3236491Y-9244531D02*
X3246015Y-9235008D01*
X3246015Y-9235008D02*
X3265062Y-9225484D01*
X3455539Y-9225484D02*
X3474586Y-9225484D01*
X3474586Y-9225484D02*
X3493634Y-9235008D01*
X3493634Y-9235008D02*
X3503158Y-9244531D01*
X3503158Y-9244531D02*
X3512682Y-9263579D01*
X3512682Y-9263579D02*
X3522205Y-9301674D01*
X3522205Y-9301674D02*
X3522205Y-9349293D01*
X3522205Y-9349293D02*
X3512682Y-9387389D01*
X3512682Y-9387389D02*
X3503158Y-9406436D01*
X3503158Y-9406436D02*
X3493634Y-9415960D01*
X3493634Y-9415960D02*
X3474586Y-9425484D01*
X3474586Y-9425484D02*
X3455539Y-9425484D01*
X3455539Y-9425484D02*
X3436491Y-9415960D01*
X3436491Y-9415960D02*
X3426967Y-9406436D01*
X3426967Y-9406436D02*
X3417443Y-9387389D01*
X3417443Y-9387389D02*
X3407920Y-9349293D01*
X3407920Y-9349293D02*
X3407920Y-9301674D01*
X3407920Y-9301674D02*
X3417443Y-9263579D01*
X3417443Y-9263579D02*
X3426967Y-9244531D01*
X3426967Y-9244531D02*
X3436491Y-9235008D01*
X3436491Y-9235008D02*
X3455539Y-9225484D01*
X3607920Y-9425484D02*
X3607920Y-9292150D01*
X3607920Y-9311198D02*
X3617443Y-9301674D01*
X3617443Y-9301674D02*
X3636491Y-9292150D01*
X3636491Y-9292150D02*
X3665063Y-9292150D01*
X3665063Y-9292150D02*
X3684110Y-9301674D01*
X3684110Y-9301674D02*
X3693634Y-9320722D01*
X3693634Y-9320722D02*
X3693634Y-9425484D01*
X3693634Y-9320722D02*
X3703158Y-9301674D01*
X3703158Y-9301674D02*
X3722205Y-9292150D01*
X3722205Y-9292150D02*
X3750777Y-9292150D01*
X3750777Y-9292150D02*
X3769824Y-9301674D01*
X3769824Y-9301674D02*
X3779348Y-9320722D01*
X3779348Y-9320722D02*
X3779348Y-9425484D01*
X3874586Y-9425484D02*
X3874586Y-9292150D01*
X3874586Y-9311198D02*
X3884110Y-9301674D01*
X3884110Y-9301674D02*
X3903158Y-9292150D01*
X3903158Y-9292150D02*
X3931729Y-9292150D01*
X3931729Y-9292150D02*
X3950777Y-9301674D01*
X3950777Y-9301674D02*
X3960301Y-9320722D01*
X3960301Y-9320722D02*
X3960301Y-9425484D01*
X3960301Y-9320722D02*
X3969824Y-9301674D01*
X3969824Y-9301674D02*
X3988872Y-9292150D01*
X3988872Y-9292150D02*
X4017443Y-9292150D01*
X4017443Y-9292150D02*
X4036491Y-9301674D01*
X4036491Y-9301674D02*
X4046015Y-9320722D01*
X4046015Y-9320722D02*
X4046015Y-9425484D01*
X4436491Y-9215960D02*
X4265063Y-9473103D01*
X4693634Y-9225484D02*
X4712682Y-9225484D01*
X4712682Y-9225484D02*
X4731729Y-9235008D01*
X4731729Y-9235008D02*
X4741253Y-9244531D01*
X4741253Y-9244531D02*
X4750777Y-9263579D01*
X4750777Y-9263579D02*
X4760301Y-9301674D01*
X4760301Y-9301674D02*
X4760301Y-9349293D01*
X4760301Y-9349293D02*
X4750777Y-9387389D01*
X4750777Y-9387389D02*
X4741253Y-9406436D01*
X4741253Y-9406436D02*
X4731729Y-9415960D01*
X4731729Y-9415960D02*
X4712682Y-9425484D01*
X4712682Y-9425484D02*
X4693634Y-9425484D01*
X4693634Y-9425484D02*
X4674587Y-9415960D01*
X4674587Y-9415960D02*
X4665063Y-9406436D01*
X4665063Y-9406436D02*
X4655539Y-9387389D01*
X4655539Y-9387389D02*
X4646015Y-9349293D01*
X4646015Y-9349293D02*
X4646015Y-9301674D01*
X4646015Y-9301674D02*
X4655539Y-9263579D01*
X4655539Y-9263579D02*
X4665063Y-9244531D01*
X4665063Y-9244531D02*
X4674587Y-9235008D01*
X4674587Y-9235008D02*
X4693634Y-9225484D01*
X4846015Y-9406436D02*
X4855539Y-9415960D01*
X4855539Y-9415960D02*
X4846015Y-9425484D01*
X4846015Y-9425484D02*
X4836491Y-9415960D01*
X4836491Y-9415960D02*
X4846015Y-9406436D01*
X4846015Y-9406436D02*
X4846015Y-9425484D01*
X4979348Y-9225484D02*
X4998396Y-9225484D01*
X4998396Y-9225484D02*
X5017444Y-9235008D01*
X5017444Y-9235008D02*
X5026968Y-9244531D01*
X5026968Y-9244531D02*
X5036491Y-9263579D01*
X5036491Y-9263579D02*
X5046015Y-9301674D01*
X5046015Y-9301674D02*
X5046015Y-9349293D01*
X5046015Y-9349293D02*
X5036491Y-9387389D01*
X5036491Y-9387389D02*
X5026968Y-9406436D01*
X5026968Y-9406436D02*
X5017444Y-9415960D01*
X5017444Y-9415960D02*
X4998396Y-9425484D01*
X4998396Y-9425484D02*
X4979348Y-9425484D01*
X4979348Y-9425484D02*
X4960301Y-9415960D01*
X4960301Y-9415960D02*
X4950777Y-9406436D01*
X4950777Y-9406436D02*
X4941253Y-9387389D01*
X4941253Y-9387389D02*
X4931729Y-9349293D01*
X4931729Y-9349293D02*
X4931729Y-9301674D01*
X4931729Y-9301674D02*
X4941253Y-9263579D01*
X4941253Y-9263579D02*
X4950777Y-9244531D01*
X4950777Y-9244531D02*
X4960301Y-9235008D01*
X4960301Y-9235008D02*
X4979348Y-9225484D01*
X5217444Y-9292150D02*
X5217444Y-9425484D01*
X5169825Y-9215960D02*
X5122206Y-9358817D01*
X5122206Y-9358817D02*
X5246015Y-9358817D01*
X5303158Y-9225484D02*
X5426968Y-9225484D01*
X5426968Y-9225484D02*
X5360301Y-9301674D01*
X5360301Y-9301674D02*
X5388872Y-9301674D01*
X5388872Y-9301674D02*
X5407920Y-9311198D01*
X5407920Y-9311198D02*
X5417444Y-9320722D01*
X5417444Y-9320722D02*
X5426968Y-9339770D01*
X5426968Y-9339770D02*
X5426968Y-9387389D01*
X5426968Y-9387389D02*
X5417444Y-9406436D01*
X5417444Y-9406436D02*
X5407920Y-9415960D01*
X5407920Y-9415960D02*
X5388872Y-9425484D01*
X5388872Y-9425484D02*
X5331729Y-9425484D01*
X5331729Y-9425484D02*
X5312682Y-9415960D01*
X5312682Y-9415960D02*
X5303158Y-9406436D01*
X5493634Y-9225484D02*
X5617444Y-9225484D01*
X5617444Y-9225484D02*
X5550777Y-9301674D01*
X5550777Y-9301674D02*
X5579349Y-9301674D01*
X5579349Y-9301674D02*
X5598396Y-9311198D01*
X5598396Y-9311198D02*
X5607920Y-9320722D01*
X5607920Y-9320722D02*
X5617444Y-9339770D01*
X5617444Y-9339770D02*
X5617444Y-9387389D01*
X5617444Y-9387389D02*
X5607920Y-9406436D01*
X5607920Y-9406436D02*
X5598396Y-9415960D01*
X5598396Y-9415960D02*
X5579349Y-9425484D01*
X5579349Y-9425484D02*
X5522206Y-9425484D01*
X5522206Y-9425484D02*
X5503158Y-9415960D01*
X5503158Y-9415960D02*
X5493634Y-9406436D01*
X5693634Y-9225484D02*
X5693634Y-9263579D01*
X5769825Y-9225484D02*
X5769825Y-9263579D01*
X6065063Y-9501674D02*
X6055539Y-9492150D01*
X6055539Y-9492150D02*
X6036491Y-9463579D01*
X6036491Y-9463579D02*
X6026968Y-9444531D01*
X6026968Y-9444531D02*
X6017444Y-9415960D01*
X6017444Y-9415960D02*
X6007920Y-9368341D01*
X6007920Y-9368341D02*
X6007920Y-9330246D01*
X6007920Y-9330246D02*
X6017444Y-9282627D01*
X6017444Y-9282627D02*
X6026968Y-9254055D01*
X6026968Y-9254055D02*
X6036491Y-9235008D01*
X6036491Y-9235008D02*
X6055539Y-9206436D01*
X6055539Y-9206436D02*
X6065063Y-9196912D01*
X6236491Y-9225484D02*
X6141253Y-9225484D01*
X6141253Y-9225484D02*
X6131729Y-9320722D01*
X6131729Y-9320722D02*
X6141253Y-9311198D01*
X6141253Y-9311198D02*
X6160301Y-9301674D01*
X6160301Y-9301674D02*
X6207920Y-9301674D01*
X6207920Y-9301674D02*
X6226968Y-9311198D01*
X6226968Y-9311198D02*
X6236491Y-9320722D01*
X6236491Y-9320722D02*
X6246015Y-9339770D01*
X6246015Y-9339770D02*
X6246015Y-9387389D01*
X6246015Y-9387389D02*
X6236491Y-9406436D01*
X6236491Y-9406436D02*
X6226968Y-9415960D01*
X6226968Y-9415960D02*
X6207920Y-9425484D01*
X6207920Y-9425484D02*
X6160301Y-9425484D01*
X6160301Y-9425484D02*
X6141253Y-9415960D01*
X6141253Y-9415960D02*
X6131729Y-9406436D01*
X6484110Y-9425484D02*
X6484110Y-9225484D01*
X6569825Y-9425484D02*
X6569825Y-9320722D01*
X6569825Y-9320722D02*
X6560301Y-9301674D01*
X6560301Y-9301674D02*
X6541253Y-9292150D01*
X6541253Y-9292150D02*
X6512682Y-9292150D01*
X6512682Y-9292150D02*
X6493634Y-9301674D01*
X6493634Y-9301674D02*
X6484110Y-9311198D01*
X6693634Y-9425484D02*
X6674587Y-9415960D01*
X6674587Y-9415960D02*
X6665063Y-9406436D01*
X6665063Y-9406436D02*
X6655539Y-9387389D01*
X6655539Y-9387389D02*
X6655539Y-9330246D01*
X6655539Y-9330246D02*
X6665063Y-9311198D01*
X6665063Y-9311198D02*
X6674587Y-9301674D01*
X6674587Y-9301674D02*
X6693634Y-9292150D01*
X6693634Y-9292150D02*
X6722206Y-9292150D01*
X6722206Y-9292150D02*
X6741253Y-9301674D01*
X6741253Y-9301674D02*
X6750777Y-9311198D01*
X6750777Y-9311198D02*
X6760301Y-9330246D01*
X6760301Y-9330246D02*
X6760301Y-9387389D01*
X6760301Y-9387389D02*
X6750777Y-9406436D01*
X6750777Y-9406436D02*
X6741253Y-9415960D01*
X6741253Y-9415960D02*
X6722206Y-9425484D01*
X6722206Y-9425484D02*
X6693634Y-9425484D01*
X6874587Y-9425484D02*
X6855539Y-9415960D01*
X6855539Y-9415960D02*
X6846015Y-9396912D01*
X6846015Y-9396912D02*
X6846015Y-9225484D01*
X7026968Y-9415960D02*
X7007920Y-9425484D01*
X7007920Y-9425484D02*
X6969825Y-9425484D01*
X6969825Y-9425484D02*
X6950777Y-9415960D01*
X6950777Y-9415960D02*
X6941253Y-9396912D01*
X6941253Y-9396912D02*
X6941253Y-9320722D01*
X6941253Y-9320722D02*
X6950777Y-9301674D01*
X6950777Y-9301674D02*
X6969825Y-9292150D01*
X6969825Y-9292150D02*
X7007920Y-9292150D01*
X7007920Y-9292150D02*
X7026968Y-9301674D01*
X7026968Y-9301674D02*
X7036491Y-9320722D01*
X7036491Y-9320722D02*
X7036491Y-9339770D01*
X7036491Y-9339770D02*
X6941253Y-9358817D01*
X7112682Y-9415960D02*
X7131730Y-9425484D01*
X7131730Y-9425484D02*
X7169825Y-9425484D01*
X7169825Y-9425484D02*
X7188872Y-9415960D01*
X7188872Y-9415960D02*
X7198396Y-9396912D01*
X7198396Y-9396912D02*
X7198396Y-9387389D01*
X7198396Y-9387389D02*
X7188872Y-9368341D01*
X7188872Y-9368341D02*
X7169825Y-9358817D01*
X7169825Y-9358817D02*
X7141253Y-9358817D01*
X7141253Y-9358817D02*
X7122206Y-9349293D01*
X7122206Y-9349293D02*
X7112682Y-9330246D01*
X7112682Y-9330246D02*
X7112682Y-9320722D01*
X7112682Y-9320722D02*
X7122206Y-9301674D01*
X7122206Y-9301674D02*
X7141253Y-9292150D01*
X7141253Y-9292150D02*
X7169825Y-9292150D01*
X7169825Y-9292150D02*
X7188872Y-9301674D01*
X7265063Y-9501674D02*
X7274587Y-9492150D01*
X7274587Y-9492150D02*
X7293634Y-9463579D01*
X7293634Y-9463579D02*
X7303158Y-9444531D01*
X7303158Y-9444531D02*
X7312682Y-9415960D01*
X7312682Y-9415960D02*
X7322206Y-9368341D01*
X7322206Y-9368341D02*
X7322206Y-9330246D01*
X7322206Y-9330246D02*
X7312682Y-9282627D01*
X7312682Y-9282627D02*
X7303158Y-9254055D01*
X7303158Y-9254055D02*
X7293634Y-9235008D01*
X7293634Y-9235008D02*
X7274587Y-9206436D01*
X7274587Y-9206436D02*
X7265063Y-9196912D01*
D15*
X2338000Y-9522000D02*
X2490000Y-9674000D01*
X2490000Y-9522000D02*
X2338000Y-9674000D01*
X2467741Y-9651741D02*
X2467741Y-9544259D01*
X2360259Y-9544259D01*
X2360259Y-9651741D01*
X2467741Y-9651741D01*
D11*
X2855539Y-9689484D02*
X2741253Y-9689484D01*
X2798396Y-9689484D02*
X2798396Y-9489484D01*
X2798396Y-9489484D02*
X2779348Y-9518055D01*
X2779348Y-9518055D02*
X2760301Y-9537103D01*
X2760301Y-9537103D02*
X2741253Y-9546627D01*
X2941253Y-9670436D02*
X2950777Y-9679960D01*
X2950777Y-9679960D02*
X2941253Y-9689484D01*
X2941253Y-9689484D02*
X2931729Y-9679960D01*
X2931729Y-9679960D02*
X2941253Y-9670436D01*
X2941253Y-9670436D02*
X2941253Y-9689484D01*
X3131729Y-9489484D02*
X3036491Y-9489484D01*
X3036491Y-9489484D02*
X3026967Y-9584722D01*
X3026967Y-9584722D02*
X3036491Y-9575198D01*
X3036491Y-9575198D02*
X3055539Y-9565674D01*
X3055539Y-9565674D02*
X3103158Y-9565674D01*
X3103158Y-9565674D02*
X3122205Y-9575198D01*
X3122205Y-9575198D02*
X3131729Y-9584722D01*
X3131729Y-9584722D02*
X3141253Y-9603770D01*
X3141253Y-9603770D02*
X3141253Y-9651389D01*
X3141253Y-9651389D02*
X3131729Y-9670436D01*
X3131729Y-9670436D02*
X3122205Y-9679960D01*
X3122205Y-9679960D02*
X3103158Y-9689484D01*
X3103158Y-9689484D02*
X3055539Y-9689484D01*
X3055539Y-9689484D02*
X3036491Y-9679960D01*
X3036491Y-9679960D02*
X3026967Y-9670436D01*
X3217443Y-9508531D02*
X3226967Y-9499008D01*
X3226967Y-9499008D02*
X3246015Y-9489484D01*
X3246015Y-9489484D02*
X3293634Y-9489484D01*
X3293634Y-9489484D02*
X3312682Y-9499008D01*
X3312682Y-9499008D02*
X3322205Y-9508531D01*
X3322205Y-9508531D02*
X3331729Y-9527579D01*
X3331729Y-9527579D02*
X3331729Y-9546627D01*
X3331729Y-9546627D02*
X3322205Y-9575198D01*
X3322205Y-9575198D02*
X3207920Y-9689484D01*
X3207920Y-9689484D02*
X3331729Y-9689484D01*
X3455539Y-9489484D02*
X3474586Y-9489484D01*
X3474586Y-9489484D02*
X3493634Y-9499008D01*
X3493634Y-9499008D02*
X3503158Y-9508531D01*
X3503158Y-9508531D02*
X3512682Y-9527579D01*
X3512682Y-9527579D02*
X3522205Y-9565674D01*
X3522205Y-9565674D02*
X3522205Y-9613293D01*
X3522205Y-9613293D02*
X3512682Y-9651389D01*
X3512682Y-9651389D02*
X3503158Y-9670436D01*
X3503158Y-9670436D02*
X3493634Y-9679960D01*
X3493634Y-9679960D02*
X3474586Y-9689484D01*
X3474586Y-9689484D02*
X3455539Y-9689484D01*
X3455539Y-9689484D02*
X3436491Y-9679960D01*
X3436491Y-9679960D02*
X3426967Y-9670436D01*
X3426967Y-9670436D02*
X3417443Y-9651389D01*
X3417443Y-9651389D02*
X3407920Y-9613293D01*
X3407920Y-9613293D02*
X3407920Y-9565674D01*
X3407920Y-9565674D02*
X3417443Y-9527579D01*
X3417443Y-9527579D02*
X3426967Y-9508531D01*
X3426967Y-9508531D02*
X3436491Y-9499008D01*
X3436491Y-9499008D02*
X3455539Y-9489484D01*
X3607920Y-9689484D02*
X3607920Y-9556150D01*
X3607920Y-9575198D02*
X3617443Y-9565674D01*
X3617443Y-9565674D02*
X3636491Y-9556150D01*
X3636491Y-9556150D02*
X3665063Y-9556150D01*
X3665063Y-9556150D02*
X3684110Y-9565674D01*
X3684110Y-9565674D02*
X3693634Y-9584722D01*
X3693634Y-9584722D02*
X3693634Y-9689484D01*
X3693634Y-9584722D02*
X3703158Y-9565674D01*
X3703158Y-9565674D02*
X3722205Y-9556150D01*
X3722205Y-9556150D02*
X3750777Y-9556150D01*
X3750777Y-9556150D02*
X3769824Y-9565674D01*
X3769824Y-9565674D02*
X3779348Y-9584722D01*
X3779348Y-9584722D02*
X3779348Y-9689484D01*
X3874586Y-9689484D02*
X3874586Y-9556150D01*
X3874586Y-9575198D02*
X3884110Y-9565674D01*
X3884110Y-9565674D02*
X3903158Y-9556150D01*
X3903158Y-9556150D02*
X3931729Y-9556150D01*
X3931729Y-9556150D02*
X3950777Y-9565674D01*
X3950777Y-9565674D02*
X3960301Y-9584722D01*
X3960301Y-9584722D02*
X3960301Y-9689484D01*
X3960301Y-9584722D02*
X3969824Y-9565674D01*
X3969824Y-9565674D02*
X3988872Y-9556150D01*
X3988872Y-9556150D02*
X4017443Y-9556150D01*
X4017443Y-9556150D02*
X4036491Y-9565674D01*
X4036491Y-9565674D02*
X4046015Y-9584722D01*
X4046015Y-9584722D02*
X4046015Y-9689484D01*
X4436491Y-9479960D02*
X4265063Y-9737103D01*
X4693634Y-9489484D02*
X4712682Y-9489484D01*
X4712682Y-9489484D02*
X4731729Y-9499008D01*
X4731729Y-9499008D02*
X4741253Y-9508531D01*
X4741253Y-9508531D02*
X4750777Y-9527579D01*
X4750777Y-9527579D02*
X4760301Y-9565674D01*
X4760301Y-9565674D02*
X4760301Y-9613293D01*
X4760301Y-9613293D02*
X4750777Y-9651389D01*
X4750777Y-9651389D02*
X4741253Y-9670436D01*
X4741253Y-9670436D02*
X4731729Y-9679960D01*
X4731729Y-9679960D02*
X4712682Y-9689484D01*
X4712682Y-9689484D02*
X4693634Y-9689484D01*
X4693634Y-9689484D02*
X4674587Y-9679960D01*
X4674587Y-9679960D02*
X4665063Y-9670436D01*
X4665063Y-9670436D02*
X4655539Y-9651389D01*
X4655539Y-9651389D02*
X4646015Y-9613293D01*
X4646015Y-9613293D02*
X4646015Y-9565674D01*
X4646015Y-9565674D02*
X4655539Y-9527579D01*
X4655539Y-9527579D02*
X4665063Y-9508531D01*
X4665063Y-9508531D02*
X4674587Y-9499008D01*
X4674587Y-9499008D02*
X4693634Y-9489484D01*
X4846015Y-9670436D02*
X4855539Y-9679960D01*
X4855539Y-9679960D02*
X4846015Y-9689484D01*
X4846015Y-9689484D02*
X4836491Y-9679960D01*
X4836491Y-9679960D02*
X4846015Y-9670436D01*
X4846015Y-9670436D02*
X4846015Y-9689484D01*
X4979348Y-9489484D02*
X4998396Y-9489484D01*
X4998396Y-9489484D02*
X5017444Y-9499008D01*
X5017444Y-9499008D02*
X5026968Y-9508531D01*
X5026968Y-9508531D02*
X5036491Y-9527579D01*
X5036491Y-9527579D02*
X5046015Y-9565674D01*
X5046015Y-9565674D02*
X5046015Y-9613293D01*
X5046015Y-9613293D02*
X5036491Y-9651389D01*
X5036491Y-9651389D02*
X5026968Y-9670436D01*
X5026968Y-9670436D02*
X5017444Y-9679960D01*
X5017444Y-9679960D02*
X4998396Y-9689484D01*
X4998396Y-9689484D02*
X4979348Y-9689484D01*
X4979348Y-9689484D02*
X4960301Y-9679960D01*
X4960301Y-9679960D02*
X4950777Y-9670436D01*
X4950777Y-9670436D02*
X4941253Y-9651389D01*
X4941253Y-9651389D02*
X4931729Y-9613293D01*
X4931729Y-9613293D02*
X4931729Y-9565674D01*
X4931729Y-9565674D02*
X4941253Y-9527579D01*
X4941253Y-9527579D02*
X4950777Y-9508531D01*
X4950777Y-9508531D02*
X4960301Y-9499008D01*
X4960301Y-9499008D02*
X4979348Y-9489484D01*
X5226968Y-9489484D02*
X5131729Y-9489484D01*
X5131729Y-9489484D02*
X5122206Y-9584722D01*
X5122206Y-9584722D02*
X5131729Y-9575198D01*
X5131729Y-9575198D02*
X5150777Y-9565674D01*
X5150777Y-9565674D02*
X5198396Y-9565674D01*
X5198396Y-9565674D02*
X5217444Y-9575198D01*
X5217444Y-9575198D02*
X5226968Y-9584722D01*
X5226968Y-9584722D02*
X5236491Y-9603770D01*
X5236491Y-9603770D02*
X5236491Y-9651389D01*
X5236491Y-9651389D02*
X5226968Y-9670436D01*
X5226968Y-9670436D02*
X5217444Y-9679960D01*
X5217444Y-9679960D02*
X5198396Y-9689484D01*
X5198396Y-9689484D02*
X5150777Y-9689484D01*
X5150777Y-9689484D02*
X5131729Y-9679960D01*
X5131729Y-9679960D02*
X5122206Y-9670436D01*
X5331729Y-9689484D02*
X5369825Y-9689484D01*
X5369825Y-9689484D02*
X5388872Y-9679960D01*
X5388872Y-9679960D02*
X5398396Y-9670436D01*
X5398396Y-9670436D02*
X5417444Y-9641865D01*
X5417444Y-9641865D02*
X5426968Y-9603770D01*
X5426968Y-9603770D02*
X5426968Y-9527579D01*
X5426968Y-9527579D02*
X5417444Y-9508531D01*
X5417444Y-9508531D02*
X5407920Y-9499008D01*
X5407920Y-9499008D02*
X5388872Y-9489484D01*
X5388872Y-9489484D02*
X5350777Y-9489484D01*
X5350777Y-9489484D02*
X5331729Y-9499008D01*
X5331729Y-9499008D02*
X5322206Y-9508531D01*
X5322206Y-9508531D02*
X5312682Y-9527579D01*
X5312682Y-9527579D02*
X5312682Y-9575198D01*
X5312682Y-9575198D02*
X5322206Y-9594246D01*
X5322206Y-9594246D02*
X5331729Y-9603770D01*
X5331729Y-9603770D02*
X5350777Y-9613293D01*
X5350777Y-9613293D02*
X5388872Y-9613293D01*
X5388872Y-9613293D02*
X5407920Y-9603770D01*
X5407920Y-9603770D02*
X5417444Y-9594246D01*
X5417444Y-9594246D02*
X5426968Y-9575198D01*
X5541253Y-9575198D02*
X5522206Y-9565674D01*
X5522206Y-9565674D02*
X5512682Y-9556150D01*
X5512682Y-9556150D02*
X5503158Y-9537103D01*
X5503158Y-9537103D02*
X5503158Y-9527579D01*
X5503158Y-9527579D02*
X5512682Y-9508531D01*
X5512682Y-9508531D02*
X5522206Y-9499008D01*
X5522206Y-9499008D02*
X5541253Y-9489484D01*
X5541253Y-9489484D02*
X5579349Y-9489484D01*
X5579349Y-9489484D02*
X5598396Y-9499008D01*
X5598396Y-9499008D02*
X5607920Y-9508531D01*
X5607920Y-9508531D02*
X5617444Y-9527579D01*
X5617444Y-9527579D02*
X5617444Y-9537103D01*
X5617444Y-9537103D02*
X5607920Y-9556150D01*
X5607920Y-9556150D02*
X5598396Y-9565674D01*
X5598396Y-9565674D02*
X5579349Y-9575198D01*
X5579349Y-9575198D02*
X5541253Y-9575198D01*
X5541253Y-9575198D02*
X5522206Y-9584722D01*
X5522206Y-9584722D02*
X5512682Y-9594246D01*
X5512682Y-9594246D02*
X5503158Y-9613293D01*
X5503158Y-9613293D02*
X5503158Y-9651389D01*
X5503158Y-9651389D02*
X5512682Y-9670436D01*
X5512682Y-9670436D02*
X5522206Y-9679960D01*
X5522206Y-9679960D02*
X5541253Y-9689484D01*
X5541253Y-9689484D02*
X5579349Y-9689484D01*
X5579349Y-9689484D02*
X5598396Y-9679960D01*
X5598396Y-9679960D02*
X5607920Y-9670436D01*
X5607920Y-9670436D02*
X5617444Y-9651389D01*
X5617444Y-9651389D02*
X5617444Y-9613293D01*
X5617444Y-9613293D02*
X5607920Y-9594246D01*
X5607920Y-9594246D02*
X5598396Y-9584722D01*
X5598396Y-9584722D02*
X5579349Y-9575198D01*
X5693634Y-9489484D02*
X5693634Y-9527579D01*
X5769825Y-9489484D02*
X5769825Y-9527579D01*
X6065063Y-9765674D02*
X6055539Y-9756150D01*
X6055539Y-9756150D02*
X6036491Y-9727579D01*
X6036491Y-9727579D02*
X6026968Y-9708531D01*
X6026968Y-9708531D02*
X6017444Y-9679960D01*
X6017444Y-9679960D02*
X6007920Y-9632341D01*
X6007920Y-9632341D02*
X6007920Y-9594246D01*
X6007920Y-9594246D02*
X6017444Y-9546627D01*
X6017444Y-9546627D02*
X6026968Y-9518055D01*
X6026968Y-9518055D02*
X6036491Y-9499008D01*
X6036491Y-9499008D02*
X6055539Y-9470436D01*
X6055539Y-9470436D02*
X6065063Y-9460912D01*
X6122206Y-9489484D02*
X6246015Y-9489484D01*
X6246015Y-9489484D02*
X6179348Y-9565674D01*
X6179348Y-9565674D02*
X6207920Y-9565674D01*
X6207920Y-9565674D02*
X6226968Y-9575198D01*
X6226968Y-9575198D02*
X6236491Y-9584722D01*
X6236491Y-9584722D02*
X6246015Y-9603770D01*
X6246015Y-9603770D02*
X6246015Y-9651389D01*
X6246015Y-9651389D02*
X6236491Y-9670436D01*
X6236491Y-9670436D02*
X6226968Y-9679960D01*
X6226968Y-9679960D02*
X6207920Y-9689484D01*
X6207920Y-9689484D02*
X6150777Y-9689484D01*
X6150777Y-9689484D02*
X6131729Y-9679960D01*
X6131729Y-9679960D02*
X6122206Y-9670436D01*
X6484110Y-9689484D02*
X6484110Y-9489484D01*
X6569825Y-9689484D02*
X6569825Y-9584722D01*
X6569825Y-9584722D02*
X6560301Y-9565674D01*
X6560301Y-9565674D02*
X6541253Y-9556150D01*
X6541253Y-9556150D02*
X6512682Y-9556150D01*
X6512682Y-9556150D02*
X6493634Y-9565674D01*
X6493634Y-9565674D02*
X6484110Y-9575198D01*
X6693634Y-9689484D02*
X6674587Y-9679960D01*
X6674587Y-9679960D02*
X6665063Y-9670436D01*
X6665063Y-9670436D02*
X6655539Y-9651389D01*
X6655539Y-9651389D02*
X6655539Y-9594246D01*
X6655539Y-9594246D02*
X6665063Y-9575198D01*
X6665063Y-9575198D02*
X6674587Y-9565674D01*
X6674587Y-9565674D02*
X6693634Y-9556150D01*
X6693634Y-9556150D02*
X6722206Y-9556150D01*
X6722206Y-9556150D02*
X6741253Y-9565674D01*
X6741253Y-9565674D02*
X6750777Y-9575198D01*
X6750777Y-9575198D02*
X6760301Y-9594246D01*
X6760301Y-9594246D02*
X6760301Y-9651389D01*
X6760301Y-9651389D02*
X6750777Y-9670436D01*
X6750777Y-9670436D02*
X6741253Y-9679960D01*
X6741253Y-9679960D02*
X6722206Y-9689484D01*
X6722206Y-9689484D02*
X6693634Y-9689484D01*
X6874587Y-9689484D02*
X6855539Y-9679960D01*
X6855539Y-9679960D02*
X6846015Y-9660912D01*
X6846015Y-9660912D02*
X6846015Y-9489484D01*
X7026968Y-9679960D02*
X7007920Y-9689484D01*
X7007920Y-9689484D02*
X6969825Y-9689484D01*
X6969825Y-9689484D02*
X6950777Y-9679960D01*
X6950777Y-9679960D02*
X6941253Y-9660912D01*
X6941253Y-9660912D02*
X6941253Y-9584722D01*
X6941253Y-9584722D02*
X6950777Y-9565674D01*
X6950777Y-9565674D02*
X6969825Y-9556150D01*
X6969825Y-9556150D02*
X7007920Y-9556150D01*
X7007920Y-9556150D02*
X7026968Y-9565674D01*
X7026968Y-9565674D02*
X7036491Y-9584722D01*
X7036491Y-9584722D02*
X7036491Y-9603770D01*
X7036491Y-9603770D02*
X6941253Y-9622817D01*
X7112682Y-9679960D02*
X7131730Y-9689484D01*
X7131730Y-9689484D02*
X7169825Y-9689484D01*
X7169825Y-9689484D02*
X7188872Y-9679960D01*
X7188872Y-9679960D02*
X7198396Y-9660912D01*
X7198396Y-9660912D02*
X7198396Y-9651389D01*
X7198396Y-9651389D02*
X7188872Y-9632341D01*
X7188872Y-9632341D02*
X7169825Y-9622817D01*
X7169825Y-9622817D02*
X7141253Y-9622817D01*
X7141253Y-9622817D02*
X7122206Y-9613293D01*
X7122206Y-9613293D02*
X7112682Y-9594246D01*
X7112682Y-9594246D02*
X7112682Y-9584722D01*
X7112682Y-9584722D02*
X7122206Y-9565674D01*
X7122206Y-9565674D02*
X7141253Y-9556150D01*
X7141253Y-9556150D02*
X7169825Y-9556150D01*
X7169825Y-9556150D02*
X7188872Y-9565674D01*
X7265063Y-9765674D02*
X7274587Y-9756150D01*
X7274587Y-9756150D02*
X7293634Y-9727579D01*
X7293634Y-9727579D02*
X7303158Y-9708531D01*
X7303158Y-9708531D02*
X7312682Y-9679960D01*
X7312682Y-9679960D02*
X7322206Y-9632341D01*
X7322206Y-9632341D02*
X7322206Y-9594246D01*
X7322206Y-9594246D02*
X7312682Y-9546627D01*
X7312682Y-9546627D02*
X7303158Y-9518055D01*
X7303158Y-9518055D02*
X7293634Y-9499008D01*
X7293634Y-9499008D02*
X7274587Y-9470436D01*
X7274587Y-9470436D02*
X7265063Y-9460912D01*
M02*
