G04 #@! TF.GenerationSoftware,KiCad,Pcbnew,8.0.3-8.0.3-0~ubuntu22.04.1*
G04 #@! TF.CreationDate,2024-06-26T14:32:35-07:00*
G04 #@! TF.ProjectId,pifire-relay-pwm-module-SSR-alt,70696669-7265-42d7-9265-6c61792d7077,rev?*
G04 #@! TF.SameCoordinates,Original*
G04 #@! TF.FileFunction,Soldermask,Bot*
G04 #@! TF.FilePolarity,Negative*
%FSLAX46Y46*%
G04 Gerber Fmt 4.6, Leading zero omitted, Abs format (unit mm)*
G04 Created by KiCad (PCBNEW 8.0.3-8.0.3-0~ubuntu22.04.1) date 2024-06-26 14:32:35*
%MOMM*%
%LPD*%
G01*
G04 APERTURE LIST*
G04 Aperture macros list*
%AMRoundRect*
0 Rectangle with rounded corners*
0 $1 Rounding radius*
0 $2 $3 $4 $5 $6 $7 $8 $9 X,Y pos of 4 corners*
0 Add a 4 corners polygon primitive as box body*
4,1,4,$2,$3,$4,$5,$6,$7,$8,$9,$2,$3,0*
0 Add four circle primitives for the rounded corners*
1,1,$1+$1,$2,$3*
1,1,$1+$1,$4,$5*
1,1,$1+$1,$6,$7*
1,1,$1+$1,$8,$9*
0 Add four rect primitives between the rounded corners*
20,1,$1+$1,$2,$3,$4,$5,0*
20,1,$1+$1,$4,$5,$6,$7,0*
20,1,$1+$1,$6,$7,$8,$9,0*
20,1,$1+$1,$8,$9,$2,$3,0*%
%AMFreePoly0*
4,1,6,1.000000,0.000000,0.500000,-0.750000,-0.500000,-0.750000,-0.500000,0.750000,0.500000,0.750000,1.000000,0.000000,1.000000,0.000000,$1*%
%AMFreePoly1*
4,1,6,0.500000,-0.750000,-0.650000,-0.750000,-0.150000,0.000000,-0.650000,0.750000,0.500000,0.750000,0.500000,-0.750000,0.500000,-0.750000,$1*%
G04 Aperture macros list end*
%ADD10RoundRect,0.102000X0.754000X0.754000X-0.754000X0.754000X-0.754000X-0.754000X0.754000X-0.754000X0*%
%ADD11C,1.712000*%
%ADD12C,1.600000*%
%ADD13O,1.600000X1.600000*%
%ADD14C,3.200000*%
%ADD15R,1.500000X1.050000*%
%ADD16O,1.500000X1.050000*%
%ADD17R,2.000000X1.905000*%
%ADD18O,2.000000X1.905000*%
%ADD19C,1.100000*%
%ADD20R,1.730000X2.030000*%
%ADD21O,1.730000X2.030000*%
%ADD22R,1.050000X1.500000*%
%ADD23O,1.050000X1.500000*%
%ADD24R,2.200000X2.200000*%
%ADD25O,2.200000X2.200000*%
%ADD26RoundRect,0.250000X0.725000X-0.600000X0.725000X0.600000X-0.725000X0.600000X-0.725000X-0.600000X0*%
%ADD27O,1.950000X1.700000*%
%ADD28R,3.000000X3.000000*%
%ADD29C,3.000000*%
%ADD30R,1.600000X1.600000*%
%ADD31FreePoly0,270.000000*%
%ADD32FreePoly1,270.000000*%
G04 APERTURE END LIST*
D10*
X68660000Y-68250000D03*
D11*
X61040000Y-68250000D03*
X50880000Y-68250000D03*
X48340000Y-68250000D03*
D12*
X53940000Y-40000000D03*
D13*
X61560000Y-40000000D03*
D14*
X86000000Y-29000000D03*
D15*
X42332500Y-67852500D03*
D16*
X42332500Y-66582500D03*
X42332500Y-65312500D03*
D10*
X68660000Y-47750000D03*
D11*
X61040000Y-47750000D03*
X50880000Y-47750000D03*
X48340000Y-47750000D03*
D17*
X86000000Y-37420000D03*
D18*
X86000000Y-39960000D03*
X86000000Y-42500000D03*
D19*
X72960000Y-26590000D03*
D20*
X67880000Y-28750000D03*
D21*
X70420000Y-28750000D03*
X72960000Y-28750000D03*
X75500000Y-28750000D03*
D12*
X48500000Y-36310000D03*
D13*
X48500000Y-28690000D03*
D12*
X35750000Y-51380000D03*
D13*
X35750000Y-59000000D03*
D22*
X40000000Y-36000000D03*
D23*
X38730000Y-36000000D03*
X37460000Y-36000000D03*
D14*
X86000000Y-67000000D03*
D12*
X42500000Y-30750000D03*
D13*
X34880000Y-30750000D03*
D24*
X63560000Y-29000000D03*
D25*
X55940000Y-29000000D03*
D26*
X27725000Y-60250000D03*
D27*
X27725000Y-57750000D03*
X27725000Y-55250000D03*
X27725000Y-52750000D03*
X27725000Y-50250000D03*
X27725000Y-47750000D03*
D28*
X86000000Y-60080000D03*
D29*
X86000000Y-55000000D03*
X86000000Y-49920000D03*
D10*
X68660000Y-58000000D03*
D11*
X61040000Y-58000000D03*
X50880000Y-58000000D03*
X48340000Y-58000000D03*
D26*
X27750000Y-40750000D03*
D27*
X27750000Y-38250000D03*
X27750000Y-35750000D03*
D12*
X35750000Y-61272500D03*
D13*
X35750000Y-68892500D03*
D12*
X45250000Y-36310000D03*
D13*
X45250000Y-28690000D03*
D22*
X79460000Y-39500000D03*
D23*
X80730000Y-39500000D03*
X82000000Y-39500000D03*
D15*
X42332500Y-57500000D03*
D16*
X42332500Y-56230000D03*
X42332500Y-54960000D03*
D12*
X80500000Y-34060000D03*
D13*
X80500000Y-26440000D03*
D14*
X29000000Y-29000000D03*
D12*
X35750000Y-40690000D03*
D13*
X35750000Y-48310000D03*
D12*
X63750000Y-36000000D03*
D13*
X56130000Y-36000000D03*
D30*
X72500000Y-36750000D03*
D12*
X72500000Y-39250000D03*
X51750000Y-28690000D03*
D13*
X51750000Y-36310000D03*
D15*
X42332500Y-47290000D03*
D16*
X42332500Y-46020000D03*
X42332500Y-44750000D03*
D14*
X29000000Y-67000000D03*
D31*
X59500000Y-29550000D03*
D32*
X59500000Y-31000000D03*
M02*
