M48
; DRILL file {KiCad 8.0.5-8.0.5-0~ubuntu24.04.1} date 2024-09-07T16:26:30-0700
; FORMAT={-:-/ absolute / inch / decimal}
; #@! TF.CreationDate,2024-09-07T16:26:30-07:00
; #@! TF.GenerationSoftware,Kicad,Pcbnew,8.0.5-8.0.5-0~ubuntu24.04.1
; #@! TF.FileFunction,Plated,1,2,PTH
FMAT,2
INCH
; #@! TA.AperFunction,Plated,PTH,ViaDrill
T1C0.0118
; #@! TA.AperFunction,Plated,PTH,ComponentDrill
T2C0.0295
; #@! TA.AperFunction,Plated,PTH,ComponentDrill
T3C0.0315
; #@! TA.AperFunction,Plated,PTH,ComponentDrill
T4C0.0374
; #@! TA.AperFunction,Plated,PTH,ComponentDrill
T5C0.0394
; #@! TA.AperFunction,Plated,PTH,ComponentDrill
T6C0.0402
; #@! TA.AperFunction,Plated,PTH,ComponentDrill
T7C0.0433
; #@! TA.AperFunction,Plated,PTH,ComponentDrill
T8C0.0598
%
G90
G05
T1
X2.1949Y-1.5748
T2
X1.4748Y-1.4173
X1.5248Y-1.4173
X1.5748Y-1.4173
X1.6666Y-1.7618
X1.6666Y-1.8118
X1.6666Y-1.8618
X1.6666Y-2.1638
X1.6666Y-2.2138
X1.6666Y-2.2638
X1.6666Y-2.5714
X1.6666Y-2.6214
X1.6666Y-2.6714
X3.1283Y-1.5551
X3.1783Y-1.5551
X3.2283Y-1.5551
T3
X1.3732Y-1.2106
X1.4075Y-1.602
X1.4075Y-1.902
X1.4075Y-2.0228
X1.4075Y-2.3228
X1.4075Y-2.4123
X1.4075Y-2.7123
X1.6732Y-1.2106
X1.7815Y-1.1295
X1.7815Y-1.4295
X1.9094Y-1.1295
X1.9094Y-1.4295
X2.0374Y-1.1295
X2.0374Y-1.4295
X2.1236Y-1.5748
X2.2098Y-1.4173
X2.4236Y-1.5748
X2.5098Y-1.4173
X2.8543Y-1.4469
X2.8543Y-1.5453
X3.1693Y-1.0409
X3.1693Y-1.3409
T4
X1.0915Y-1.8799
X1.0915Y-1.9783
X1.0915Y-2.0768
X1.0915Y-2.1752
X1.0915Y-2.2736
X1.0915Y-2.372
X1.0925Y-1.4075
X1.0925Y-1.5059
X1.0925Y-1.6043
T5
X1.9031Y-1.8799
X1.9031Y-2.2835
X1.9031Y-2.687
X2.0031Y-1.8799
X2.0031Y-2.2835
X2.0031Y-2.687
X2.4031Y-1.8799
X2.4031Y-2.2835
X2.4031Y-2.687
X2.7031Y-1.8799
X2.7031Y-2.2835
X2.7031Y-2.687
T6
X2.6724Y-1.1319
X2.7724Y-1.1319
X2.8724Y-1.1319
X2.9724Y-1.1319
T7
X2.2024Y-1.1417
X2.5024Y-1.1417
X3.3858Y-1.4732
X3.3858Y-1.5732
X3.3858Y-1.6732
T8
X3.3858Y-1.9654
X3.3858Y-2.1654
X3.3858Y-2.3654
M30
