G04 #@! TF.GenerationSoftware,KiCad,Pcbnew,8.0.5-8.0.5-0~ubuntu24.04.1*
G04 #@! TF.CreationDate,2024-09-07T16:25:21-07:00*
G04 #@! TF.ProjectId,pifire-relay-pwm-module-SSR-alt,70696669-7265-42d7-9265-6c61792d7077,rev?*
G04 #@! TF.SameCoordinates,Original*
G04 #@! TF.FileFunction,Legend,Bot*
G04 #@! TF.FilePolarity,Positive*
%FSLAX46Y46*%
G04 Gerber Fmt 4.6, Leading zero omitted, Abs format (unit mm)*
G04 Created by KiCad (PCBNEW 8.0.5-8.0.5-0~ubuntu24.04.1) date 2024-09-07 16:25:21*
%MOMM*%
%LPD*%
G01*
G04 APERTURE LIST*
G04 Aperture macros list*
%AMRoundRect*
0 Rectangle with rounded corners*
0 $1 Rounding radius*
0 $2 $3 $4 $5 $6 $7 $8 $9 X,Y pos of 4 corners*
0 Add a 4 corners polygon primitive as box body*
4,1,4,$2,$3,$4,$5,$6,$7,$8,$9,$2,$3,0*
0 Add four circle primitives for the rounded corners*
1,1,$1+$1,$2,$3*
1,1,$1+$1,$4,$5*
1,1,$1+$1,$6,$7*
1,1,$1+$1,$8,$9*
0 Add four rect primitives between the rounded corners*
20,1,$1+$1,$2,$3,$4,$5,0*
20,1,$1+$1,$4,$5,$6,$7,0*
20,1,$1+$1,$6,$7,$8,$9,0*
20,1,$1+$1,$8,$9,$2,$3,0*%
G04 Aperture macros list end*
%ADD10C,0.100000*%
%ADD11RoundRect,0.102000X0.754000X0.754000X-0.754000X0.754000X-0.754000X-0.754000X0.754000X-0.754000X0*%
%ADD12C,1.712000*%
%ADD13C,1.600000*%
%ADD14O,1.600000X1.600000*%
%ADD15C,3.200000*%
%ADD16R,1.500000X1.050000*%
%ADD17O,1.500000X1.050000*%
%ADD18R,2.000000X1.905000*%
%ADD19O,2.000000X1.905000*%
%ADD20C,1.100000*%
%ADD21R,1.730000X2.030000*%
%ADD22O,1.730000X2.030000*%
%ADD23R,1.050000X1.500000*%
%ADD24O,1.050000X1.500000*%
%ADD25R,2.200000X2.200000*%
%ADD26O,2.200000X2.200000*%
%ADD27RoundRect,0.250000X0.725000X-0.600000X0.725000X0.600000X-0.725000X0.600000X-0.725000X-0.600000X0*%
%ADD28O,1.950000X1.700000*%
%ADD29R,3.000000X3.000000*%
%ADD30C,3.000000*%
%ADD31R,1.600000X1.600000*%
G04 APERTURE END LIST*
D10*
G36*
X59995000Y-35139218D02*
G01*
X58470924Y-35139218D01*
X58470924Y-35324598D01*
X59046116Y-35324598D01*
X58986104Y-35375642D01*
X58938508Y-35431502D01*
X58898672Y-35502761D01*
X58875737Y-35580577D01*
X58869528Y-35652494D01*
X58875243Y-35732307D01*
X58892386Y-35804501D01*
X58917889Y-35863520D01*
X58962990Y-35927984D01*
X59020306Y-35975519D01*
X59050879Y-35991748D01*
X59125394Y-36015412D01*
X59203940Y-36026790D01*
X59277545Y-36030430D01*
X59297442Y-36030582D01*
X59995000Y-36030582D01*
X59995000Y-35844836D01*
X59316859Y-35844836D01*
X59239136Y-35838932D01*
X59164947Y-35816263D01*
X59119023Y-35784385D01*
X59076697Y-35722205D01*
X59058619Y-35647262D01*
X59057107Y-35614026D01*
X59066284Y-35538920D01*
X59093815Y-35468160D01*
X59098872Y-35459054D01*
X59144548Y-35400144D01*
X59207643Y-35357360D01*
X59212079Y-35355373D01*
X59285038Y-35334336D01*
X59364208Y-35325680D01*
X59409549Y-35324598D01*
X59995000Y-35324598D01*
X59995000Y-35139218D01*
G37*
G36*
X59836730Y-36712020D02*
G01*
X60000495Y-36738764D01*
X60013959Y-36664576D01*
X60018447Y-36598813D01*
X60013307Y-36524154D01*
X59992871Y-36452850D01*
X59987306Y-36442009D01*
X59938071Y-36383443D01*
X59905607Y-36363974D01*
X59833656Y-36347670D01*
X59758408Y-36342346D01*
X59692749Y-36341259D01*
X59080554Y-36341259D01*
X59080554Y-36204972D01*
X58892976Y-36204972D01*
X58892976Y-36341259D01*
X58621866Y-36341259D01*
X58510858Y-36525540D01*
X58892976Y-36525540D01*
X58892976Y-36712020D01*
X59080554Y-36712020D01*
X59080554Y-36525540D01*
X59687254Y-36525540D01*
X59762793Y-36529643D01*
X59783974Y-36535066D01*
X59818412Y-36566939D01*
X59830868Y-36630687D01*
X59836020Y-36705777D01*
X59836730Y-36712020D01*
G37*
G36*
X59836730Y-37295272D02*
G01*
X60000495Y-37322016D01*
X60013959Y-37247827D01*
X60018447Y-37182065D01*
X60013307Y-37107405D01*
X59992871Y-37036102D01*
X59987306Y-37025261D01*
X59938071Y-36966695D01*
X59905607Y-36947226D01*
X59833656Y-36930922D01*
X59758408Y-36925598D01*
X59692749Y-36924511D01*
X59080554Y-36924511D01*
X59080554Y-36788224D01*
X58892976Y-36788224D01*
X58892976Y-36924511D01*
X58621866Y-36924511D01*
X58510858Y-37108792D01*
X58892976Y-37108792D01*
X58892976Y-37295272D01*
X59080554Y-37295272D01*
X59080554Y-37108792D01*
X59687254Y-37108792D01*
X59762793Y-37112895D01*
X59783974Y-37118318D01*
X59818412Y-37150191D01*
X59830868Y-37213939D01*
X59836020Y-37289029D01*
X59836730Y-37295272D01*
G37*
G36*
X60417051Y-37659071D02*
G01*
X59848454Y-37659071D01*
X59866469Y-37671299D01*
X59923299Y-37720586D01*
X59970453Y-37779972D01*
X59981702Y-37798765D01*
X60009261Y-37869140D01*
X60018447Y-37946667D01*
X60017816Y-37970329D01*
X60006596Y-38047666D01*
X59981351Y-38122642D01*
X59946639Y-38188101D01*
X59922556Y-38222709D01*
X59871496Y-38278241D01*
X59810525Y-38325079D01*
X59739644Y-38363224D01*
X59669943Y-38389670D01*
X59596029Y-38408561D01*
X59517902Y-38419895D01*
X59435561Y-38423674D01*
X59377511Y-38421754D01*
X59302876Y-38413225D01*
X59222688Y-38395473D01*
X59146500Y-38369085D01*
X59122292Y-38358386D01*
X59055928Y-38320725D01*
X58993202Y-38269091D01*
X58942069Y-38207152D01*
X58929105Y-38186801D01*
X58895102Y-38114730D01*
X58875266Y-38036148D01*
X58869528Y-37959856D01*
X58870353Y-37942271D01*
X59057107Y-37942271D01*
X59068363Y-38020443D01*
X59102130Y-38090736D01*
X59152362Y-38147801D01*
X59205988Y-38185468D01*
X59280660Y-38214979D01*
X59359783Y-38229777D01*
X59438859Y-38233897D01*
X59521663Y-38229672D01*
X59603975Y-38214496D01*
X59673143Y-38188284D01*
X59735247Y-38145603D01*
X59741130Y-38140073D01*
X59789688Y-38080954D01*
X59821530Y-38007906D01*
X59830868Y-37934211D01*
X59819959Y-37854831D01*
X59787231Y-37783936D01*
X59738545Y-37726849D01*
X59686063Y-37689503D01*
X59611913Y-37660242D01*
X59532572Y-37645571D01*
X59452780Y-37641486D01*
X59372711Y-37645851D01*
X59291979Y-37661530D01*
X59222742Y-37688613D01*
X59158590Y-37732711D01*
X59105073Y-37792374D01*
X59069099Y-37864119D01*
X59057107Y-37942271D01*
X58870353Y-37942271D01*
X58871357Y-37920847D01*
X58887869Y-37843927D01*
X58921552Y-37777407D01*
X58954725Y-37736378D01*
X59011757Y-37685459D01*
X59076891Y-37642585D01*
X58892976Y-37642585D01*
X58892976Y-37473691D01*
X60417051Y-37473691D01*
X60417051Y-37659071D01*
G37*
G36*
X59666737Y-38567288D02*
G01*
X59643290Y-38750837D01*
X59714656Y-38774890D01*
X59773067Y-38824161D01*
X59782508Y-38836933D01*
X59813819Y-38903634D01*
X59828554Y-38981627D01*
X59830868Y-39034403D01*
X59826539Y-39107683D01*
X59807967Y-39183798D01*
X59786538Y-39223813D01*
X59731798Y-39273878D01*
X59682491Y-39285729D01*
X59615034Y-39254817D01*
X59598227Y-39230774D01*
X59572730Y-39158341D01*
X59554641Y-39085884D01*
X59544738Y-39041364D01*
X59525332Y-38969244D01*
X59503994Y-38896240D01*
X59478621Y-38819997D01*
X59453147Y-38758531D01*
X59413486Y-38696901D01*
X59358387Y-38647056D01*
X59345802Y-38639096D01*
X59278434Y-38609907D01*
X59204788Y-38598588D01*
X59194494Y-38598429D01*
X59117511Y-38607839D01*
X59054909Y-38631769D01*
X58992603Y-38674301D01*
X58947930Y-38722993D01*
X58911036Y-38789339D01*
X58892609Y-38840963D01*
X58876043Y-38913364D01*
X58869619Y-38990435D01*
X58869528Y-39001064D01*
X58873142Y-39078551D01*
X58885464Y-39156597D01*
X58906531Y-39227110D01*
X58940652Y-39297826D01*
X58987134Y-39355047D01*
X59006182Y-39370725D01*
X59074334Y-39407986D01*
X59148635Y-39429990D01*
X59174344Y-39434839D01*
X59197791Y-39253489D01*
X59129378Y-39222165D01*
X59094476Y-39181681D01*
X59066449Y-39110423D01*
X59057435Y-39034452D01*
X59057107Y-39014619D01*
X59061306Y-38935373D01*
X59078797Y-38859558D01*
X59092644Y-38832170D01*
X59147049Y-38782912D01*
X59175443Y-38777581D01*
X59230031Y-38800296D01*
X59269379Y-38865426D01*
X59271430Y-38871371D01*
X59289750Y-38942537D01*
X59307558Y-39018568D01*
X59311364Y-39035136D01*
X59333996Y-39115511D01*
X59357587Y-39193415D01*
X59381225Y-39263266D01*
X59399658Y-39309542D01*
X59438786Y-39375295D01*
X59491599Y-39426235D01*
X59499675Y-39431908D01*
X59568159Y-39463727D01*
X59644715Y-39475849D01*
X59662707Y-39476238D01*
X59738288Y-39467289D01*
X59810240Y-39440443D01*
X59842226Y-39422016D01*
X59900065Y-39374824D01*
X59947189Y-39314030D01*
X59972651Y-39265945D01*
X59998724Y-39192720D01*
X60013035Y-39120592D01*
X60018402Y-39043169D01*
X60018447Y-39035136D01*
X60015330Y-38958731D01*
X60003814Y-38878579D01*
X59980264Y-38798826D01*
X59945631Y-38731713D01*
X59929787Y-38709804D01*
X59873134Y-38653354D01*
X59802919Y-38609714D01*
X59729119Y-38581675D01*
X59666737Y-38567288D01*
G37*
G36*
X59080554Y-39742219D02*
G01*
X58892976Y-39742219D01*
X58892976Y-39953611D01*
X59080554Y-39953611D01*
X59080554Y-39742219D01*
G37*
G36*
X59995000Y-39742219D02*
G01*
X59807421Y-39742219D01*
X59807421Y-39953611D01*
X59995000Y-39953611D01*
X59995000Y-39742219D01*
G37*
G36*
X59995000Y-40134961D02*
G01*
X58470924Y-40572766D01*
X58470924Y-40721144D01*
X59995000Y-40284438D01*
X59995000Y-40134961D01*
G37*
G36*
X59995000Y-40718213D02*
G01*
X58470924Y-41156018D01*
X58470924Y-41304396D01*
X59995000Y-40867690D01*
X59995000Y-40718213D01*
G37*
G36*
X59466860Y-41370091D02*
G01*
X59548905Y-41377325D01*
X59626365Y-41393241D01*
X59699240Y-41417837D01*
X59767530Y-41451115D01*
X59831235Y-41493073D01*
X59886889Y-41543078D01*
X59937266Y-41610435D01*
X59971970Y-41687504D01*
X59989242Y-41761294D01*
X59995000Y-41842219D01*
X59993763Y-41875697D01*
X59981261Y-41949731D01*
X59950486Y-42027343D01*
X59909133Y-42089130D01*
X59854316Y-42145202D01*
X59921758Y-42144929D01*
X59999066Y-42141924D01*
X60073035Y-42131646D01*
X60083557Y-42128401D01*
X60152980Y-42092745D01*
X60205659Y-42037124D01*
X60230582Y-41987629D01*
X60248305Y-41913029D01*
X60252920Y-41838189D01*
X60251452Y-41795178D01*
X60239705Y-41719821D01*
X60211154Y-41649877D01*
X60182647Y-41616802D01*
X60112236Y-41586863D01*
X60088789Y-41406612D01*
X60151755Y-41409479D01*
X60226012Y-41426928D01*
X60296305Y-41465168D01*
X60352571Y-41523115D01*
X60363218Y-41538475D01*
X60398939Y-41605783D01*
X60423669Y-41682480D01*
X60436291Y-41757290D01*
X60440498Y-41839288D01*
X60438309Y-41899283D01*
X60428577Y-41973586D01*
X60408324Y-42049404D01*
X60378217Y-42116992D01*
X60370255Y-42130859D01*
X60325168Y-42193070D01*
X60271280Y-42243402D01*
X60208590Y-42281856D01*
X60163192Y-42299536D01*
X60086233Y-42317419D01*
X60003491Y-42327732D01*
X59921128Y-42332609D01*
X59844424Y-42333879D01*
X58892976Y-42333879D01*
X58892976Y-42162787D01*
X59033660Y-42162787D01*
X58995191Y-42130307D01*
X58940214Y-42068342D01*
X58900944Y-41999855D01*
X58877382Y-41924847D01*
X58870834Y-41856873D01*
X59057107Y-41856873D01*
X59057476Y-41872438D01*
X59070399Y-41945968D01*
X59101783Y-42012343D01*
X59151629Y-42071563D01*
X59204408Y-42110672D01*
X59277415Y-42141314D01*
X59354426Y-42156678D01*
X59431165Y-42160956D01*
X59489427Y-42158836D01*
X59572117Y-42146625D01*
X59649651Y-42119916D01*
X59716563Y-42074127D01*
X59722153Y-42068683D01*
X59768292Y-42009836D01*
X59798548Y-41935848D01*
X59807421Y-41860170D01*
X59807332Y-41852153D01*
X59796642Y-41776619D01*
X59764303Y-41703284D01*
X59716196Y-41645481D01*
X59663692Y-41608135D01*
X59588585Y-41578875D01*
X59507567Y-41564203D01*
X59425669Y-41560118D01*
X59370740Y-41562229D01*
X59292006Y-41574388D01*
X59216896Y-41600985D01*
X59150163Y-41646580D01*
X59144438Y-41652043D01*
X59097183Y-41710604D01*
X59066195Y-41783285D01*
X59057107Y-41856873D01*
X58870834Y-41856873D01*
X58869528Y-41843318D01*
X58870662Y-41807632D01*
X58881500Y-41731607D01*
X58903815Y-41661495D01*
X58942069Y-41590526D01*
X58961154Y-41564394D01*
X59017182Y-41506026D01*
X59077763Y-41461999D01*
X59147965Y-41426029D01*
X59207323Y-41404045D01*
X59287092Y-41383714D01*
X59361258Y-41373135D01*
X59438492Y-41369609D01*
X59466860Y-41370091D01*
G37*
G36*
X58658503Y-42609752D02*
G01*
X58470924Y-42609752D01*
X58470924Y-42795132D01*
X58658503Y-42795132D01*
X58658503Y-42609752D01*
G37*
G36*
X59995000Y-42609752D02*
G01*
X58892976Y-42609752D01*
X58892976Y-42795132D01*
X59995000Y-42795132D01*
X59995000Y-42609752D01*
G37*
G36*
X59836730Y-43479501D02*
G01*
X60000495Y-43506245D01*
X60013959Y-43432056D01*
X60018447Y-43366294D01*
X60013307Y-43291634D01*
X59992871Y-43220331D01*
X59987306Y-43209490D01*
X59938071Y-43150924D01*
X59905607Y-43131454D01*
X59833656Y-43115151D01*
X59758408Y-43109827D01*
X59692749Y-43108740D01*
X59080554Y-43108740D01*
X59080554Y-42972452D01*
X58892976Y-42972452D01*
X58892976Y-43108740D01*
X58621866Y-43108740D01*
X58510858Y-43293021D01*
X58892976Y-43293021D01*
X58892976Y-43479501D01*
X59080554Y-43479501D01*
X59080554Y-43293021D01*
X59687254Y-43293021D01*
X59762793Y-43297123D01*
X59783974Y-43302547D01*
X59818412Y-43334420D01*
X59830868Y-43398168D01*
X59836020Y-43473258D01*
X59836730Y-43479501D01*
G37*
G36*
X59995000Y-43657920D02*
G01*
X58470924Y-43657920D01*
X58470924Y-43843300D01*
X59046116Y-43843300D01*
X58986104Y-43894344D01*
X58938508Y-43950204D01*
X58898672Y-44021463D01*
X58875737Y-44099279D01*
X58869528Y-44171196D01*
X58875243Y-44251009D01*
X58892386Y-44323203D01*
X58917889Y-44382222D01*
X58962990Y-44446686D01*
X59020306Y-44494221D01*
X59050879Y-44510450D01*
X59125394Y-44534114D01*
X59203940Y-44545492D01*
X59277545Y-44549133D01*
X59297442Y-44549284D01*
X59995000Y-44549284D01*
X59995000Y-44363538D01*
X59316859Y-44363538D01*
X59239136Y-44357634D01*
X59164947Y-44334965D01*
X59119023Y-44303087D01*
X59076697Y-44240907D01*
X59058619Y-44165964D01*
X59057107Y-44132728D01*
X59066284Y-44057622D01*
X59093815Y-43986862D01*
X59098872Y-43977756D01*
X59144548Y-43918846D01*
X59207643Y-43876062D01*
X59212079Y-43874075D01*
X59285038Y-43853038D01*
X59364208Y-43844382D01*
X59409549Y-43843300D01*
X59995000Y-43843300D01*
X59995000Y-43657920D01*
G37*
G36*
X59995000Y-45542864D02*
G01*
X59805589Y-45542864D01*
X59866910Y-45500671D01*
X59926777Y-45444137D01*
X59971676Y-45381162D01*
X60001609Y-45311748D01*
X60016576Y-45235893D01*
X60018447Y-45195551D01*
X60012279Y-45119021D01*
X59993777Y-45046604D01*
X59981078Y-45014567D01*
X59944733Y-44949431D01*
X59894266Y-44895255D01*
X59887288Y-44890003D01*
X59820208Y-44853619D01*
X59749169Y-44832850D01*
X59672582Y-44823988D01*
X59596607Y-44821593D01*
X59574780Y-44821493D01*
X58892976Y-44821493D01*
X58892976Y-45007240D01*
X59486486Y-45007240D01*
X59566084Y-45008349D01*
X59642604Y-45013107D01*
X59677728Y-45018597D01*
X59745052Y-45048242D01*
X59790202Y-45092602D01*
X59821933Y-45160486D01*
X59830868Y-45232920D01*
X59821691Y-45308896D01*
X59794160Y-45380203D01*
X59789103Y-45389357D01*
X59743347Y-45448632D01*
X59679988Y-45491096D01*
X59675530Y-45493039D01*
X59599966Y-45513825D01*
X59523179Y-45521992D01*
X59466336Y-45523447D01*
X58892976Y-45523447D01*
X58892976Y-45708827D01*
X59995000Y-45708827D01*
X59995000Y-45542864D01*
G37*
G36*
X59995000Y-46164951D02*
G01*
X59819511Y-46164951D01*
X59876822Y-46201442D01*
X59932772Y-46250592D01*
X59980369Y-46315325D01*
X60008927Y-46388016D01*
X60018447Y-46468667D01*
X60014681Y-46528206D01*
X59996757Y-46606963D01*
X59964071Y-46680356D01*
X59916625Y-46748384D01*
X59864207Y-46802424D01*
X59812877Y-46842531D01*
X59743016Y-46881687D01*
X59664139Y-46911053D01*
X59591521Y-46928047D01*
X59512642Y-46938244D01*
X59427501Y-46941643D01*
X59354515Y-46938423D01*
X59277535Y-46927443D01*
X59204019Y-46908670D01*
X59159650Y-46893035D01*
X59090442Y-46860603D01*
X59025233Y-46817445D01*
X58998653Y-46794480D01*
X58949105Y-46737035D01*
X58910561Y-46669068D01*
X58892609Y-46623318D01*
X58875299Y-46552118D01*
X58869528Y-46477826D01*
X58870818Y-46461706D01*
X59057107Y-46461706D01*
X59068233Y-46540373D01*
X59101610Y-46610643D01*
X59151263Y-46667236D01*
X59204798Y-46704422D01*
X59280461Y-46733557D01*
X59361439Y-46748165D01*
X59442889Y-46752233D01*
X59511930Y-46749116D01*
X59593526Y-46735262D01*
X59671034Y-46706431D01*
X59733415Y-46663572D01*
X59739411Y-46657999D01*
X59788899Y-46598722D01*
X59821351Y-46526080D01*
X59830868Y-46453279D01*
X59826219Y-46399402D01*
X59801808Y-46326749D01*
X59756473Y-46263892D01*
X59698611Y-46216242D01*
X59658510Y-46195400D01*
X59584435Y-46174505D01*
X59510956Y-46165312D01*
X59436294Y-46162752D01*
X59370241Y-46165869D01*
X59291667Y-46179723D01*
X59216245Y-46208554D01*
X59154560Y-46251413D01*
X59148564Y-46256986D01*
X59099076Y-46316263D01*
X59066624Y-46388905D01*
X59057107Y-46461706D01*
X58870818Y-46461706D01*
X58873956Y-46422499D01*
X58895031Y-46350331D01*
X58933462Y-46284334D01*
X58989248Y-46224508D01*
X59050879Y-46178140D01*
X58470924Y-46178140D01*
X58470924Y-45992759D01*
X59995000Y-45992759D01*
X59995000Y-46164951D01*
G37*
G36*
X59995000Y-47214218D02*
G01*
X59807421Y-47214218D01*
X59807421Y-47425610D01*
X59995000Y-47425610D01*
X59995000Y-47214218D01*
G37*
G36*
X59596395Y-48459124D02*
G01*
X59619842Y-48641573D01*
X59697856Y-48623977D01*
X59768085Y-48597475D01*
X59838817Y-48556282D01*
X59899381Y-48503457D01*
X59912934Y-48488433D01*
X59959096Y-48423380D01*
X59992069Y-48351321D01*
X60011852Y-48272255D01*
X60018344Y-48197325D01*
X60018447Y-48186182D01*
X60013269Y-48104931D01*
X59997736Y-48029888D01*
X59971847Y-47961053D01*
X59928555Y-47888592D01*
X59880229Y-47833208D01*
X59871168Y-47824581D01*
X59811306Y-47778264D01*
X59742454Y-47741531D01*
X59664612Y-47714380D01*
X59592876Y-47699074D01*
X59514896Y-47690423D01*
X59448018Y-47688293D01*
X59372258Y-47691098D01*
X59290914Y-47701173D01*
X59215157Y-47718576D01*
X59144986Y-47743305D01*
X59136608Y-47746912D01*
X59066692Y-47784901D01*
X59007383Y-47832512D01*
X58958681Y-47889744D01*
X58936207Y-47925697D01*
X58903975Y-47994943D01*
X58882291Y-48067493D01*
X58871156Y-48143347D01*
X58869528Y-48186915D01*
X58873911Y-48261853D01*
X58889653Y-48339854D01*
X58916845Y-48409704D01*
X58961120Y-48478541D01*
X59018725Y-48535963D01*
X59080149Y-48576155D01*
X59151189Y-48606133D01*
X59221238Y-48623988D01*
X59244685Y-48443736D01*
X59176458Y-48416309D01*
X59116819Y-48368283D01*
X59104368Y-48352512D01*
X59070445Y-48285074D01*
X59057522Y-48211383D01*
X59057107Y-48194242D01*
X59064439Y-48119487D01*
X59089784Y-48046214D01*
X59133232Y-47983245D01*
X59149797Y-47966364D01*
X59210455Y-47924037D01*
X59288154Y-47895562D01*
X59360367Y-47882993D01*
X59442889Y-47878803D01*
X59526677Y-47882835D01*
X59599807Y-47894931D01*
X59670332Y-47918631D01*
X59733032Y-47957882D01*
X59738911Y-47963066D01*
X59787404Y-48021005D01*
X59817937Y-48089033D01*
X59830509Y-48167150D01*
X59830868Y-48183984D01*
X59822780Y-48260818D01*
X59795761Y-48332659D01*
X59773349Y-48366434D01*
X59716396Y-48417079D01*
X59645685Y-48448052D01*
X59596395Y-48459124D01*
G37*
G36*
X59511559Y-48727320D02*
G01*
X59590291Y-48736319D01*
X59662656Y-48752242D01*
X59741086Y-48780488D01*
X59810346Y-48818703D01*
X59870436Y-48866887D01*
X59888359Y-48884953D01*
X59935191Y-48943274D01*
X59971615Y-49007777D01*
X59997633Y-49078463D01*
X60013243Y-49155330D01*
X60018447Y-49238381D01*
X60016810Y-49282600D01*
X60005614Y-49359445D01*
X59983811Y-49432755D01*
X59951402Y-49502529D01*
X59929012Y-49539012D01*
X59882039Y-49597558D01*
X59826488Y-49646946D01*
X59762358Y-49687177D01*
X59730536Y-49702032D01*
X59658408Y-49725800D01*
X59586017Y-49740097D01*
X59504966Y-49748330D01*
X59428600Y-49750558D01*
X59380483Y-49749299D01*
X59304723Y-49741605D01*
X59221132Y-49723139D01*
X59145527Y-49694601D01*
X59077907Y-49655991D01*
X59018272Y-49607309D01*
X59000260Y-49589081D01*
X58953197Y-49530533D01*
X58916592Y-49466189D01*
X58890446Y-49396049D01*
X58874758Y-49320113D01*
X58869528Y-49238381D01*
X59057107Y-49238381D01*
X59057485Y-49255332D01*
X59070708Y-49334809D01*
X59102822Y-49405484D01*
X59153827Y-49467358D01*
X59207706Y-49507750D01*
X59281949Y-49539396D01*
X59360059Y-49555264D01*
X59437759Y-49559682D01*
X59519920Y-49555299D01*
X59601883Y-49539557D01*
X59671114Y-49512366D01*
X59733782Y-49468091D01*
X59751132Y-49450509D01*
X59796642Y-49385994D01*
X59823189Y-49312392D01*
X59830868Y-49238381D01*
X59830492Y-49221164D01*
X59817319Y-49140664D01*
X59785326Y-49069467D01*
X59734515Y-49007571D01*
X59672401Y-48963296D01*
X59604246Y-48936105D01*
X59523909Y-48920363D01*
X59443621Y-48915980D01*
X59374258Y-48919200D01*
X59292513Y-48933511D01*
X59215220Y-48963296D01*
X59153461Y-49007571D01*
X59136241Y-49025163D01*
X59091075Y-49089849D01*
X59064729Y-49163838D01*
X59057107Y-49238381D01*
X58869528Y-49238381D01*
X58871435Y-49188601D01*
X58883944Y-49106114D01*
X58908130Y-49029519D01*
X58943991Y-48958813D01*
X58991528Y-48893998D01*
X59000887Y-48883607D01*
X59063518Y-48828189D01*
X59137252Y-48784646D01*
X59207178Y-48757432D01*
X59284813Y-48738464D01*
X59370160Y-48727743D01*
X59443988Y-48725104D01*
X59511559Y-48727320D01*
G37*
G36*
X59995000Y-49962316D02*
G01*
X58892976Y-49962316D01*
X58892976Y-50128279D01*
X59074326Y-50128279D01*
X59010184Y-50171762D01*
X58956242Y-50224725D01*
X58925949Y-50265300D01*
X58891568Y-50332671D01*
X58873055Y-50406739D01*
X58869528Y-50459839D01*
X58876325Y-50538267D01*
X58899243Y-50611975D01*
X58927048Y-50659141D01*
X58981103Y-50714927D01*
X59044524Y-50752897D01*
X59087515Y-50769050D01*
X59024716Y-50811503D01*
X58963408Y-50867522D01*
X58917426Y-50929080D01*
X58886772Y-50996176D01*
X58871444Y-51068810D01*
X58869528Y-51107205D01*
X58875207Y-51183843D01*
X58895171Y-51258840D01*
X58934212Y-51328235D01*
X58960387Y-51357431D01*
X59026533Y-51403606D01*
X59102460Y-51430542D01*
X59182992Y-51442855D01*
X59239556Y-51444993D01*
X59995000Y-51444993D01*
X59995000Y-51260345D01*
X59320157Y-51260345D01*
X59241846Y-51257382D01*
X59166755Y-51243498D01*
X59163719Y-51242393D01*
X59102238Y-51198773D01*
X59086416Y-51176814D01*
X59060570Y-51107684D01*
X59057107Y-51065806D01*
X59065982Y-50991097D01*
X59095906Y-50920162D01*
X59132212Y-50874197D01*
X59194539Y-50830811D01*
X59269758Y-50806998D01*
X59342659Y-50798663D01*
X59372913Y-50797993D01*
X59995000Y-50797993D01*
X59995000Y-50612247D01*
X59299274Y-50612247D01*
X59223089Y-50606878D01*
X59151583Y-50586693D01*
X59117557Y-50566817D01*
X59072219Y-50507192D01*
X59057343Y-50431127D01*
X59057107Y-50418440D01*
X59067182Y-50343244D01*
X59097407Y-50273726D01*
X59147049Y-50216482D01*
X59210558Y-50179285D01*
X59215376Y-50177372D01*
X59289789Y-50158158D01*
X59370417Y-50149551D01*
X59439225Y-50147697D01*
X59995000Y-50147697D01*
X59995000Y-49962316D01*
G37*
G36*
X59995000Y-51571388D02*
G01*
X58470924Y-52009193D01*
X58470924Y-52157571D01*
X59995000Y-51720865D01*
X59995000Y-51571388D01*
G37*
G36*
X59995000Y-52293859D02*
G01*
X58892976Y-52293859D01*
X58892976Y-52460554D01*
X59048681Y-52460554D01*
X58987797Y-52509528D01*
X58939510Y-52566050D01*
X58903819Y-52630119D01*
X58880725Y-52701736D01*
X58870228Y-52780901D01*
X58869528Y-52808967D01*
X58875454Y-52886677D01*
X58893231Y-52959067D01*
X58905432Y-52990683D01*
X58940875Y-53055388D01*
X58992029Y-53109587D01*
X58999221Y-53114881D01*
X59066929Y-53151836D01*
X59136974Y-53172766D01*
X59213884Y-53180771D01*
X59294693Y-53182934D01*
X59318325Y-53183025D01*
X59995000Y-53183025D01*
X59995000Y-52997644D01*
X59343604Y-52997644D01*
X59268230Y-52994605D01*
X59192255Y-52981095D01*
X59177641Y-52976029D01*
X59115137Y-52933143D01*
X59090080Y-52899092D01*
X59062549Y-52826988D01*
X59057107Y-52769766D01*
X59065808Y-52692220D01*
X59091913Y-52622293D01*
X59130746Y-52565334D01*
X59189686Y-52519932D01*
X59264819Y-52493448D01*
X59337721Y-52482266D01*
X59410282Y-52479239D01*
X59995000Y-52479239D01*
X59995000Y-52293859D01*
G37*
G36*
X59502381Y-53401149D02*
G01*
X59579771Y-53408705D01*
X59664943Y-53426840D01*
X59741716Y-53454867D01*
X59810091Y-53492786D01*
X59870069Y-53540596D01*
X59888037Y-53558569D01*
X59934984Y-53617143D01*
X59971499Y-53682698D01*
X59997581Y-53755234D01*
X60013230Y-53834751D01*
X60018447Y-53921249D01*
X60018111Y-53944840D01*
X60011637Y-54023197D01*
X59996923Y-54094997D01*
X59970018Y-54169025D01*
X59932351Y-54234490D01*
X59891336Y-54284486D01*
X59828762Y-54337896D01*
X59763847Y-54375105D01*
X59690184Y-54402651D01*
X59666737Y-54210676D01*
X59682402Y-54202513D01*
X59744693Y-54157433D01*
X59791667Y-54096371D01*
X59802961Y-54073092D01*
X59824399Y-54000203D01*
X59830868Y-53922348D01*
X59830538Y-53905396D01*
X59818967Y-53825919D01*
X59790867Y-53755244D01*
X59746238Y-53693370D01*
X59717976Y-53666734D01*
X59650556Y-53625374D01*
X59577459Y-53601733D01*
X59502606Y-53591521D01*
X59502606Y-54407780D01*
X59452048Y-54408513D01*
X59384745Y-54406338D01*
X59306075Y-54397501D01*
X59233470Y-54381866D01*
X59154348Y-54354131D01*
X59083959Y-54316607D01*
X59022302Y-54269295D01*
X58970383Y-54214392D01*
X58923387Y-54143175D01*
X58891012Y-54064245D01*
X58874899Y-53990451D01*
X58869652Y-53912822D01*
X59057107Y-53912822D01*
X59057880Y-53938874D01*
X59069472Y-54011466D01*
X59098666Y-54082334D01*
X59145034Y-54142899D01*
X59168313Y-54162884D01*
X59238057Y-54197195D01*
X59315027Y-54212875D01*
X59315027Y-53601779D01*
X59252643Y-53613104D01*
X59181185Y-53647407D01*
X59127449Y-53698133D01*
X59087401Y-53762841D01*
X59063976Y-53837074D01*
X59057107Y-53912822D01*
X58869652Y-53912822D01*
X58869528Y-53910990D01*
X58870127Y-53882974D01*
X58879100Y-53802890D01*
X58898840Y-53728757D01*
X58929349Y-53660575D01*
X58970625Y-53598343D01*
X59022669Y-53542062D01*
X59073557Y-53501110D01*
X59142628Y-53461131D01*
X59220432Y-53431146D01*
X59291939Y-53413794D01*
X59369511Y-53403383D01*
X59453147Y-53399912D01*
X59502381Y-53401149D01*
G37*
G36*
X59995000Y-54800889D02*
G01*
X59819511Y-54800889D01*
X59876822Y-54837381D01*
X59932772Y-54886531D01*
X59980369Y-54951263D01*
X60008927Y-55023955D01*
X60018447Y-55104605D01*
X60014681Y-55164145D01*
X59996757Y-55242902D01*
X59964071Y-55316295D01*
X59916625Y-55384323D01*
X59864207Y-55438363D01*
X59812877Y-55478470D01*
X59743016Y-55517625D01*
X59664139Y-55546992D01*
X59591521Y-55563986D01*
X59512642Y-55574183D01*
X59427501Y-55577581D01*
X59354515Y-55574361D01*
X59277535Y-55563381D01*
X59204019Y-55544609D01*
X59159650Y-55528973D01*
X59090442Y-55496542D01*
X59025233Y-55453384D01*
X58998653Y-55430419D01*
X58949105Y-55372973D01*
X58910561Y-55305006D01*
X58892609Y-55259257D01*
X58875299Y-55188056D01*
X58869528Y-55113764D01*
X58870818Y-55097644D01*
X59057107Y-55097644D01*
X59068233Y-55176312D01*
X59101610Y-55246581D01*
X59151263Y-55303175D01*
X59204798Y-55340361D01*
X59280461Y-55369495D01*
X59361439Y-55384104D01*
X59442889Y-55388171D01*
X59511930Y-55385054D01*
X59593526Y-55371201D01*
X59671034Y-55342369D01*
X59733415Y-55299511D01*
X59739411Y-55293938D01*
X59788899Y-55234661D01*
X59821351Y-55162019D01*
X59830868Y-55089218D01*
X59826219Y-55035341D01*
X59801808Y-54962688D01*
X59756473Y-54899830D01*
X59698611Y-54852180D01*
X59658510Y-54831338D01*
X59584435Y-54810444D01*
X59510956Y-54801251D01*
X59436294Y-54798691D01*
X59370241Y-54801808D01*
X59291667Y-54815661D01*
X59216245Y-54844493D01*
X59154560Y-54887351D01*
X59148564Y-54892925D01*
X59099076Y-54952201D01*
X59066624Y-55024844D01*
X59057107Y-55097644D01*
X58870818Y-55097644D01*
X58873956Y-55058438D01*
X58895031Y-54986270D01*
X58933462Y-54920272D01*
X58989248Y-54860446D01*
X59050879Y-54814078D01*
X58470924Y-54814078D01*
X58470924Y-54628698D01*
X59995000Y-54628698D01*
X59995000Y-54800889D01*
G37*
G36*
X59995000Y-55797766D02*
G01*
X58470924Y-55797766D01*
X58470924Y-55983147D01*
X59046116Y-55983147D01*
X58986104Y-56034190D01*
X58938508Y-56090051D01*
X58898672Y-56161310D01*
X58875737Y-56239125D01*
X58869528Y-56311043D01*
X58875243Y-56390856D01*
X58892386Y-56463050D01*
X58917889Y-56522069D01*
X58962990Y-56586533D01*
X59020306Y-56634067D01*
X59050879Y-56650296D01*
X59125394Y-56673961D01*
X59203940Y-56685338D01*
X59277545Y-56688979D01*
X59297442Y-56689131D01*
X59995000Y-56689131D01*
X59995000Y-56503384D01*
X59316859Y-56503384D01*
X59239136Y-56497481D01*
X59164947Y-56474812D01*
X59119023Y-56442934D01*
X59076697Y-56380754D01*
X59058619Y-56305810D01*
X59057107Y-56272575D01*
X59066284Y-56197468D01*
X59093815Y-56126709D01*
X59098872Y-56117602D01*
X59144548Y-56058693D01*
X59207643Y-56015908D01*
X59212079Y-56013921D01*
X59285038Y-55992884D01*
X59364208Y-55984229D01*
X59409549Y-55983147D01*
X59995000Y-55983147D01*
X59995000Y-55797766D01*
G37*
G36*
X59502381Y-56905057D02*
G01*
X59579771Y-56912613D01*
X59664943Y-56930748D01*
X59741716Y-56958775D01*
X59810091Y-56996693D01*
X59870069Y-57044504D01*
X59888037Y-57062477D01*
X59934984Y-57121051D01*
X59971499Y-57186606D01*
X59997581Y-57259142D01*
X60013230Y-57338659D01*
X60018447Y-57425157D01*
X60018111Y-57448748D01*
X60011637Y-57527105D01*
X59996923Y-57598905D01*
X59970018Y-57672933D01*
X59932351Y-57738398D01*
X59891336Y-57788394D01*
X59828762Y-57841804D01*
X59763847Y-57879013D01*
X59690184Y-57906559D01*
X59666737Y-57714584D01*
X59682402Y-57706421D01*
X59744693Y-57661341D01*
X59791667Y-57600279D01*
X59802961Y-57577000D01*
X59824399Y-57504111D01*
X59830868Y-57426256D01*
X59830538Y-57409304D01*
X59818967Y-57329827D01*
X59790867Y-57259152D01*
X59746238Y-57197278D01*
X59717976Y-57170641D01*
X59650556Y-57129282D01*
X59577459Y-57105641D01*
X59502606Y-57095429D01*
X59502606Y-57911688D01*
X59452048Y-57912421D01*
X59384745Y-57910246D01*
X59306075Y-57901409D01*
X59233470Y-57885774D01*
X59154348Y-57858039D01*
X59083959Y-57820515D01*
X59022302Y-57773203D01*
X58970383Y-57718299D01*
X58923387Y-57647083D01*
X58891012Y-57568153D01*
X58874899Y-57494359D01*
X58869652Y-57416730D01*
X59057107Y-57416730D01*
X59057880Y-57442782D01*
X59069472Y-57515374D01*
X59098666Y-57586242D01*
X59145034Y-57646807D01*
X59168313Y-57666792D01*
X59238057Y-57701103D01*
X59315027Y-57716782D01*
X59315027Y-57105687D01*
X59252643Y-57117012D01*
X59181185Y-57151315D01*
X59127449Y-57202041D01*
X59087401Y-57266749D01*
X59063976Y-57340981D01*
X59057107Y-57416730D01*
X58869652Y-57416730D01*
X58869528Y-57414898D01*
X58870127Y-57386881D01*
X58879100Y-57306798D01*
X58898840Y-57232665D01*
X58929349Y-57164483D01*
X58970625Y-57102251D01*
X59022669Y-57045969D01*
X59073557Y-57005018D01*
X59142628Y-56965039D01*
X59220432Y-56935054D01*
X59291939Y-56917702D01*
X59369511Y-56907291D01*
X59453147Y-56903820D01*
X59502381Y-56905057D01*
G37*
G36*
X59719026Y-58071068D02*
G01*
X59798817Y-58084292D01*
X59868949Y-58116406D01*
X59929420Y-58167411D01*
X59968369Y-58221152D01*
X59998885Y-58294036D01*
X60014187Y-58369868D01*
X60018447Y-58444748D01*
X60016134Y-58498627D01*
X60003993Y-58576096D01*
X59981444Y-58649546D01*
X59976611Y-58661483D01*
X59942612Y-58728210D01*
X59900809Y-58790449D01*
X59854316Y-58847749D01*
X59925370Y-58859894D01*
X59995000Y-58884752D01*
X59995000Y-59078558D01*
X59985540Y-59074252D01*
X59912950Y-59047703D01*
X59837463Y-59031297D01*
X59826528Y-59029878D01*
X59752919Y-59024153D01*
X59671311Y-59021222D01*
X59596852Y-59019986D01*
X59511032Y-59019574D01*
X59278025Y-59019574D01*
X59263731Y-59019538D01*
X59189267Y-59017821D01*
X59113893Y-59010415D01*
X59051693Y-58991221D01*
X58986765Y-58952529D01*
X58983622Y-58949919D01*
X58935335Y-58891645D01*
X58902868Y-58823935D01*
X58900816Y-58818411D01*
X58881282Y-58744085D01*
X58872166Y-58670812D01*
X58869528Y-58596057D01*
X58869676Y-58578557D01*
X58873987Y-58503067D01*
X58885780Y-58425444D01*
X58907264Y-58347662D01*
X58925298Y-58303260D01*
X58963312Y-58238320D01*
X59014609Y-58183897D01*
X59057241Y-58154505D01*
X59124904Y-58123249D01*
X59197791Y-58102564D01*
X59221238Y-58283914D01*
X59209962Y-58287796D01*
X59143294Y-58322016D01*
X59093377Y-58376238D01*
X59074250Y-58421855D01*
X59060649Y-58494258D01*
X59057107Y-58569312D01*
X59060496Y-58635143D01*
X59076222Y-58711528D01*
X59111329Y-58780704D01*
X59174982Y-58823067D01*
X59249815Y-58833094D01*
X59291580Y-58832362D01*
X59479159Y-58832362D01*
X59532281Y-58832362D01*
X59607295Y-58826611D01*
X59677362Y-58802320D01*
X59689150Y-58794580D01*
X59743166Y-58744192D01*
X59786172Y-58679588D01*
X59803588Y-58641921D01*
X59824583Y-58566015D01*
X59830868Y-58489078D01*
X59830511Y-58469268D01*
X59820702Y-58393915D01*
X59790202Y-58324581D01*
X59759863Y-58292667D01*
X59688719Y-58268527D01*
X59686253Y-58268552D01*
X59616545Y-58294173D01*
X59606740Y-58302820D01*
X59567086Y-58367445D01*
X59562924Y-58380394D01*
X59547308Y-58453026D01*
X59536678Y-58529378D01*
X59525786Y-58612874D01*
X59513947Y-58686728D01*
X59499259Y-58759325D01*
X59479159Y-58832362D01*
X59291580Y-58832362D01*
X59296211Y-58818619D01*
X59316059Y-58745335D01*
X59332340Y-58664477D01*
X59345533Y-58581592D01*
X59356060Y-58501535D01*
X59357759Y-58487968D01*
X59369010Y-58410387D01*
X59384270Y-58336671D01*
X59408195Y-58270248D01*
X59445819Y-58202948D01*
X59493080Y-58149550D01*
X59553531Y-58107327D01*
X59557735Y-58105073D01*
X59628798Y-58078740D01*
X59701908Y-58070690D01*
X59719026Y-58071068D01*
G37*
G36*
X59516977Y-59237505D02*
G01*
X59594629Y-59247832D01*
X59667472Y-59265669D01*
X59743674Y-59294713D01*
X59782807Y-59314803D01*
X59846216Y-59357004D01*
X59900582Y-59406972D01*
X59945907Y-59464706D01*
X59954691Y-59478528D01*
X59990111Y-59550127D01*
X60011363Y-59625875D01*
X60018447Y-59705774D01*
X60013554Y-59766469D01*
X59990265Y-59843418D01*
X59947798Y-59911006D01*
X59886151Y-59969232D01*
X59818046Y-60011688D01*
X59995000Y-60011688D01*
X59995000Y-60183513D01*
X58470924Y-60183513D01*
X58470924Y-59999232D01*
X59053443Y-59999232D01*
X59023888Y-59980079D01*
X58967275Y-59931601D01*
X58920819Y-59873569D01*
X58903389Y-59843820D01*
X58877993Y-59774151D01*
X58871426Y-59714567D01*
X59057107Y-59714567D01*
X59057486Y-59730255D01*
X59070760Y-59803971D01*
X59102996Y-59869817D01*
X59154193Y-59927791D01*
X59166760Y-59938305D01*
X59233971Y-59977225D01*
X59308360Y-60000289D01*
X59384758Y-60011567D01*
X59458642Y-60014619D01*
X59515243Y-60012544D01*
X59595980Y-60000591D01*
X59672359Y-59974445D01*
X59739277Y-59929623D01*
X59787577Y-59872922D01*
X59820046Y-59802287D01*
X59830868Y-59722993D01*
X59819526Y-59643893D01*
X59785499Y-59572324D01*
X59734881Y-59513799D01*
X59680590Y-59475010D01*
X59604898Y-59444620D01*
X59524624Y-59429382D01*
X59444354Y-59425139D01*
X59361672Y-59429101D01*
X59289299Y-59440987D01*
X59219209Y-59464274D01*
X59150530Y-59507937D01*
X59144782Y-59513175D01*
X59097341Y-59569875D01*
X59066230Y-59641337D01*
X59057107Y-59714567D01*
X58871426Y-59714567D01*
X58869528Y-59697348D01*
X58869808Y-59680551D01*
X58879575Y-59599614D01*
X58903296Y-59523758D01*
X58940969Y-59452983D01*
X58959809Y-59426542D01*
X59015472Y-59367902D01*
X59076030Y-59324242D01*
X59146500Y-59289218D01*
X59215445Y-59265336D01*
X59288191Y-59248277D01*
X59364738Y-59238041D01*
X59445087Y-59234630D01*
X59516977Y-59237505D01*
G37*
G36*
X59995000Y-60330425D02*
G01*
X58470924Y-60768230D01*
X58470924Y-60916608D01*
X59995000Y-60479902D01*
X59995000Y-60330425D01*
G37*
G36*
X60417051Y-61238276D02*
G01*
X59848454Y-61238276D01*
X59866469Y-61250503D01*
X59923299Y-61299791D01*
X59970453Y-61359176D01*
X59981702Y-61377969D01*
X60009261Y-61448344D01*
X60018447Y-61525872D01*
X60017816Y-61549533D01*
X60006596Y-61626871D01*
X59981351Y-61701847D01*
X59946639Y-61767306D01*
X59922556Y-61801914D01*
X59871496Y-61857446D01*
X59810525Y-61904284D01*
X59739644Y-61942428D01*
X59669943Y-61968875D01*
X59596029Y-61987766D01*
X59517902Y-61999100D01*
X59435561Y-62002878D01*
X59377511Y-62000959D01*
X59302876Y-61992430D01*
X59222688Y-61974678D01*
X59146500Y-61948290D01*
X59122292Y-61937591D01*
X59055928Y-61899930D01*
X58993202Y-61848295D01*
X58942069Y-61786357D01*
X58929105Y-61766005D01*
X58895102Y-61693935D01*
X58875266Y-61615352D01*
X58869528Y-61539061D01*
X58870353Y-61521475D01*
X59057107Y-61521475D01*
X59068363Y-61599647D01*
X59102130Y-61669940D01*
X59152362Y-61727006D01*
X59205988Y-61764673D01*
X59280660Y-61794184D01*
X59359783Y-61808982D01*
X59438859Y-61813101D01*
X59521663Y-61808876D01*
X59603975Y-61793701D01*
X59673143Y-61767489D01*
X59735247Y-61724808D01*
X59741130Y-61719277D01*
X59789688Y-61660158D01*
X59821530Y-61587110D01*
X59830868Y-61513415D01*
X59819959Y-61434035D01*
X59787231Y-61363140D01*
X59738545Y-61306053D01*
X59686063Y-61268707D01*
X59611913Y-61239447D01*
X59532572Y-61224775D01*
X59452780Y-61220690D01*
X59372711Y-61225056D01*
X59291979Y-61240735D01*
X59222742Y-61267817D01*
X59158590Y-61311915D01*
X59105073Y-61371578D01*
X59069099Y-61443323D01*
X59057107Y-61521475D01*
X58870353Y-61521475D01*
X58871357Y-61500052D01*
X58887869Y-61423132D01*
X58921552Y-61356612D01*
X58954725Y-61315582D01*
X59011757Y-61264663D01*
X59076891Y-61221789D01*
X58892976Y-61221789D01*
X58892976Y-61052896D01*
X60417051Y-61052896D01*
X60417051Y-61238276D01*
G37*
G36*
X58658503Y-62221964D02*
G01*
X58470924Y-62221964D01*
X58470924Y-62407344D01*
X58658503Y-62407344D01*
X58658503Y-62221964D01*
G37*
G36*
X59995000Y-62221964D02*
G01*
X58892976Y-62221964D01*
X58892976Y-62407344D01*
X59995000Y-62407344D01*
X59995000Y-62221964D01*
G37*
G36*
X59995000Y-62731210D02*
G01*
X59080554Y-62731210D01*
X59080554Y-62567079D01*
X58892976Y-62567079D01*
X58892976Y-62731210D01*
X58775739Y-62731210D01*
X58700297Y-62733941D01*
X58624872Y-62746077D01*
X58610509Y-62750628D01*
X58544838Y-62787539D01*
X58492906Y-62844783D01*
X58461851Y-62914397D01*
X58449074Y-62990475D01*
X58447477Y-63034193D01*
X58451985Y-63111055D01*
X58463185Y-63183659D01*
X58467993Y-63207117D01*
X58644947Y-63179274D01*
X58636224Y-63106304D01*
X58635055Y-63070097D01*
X58644775Y-62994136D01*
X58669494Y-62950296D01*
X58739931Y-62919604D01*
X58797355Y-62915491D01*
X58892976Y-62915491D01*
X58892976Y-63128715D01*
X59080554Y-63128715D01*
X59080554Y-62915491D01*
X59995000Y-62915491D01*
X59995000Y-62731210D01*
G37*
G36*
X58658503Y-63271231D02*
G01*
X58470924Y-63271231D01*
X58470924Y-63456612D01*
X58658503Y-63456612D01*
X58658503Y-63271231D01*
G37*
G36*
X59995000Y-63271231D02*
G01*
X58892976Y-63271231D01*
X58892976Y-63456612D01*
X59995000Y-63456612D01*
X59995000Y-63271231D01*
G37*
G36*
X59995000Y-63733949D02*
G01*
X58892976Y-63733949D01*
X58892976Y-63901011D01*
X59056008Y-63901011D01*
X58992381Y-63939923D01*
X58932344Y-63987727D01*
X58905799Y-64018981D01*
X58875514Y-64087115D01*
X58869528Y-64138049D01*
X58879082Y-64214737D01*
X58904859Y-64286384D01*
X58927414Y-64328558D01*
X59098872Y-64264811D01*
X59067548Y-64196759D01*
X59057107Y-64128890D01*
X59073043Y-64054275D01*
X59094110Y-64019347D01*
X59151526Y-63969773D01*
X59196692Y-63950471D01*
X59274384Y-63931494D01*
X59350309Y-63921793D01*
X59415778Y-63919330D01*
X59995000Y-63919330D01*
X59995000Y-63733949D01*
G37*
G36*
X59502381Y-64374491D02*
G01*
X59579771Y-64382048D01*
X59664943Y-64400183D01*
X59741716Y-64428210D01*
X59810091Y-64466128D01*
X59870069Y-64513939D01*
X59888037Y-64531912D01*
X59934984Y-64590486D01*
X59971499Y-64656041D01*
X59997581Y-64728577D01*
X60013230Y-64808094D01*
X60018447Y-64894591D01*
X60018111Y-64918183D01*
X60011637Y-64996540D01*
X59996923Y-65068340D01*
X59970018Y-65142368D01*
X59932351Y-65207833D01*
X59891336Y-65257829D01*
X59828762Y-65311239D01*
X59763847Y-65348448D01*
X59690184Y-65375994D01*
X59666737Y-65184019D01*
X59682402Y-65175855D01*
X59744693Y-65130775D01*
X59791667Y-65069713D01*
X59802961Y-65046435D01*
X59824399Y-64973545D01*
X59830868Y-64895690D01*
X59830538Y-64878739D01*
X59818967Y-64799262D01*
X59790867Y-64728587D01*
X59746238Y-64666713D01*
X59717976Y-64640076D01*
X59650556Y-64598717D01*
X59577459Y-64575076D01*
X59502606Y-64564863D01*
X59502606Y-65381123D01*
X59452048Y-65381856D01*
X59384745Y-65379680D01*
X59306075Y-65370843D01*
X59233470Y-65355208D01*
X59154348Y-65327474D01*
X59083959Y-65289950D01*
X59022302Y-65242637D01*
X58970383Y-65187734D01*
X58923387Y-65116518D01*
X58891012Y-65037588D01*
X58874899Y-64963794D01*
X58869652Y-64886165D01*
X59057107Y-64886165D01*
X59057880Y-64912217D01*
X59069472Y-64984808D01*
X59098666Y-65055677D01*
X59145034Y-65116242D01*
X59168313Y-65136227D01*
X59238057Y-65170538D01*
X59315027Y-65186217D01*
X59315027Y-64575122D01*
X59252643Y-64586446D01*
X59181185Y-64620750D01*
X59127449Y-64671475D01*
X59087401Y-64736184D01*
X59063976Y-64810416D01*
X59057107Y-64886165D01*
X58869652Y-64886165D01*
X58869528Y-64884333D01*
X58870127Y-64856316D01*
X58879100Y-64776233D01*
X58898840Y-64702100D01*
X58929349Y-64633917D01*
X58970625Y-64571686D01*
X59022669Y-64515404D01*
X59073557Y-64474453D01*
X59142628Y-64434474D01*
X59220432Y-64404489D01*
X59291939Y-64387137D01*
X59369511Y-64376725D01*
X59453147Y-64373255D01*
X59502381Y-64374491D01*
G37*
G36*
X66796000Y-36854347D02*
G01*
X65914381Y-36521395D01*
X65914381Y-36678199D01*
X66442531Y-36866071D01*
X66502131Y-36886438D01*
X66563255Y-36905628D01*
X66620145Y-36922051D01*
X66563871Y-36939005D01*
X66505335Y-36958456D01*
X66452496Y-36977152D01*
X65914381Y-37171765D01*
X65914381Y-37324466D01*
X66796000Y-36992979D01*
X66796000Y-36854347D01*
G37*
G36*
X66796000Y-37968387D02*
G01*
X66796000Y-37820083D01*
X65845797Y-37820083D01*
X65884307Y-37775158D01*
X65919679Y-37725721D01*
X65948672Y-37679399D01*
X65978239Y-37626740D01*
X66005010Y-37572848D01*
X66025755Y-37523182D01*
X65881554Y-37523182D01*
X65854602Y-37576178D01*
X65820915Y-37633069D01*
X65784151Y-37686041D01*
X65744308Y-37735093D01*
X65739112Y-37740949D01*
X65697530Y-37784143D01*
X65651538Y-37824591D01*
X65601414Y-37859419D01*
X65576739Y-37872840D01*
X65576739Y-37968387D01*
X66796000Y-37968387D01*
G37*
G36*
X66796000Y-38427076D02*
G01*
X66645937Y-38427076D01*
X66645937Y-38596189D01*
X66796000Y-38596189D01*
X66796000Y-38427076D01*
G37*
G36*
X66258444Y-38811490D02*
G01*
X66317498Y-38814643D01*
X66391027Y-38822117D01*
X66458603Y-38833328D01*
X66520226Y-38848275D01*
X66575895Y-38866960D01*
X66637109Y-38895571D01*
X66689021Y-38930020D01*
X66731752Y-38970027D01*
X66770430Y-39023370D01*
X66797076Y-39083893D01*
X66810337Y-39141486D01*
X66814757Y-39204354D01*
X66812243Y-39252535D01*
X66801069Y-39311777D01*
X66777813Y-39371591D01*
X66743243Y-39424173D01*
X66703767Y-39464986D01*
X66656854Y-39500376D01*
X66602504Y-39530345D01*
X66540717Y-39554891D01*
X66515376Y-39562696D01*
X66450637Y-39577921D01*
X66388896Y-39587644D01*
X66321384Y-39594297D01*
X66260716Y-39597496D01*
X66196041Y-39598562D01*
X66162896Y-39598322D01*
X66100516Y-39596406D01*
X66034328Y-39591748D01*
X65967375Y-39583230D01*
X65909691Y-39571304D01*
X65896519Y-39567817D01*
X65840391Y-39550141D01*
X65784062Y-39526693D01*
X65729440Y-39496273D01*
X65694544Y-39470774D01*
X65650374Y-39426481D01*
X65616013Y-39374933D01*
X65595302Y-39326791D01*
X65581380Y-39268412D01*
X65576739Y-39204354D01*
X65576816Y-39202889D01*
X65726802Y-39202889D01*
X65727621Y-39222044D01*
X65742184Y-39281578D01*
X65774951Y-39334472D01*
X65820005Y-39376399D01*
X65878330Y-39406917D01*
X65937654Y-39424083D01*
X65997291Y-39434642D01*
X66066202Y-39441795D01*
X66128008Y-39445064D01*
X66195748Y-39446154D01*
X66263159Y-39445064D01*
X66324709Y-39441795D01*
X66393402Y-39434642D01*
X66452936Y-39424083D01*
X66512287Y-39406917D01*
X66570905Y-39376399D01*
X66587666Y-39363036D01*
X66628058Y-39319548D01*
X66655535Y-39265246D01*
X66664695Y-39204647D01*
X66663875Y-39185754D01*
X66649312Y-39126907D01*
X66616546Y-39074413D01*
X66571491Y-39032602D01*
X66565464Y-39028311D01*
X66512946Y-39002084D01*
X66453554Y-38984918D01*
X66393923Y-38974359D01*
X66325075Y-38967206D01*
X66263361Y-38963937D01*
X66195748Y-38962847D01*
X66178281Y-38962922D01*
X66111882Y-38964721D01*
X66051034Y-38968921D01*
X65982778Y-38977545D01*
X65923196Y-38989918D01*
X65863144Y-39009716D01*
X65808868Y-39039637D01*
X65803819Y-39043487D01*
X65762145Y-39086432D01*
X65734816Y-39142994D01*
X65726802Y-39202889D01*
X65576816Y-39202889D01*
X65579243Y-39156471D01*
X65590371Y-39097532D01*
X65613532Y-39037926D01*
X65647960Y-38985415D01*
X65687198Y-38944693D01*
X65733983Y-38909284D01*
X65788315Y-38879187D01*
X65850193Y-38854403D01*
X65875495Y-38846546D01*
X65940262Y-38831219D01*
X66002161Y-38821430D01*
X66069955Y-38814732D01*
X66130952Y-38811512D01*
X66196041Y-38810439D01*
X66258444Y-38811490D01*
G37*
G36*
X66796000Y-39828053D02*
G01*
X66645937Y-39828053D01*
X66645937Y-39997166D01*
X66796000Y-39997166D01*
X66796000Y-39828053D01*
G37*
G36*
X66258444Y-40212467D02*
G01*
X66317498Y-40215620D01*
X66391027Y-40223094D01*
X66458603Y-40234305D01*
X66520226Y-40249252D01*
X66575895Y-40267937D01*
X66637109Y-40296548D01*
X66689021Y-40330997D01*
X66731752Y-40371004D01*
X66770430Y-40424347D01*
X66797076Y-40484870D01*
X66810337Y-40542463D01*
X66814757Y-40605331D01*
X66812243Y-40653512D01*
X66801069Y-40712754D01*
X66777813Y-40772568D01*
X66743243Y-40825150D01*
X66703767Y-40865963D01*
X66656854Y-40901353D01*
X66602504Y-40931322D01*
X66540717Y-40955868D01*
X66515376Y-40963673D01*
X66450637Y-40978898D01*
X66388896Y-40988621D01*
X66321384Y-40995274D01*
X66260716Y-40998473D01*
X66196041Y-40999539D01*
X66162896Y-40999299D01*
X66100516Y-40997383D01*
X66034328Y-40992725D01*
X65967375Y-40984207D01*
X65909691Y-40972281D01*
X65896519Y-40968794D01*
X65840391Y-40951118D01*
X65784062Y-40927670D01*
X65729440Y-40897250D01*
X65694544Y-40871751D01*
X65650374Y-40827458D01*
X65616013Y-40775910D01*
X65595302Y-40727768D01*
X65581380Y-40669389D01*
X65576739Y-40605331D01*
X65576816Y-40603866D01*
X65726802Y-40603866D01*
X65727621Y-40623021D01*
X65742184Y-40682555D01*
X65774951Y-40735449D01*
X65820005Y-40777376D01*
X65878330Y-40807894D01*
X65937654Y-40825060D01*
X65997291Y-40835619D01*
X66066202Y-40842772D01*
X66128008Y-40846041D01*
X66195748Y-40847131D01*
X66263159Y-40846041D01*
X66324709Y-40842772D01*
X66393402Y-40835619D01*
X66452936Y-40825060D01*
X66512287Y-40807894D01*
X66570905Y-40777376D01*
X66587666Y-40764013D01*
X66628058Y-40720525D01*
X66655535Y-40666223D01*
X66664695Y-40605624D01*
X66663875Y-40586731D01*
X66649312Y-40527884D01*
X66616546Y-40475390D01*
X66571491Y-40433579D01*
X66565464Y-40429288D01*
X66512946Y-40403061D01*
X66453554Y-40385895D01*
X66393923Y-40375336D01*
X66325075Y-40368183D01*
X66263361Y-40364914D01*
X66195748Y-40363824D01*
X66178281Y-40363899D01*
X66111882Y-40365698D01*
X66051034Y-40369898D01*
X65982778Y-40378522D01*
X65923196Y-40390895D01*
X65863144Y-40410693D01*
X65808868Y-40440614D01*
X65803819Y-40444464D01*
X65762145Y-40487409D01*
X65734816Y-40543971D01*
X65726802Y-40603866D01*
X65576816Y-40603866D01*
X65579243Y-40557448D01*
X65590371Y-40498509D01*
X65613532Y-40438903D01*
X65647960Y-40386392D01*
X65687198Y-40345670D01*
X65733983Y-40310261D01*
X65788315Y-40280164D01*
X65850193Y-40255380D01*
X65875495Y-40247523D01*
X65940262Y-40232196D01*
X66002161Y-40222407D01*
X66069955Y-40215709D01*
X66130952Y-40212489D01*
X66196041Y-40211416D01*
X66258444Y-40212467D01*
G37*
G36*
X66439600Y-41129378D02*
G01*
X66289538Y-41129378D01*
X66289538Y-41585136D01*
X66439600Y-41585136D01*
X66439600Y-41129378D01*
G37*
G36*
X66575220Y-41696226D02*
G01*
X66639054Y-41706805D01*
X66695159Y-41732496D01*
X66743536Y-41773300D01*
X66774695Y-41816293D01*
X66799108Y-41874601D01*
X66811349Y-41935266D01*
X66814757Y-41995170D01*
X66812907Y-42038273D01*
X66803194Y-42100248D01*
X66785155Y-42159009D01*
X66781289Y-42168558D01*
X66754089Y-42221940D01*
X66720647Y-42271731D01*
X66683452Y-42317571D01*
X66740296Y-42327287D01*
X66796000Y-42347173D01*
X66796000Y-42502219D01*
X66788432Y-42498774D01*
X66730360Y-42477535D01*
X66669970Y-42464410D01*
X66661222Y-42463274D01*
X66602335Y-42458695D01*
X66537049Y-42456350D01*
X66477481Y-42455361D01*
X66408826Y-42455031D01*
X66222420Y-42455031D01*
X66210984Y-42455002D01*
X66151414Y-42453628D01*
X66091115Y-42447704D01*
X66041354Y-42432348D01*
X65989412Y-42401395D01*
X65986897Y-42399307D01*
X65948268Y-42352688D01*
X65922294Y-42298520D01*
X65920653Y-42294101D01*
X65905025Y-42234640D01*
X65897732Y-42176022D01*
X65895623Y-42116217D01*
X65895741Y-42102218D01*
X65899190Y-42041826D01*
X65908624Y-41979727D01*
X65925811Y-41917501D01*
X65940239Y-41881980D01*
X65970649Y-41830027D01*
X66011687Y-41786489D01*
X66045793Y-41762976D01*
X66099923Y-41737971D01*
X66158233Y-41721423D01*
X66176990Y-41866503D01*
X66167970Y-41869608D01*
X66114635Y-41896985D01*
X66074702Y-41940362D01*
X66059400Y-41976856D01*
X66048519Y-42034778D01*
X66045685Y-42094822D01*
X66048397Y-42147486D01*
X66060978Y-42208595D01*
X66089063Y-42263935D01*
X66139985Y-42297825D01*
X66199852Y-42305847D01*
X66233264Y-42305261D01*
X66383327Y-42305261D01*
X66425825Y-42305261D01*
X66485836Y-42300661D01*
X66541889Y-42281228D01*
X66551320Y-42275036D01*
X66594532Y-42234726D01*
X66628937Y-42183042D01*
X66642870Y-42152909D01*
X66659666Y-42092184D01*
X66664695Y-42030635D01*
X66664409Y-42014786D01*
X66656561Y-41954504D01*
X66632161Y-41899036D01*
X66607890Y-41873506D01*
X66550975Y-41854193D01*
X66549002Y-41854214D01*
X66493236Y-41874710D01*
X66485392Y-41881628D01*
X66453669Y-41933328D01*
X66450339Y-41943687D01*
X66437846Y-42001793D01*
X66429342Y-42062875D01*
X66420629Y-42129671D01*
X66411158Y-42188754D01*
X66399407Y-42246832D01*
X66383327Y-42305261D01*
X66233264Y-42305261D01*
X66236969Y-42294267D01*
X66252847Y-42235640D01*
X66265872Y-42170953D01*
X66276426Y-42104646D01*
X66284848Y-42040600D01*
X66286207Y-42029746D01*
X66295208Y-41967682D01*
X66307416Y-41908709D01*
X66326556Y-41855570D01*
X66356655Y-41801730D01*
X66394464Y-41759012D01*
X66442824Y-41725233D01*
X66446188Y-41723430D01*
X66503038Y-41702364D01*
X66561526Y-41695924D01*
X66575220Y-41696226D01*
G37*
G36*
X66796000Y-42677194D02*
G01*
X65576739Y-42677194D01*
X65576739Y-42825792D01*
X66796000Y-42825792D01*
X66796000Y-42677194D01*
G37*
G36*
X66669384Y-43377390D02*
G01*
X66800396Y-43398785D01*
X66811167Y-43339434D01*
X66814757Y-43286824D01*
X66810646Y-43227097D01*
X66794297Y-43170054D01*
X66789845Y-43161381D01*
X66750457Y-43114528D01*
X66724485Y-43098953D01*
X66666925Y-43085910D01*
X66606726Y-43081651D01*
X66554199Y-43080781D01*
X66064443Y-43080781D01*
X66064443Y-42971751D01*
X65914381Y-42971751D01*
X65914381Y-43080781D01*
X65697493Y-43080781D01*
X65608686Y-43228206D01*
X65914381Y-43228206D01*
X65914381Y-43377390D01*
X66064443Y-43377390D01*
X66064443Y-43228206D01*
X66549803Y-43228206D01*
X66610234Y-43231488D01*
X66627179Y-43235826D01*
X66654729Y-43261325D01*
X66664695Y-43312323D01*
X66668816Y-43372396D01*
X66669384Y-43377390D01*
G37*
G36*
X67152399Y-44030397D02*
G01*
X65576739Y-44030397D01*
X65576739Y-44159651D01*
X67152399Y-44159651D01*
X67152399Y-44030397D01*
G37*
G36*
X66458944Y-44826727D02*
G01*
X66439600Y-44970928D01*
X66499263Y-44976368D01*
X66559467Y-44990227D01*
X66613855Y-45019968D01*
X66616921Y-45022805D01*
X66651211Y-45073947D01*
X66664275Y-45135624D01*
X66664695Y-45150593D01*
X66656919Y-45209799D01*
X66637144Y-45254347D01*
X66594669Y-45298540D01*
X66561819Y-45314724D01*
X66500270Y-45327034D01*
X66441634Y-45330736D01*
X66410584Y-45331137D01*
X65576739Y-45331137D01*
X65576739Y-45491165D01*
X66406188Y-45491165D01*
X66469713Y-45489412D01*
X66534275Y-45483115D01*
X66596661Y-45470557D01*
X66643006Y-45454528D01*
X66695925Y-45424250D01*
X66739424Y-45383789D01*
X66770794Y-45338171D01*
X66795824Y-45280274D01*
X66809562Y-45221931D01*
X66814714Y-45158149D01*
X66814757Y-45151472D01*
X66810480Y-45085421D01*
X66797647Y-45026522D01*
X66772505Y-44967968D01*
X66736189Y-44918756D01*
X66725364Y-44907913D01*
X66675081Y-44871185D01*
X66613916Y-44845411D01*
X66551472Y-44831845D01*
X66491317Y-44826892D01*
X66458944Y-44826727D01*
G37*
G36*
X66796000Y-46302442D02*
G01*
X66644471Y-46302442D01*
X66693528Y-46268688D01*
X66741421Y-46223460D01*
X66777341Y-46173080D01*
X66801287Y-46117549D01*
X66813261Y-46056865D01*
X66814757Y-46024591D01*
X66809823Y-45963368D01*
X66795022Y-45905434D01*
X66784862Y-45879804D01*
X66755786Y-45827696D01*
X66715413Y-45784355D01*
X66709831Y-45780153D01*
X66656166Y-45751046D01*
X66599335Y-45734431D01*
X66538065Y-45727341D01*
X66477285Y-45725425D01*
X66459824Y-45725345D01*
X65914381Y-45725345D01*
X65914381Y-45873942D01*
X66389189Y-45873942D01*
X66452867Y-45874830D01*
X66514083Y-45878636D01*
X66542182Y-45883028D01*
X66596042Y-45906744D01*
X66632161Y-45942233D01*
X66657546Y-45996539D01*
X66664695Y-46054487D01*
X66657353Y-46115267D01*
X66635328Y-46172313D01*
X66631282Y-46179637D01*
X66594677Y-46227056D01*
X66543991Y-46261028D01*
X66540424Y-46262581D01*
X66479973Y-46279211D01*
X66418543Y-46285744D01*
X66373069Y-46286908D01*
X65914381Y-46286908D01*
X65914381Y-46435212D01*
X66796000Y-46435212D01*
X66796000Y-46302442D01*
G37*
G36*
X66796000Y-46663237D02*
G01*
X65914381Y-46663237D01*
X65914381Y-46796594D01*
X66038944Y-46796594D01*
X65990237Y-46835773D01*
X65951608Y-46880991D01*
X65923055Y-46932246D01*
X65904580Y-46989540D01*
X65896183Y-47052872D01*
X65895623Y-47075324D01*
X65900363Y-47137493D01*
X65914584Y-47195404D01*
X65924346Y-47220697D01*
X65952700Y-47272461D01*
X65993623Y-47315820D01*
X65999377Y-47320055D01*
X66053543Y-47349620D01*
X66109579Y-47366364D01*
X66171107Y-47372767D01*
X66235754Y-47374498D01*
X66254660Y-47374570D01*
X66796000Y-47374570D01*
X66796000Y-47226266D01*
X66274883Y-47226266D01*
X66214584Y-47223834D01*
X66153804Y-47213027D01*
X66142113Y-47208974D01*
X66092110Y-47174665D01*
X66072064Y-47147424D01*
X66050039Y-47089741D01*
X66045685Y-47043963D01*
X66052647Y-46981926D01*
X66073530Y-46925985D01*
X66104597Y-46880418D01*
X66151749Y-46844097D01*
X66211855Y-46822909D01*
X66270176Y-46813963D01*
X66328226Y-46811542D01*
X66796000Y-46811542D01*
X66796000Y-46663237D01*
G37*
G36*
X66401904Y-47549070D02*
G01*
X66463817Y-47555115D01*
X66531954Y-47569623D01*
X66593373Y-47592044D01*
X66648073Y-47622379D01*
X66696055Y-47660628D01*
X66710429Y-47675006D01*
X66747987Y-47721865D01*
X66777199Y-47774309D01*
X66798065Y-47832338D01*
X66810584Y-47895951D01*
X66814757Y-47965150D01*
X66814488Y-47984023D01*
X66809309Y-48046708D01*
X66797538Y-48104148D01*
X66776014Y-48163371D01*
X66745881Y-48215743D01*
X66713069Y-48255740D01*
X66663009Y-48298468D01*
X66611077Y-48328235D01*
X66552147Y-48350272D01*
X66533390Y-48196692D01*
X66545922Y-48190161D01*
X66595754Y-48154097D01*
X66633334Y-48105247D01*
X66642368Y-48086624D01*
X66659519Y-48028313D01*
X66664695Y-47966029D01*
X66664430Y-47952468D01*
X66655174Y-47888886D01*
X66632694Y-47832346D01*
X66596990Y-47782847D01*
X66574380Y-47761537D01*
X66520445Y-47728450D01*
X66461967Y-47709537D01*
X66402085Y-47701367D01*
X66402085Y-48354375D01*
X66361638Y-48354961D01*
X66307796Y-48353221D01*
X66244860Y-48346151D01*
X66186776Y-48333643D01*
X66123478Y-48311455D01*
X66067167Y-48281436D01*
X66017842Y-48243586D01*
X65976306Y-48199664D01*
X65938710Y-48142691D01*
X65912810Y-48079547D01*
X65899919Y-48020512D01*
X65895722Y-47958408D01*
X66045685Y-47958408D01*
X66046304Y-47979250D01*
X66055577Y-48037323D01*
X66078933Y-48094018D01*
X66116027Y-48142470D01*
X66134650Y-48158458D01*
X66190445Y-48185907D01*
X66252022Y-48198450D01*
X66252022Y-47709574D01*
X66202114Y-47718634D01*
X66144948Y-47746077D01*
X66101959Y-47786657D01*
X66069920Y-47838424D01*
X66051181Y-47897809D01*
X66045685Y-47958408D01*
X65895722Y-47958408D01*
X65895623Y-47956943D01*
X65896101Y-47934529D01*
X65903280Y-47870463D01*
X65919072Y-47811156D01*
X65943479Y-47756610D01*
X65976500Y-47706825D01*
X66018135Y-47661800D01*
X66058846Y-47629039D01*
X66114103Y-47597055D01*
X66176346Y-47573068D01*
X66233551Y-47559186D01*
X66295609Y-47550857D01*
X66362517Y-47548080D01*
X66401904Y-47549070D01*
G37*
G36*
X66645937Y-49737180D02*
G01*
X66796000Y-49737180D01*
X66796000Y-48938213D01*
X66735968Y-48942963D01*
X66691073Y-48955505D01*
X66634325Y-48980791D01*
X66583217Y-49011290D01*
X66532568Y-49048946D01*
X66527528Y-49053105D01*
X66480521Y-49095730D01*
X66435934Y-49141521D01*
X66394757Y-49187689D01*
X66351561Y-49239551D01*
X66345225Y-49247424D01*
X66306725Y-49294667D01*
X66261600Y-49348105D01*
X66219810Y-49395303D01*
X66174064Y-49443704D01*
X66126762Y-49488816D01*
X66096976Y-49513551D01*
X66047010Y-49547130D01*
X65993395Y-49571550D01*
X65931701Y-49582946D01*
X65926690Y-49583014D01*
X65867312Y-49574153D01*
X65811357Y-49544553D01*
X65784834Y-49520000D01*
X65749471Y-49467298D01*
X65731392Y-49409430D01*
X65726802Y-49355282D01*
X65732154Y-49292571D01*
X65750406Y-49233175D01*
X65781610Y-49183824D01*
X65828610Y-49144586D01*
X65887398Y-49123154D01*
X65933138Y-49118757D01*
X65914381Y-48966350D01*
X65855363Y-48975225D01*
X65793463Y-48993289D01*
X65739052Y-49019656D01*
X65686039Y-49059956D01*
X65663201Y-49084173D01*
X65629511Y-49132276D01*
X65604096Y-49187083D01*
X65586956Y-49248594D01*
X65578850Y-49306654D01*
X65576739Y-49358799D01*
X65580181Y-49421430D01*
X65592895Y-49488067D01*
X65614978Y-49547774D01*
X65646430Y-49600554D01*
X65674632Y-49634012D01*
X65719575Y-49673526D01*
X65776435Y-49706801D01*
X65839157Y-49727400D01*
X65898847Y-49735026D01*
X65916725Y-49735422D01*
X65976111Y-49730536D01*
X66034722Y-49715880D01*
X66061512Y-49705819D01*
X66115780Y-49678095D01*
X66167408Y-49642977D01*
X66210989Y-49607341D01*
X66259322Y-49561411D01*
X66302653Y-49515750D01*
X66343790Y-49469691D01*
X66388616Y-49417243D01*
X66420549Y-49378729D01*
X66458863Y-49331970D01*
X66497337Y-49285908D01*
X66536954Y-49240122D01*
X66567974Y-49206978D01*
X66614123Y-49166730D01*
X66645937Y-49144549D01*
X66645937Y-49737180D01*
G37*
G36*
X66258444Y-49892690D02*
G01*
X66317498Y-49895843D01*
X66391027Y-49903317D01*
X66458603Y-49914528D01*
X66520226Y-49929476D01*
X66575895Y-49948160D01*
X66637109Y-49976771D01*
X66689021Y-50011221D01*
X66731752Y-50051228D01*
X66770430Y-50104570D01*
X66797076Y-50165094D01*
X66810337Y-50222686D01*
X66814757Y-50285554D01*
X66812243Y-50333736D01*
X66801069Y-50392977D01*
X66777813Y-50452792D01*
X66743243Y-50505373D01*
X66703767Y-50546186D01*
X66656854Y-50581577D01*
X66602504Y-50611545D01*
X66540717Y-50636092D01*
X66515376Y-50643896D01*
X66450637Y-50659121D01*
X66388896Y-50668845D01*
X66321384Y-50675498D01*
X66260716Y-50678696D01*
X66196041Y-50679762D01*
X66162896Y-50679523D01*
X66100516Y-50677606D01*
X66034328Y-50672948D01*
X65967375Y-50664430D01*
X65909691Y-50652505D01*
X65896519Y-50649017D01*
X65840391Y-50631341D01*
X65784062Y-50607894D01*
X65729440Y-50577473D01*
X65694544Y-50551974D01*
X65650374Y-50507681D01*
X65616013Y-50456133D01*
X65595302Y-50407991D01*
X65581380Y-50349613D01*
X65576739Y-50285554D01*
X65576816Y-50284089D01*
X65726802Y-50284089D01*
X65727621Y-50303244D01*
X65742184Y-50362778D01*
X65774951Y-50415672D01*
X65820005Y-50457599D01*
X65878330Y-50488117D01*
X65937654Y-50505284D01*
X65997291Y-50515842D01*
X66066202Y-50522995D01*
X66128008Y-50526265D01*
X66195748Y-50527355D01*
X66263159Y-50526265D01*
X66324709Y-50522995D01*
X66393402Y-50515842D01*
X66452936Y-50505284D01*
X66512287Y-50488117D01*
X66570905Y-50457599D01*
X66587666Y-50444236D01*
X66628058Y-50400748D01*
X66655535Y-50346446D01*
X66664695Y-50285847D01*
X66663875Y-50266954D01*
X66649312Y-50208107D01*
X66616546Y-50155614D01*
X66571491Y-50113803D01*
X66565464Y-50109511D01*
X66512946Y-50083285D01*
X66453554Y-50066118D01*
X66393923Y-50055559D01*
X66325075Y-50048407D01*
X66263361Y-50045137D01*
X66195748Y-50044047D01*
X66178281Y-50044122D01*
X66111882Y-50045922D01*
X66051034Y-50050121D01*
X65982778Y-50058745D01*
X65923196Y-50071118D01*
X65863144Y-50090916D01*
X65808868Y-50120837D01*
X65803819Y-50124687D01*
X65762145Y-50167632D01*
X65734816Y-50224194D01*
X65726802Y-50284089D01*
X65576816Y-50284089D01*
X65579243Y-50237672D01*
X65590371Y-50178733D01*
X65613532Y-50119127D01*
X65647960Y-50066615D01*
X65687198Y-50025894D01*
X65733983Y-49990484D01*
X65788315Y-49960388D01*
X65850193Y-49935603D01*
X65875495Y-49927746D01*
X65940262Y-49912419D01*
X66002161Y-49902630D01*
X66069955Y-49895933D01*
X66130952Y-49892713D01*
X66196041Y-49891639D01*
X66258444Y-49892690D01*
G37*
G36*
X66645937Y-51605931D02*
G01*
X66796000Y-51605931D01*
X66796000Y-50806964D01*
X66735968Y-50811714D01*
X66691073Y-50824256D01*
X66634325Y-50849541D01*
X66583217Y-50880041D01*
X66532568Y-50917697D01*
X66527528Y-50921856D01*
X66480521Y-50964481D01*
X66435934Y-51010272D01*
X66394757Y-51056440D01*
X66351561Y-51108302D01*
X66345225Y-51116175D01*
X66306725Y-51163418D01*
X66261600Y-51216856D01*
X66219810Y-51264054D01*
X66174064Y-51312455D01*
X66126762Y-51357567D01*
X66096976Y-51382302D01*
X66047010Y-51415881D01*
X65993395Y-51440301D01*
X65931701Y-51451697D01*
X65926690Y-51451765D01*
X65867312Y-51442904D01*
X65811357Y-51413304D01*
X65784834Y-51388750D01*
X65749471Y-51336049D01*
X65731392Y-51278180D01*
X65726802Y-51224033D01*
X65732154Y-51161322D01*
X65750406Y-51101926D01*
X65781610Y-51052575D01*
X65828610Y-51013337D01*
X65887398Y-50991905D01*
X65933138Y-50987508D01*
X65914381Y-50835101D01*
X65855363Y-50843976D01*
X65793463Y-50862040D01*
X65739052Y-50888407D01*
X65686039Y-50928707D01*
X65663201Y-50952923D01*
X65629511Y-51001027D01*
X65604096Y-51055834D01*
X65586956Y-51117345D01*
X65578850Y-51175405D01*
X65576739Y-51227550D01*
X65580181Y-51290181D01*
X65592895Y-51356817D01*
X65614978Y-51416525D01*
X65646430Y-51469305D01*
X65674632Y-51502763D01*
X65719575Y-51542277D01*
X65776435Y-51575552D01*
X65839157Y-51596151D01*
X65898847Y-51603776D01*
X65916725Y-51604173D01*
X65976111Y-51599287D01*
X66034722Y-51584630D01*
X66061512Y-51574570D01*
X66115780Y-51546846D01*
X66167408Y-51511728D01*
X66210989Y-51476092D01*
X66259322Y-51430162D01*
X66302653Y-51384501D01*
X66343790Y-51338442D01*
X66388616Y-51285994D01*
X66420549Y-51247480D01*
X66458863Y-51200721D01*
X66497337Y-51154659D01*
X66536954Y-51108873D01*
X66567974Y-51075729D01*
X66614123Y-51035480D01*
X66645937Y-51013300D01*
X66645937Y-51605931D01*
G37*
G36*
X66514632Y-52236078D02*
G01*
X66796000Y-52236078D01*
X66796000Y-52384382D01*
X66514632Y-52384382D01*
X66514632Y-52547634D01*
X66364569Y-52547634D01*
X66364569Y-52384382D01*
X65595497Y-52384382D01*
X65595497Y-52263335D01*
X65633500Y-52236078D01*
X65837004Y-52236078D01*
X66364569Y-52236078D01*
X66364569Y-51857697D01*
X65837004Y-52236078D01*
X65633500Y-52236078D01*
X66364569Y-51711737D01*
X66514632Y-51711737D01*
X66514632Y-52236078D01*
G37*
G36*
X67152399Y-53246364D02*
G01*
X65576739Y-53246364D01*
X65576739Y-53375617D01*
X67152399Y-53375617D01*
X67152399Y-53246364D01*
G37*
G36*
X66796000Y-54578464D02*
G01*
X66795919Y-54592758D01*
X66793575Y-54653596D01*
X66787164Y-54714504D01*
X66775483Y-54773370D01*
X66768508Y-54797540D01*
X66745952Y-54854287D01*
X66714520Y-54905554D01*
X66698157Y-54924740D01*
X66650681Y-54964859D01*
X66599628Y-54994068D01*
X66561508Y-55009840D01*
X66501511Y-55025049D01*
X66438135Y-55030118D01*
X66424800Y-55029888D01*
X66361459Y-55021834D01*
X66303671Y-55002273D01*
X66251436Y-54971207D01*
X66237005Y-54959715D01*
X66194781Y-54914973D01*
X66161603Y-54860327D01*
X66139475Y-54802679D01*
X66116888Y-54842485D01*
X66076895Y-54892095D01*
X66029565Y-54929588D01*
X66003747Y-54943931D01*
X65945616Y-54964827D01*
X65884485Y-54971793D01*
X65838385Y-54968037D01*
X65778649Y-54951345D01*
X65725630Y-54924312D01*
X65682049Y-54891242D01*
X65643037Y-54846600D01*
X65613376Y-54793300D01*
X65599100Y-54754119D01*
X65585898Y-54695994D01*
X65579029Y-54637009D01*
X65576739Y-54571137D01*
X65576739Y-54519260D01*
X65726802Y-54519260D01*
X65727846Y-54579527D01*
X65732088Y-54641362D01*
X65743508Y-54702735D01*
X65761488Y-54742202D01*
X65804471Y-54785094D01*
X65849392Y-54805921D01*
X65907933Y-54814110D01*
X65954745Y-54809031D01*
X66010808Y-54783335D01*
X66044124Y-54747851D01*
X66069426Y-54691598D01*
X66076085Y-54660820D01*
X66081856Y-54599663D01*
X66082803Y-54557069D01*
X66233264Y-54557069D01*
X66234528Y-54611419D01*
X66240393Y-54675083D01*
X66253487Y-54733803D01*
X66280818Y-54788611D01*
X66322950Y-54829937D01*
X66326063Y-54832064D01*
X66380541Y-54856922D01*
X66439600Y-54864521D01*
X66484002Y-54860555D01*
X66540717Y-54840488D01*
X66566007Y-54824334D01*
X66607542Y-54779525D01*
X66623940Y-54746472D01*
X66640075Y-54687201D01*
X66644815Y-54637505D01*
X66645937Y-54578464D01*
X66645937Y-54277752D01*
X66233264Y-54277752D01*
X66233264Y-54557069D01*
X66082803Y-54557069D01*
X66083201Y-54539190D01*
X66083201Y-54277752D01*
X65726802Y-54277752D01*
X65726802Y-54519260D01*
X65576739Y-54519260D01*
X65576739Y-54117725D01*
X66796000Y-54117725D01*
X66796000Y-54578464D01*
G37*
G36*
X66401904Y-55176481D02*
G01*
X66463817Y-55182526D01*
X66531954Y-55197034D01*
X66593373Y-55219455D01*
X66648073Y-55249790D01*
X66696055Y-55288039D01*
X66710429Y-55302417D01*
X66747987Y-55349276D01*
X66777199Y-55401720D01*
X66798065Y-55459749D01*
X66810584Y-55523362D01*
X66814757Y-55592561D01*
X66814488Y-55611434D01*
X66809309Y-55674119D01*
X66797538Y-55731559D01*
X66776014Y-55790782D01*
X66745881Y-55843154D01*
X66713069Y-55883151D01*
X66663009Y-55925879D01*
X66611077Y-55955646D01*
X66552147Y-55977683D01*
X66533390Y-55824103D01*
X66545922Y-55817572D01*
X66595754Y-55781508D01*
X66633334Y-55732658D01*
X66642368Y-55714035D01*
X66659519Y-55655724D01*
X66664695Y-55593440D01*
X66664430Y-55579879D01*
X66655174Y-55516297D01*
X66632694Y-55459757D01*
X66596990Y-55410258D01*
X66574380Y-55388948D01*
X66520445Y-55355861D01*
X66461967Y-55336948D01*
X66402085Y-55328778D01*
X66402085Y-55981786D01*
X66361638Y-55982372D01*
X66307796Y-55980632D01*
X66244860Y-55973562D01*
X66186776Y-55961054D01*
X66123478Y-55938866D01*
X66067167Y-55908847D01*
X66017842Y-55870997D01*
X65976306Y-55827075D01*
X65938710Y-55770102D01*
X65912810Y-55706958D01*
X65899919Y-55647923D01*
X65895722Y-55585819D01*
X66045685Y-55585819D01*
X66046304Y-55606661D01*
X66055577Y-55664734D01*
X66078933Y-55721429D01*
X66116027Y-55769881D01*
X66134650Y-55785869D01*
X66190445Y-55813318D01*
X66252022Y-55825861D01*
X66252022Y-55336985D01*
X66202114Y-55346045D01*
X66144948Y-55373488D01*
X66101959Y-55414068D01*
X66069920Y-55465835D01*
X66051181Y-55525221D01*
X66045685Y-55585819D01*
X65895722Y-55585819D01*
X65895623Y-55584354D01*
X65896101Y-55561941D01*
X65903280Y-55497874D01*
X65919072Y-55438567D01*
X65943479Y-55384021D01*
X65976500Y-55334236D01*
X66018135Y-55289211D01*
X66058846Y-55256450D01*
X66114103Y-55224466D01*
X66176346Y-55200479D01*
X66233551Y-55186597D01*
X66295609Y-55178268D01*
X66362517Y-55175491D01*
X66401904Y-55176481D01*
G37*
G36*
X66796000Y-56159399D02*
G01*
X65914381Y-56159399D01*
X65914381Y-56292756D01*
X66038944Y-56292756D01*
X65990237Y-56331935D01*
X65951608Y-56377153D01*
X65923055Y-56428408D01*
X65904580Y-56485702D01*
X65896183Y-56549033D01*
X65895623Y-56571486D01*
X65900363Y-56633654D01*
X65914584Y-56691566D01*
X65924346Y-56716859D01*
X65952700Y-56768623D01*
X65993623Y-56811982D01*
X65999377Y-56816217D01*
X66053543Y-56845782D01*
X66109579Y-56862526D01*
X66171107Y-56868929D01*
X66235754Y-56870660D01*
X66254660Y-56870732D01*
X66796000Y-56870732D01*
X66796000Y-56722428D01*
X66274883Y-56722428D01*
X66214584Y-56719996D01*
X66153804Y-56709188D01*
X66142113Y-56705136D01*
X66092110Y-56670827D01*
X66072064Y-56643586D01*
X66050039Y-56585903D01*
X66045685Y-56540125D01*
X66052647Y-56478088D01*
X66073530Y-56422147D01*
X66104597Y-56376580D01*
X66151749Y-56340259D01*
X66211855Y-56319071D01*
X66270176Y-56310125D01*
X66328226Y-56307704D01*
X66796000Y-56307704D01*
X66796000Y-56159399D01*
G37*
G36*
X66796000Y-57739162D02*
G01*
X66308295Y-57739162D01*
X66308295Y-58049253D01*
X66307340Y-58095945D01*
X66301499Y-58167570D01*
X66290350Y-58231453D01*
X66269961Y-58297894D01*
X66241928Y-58353185D01*
X66199558Y-58403600D01*
X66171545Y-58426613D01*
X66118886Y-58459501D01*
X66061598Y-58482993D01*
X65999682Y-58497088D01*
X65933138Y-58501786D01*
X65882883Y-58498888D01*
X65824672Y-58487475D01*
X65765197Y-58465150D01*
X65737706Y-58450576D01*
X65686343Y-58413274D01*
X65646202Y-58368136D01*
X65624453Y-58332044D01*
X65602162Y-58276780D01*
X65588463Y-58218953D01*
X65580872Y-58157941D01*
X65577667Y-58098304D01*
X65576933Y-58048374D01*
X65726802Y-58048374D01*
X65726971Y-58074491D01*
X65729185Y-58135309D01*
X65737646Y-58197557D01*
X65738763Y-58201435D01*
X65766359Y-58257104D01*
X65808868Y-58298381D01*
X65819170Y-58305242D01*
X65876400Y-58329426D01*
X65938414Y-58336775D01*
X65993561Y-58331629D01*
X66050888Y-58311359D01*
X66100787Y-58271709D01*
X66125919Y-58233552D01*
X66145610Y-58177182D01*
X66155484Y-58115124D01*
X66158233Y-58051598D01*
X66158233Y-57739162D01*
X65726802Y-57739162D01*
X65726802Y-58048374D01*
X65576933Y-58048374D01*
X65576739Y-58035184D01*
X65576739Y-57579134D01*
X66796000Y-57579134D01*
X66796000Y-57739162D01*
G37*
G36*
X66575220Y-58629876D02*
G01*
X66639054Y-58640455D01*
X66695159Y-58666146D01*
X66743536Y-58706950D01*
X66774695Y-58749943D01*
X66799108Y-58808251D01*
X66811349Y-58868916D01*
X66814757Y-58928820D01*
X66812907Y-58971923D01*
X66803194Y-59033898D01*
X66785155Y-59092658D01*
X66781289Y-59102208D01*
X66754089Y-59155590D01*
X66720647Y-59205381D01*
X66683452Y-59251221D01*
X66740296Y-59260937D01*
X66796000Y-59280823D01*
X66796000Y-59435868D01*
X66788432Y-59432423D01*
X66730360Y-59411184D01*
X66669970Y-59398060D01*
X66661222Y-59396924D01*
X66602335Y-59392344D01*
X66537049Y-59390000D01*
X66477481Y-59389010D01*
X66408826Y-59388681D01*
X66222420Y-59388681D01*
X66210984Y-59388652D01*
X66151414Y-59387278D01*
X66091115Y-59381353D01*
X66041354Y-59365998D01*
X65989412Y-59335045D01*
X65986897Y-59332957D01*
X65948268Y-59286338D01*
X65922294Y-59232170D01*
X65920653Y-59227751D01*
X65905025Y-59168290D01*
X65897732Y-59109671D01*
X65895623Y-59049867D01*
X65895741Y-59035867D01*
X65899190Y-58975476D01*
X65908624Y-58913377D01*
X65925811Y-58851151D01*
X65940239Y-58815630D01*
X65970649Y-58763677D01*
X66011687Y-58720139D01*
X66045793Y-58696625D01*
X66099923Y-58671621D01*
X66158233Y-58655073D01*
X66176990Y-58800153D01*
X66167970Y-58803258D01*
X66114635Y-58830635D01*
X66074702Y-58874012D01*
X66059400Y-58910505D01*
X66048519Y-58968428D01*
X66045685Y-59028471D01*
X66048397Y-59081136D01*
X66060978Y-59142244D01*
X66089063Y-59197585D01*
X66139985Y-59231475D01*
X66199852Y-59239497D01*
X66233264Y-59238911D01*
X66383327Y-59238911D01*
X66425825Y-59238911D01*
X66485836Y-59234311D01*
X66541889Y-59214877D01*
X66551320Y-59208686D01*
X66594532Y-59168375D01*
X66628937Y-59116692D01*
X66642870Y-59086558D01*
X66659666Y-59025833D01*
X66664695Y-58964284D01*
X66664409Y-58948436D01*
X66656561Y-58888154D01*
X66632161Y-58832686D01*
X66607890Y-58807155D01*
X66550975Y-58787843D01*
X66549002Y-58787863D01*
X66493236Y-58808360D01*
X66485392Y-58815278D01*
X66453669Y-58866978D01*
X66450339Y-58877337D01*
X66437846Y-58935442D01*
X66429342Y-58996524D01*
X66420629Y-59063321D01*
X66411158Y-59122404D01*
X66399407Y-59180481D01*
X66383327Y-59238911D01*
X66233264Y-59238911D01*
X66236969Y-59227917D01*
X66252847Y-59169289D01*
X66265872Y-59104603D01*
X66276426Y-59038296D01*
X66284848Y-58974249D01*
X66286207Y-58963396D01*
X66295208Y-58901331D01*
X66307416Y-58842358D01*
X66326556Y-58789220D01*
X66356655Y-58735380D01*
X66394464Y-58692662D01*
X66442824Y-58658883D01*
X66446188Y-58657080D01*
X66503038Y-58636014D01*
X66561526Y-58629574D01*
X66575220Y-58629876D01*
G37*
G36*
X66796000Y-59612602D02*
G01*
X65914381Y-59612602D01*
X65914381Y-59746252D01*
X66044806Y-59746252D01*
X65993904Y-59777382D01*
X65945875Y-59815625D01*
X65924639Y-59840628D01*
X65900411Y-59895135D01*
X65895623Y-59935882D01*
X65903265Y-59997232D01*
X65923887Y-60054550D01*
X65941931Y-60088290D01*
X66079098Y-60037292D01*
X66054039Y-59982850D01*
X66045685Y-59928555D01*
X66058434Y-59868863D01*
X66075288Y-59840921D01*
X66121221Y-59801262D01*
X66157353Y-59785819D01*
X66219507Y-59770638D01*
X66280247Y-59762877D01*
X66332622Y-59760907D01*
X66796000Y-59760907D01*
X66796000Y-59612602D01*
G37*
G36*
X66796000Y-60173579D02*
G01*
X65914381Y-60173579D01*
X65914381Y-60306350D01*
X66059461Y-60306350D01*
X66008147Y-60341136D01*
X65964994Y-60383506D01*
X65940759Y-60415966D01*
X65913254Y-60469863D01*
X65898444Y-60529118D01*
X65895623Y-60571598D01*
X65901060Y-60634340D01*
X65919394Y-60693306D01*
X65941638Y-60731039D01*
X65984882Y-60775668D01*
X66035619Y-60806044D01*
X66070012Y-60818967D01*
X66019773Y-60852928D01*
X65970726Y-60897744D01*
X65933941Y-60946990D01*
X65909417Y-61000667D01*
X65897155Y-61058775D01*
X65895623Y-61089490D01*
X65900166Y-61150801D01*
X65916137Y-61210799D01*
X65947369Y-61266314D01*
X65968309Y-61289672D01*
X66021226Y-61326611D01*
X66081968Y-61348160D01*
X66146393Y-61358010D01*
X66191645Y-61359720D01*
X66796000Y-61359720D01*
X66796000Y-61212002D01*
X66256125Y-61212002D01*
X66193477Y-61209632D01*
X66133404Y-61198524D01*
X66130975Y-61197641D01*
X66081791Y-61162745D01*
X66069133Y-61145177D01*
X66048456Y-61089873D01*
X66045685Y-61056371D01*
X66052785Y-60996604D01*
X66076725Y-60939856D01*
X66105769Y-60903084D01*
X66155631Y-60868376D01*
X66215806Y-60849325D01*
X66274127Y-60842657D01*
X66298330Y-60842121D01*
X66796000Y-60842121D01*
X66796000Y-60693524D01*
X66239419Y-60693524D01*
X66178471Y-60689229D01*
X66121266Y-60673080D01*
X66094046Y-60657180D01*
X66057775Y-60609480D01*
X66045874Y-60548628D01*
X66045685Y-60538478D01*
X66053745Y-60478321D01*
X66077926Y-60422707D01*
X66117639Y-60376912D01*
X66168447Y-60347154D01*
X66172301Y-60345624D01*
X66231831Y-60330253D01*
X66296334Y-60323367D01*
X66351380Y-60321884D01*
X66796000Y-60321884D01*
X66796000Y-60173579D01*
G37*
G36*
X66401904Y-61523668D02*
G01*
X66463817Y-61529713D01*
X66531954Y-61544221D01*
X66593373Y-61566643D01*
X66648073Y-61596978D01*
X66696055Y-61635226D01*
X66710429Y-61649605D01*
X66747987Y-61696464D01*
X66777199Y-61748908D01*
X66798065Y-61806937D01*
X66810584Y-61870550D01*
X66814757Y-61939748D01*
X66814488Y-61958622D01*
X66809309Y-62021307D01*
X66797538Y-62078747D01*
X66776014Y-62137970D01*
X66745881Y-62190341D01*
X66713069Y-62230338D01*
X66663009Y-62273066D01*
X66611077Y-62302834D01*
X66552147Y-62324870D01*
X66533390Y-62171290D01*
X66545922Y-62164759D01*
X66595754Y-62128695D01*
X66633334Y-62079846D01*
X66642368Y-62061223D01*
X66659519Y-62002911D01*
X66664695Y-61940628D01*
X66664430Y-61927066D01*
X66655174Y-61863485D01*
X66632694Y-61806945D01*
X66596990Y-61757445D01*
X66574380Y-61736136D01*
X66520445Y-61703049D01*
X66461967Y-61684136D01*
X66402085Y-61675966D01*
X66402085Y-62328974D01*
X66361638Y-62329560D01*
X66307796Y-62327820D01*
X66244860Y-62320750D01*
X66186776Y-62308242D01*
X66123478Y-62286054D01*
X66067167Y-62256035D01*
X66017842Y-62218185D01*
X65976306Y-62174263D01*
X65938710Y-62117290D01*
X65912810Y-62054146D01*
X65899919Y-61995110D01*
X65895722Y-61933007D01*
X66045685Y-61933007D01*
X66046304Y-61953849D01*
X66055577Y-62011922D01*
X66078933Y-62068617D01*
X66116027Y-62117069D01*
X66134650Y-62133057D01*
X66190445Y-62160506D01*
X66252022Y-62173049D01*
X66252022Y-61684173D01*
X66202114Y-61693232D01*
X66144948Y-61720675D01*
X66101959Y-61761256D01*
X66069920Y-61813022D01*
X66051181Y-61872408D01*
X66045685Y-61933007D01*
X65895722Y-61933007D01*
X65895623Y-61931542D01*
X65896101Y-61909128D01*
X65903280Y-61845061D01*
X65919072Y-61785755D01*
X65943479Y-61731209D01*
X65976500Y-61681424D01*
X66018135Y-61636399D01*
X66058846Y-61603638D01*
X66114103Y-61571654D01*
X66176346Y-61547666D01*
X66233551Y-61533785D01*
X66295609Y-61525456D01*
X66362517Y-61522679D01*
X66401904Y-61523668D01*
G37*
G36*
X66669384Y-62830453D02*
G01*
X66800396Y-62851849D01*
X66811167Y-62792498D01*
X66814757Y-62739888D01*
X66810646Y-62680160D01*
X66794297Y-62623117D01*
X66789845Y-62614445D01*
X66750457Y-62567592D01*
X66724485Y-62552016D01*
X66666925Y-62538973D01*
X66606726Y-62534714D01*
X66554199Y-62533845D01*
X66064443Y-62533845D01*
X66064443Y-62424815D01*
X65914381Y-62424815D01*
X65914381Y-62533845D01*
X65697493Y-62533845D01*
X65608686Y-62681270D01*
X65914381Y-62681270D01*
X65914381Y-62830453D01*
X66064443Y-62830453D01*
X66064443Y-62681270D01*
X66549803Y-62681270D01*
X66610234Y-62684551D01*
X66627179Y-62688890D01*
X66654729Y-62714389D01*
X66664695Y-62765387D01*
X66668816Y-62825459D01*
X66669384Y-62830453D01*
G37*
G36*
X66401904Y-62924645D02*
G01*
X66463817Y-62930690D01*
X66531954Y-62945198D01*
X66593373Y-62967620D01*
X66648073Y-62997955D01*
X66696055Y-63036203D01*
X66710429Y-63050582D01*
X66747987Y-63097441D01*
X66777199Y-63149885D01*
X66798065Y-63207914D01*
X66810584Y-63271527D01*
X66814757Y-63340725D01*
X66814488Y-63359599D01*
X66809309Y-63422284D01*
X66797538Y-63479724D01*
X66776014Y-63538947D01*
X66745881Y-63591318D01*
X66713069Y-63631315D01*
X66663009Y-63674043D01*
X66611077Y-63703811D01*
X66552147Y-63725847D01*
X66533390Y-63572267D01*
X66545922Y-63565736D01*
X66595754Y-63529672D01*
X66633334Y-63480823D01*
X66642368Y-63462200D01*
X66659519Y-63403888D01*
X66664695Y-63341605D01*
X66664430Y-63328043D01*
X66655174Y-63264462D01*
X66632694Y-63207922D01*
X66596990Y-63158422D01*
X66574380Y-63137113D01*
X66520445Y-63104026D01*
X66461967Y-63085113D01*
X66402085Y-63076943D01*
X66402085Y-63729951D01*
X66361638Y-63730537D01*
X66307796Y-63728797D01*
X66244860Y-63721727D01*
X66186776Y-63709219D01*
X66123478Y-63687031D01*
X66067167Y-63657012D01*
X66017842Y-63619162D01*
X65976306Y-63575240D01*
X65938710Y-63518267D01*
X65912810Y-63455122D01*
X65899919Y-63396087D01*
X65895722Y-63333984D01*
X66045685Y-63333984D01*
X66046304Y-63354826D01*
X66055577Y-63412899D01*
X66078933Y-63469594D01*
X66116027Y-63518046D01*
X66134650Y-63534034D01*
X66190445Y-63561483D01*
X66252022Y-63574026D01*
X66252022Y-63085150D01*
X66202114Y-63094209D01*
X66144948Y-63121652D01*
X66101959Y-63162233D01*
X66069920Y-63213999D01*
X66051181Y-63273385D01*
X66045685Y-63333984D01*
X65895722Y-63333984D01*
X65895623Y-63332519D01*
X65896101Y-63310105D01*
X65903280Y-63246038D01*
X65919072Y-63186732D01*
X65943479Y-63132186D01*
X65976500Y-63082401D01*
X66018135Y-63037376D01*
X66058846Y-63004615D01*
X66114103Y-62972631D01*
X66176346Y-62948643D01*
X66233551Y-62934762D01*
X66295609Y-62926433D01*
X66362517Y-62923656D01*
X66401904Y-62924645D01*
G37*
G36*
X66796000Y-63905806D02*
G01*
X65914381Y-63905806D01*
X65914381Y-64039455D01*
X66044806Y-64039455D01*
X65993904Y-64070585D01*
X65945875Y-64108828D01*
X65924639Y-64133831D01*
X65900411Y-64188338D01*
X65895623Y-64229085D01*
X65903265Y-64290435D01*
X65923887Y-64347753D01*
X65941931Y-64381493D01*
X66079098Y-64330495D01*
X66054039Y-64276053D01*
X66045685Y-64221758D01*
X66058434Y-64162066D01*
X66075288Y-64134124D01*
X66121221Y-64094465D01*
X66157353Y-64079023D01*
X66219507Y-64063841D01*
X66280247Y-64056080D01*
X66332622Y-64054110D01*
X66796000Y-64054110D01*
X66796000Y-63905806D01*
G37*
%LPC*%
D11*
X68660000Y-68250000D03*
D12*
X61040000Y-68250000D03*
X50880000Y-68250000D03*
X48340000Y-68250000D03*
D13*
X53940000Y-40000000D03*
D14*
X61560000Y-40000000D03*
D15*
X86000000Y-29000000D03*
D16*
X42332500Y-67852500D03*
D17*
X42332500Y-66582500D03*
X42332500Y-65312500D03*
D11*
X68660000Y-47750000D03*
D12*
X61040000Y-47750000D03*
X50880000Y-47750000D03*
X48340000Y-47750000D03*
D18*
X86000000Y-37420000D03*
D19*
X86000000Y-39960000D03*
X86000000Y-42500000D03*
D20*
X72960000Y-26590000D03*
D21*
X67880000Y-28750000D03*
D22*
X70420000Y-28750000D03*
X72960000Y-28750000D03*
X75500000Y-28750000D03*
D13*
X48500000Y-36310000D03*
D14*
X48500000Y-28690000D03*
D13*
X35750000Y-51380000D03*
D14*
X35750000Y-59000000D03*
D23*
X40000000Y-36000000D03*
D24*
X38730000Y-36000000D03*
X37460000Y-36000000D03*
D15*
X86000000Y-67000000D03*
D13*
X42500000Y-30750000D03*
D14*
X34880000Y-30750000D03*
D25*
X63560000Y-29000000D03*
D26*
X55940000Y-29000000D03*
D27*
X27725000Y-60250000D03*
D28*
X27725000Y-57750000D03*
X27725000Y-55250000D03*
X27725000Y-52750000D03*
X27725000Y-50250000D03*
X27725000Y-47750000D03*
D29*
X86000000Y-60080000D03*
D30*
X86000000Y-55000000D03*
X86000000Y-49920000D03*
D11*
X68660000Y-58000000D03*
D12*
X61040000Y-58000000D03*
X50880000Y-58000000D03*
X48340000Y-58000000D03*
D27*
X27750000Y-40750000D03*
D28*
X27750000Y-38250000D03*
X27750000Y-35750000D03*
D13*
X35750000Y-61272500D03*
D14*
X35750000Y-68892500D03*
D13*
X45250000Y-36310000D03*
D14*
X45250000Y-28690000D03*
D23*
X79460000Y-39500000D03*
D24*
X80730000Y-39500000D03*
X82000000Y-39500000D03*
D16*
X42332500Y-57500000D03*
D17*
X42332500Y-56230000D03*
X42332500Y-54960000D03*
D13*
X80500000Y-34060000D03*
D14*
X80500000Y-26440000D03*
D15*
X29000000Y-29000000D03*
D13*
X35750000Y-40690000D03*
D14*
X35750000Y-48310000D03*
D13*
X63750000Y-36000000D03*
D14*
X56130000Y-36000000D03*
D31*
X72500000Y-36750000D03*
D13*
X72500000Y-39250000D03*
X51750000Y-28690000D03*
D14*
X51750000Y-36310000D03*
D16*
X42332500Y-47290000D03*
D17*
X42332500Y-46020000D03*
X42332500Y-44750000D03*
D15*
X29000000Y-67000000D03*
%LPD*%
M02*
